M48
;DRILL file {KiCad 5.0.2-bee76a0~70~ubuntu18.04.1} date Mon Dec 31 18:36:24 2018
;FORMAT={-:-/ absolute / inch / decimal}
FMAT,2
INCH,TZ
T1C0.0157
T2C0.0197
T3C0.0236
T4C0.0354
T5C0.0394
T6C0.0433
T7C0.0453
%
G90
G05
T1
X-0.66Y1.18
X-0.66Y1.09
X-0.66Y1.01
X-0.5727Y1.18
X-0.57Y1.09
X-0.57Y1.01
X-0.47Y1.18
X-0.47Y1.09
X-0.47Y1.01
X-0.425Y-1.18
X-0.35Y-1.0197
X-0.24Y1.09
X-0.1975Y-1.425
X-0.185Y-1.185
X-0.1592Y-0.1291
X-0.0883Y0.2807
X-0.0817Y-1.4514
X-0.04Y-0.567
X0.Y0.245
X0.0037Y0.3402
X0.045Y0.195
X0.06Y0.95
X0.0885Y0.3062
X0.1954Y-0.336
X0.2Y0.34
X0.2Y-0.78
X0.205Y-1.35
X0.21Y-0.24
X0.25Y-0.99
X0.2505Y-1.4264
X0.2577Y-0.6746
X0.27Y-1.68
X0.2927Y-0.8202
X0.2952Y0.2976
X0.32Y0.95
X0.324Y0.2237
X0.3248Y-1.2389
X0.33Y-0.945
X0.33Y-0.945
X0.33Y-0.945
X0.3414Y-0.7156
X0.385Y-0.9958
X0.405Y0.585
X0.4395Y-0.4625
X0.455Y-1.455
X0.48Y-1.185
X0.49Y-0.365
X0.5016Y-0.7318
X0.5194Y-0.794
X0.545Y0.3
X0.55Y0.08
X0.55Y-0.145
X0.5765Y-0.6892
X0.61Y-0.89
T4
X-0.05Y-1.35
X0.05Y-1.35
X-0.05Y-0.85
X0.05Y-0.85
T5
X-0.4984Y-0.2953
X-0.3984Y-0.2953
X-0.3016Y-0.2953
X-0.4984Y0.5047
X-0.3984Y0.5047
X-0.3016Y0.5047
X-0.05Y1.8
X-0.05Y1.7
X-0.05Y1.6
X-0.05Y1.5
X-0.05Y1.4
X0.05Y1.8
X0.05Y1.7
X0.05Y1.6
X0.05Y1.5
X0.05Y1.4
X-0.05Y0.83
X-0.05Y0.73
X-0.05Y0.63
X0.05Y0.83
X0.05Y0.73
X0.05Y0.63
X-0.4969Y1.3067
X-0.3969Y1.3067
X-0.3Y1.3067
X0.3016Y0.5047
X0.4016Y0.5047
X0.4984Y0.5047
T6
X-0.09Y-0.2241
X-0.09Y-0.48
X0.0872Y-0.2241
X0.0872Y-0.48
T2
X-0.2063Y-0.5783G85X-0.2063Y-0.6217
G05
X0.2063Y-0.6217G85X0.2063Y-0.5783
G05
X-0.2063Y-1.0783G85X-0.2063Y-1.1217
G05
X0.2063Y-1.1217G85X0.2063Y-1.0783
G05
X-0.2063Y-1.5783G85X-0.2063Y-1.6217
G05
X0.2063Y-1.6217G85X0.2063Y-1.5783
G05
T3
X-0.6551Y-0.5843G85X-0.6551Y-0.6157
G05
X-0.5331Y-0.5803G85X-0.5331Y-0.6197
G05
X0.5331Y-0.6197G85X0.5331Y-0.5803
G05
X0.6551Y-0.6157G85X0.6551Y-0.5843
G05
X-0.6551Y-1.0843G85X-0.6551Y-1.1157
G05
X-0.5331Y-1.0803G85X-0.5331Y-1.1197
G05
X0.5331Y-1.1197G85X0.5331Y-1.0803
G05
X0.6551Y-1.1157G85X0.6551Y-1.0843
G05
X-0.6551Y-1.5843G85X-0.6551Y-1.6157
G05
X-0.5331Y-1.5803G85X-0.5331Y-1.6197
G05
X0.5331Y-1.6197G85X0.5331Y-1.5803
G05
X0.6551Y-1.6157G85X0.6551Y-1.5843
G05
T7
X0.3921Y1.785G85X0.4079Y1.785
G05
X0.3921Y1.6G85X0.4079Y1.6
G05
X0.3921Y1.415G85X0.4079Y1.415
G05
X0.3921Y0.185G85X0.4079Y0.185
G05
X0.3921Y0.G85X0.4079Y0.
G05
X0.3921Y-0.185G85X0.4079Y-0.185
G05
T0
M30
