G04 #@! TF.GenerationSoftware,KiCad,Pcbnew,5.0.2-bee76a0~70~ubuntu18.04.1*
G04 #@! TF.CreationDate,2018-12-31T18:36:31+08:00*
G04 #@! TF.ProjectId,LFO,4c464f2e-6b69-4636-9164-5f7063625858,rev?*
G04 #@! TF.SameCoordinates,PX8d9ee20PY6422c40*
G04 #@! TF.FileFunction,Copper,L1,Top*
G04 #@! TF.FilePolarity,Positive*
%FSLAX46Y46*%
G04 Gerber Fmt 4.6, Leading zero omitted, Abs format (unit mm)*
G04 Created by KiCad (PCBNEW 5.0.2-bee76a0~70~ubuntu18.04.1) date Mon Dec 31 18:36:31 2018*
%MOMM*%
%LPD*%
G01*
G04 APERTURE LIST*
G04 #@! TA.AperFunction,ComponentPad*
%ADD10C,2.000000*%
G04 #@! TD*
G04 #@! TA.AperFunction,ComponentPad*
%ADD11R,1.700000X1.700000*%
G04 #@! TD*
G04 #@! TA.AperFunction,ComponentPad*
%ADD12O,1.700000X1.700000*%
G04 #@! TD*
G04 #@! TA.AperFunction,ComponentPad*
%ADD13C,1.800000*%
G04 #@! TD*
G04 #@! TA.AperFunction,ComponentPad*
%ADD14R,1.800000X1.800000*%
G04 #@! TD*
G04 #@! TA.AperFunction,WasherPad*
%ADD15O,3.000000X2.200000*%
G04 #@! TD*
G04 #@! TA.AperFunction,ComponentPad*
%ADD16O,1.500000X2.600000*%
G04 #@! TD*
G04 #@! TA.AperFunction,ComponentPad*
%ADD17O,1.600000X2.400000*%
G04 #@! TD*
G04 #@! TA.AperFunction,ComponentPad*
%ADD18O,1.600000X2.600000*%
G04 #@! TD*
G04 #@! TA.AperFunction,ComponentPad*
%ADD19O,2.900000X2.500000*%
G04 #@! TD*
G04 #@! TA.AperFunction,ViaPad*
%ADD20C,0.800000*%
G04 #@! TD*
G04 #@! TA.AperFunction,Conductor*
%ADD21C,0.250000*%
G04 #@! TD*
G04 #@! TA.AperFunction,Conductor*
%ADD22C,0.254000*%
G04 #@! TD*
G04 APERTURE END LIST*
D10*
G04 #@! TO.P,SW1,2*
G04 #@! TO.N,GND*
X2214000Y-12192000D03*
G04 #@! TO.P,SW1,1*
G04 #@! TO.N,RESET*
X-2286000Y-12192000D03*
G04 #@! TO.P,SW1,2*
G04 #@! TO.N,GND*
X2214000Y-5692000D03*
G04 #@! TO.P,SW1,1*
G04 #@! TO.N,RESET*
X-2286000Y-5692000D03*
G04 #@! TD*
D11*
G04 #@! TO.P,J7,1*
G04 #@! TO.N,MISO*
X-1270000Y16002000D03*
D12*
G04 #@! TO.P,J7,2*
G04 #@! TO.N,+5V*
X1270000Y16002000D03*
G04 #@! TO.P,J7,3*
G04 #@! TO.N,SCK*
X-1270000Y18542000D03*
G04 #@! TO.P,J7,4*
G04 #@! TO.N,MOSI*
X1270000Y18542000D03*
G04 #@! TO.P,J7,5*
G04 #@! TO.N,RESET*
X-1270000Y21082000D03*
G04 #@! TO.P,J7,6*
G04 #@! TO.N,GND*
X1270000Y21082000D03*
G04 #@! TD*
D11*
G04 #@! TO.P,J8,1*
G04 #@! TO.N,Net-(D5-Pad1)*
X-1270000Y35560000D03*
D12*
G04 #@! TO.P,J8,2*
X1270000Y35560000D03*
G04 #@! TO.P,J8,3*
G04 #@! TO.N,GND*
X-1270000Y38100000D03*
G04 #@! TO.P,J8,4*
X1270000Y38100000D03*
G04 #@! TO.P,J8,5*
X-1270000Y40640000D03*
G04 #@! TO.P,J8,6*
X1270000Y40640000D03*
G04 #@! TO.P,J8,7*
X-1270000Y43180000D03*
G04 #@! TO.P,J8,8*
X1270000Y43180000D03*
G04 #@! TO.P,J8,9*
G04 #@! TO.N,Net-(D3-Pad2)*
X-1270000Y45720000D03*
G04 #@! TO.P,J8,10*
X1270000Y45720000D03*
G04 #@! TD*
D13*
G04 #@! TO.P,D1,2*
G04 #@! TO.N,Net-(D1-Pad2)*
X1270000Y-21590000D03*
D14*
G04 #@! TO.P,D1,1*
G04 #@! TO.N,GND*
X-1270000Y-21590000D03*
G04 #@! TD*
G04 #@! TO.P,D2,1*
G04 #@! TO.N,GND*
X-1270000Y-34290000D03*
D13*
G04 #@! TO.P,D2,2*
G04 #@! TO.N,Net-(D2-Pad2)*
X1270000Y-34290000D03*
G04 #@! TD*
D15*
G04 #@! TO.P,RV1,*
G04 #@! TO.N,*
X-5320000Y40690000D03*
D13*
G04 #@! TO.P,RV1,3*
G04 #@! TO.N,GND*
X-12620000Y33189990D03*
G04 #@! TO.P,RV1,2*
G04 #@! TO.N,Net-(C5-Pad1)*
X-10080000Y33189990D03*
G04 #@! TO.P,RV1,1*
G04 #@! TO.N,+5V*
X-7620000Y33189990D03*
D15*
G04 #@! TO.P,RV1,*
G04 #@! TO.N,*
X-14920000Y40690000D03*
G04 #@! TD*
G04 #@! TO.P,RV2,*
G04 #@! TO.N,*
X-14960000Y0D03*
D13*
G04 #@! TO.P,RV2,1*
G04 #@! TO.N,+5V*
X-7660000Y-7500010D03*
G04 #@! TO.P,RV2,2*
G04 #@! TO.N,Net-(C8-Pad1)*
X-10120000Y-7500010D03*
G04 #@! TO.P,RV2,3*
G04 #@! TO.N,GND*
X-12660000Y-7500010D03*
D15*
G04 #@! TO.P,RV2,*
G04 #@! TO.N,*
X-5360000Y0D03*
G04 #@! TD*
G04 #@! TO.P,RV3,*
G04 #@! TO.N,*
X-5360000Y20320000D03*
D13*
G04 #@! TO.P,RV3,3*
G04 #@! TO.N,GND*
X-12660000Y12819990D03*
G04 #@! TO.P,RV3,2*
G04 #@! TO.N,Net-(R25-Pad1)*
X-10120000Y12819990D03*
G04 #@! TO.P,RV3,1*
G04 #@! TO.N,Net-(C15-Pad1)*
X-7660000Y12819990D03*
D15*
G04 #@! TO.P,RV3,*
G04 #@! TO.N,*
X-14960000Y20320000D03*
G04 #@! TD*
G04 #@! TO.P,RV4,*
G04 #@! TO.N,*
X5360000Y20320000D03*
D13*
G04 #@! TO.P,RV4,1*
G04 #@! TO.N,Net-(R37-Pad2)*
X12660000Y12819990D03*
G04 #@! TO.P,RV4,2*
G04 #@! TO.N,Net-(C22-Pad1)*
X10200000Y12819990D03*
G04 #@! TO.P,RV4,3*
G04 #@! TO.N,Net-(R32-Pad1)*
X7660000Y12819990D03*
D15*
G04 #@! TO.P,RV4,*
G04 #@! TO.N,*
X14960000Y20320000D03*
G04 #@! TD*
D16*
G04 #@! TO.P,J5,T*
G04 #@! TO.N,/DigitalIn/In*
X-5240000Y-40640000D03*
D17*
G04 #@! TO.P,J5,S*
G04 #@! TO.N,GND*
X-16640000Y-40640000D03*
D18*
G04 #@! TO.P,J5,TN*
G04 #@! TO.N,+5V*
X-13540000Y-40640000D03*
G04 #@! TD*
G04 #@! TO.P,J4,TN*
G04 #@! TO.N,Net-(J4-PadTN)*
X13540000Y-27940000D03*
D17*
G04 #@! TO.P,J4,S*
G04 #@! TO.N,GND*
X16640000Y-27940000D03*
D16*
G04 #@! TO.P,J4,T*
G04 #@! TO.N,/OutputStage/Inv*
X5240000Y-27940000D03*
G04 #@! TD*
G04 #@! TO.P,J3,T*
G04 #@! TO.N,/CVIn05.sch/In*
X-5240000Y-15240000D03*
D17*
G04 #@! TO.P,J3,S*
G04 #@! TO.N,GND*
X-16640000Y-15240000D03*
D18*
G04 #@! TO.P,J3,TN*
X-13540000Y-15240000D03*
G04 #@! TD*
G04 #@! TO.P,J2,TN*
G04 #@! TO.N,Net-(J2-PadTN)*
X13540000Y-15240000D03*
D17*
G04 #@! TO.P,J2,S*
G04 #@! TO.N,GND*
X16640000Y-15240000D03*
D16*
G04 #@! TO.P,J2,T*
G04 #@! TO.N,/OutputStage/Out*
X5240000Y-15240000D03*
G04 #@! TD*
G04 #@! TO.P,J1,T*
G04 #@! TO.N,/CVIn55/In*
X-5240000Y-27940000D03*
D17*
G04 #@! TO.P,J1,S*
G04 #@! TO.N,GND*
X-16640000Y-27940000D03*
D18*
G04 #@! TO.P,J1,TN*
X-13540000Y-27940000D03*
G04 #@! TD*
G04 #@! TO.P,J6,TN*
G04 #@! TO.N,Net-(J6-PadTN)*
X13540000Y-40640000D03*
D17*
G04 #@! TO.P,J6,S*
G04 #@! TO.N,GND*
X16640000Y-40640000D03*
D16*
G04 #@! TO.P,J6,T*
G04 #@! TO.N,/DigitalOut/Out*
X5240000Y-40640000D03*
G04 #@! TD*
D19*
G04 #@! TO.P,SW3,1*
G04 #@! TO.N,Net-(R41-Pad2)*
X10160000Y-4700000D03*
G04 #@! TO.P,SW3,3*
G04 #@! TO.N,Net-(R38-Pad2)*
X10160000Y4700000D03*
G04 #@! TO.P,SW3,2*
G04 #@! TO.N,SPDTS*
X10160000Y0D03*
G04 #@! TD*
G04 #@! TO.P,SW2,2*
G04 #@! TO.N,Net-(R38-Pad2)*
X10160000Y40640000D03*
G04 #@! TO.P,SW2,3*
G04 #@! TO.N,+5V*
X10160000Y45340000D03*
G04 #@! TO.P,SW2,1*
G04 #@! TO.N,Net-(R40-Pad2)*
X10160000Y35940000D03*
G04 #@! TD*
D20*
G04 #@! TO.N,SYNC*
X-5017300Y-36195000D03*
X4964200Y-8534200D03*
G04 #@! TO.N,LED1*
X-1015900Y-14402000D03*
X-2243000Y7129400D03*
G04 #@! TO.N,Net-(C16-Pad1)*
X9778500Y-25292500D03*
X6545900Y-17135700D03*
X6350000Y-25146000D03*
G04 #@! TO.N,Net-(R29-Pad1)*
X11163500Y-11748000D03*
X8249500Y-31467400D03*
X13192510Y-20168190D03*
G04 #@! TO.N,Net-(C16-Pad2)*
X8672300Y-18176200D03*
X7497800Y7558600D03*
X12192000Y-30099000D03*
G04 #@! TO.N,MOSI*
X94700Y8641400D03*
G04 #@! TO.N,Net-(C15-Pad1)*
X14642600Y-17506700D03*
X8230100Y5682100D03*
X12741600Y-18588400D03*
G04 #@! TO.N,VRef-10*
X6362500Y-36229900D03*
X-2076300Y-36866100D03*
G04 #@! TO.N,FREQ*
X-4043800Y-3280100D03*
X-10795000Y-29972000D03*
G04 #@! TO.N,MISO*
X2248400Y7778300D03*
G04 #@! TO.N,Net-(C22-Pad1)*
X7435400Y-20833000D03*
G04 #@! TO.N,Net-(C5-Pad1)*
X-8890000Y-25901300D03*
G04 #@! TO.N,GND*
X-11938000Y25654000D03*
X-14478000Y25654000D03*
X-16764000Y25654000D03*
X-11938000Y27686000D03*
X-14478000Y27686000D03*
X-16764000Y29972000D03*
X1143000Y4953000D03*
X0Y6223000D03*
X8128000Y24130000D03*
X1524000Y24130000D03*
X-14546000Y29972000D03*
X-16764000Y27686000D03*
X-11938000Y29972000D03*
X-6096000Y27686000D03*
X5080000Y8636000D03*
X11557000Y-36957000D03*
X5334000Y-6096000D03*
X12446000Y-9271000D03*
X-4699000Y-30099000D03*
X5207000Y-34290000D03*
X15494000Y-22606000D03*
X5080000Y-19812000D03*
X13843000Y7620000D03*
X13970000Y2032000D03*
X13970000Y-3683000D03*
X10287000Y14859000D03*
X6858000Y-42672000D03*
X8382000Y-24003000D03*
X8382000Y-24003000D03*
X8382000Y-24003000D03*
G04 #@! TD*
D21*
G04 #@! TO.N,SYNC*
X4964200Y-8534200D02*
X4107800Y-9390600D01*
X4107800Y-9390600D02*
X4107800Y-22962200D01*
X4107800Y-22962200D02*
X-5017300Y-32087300D01*
X-5017300Y-32087300D02*
X-5017300Y-36195000D01*
G04 #@! TO.N,LED1*
X-762000Y-4445000D02*
X-762000Y-14148100D01*
X-762000Y-14148100D02*
X-1015900Y-14402000D01*
X-2243000Y7129400D02*
X-2243000Y-2964000D01*
X-2243000Y-2964000D02*
X-762000Y-4445000D01*
G04 #@! TO.N,Net-(C16-Pad1)*
X6545900Y-23940200D02*
X6545900Y-17135700D01*
X6350000Y-25146000D02*
X6545900Y-23940200D01*
X7898200Y-25292500D02*
X9778500Y-25292500D01*
X6350000Y-25146000D02*
X7751700Y-25146000D01*
X7751700Y-25146000D02*
X7898200Y-25292500D01*
G04 #@! TO.N,Net-(R29-Pad1)*
X8697400Y-31467400D02*
X8249500Y-31467400D01*
X13758195Y-20168190D02*
X13192510Y-20168190D01*
X15977190Y-20168190D02*
X13758195Y-20168190D01*
X18669000Y-22860000D02*
X15977190Y-20168190D01*
X18669000Y-30607000D02*
X18669000Y-22860000D01*
X8249500Y-31467400D02*
X17808600Y-31467400D01*
X17808600Y-31467400D02*
X18669000Y-30607000D01*
X12792511Y-19768191D02*
X13192510Y-20168190D01*
X10604000Y-11748000D02*
X8128000Y-14224000D01*
X11163500Y-11748000D02*
X10604000Y-11748000D01*
X8128000Y-14224000D02*
X8128000Y-16129000D01*
X9388680Y-17389680D02*
X10414000Y-17389680D01*
X8128000Y-16129000D02*
X9388680Y-17389680D01*
X10414000Y-17389680D02*
X12792511Y-19768191D01*
G04 #@! TO.N,Net-(C16-Pad2)*
X8672300Y-17599400D02*
X8672300Y-18176200D01*
X7497800Y7558600D02*
X7497800Y-16424900D01*
X7497800Y-16424900D02*
X8672300Y-17599400D01*
X8672300Y-18176200D02*
X9794200Y-18176200D01*
X9794200Y-18176200D02*
X12511191Y-20893191D01*
X18161000Y-23368000D02*
X18161000Y-30099000D01*
X12511191Y-20893191D02*
X15686191Y-20893191D01*
X18161000Y-30099000D02*
X17399000Y-30861000D01*
X15686191Y-20893191D02*
X18161000Y-23368000D01*
X12388315Y-30861000D02*
X12700000Y-30861000D01*
X12192000Y-30664685D02*
X12388315Y-30861000D01*
X12192000Y-30099000D02*
X12192000Y-30664685D01*
X17399000Y-30861000D02*
X12700000Y-30861000D01*
G04 #@! TO.N,Net-(R38-Pad2)*
X9271000Y5589000D02*
X10160000Y4700000D01*
X9271000Y9398000D02*
X9271000Y5589000D01*
X10160000Y39064700D02*
X11936100Y37288600D01*
X11936100Y37288600D02*
X11936100Y34004300D01*
X11425500Y11552500D02*
X9271000Y9398000D01*
X11936100Y34004300D02*
X11425500Y33493700D01*
X10160000Y40640000D02*
X10160000Y39064700D01*
X11425500Y33493700D02*
X11425500Y11552500D01*
G04 #@! TO.N,MOSI*
X1270000Y17366700D02*
X902600Y17366700D01*
X902600Y17366700D02*
X94700Y16558800D01*
X94700Y16558800D02*
X94700Y8641400D01*
X1270000Y18542000D02*
X1270000Y17366700D01*
G04 #@! TO.N,Net-(C15-Pad1)*
X13164200Y-17506700D02*
X14642600Y-17506700D01*
X12741600Y-18588400D02*
X12741600Y-17929300D01*
X12741600Y-17929300D02*
X13164200Y-17506700D01*
X12192000Y-11750700D02*
X8230100Y-7788800D01*
X8230100Y-7788800D02*
X8230100Y5682100D01*
X13164200Y-17506700D02*
X12192000Y-16534500D01*
X12192000Y-16534500D02*
X12192000Y-11750700D01*
G04 #@! TO.N,VRef-10*
X-2076300Y-36866100D02*
X5726300Y-36866100D01*
X5726300Y-36866100D02*
X6362500Y-36229900D01*
G04 #@! TO.N,RESET*
X-1270000Y21082000D02*
X-1270000Y19906700D01*
X-1270000Y19906700D02*
X-1637300Y19906700D01*
X-1637300Y19906700D02*
X-2969500Y18574500D01*
X-2969500Y18574500D02*
X-2969500Y-5008500D01*
X-2969500Y-5008500D02*
X-2286000Y-5692000D01*
G04 #@! TO.N,FREQ*
X-4043800Y-23093800D02*
X-4043800Y-3280100D01*
X-7747000Y-26797000D02*
X-4043800Y-23093800D01*
X-7747000Y-28956000D02*
X-7747000Y-26797000D01*
X-10795000Y-29972000D02*
X-8763000Y-29972000D01*
X-8763000Y-29972000D02*
X-7747000Y-28956000D01*
G04 #@! TO.N,MISO*
X-1270000Y16002000D02*
X-1270000Y8978100D01*
X-1270000Y8978100D02*
X-70200Y7778300D01*
X-70200Y7778300D02*
X2248400Y7778300D01*
G04 #@! TO.N,Net-(C22-Pad1)*
X6772500Y8042500D02*
X10200000Y11470000D01*
X10200000Y11470000D02*
X10200000Y12820000D01*
X6772500Y-16336600D02*
X6772500Y8042500D01*
X6772600Y-16336600D02*
X6772500Y-16336600D01*
X7435400Y-20833000D02*
X7435400Y-16999400D01*
X7435400Y-16999400D02*
X6772600Y-16336600D01*
G04 #@! TO.N,Net-(C5-Pad1)*
X-7874000Y-16383000D02*
X-8890000Y-17399000D01*
X-7874000Y-14224000D02*
X-7874000Y-16383000D01*
X-8890000Y-17399000D02*
X-8890000Y-25901300D01*
X-8890000Y-13208000D02*
X-7874000Y-14224000D01*
X-10080000Y33190000D02*
X-8890000Y32000000D01*
X-8890000Y32000000D02*
X-8890000Y-13208000D01*
G04 #@! TD*
D22*
G04 #@! TO.N,GND*
G36*
X19086100Y-22202298D02*
X16567521Y-19683720D01*
X16525119Y-19620261D01*
X16273727Y-19452286D01*
X16052042Y-19408190D01*
X16052037Y-19408190D01*
X15977190Y-19393302D01*
X15902343Y-19408190D01*
X13896221Y-19408190D01*
X13778790Y-19290759D01*
X13583743Y-19209968D01*
X13619031Y-19174680D01*
X13776600Y-18794274D01*
X13776600Y-18382526D01*
X13728623Y-18266700D01*
X13938889Y-18266700D01*
X14056320Y-18384131D01*
X14436726Y-18541700D01*
X14848474Y-18541700D01*
X15228880Y-18384131D01*
X15520031Y-18092980D01*
X15677600Y-17712574D01*
X15677600Y-17300826D01*
X15520031Y-16920420D01*
X15228880Y-16629269D01*
X14848474Y-16471700D01*
X14776953Y-16471700D01*
X14891740Y-16299909D01*
X14975000Y-15881333D01*
X14975000Y-15367000D01*
X15205000Y-15367000D01*
X15205000Y-15767000D01*
X15362834Y-16306483D01*
X15715104Y-16744500D01*
X16208181Y-17014367D01*
X16290961Y-17031904D01*
X16513000Y-16909915D01*
X16513000Y-15367000D01*
X16767000Y-15367000D01*
X16767000Y-16909915D01*
X16989039Y-17031904D01*
X17071819Y-17014367D01*
X17564896Y-16744500D01*
X17917166Y-16306483D01*
X18075000Y-15767000D01*
X18075000Y-15367000D01*
X16767000Y-15367000D01*
X16513000Y-15367000D01*
X15205000Y-15367000D01*
X14975000Y-15367000D01*
X14975000Y-14713000D01*
X15205000Y-14713000D01*
X15205000Y-15113000D01*
X16513000Y-15113000D01*
X16513000Y-13570085D01*
X16767000Y-13570085D01*
X16767000Y-15113000D01*
X18075000Y-15113000D01*
X18075000Y-14713000D01*
X17917166Y-14173517D01*
X17564896Y-13735500D01*
X17071819Y-13465633D01*
X16989039Y-13448096D01*
X16767000Y-13570085D01*
X16513000Y-13570085D01*
X16290961Y-13448096D01*
X16208181Y-13465633D01*
X15715104Y-13735500D01*
X15362834Y-14173517D01*
X15205000Y-14713000D01*
X14975000Y-14713000D01*
X14975000Y-14598667D01*
X14891740Y-14180091D01*
X14574576Y-13705423D01*
X14099908Y-13388260D01*
X13540000Y-13276887D01*
X12980091Y-13388260D01*
X12952000Y-13407030D01*
X12952000Y-11825548D01*
X12966888Y-11750700D01*
X12952000Y-11675852D01*
X12952000Y-11675848D01*
X12907904Y-11454163D01*
X12907904Y-11454162D01*
X12782329Y-11266227D01*
X12739929Y-11202771D01*
X12676473Y-11160371D01*
X8990100Y-7473999D01*
X8990100Y-6319003D01*
X9224510Y-6475631D01*
X9774345Y-6585000D01*
X10545655Y-6585000D01*
X11095490Y-6475631D01*
X11719009Y-6059009D01*
X12135631Y-5435490D01*
X12281929Y-4700000D01*
X12135631Y-3964510D01*
X11719009Y-3340991D01*
X11095490Y-2924369D01*
X10545655Y-2815000D01*
X9774345Y-2815000D01*
X9224510Y-2924369D01*
X8990100Y-3080997D01*
X8990100Y-1619003D01*
X9224510Y-1775631D01*
X9774345Y-1885000D01*
X10545655Y-1885000D01*
X11095490Y-1775631D01*
X11719009Y-1359009D01*
X12135631Y-735490D01*
X12281929Y0D01*
X12135631Y735490D01*
X11719009Y1359009D01*
X11095490Y1775631D01*
X10545655Y1885000D01*
X9774345Y1885000D01*
X9224510Y1775631D01*
X8990100Y1619003D01*
X8990100Y3080997D01*
X9224510Y2924369D01*
X9774345Y2815000D01*
X10545655Y2815000D01*
X11095490Y2924369D01*
X11719009Y3340991D01*
X12135631Y3964510D01*
X12281929Y4700000D01*
X12135631Y5435490D01*
X11719009Y6059009D01*
X11095490Y6475631D01*
X10545655Y6585000D01*
X10031000Y6585000D01*
X10031000Y9083199D01*
X11909973Y10962171D01*
X11973429Y11004571D01*
X12141404Y11255963D01*
X12162972Y11364394D01*
X12354670Y11284990D01*
X12965330Y11284990D01*
X13529507Y11518680D01*
X13961310Y11950483D01*
X14195000Y12514660D01*
X14195000Y13125320D01*
X13961310Y13689497D01*
X13529507Y14121300D01*
X12965330Y14354990D01*
X12354670Y14354990D01*
X12185500Y14284917D01*
X12185500Y20320000D01*
X12791010Y20320000D01*
X12925666Y19643037D01*
X13309135Y19069135D01*
X13883037Y18685666D01*
X14389120Y18585000D01*
X15530880Y18585000D01*
X16036963Y18685666D01*
X16610865Y19069135D01*
X16994334Y19643037D01*
X17128990Y20320000D01*
X16994334Y20996963D01*
X16610865Y21570865D01*
X16036963Y21954334D01*
X15530880Y22055000D01*
X14389120Y22055000D01*
X13883037Y21954334D01*
X13309135Y21570865D01*
X12925666Y20996963D01*
X12791010Y20320000D01*
X12185500Y20320000D01*
X12185500Y33178898D01*
X12420575Y33413972D01*
X12484029Y33456371D01*
X12526427Y33519824D01*
X12526429Y33519826D01*
X12652003Y33707762D01*
X12652004Y33707763D01*
X12696100Y33929448D01*
X12696100Y33929452D01*
X12710988Y34004299D01*
X12696100Y34079146D01*
X12696100Y37213752D01*
X12710988Y37288600D01*
X12696100Y37363448D01*
X12696100Y37363452D01*
X12652004Y37585137D01*
X12652004Y37585138D01*
X12526429Y37773073D01*
X12484029Y37836529D01*
X12420573Y37878929D01*
X11299091Y39000411D01*
X11719009Y39280991D01*
X12135631Y39904510D01*
X12281929Y40640000D01*
X12135631Y41375490D01*
X11719009Y41999009D01*
X11095490Y42415631D01*
X10545655Y42525000D01*
X9774345Y42525000D01*
X9224510Y42415631D01*
X8600991Y41999009D01*
X8184369Y41375490D01*
X8038071Y40640000D01*
X8184369Y39904510D01*
X8600991Y39280991D01*
X9224510Y38864369D01*
X9433218Y38822854D01*
X9444097Y38768163D01*
X9612072Y38516771D01*
X9675528Y38474371D01*
X10324899Y37825000D01*
X9774345Y37825000D01*
X9224510Y37715631D01*
X8600991Y37299009D01*
X8184369Y36675490D01*
X8038071Y35940000D01*
X8184369Y35204510D01*
X8600991Y34580991D01*
X9224510Y34164369D01*
X9774345Y34055000D01*
X10545655Y34055000D01*
X11002963Y34145964D01*
X10941029Y34084030D01*
X10877571Y34041629D01*
X10709596Y33790236D01*
X10665500Y33568551D01*
X10665500Y33568547D01*
X10650612Y33493700D01*
X10665500Y33418853D01*
X10665501Y14288645D01*
X10505330Y14354990D01*
X9894670Y14354990D01*
X9330493Y14121300D01*
X8930000Y13720807D01*
X8529507Y14121300D01*
X7965330Y14354990D01*
X7354670Y14354990D01*
X6790493Y14121300D01*
X6358690Y13689497D01*
X6125000Y13125320D01*
X6125000Y12514660D01*
X6358690Y11950483D01*
X6790493Y11518680D01*
X7354670Y11284990D01*
X7965330Y11284990D01*
X8529507Y11518680D01*
X8930000Y11919173D01*
X9252186Y11596987D01*
X6288028Y8632829D01*
X6224572Y8590429D01*
X6182172Y8526973D01*
X6182171Y8526972D01*
X6056597Y8339037D01*
X5997612Y8042500D01*
X6012501Y7967648D01*
X6012500Y-13540444D01*
X5780399Y-13385359D01*
X5240000Y-13277867D01*
X4867800Y-13351902D01*
X4867800Y-9705402D01*
X5004002Y-9569200D01*
X5170074Y-9569200D01*
X5550480Y-9411631D01*
X5841631Y-9120480D01*
X5999200Y-8740074D01*
X5999200Y-8328326D01*
X5841631Y-7947920D01*
X5550480Y-7656769D01*
X5170074Y-7499200D01*
X4758326Y-7499200D01*
X4377920Y-7656769D01*
X4086769Y-7947920D01*
X3929200Y-8328326D01*
X3929200Y-8494398D01*
X3623329Y-8800269D01*
X3559871Y-8842671D01*
X3391896Y-9094064D01*
X3347800Y-9315749D01*
X3347800Y-9315753D01*
X3332912Y-9390600D01*
X3347800Y-9465447D01*
X3347800Y-10971780D01*
X3301206Y-10925186D01*
X3186926Y-11039466D01*
X3088264Y-10772613D01*
X2478539Y-10546092D01*
X1828540Y-10570144D01*
X1339736Y-10772613D01*
X1241073Y-11039468D01*
X2214000Y-12012395D01*
X2228143Y-11998253D01*
X2407748Y-12177858D01*
X2393605Y-12192000D01*
X2407748Y-12206143D01*
X2228143Y-12385748D01*
X2214000Y-12371605D01*
X1241073Y-13344532D01*
X1339736Y-13611387D01*
X1949461Y-13837908D01*
X2599460Y-13813856D01*
X3088264Y-13611387D01*
X3186926Y-13344534D01*
X3301206Y-13458814D01*
X3347800Y-13412220D01*
X3347801Y-22647397D01*
X-5501770Y-31496969D01*
X-5565229Y-31539371D01*
X-5733204Y-31790764D01*
X-5777300Y-32012449D01*
X-5777300Y-32012453D01*
X-5792188Y-32087300D01*
X-5777300Y-32162147D01*
X-5777299Y-35491288D01*
X-5894731Y-35608720D01*
X-6052300Y-35989126D01*
X-6052300Y-36400874D01*
X-5894731Y-36781280D01*
X-5603580Y-37072431D01*
X-5223174Y-37230000D01*
X-4811426Y-37230000D01*
X-4431020Y-37072431D01*
X-4139869Y-36781280D01*
X-4089727Y-36660226D01*
X-3111300Y-36660226D01*
X-3111300Y-37071974D01*
X-2953731Y-37452380D01*
X-2662580Y-37743531D01*
X-2282174Y-37901100D01*
X-1870426Y-37901100D01*
X-1490020Y-37743531D01*
X-1372589Y-37626100D01*
X5651453Y-37626100D01*
X5726300Y-37640988D01*
X5801147Y-37626100D01*
X5801152Y-37626100D01*
X6022837Y-37582004D01*
X6274229Y-37414029D01*
X6316631Y-37350570D01*
X6402301Y-37264900D01*
X6568374Y-37264900D01*
X6948780Y-37107331D01*
X7239931Y-36816180D01*
X7397500Y-36435774D01*
X7397500Y-36024026D01*
X7239931Y-35643620D01*
X6948780Y-35352469D01*
X6568374Y-35194900D01*
X6156626Y-35194900D01*
X5776220Y-35352469D01*
X5485069Y-35643620D01*
X5327500Y-36024026D01*
X5327500Y-36106100D01*
X-1372589Y-36106100D01*
X-1490020Y-35988669D01*
X-1870426Y-35831100D01*
X-2282174Y-35831100D01*
X-2662580Y-35988669D01*
X-2953731Y-36279820D01*
X-3111300Y-36660226D01*
X-4089727Y-36660226D01*
X-3982300Y-36400874D01*
X-3982300Y-35989126D01*
X-4139869Y-35608720D01*
X-4257300Y-35491289D01*
X-4257300Y-34575750D01*
X-2805000Y-34575750D01*
X-2805000Y-35316310D01*
X-2708327Y-35549699D01*
X-2529698Y-35728327D01*
X-2296309Y-35825000D01*
X-1555750Y-35825000D01*
X-1397000Y-35666250D01*
X-1397000Y-34417000D01*
X-2646250Y-34417000D01*
X-2805000Y-34575750D01*
X-4257300Y-34575750D01*
X-4257300Y-33263690D01*
X-2805000Y-33263690D01*
X-2805000Y-34004250D01*
X-2646250Y-34163000D01*
X-1397000Y-34163000D01*
X-1397000Y-32913750D01*
X-1143000Y-32913750D01*
X-1143000Y-34163000D01*
X-1123000Y-34163000D01*
X-1123000Y-34417000D01*
X-1143000Y-34417000D01*
X-1143000Y-35666250D01*
X-984250Y-35825000D01*
X-243691Y-35825000D01*
X-10302Y-35728327D01*
X168327Y-35549699D01*
X224139Y-35414956D01*
X400493Y-35591310D01*
X964670Y-35825000D01*
X1575330Y-35825000D01*
X2139507Y-35591310D01*
X2571310Y-35159507D01*
X2805000Y-34595330D01*
X2805000Y-33984670D01*
X2571310Y-33420493D01*
X2139507Y-32988690D01*
X1575330Y-32755000D01*
X964670Y-32755000D01*
X400493Y-32988690D01*
X224139Y-33165044D01*
X168327Y-33030301D01*
X-10302Y-32851673D01*
X-243691Y-32755000D01*
X-984250Y-32755000D01*
X-1143000Y-32913750D01*
X-1397000Y-32913750D01*
X-1555750Y-32755000D01*
X-2296309Y-32755000D01*
X-2529698Y-32851673D01*
X-2708327Y-33030301D01*
X-2805000Y-33263690D01*
X-4257300Y-33263690D01*
X-4257300Y-32402101D01*
X891207Y-27253594D01*
X3855000Y-27253594D01*
X3855000Y-28626407D01*
X3935359Y-29030400D01*
X4241472Y-29488529D01*
X4699601Y-29794641D01*
X5240000Y-29902133D01*
X5780400Y-29794641D01*
X6238529Y-29488529D01*
X6544641Y-29030400D01*
X6625000Y-28626407D01*
X6625000Y-27253593D01*
X6544641Y-26849600D01*
X6238528Y-26391471D01*
X5780399Y-26085359D01*
X5240000Y-25977867D01*
X4699600Y-26085359D01*
X4241471Y-26391472D01*
X3935359Y-26849601D01*
X3855000Y-27253594D01*
X891207Y-27253594D01*
X4592273Y-23552529D01*
X4655729Y-23510129D01*
X4823704Y-23258737D01*
X4867800Y-23037052D01*
X4867800Y-23037048D01*
X4882688Y-22962201D01*
X4867800Y-22887354D01*
X4867800Y-17128098D01*
X5240000Y-17202133D01*
X5510900Y-17148248D01*
X5510900Y-17341574D01*
X5668469Y-17721980D01*
X5785901Y-17839412D01*
X5785900Y-23878871D01*
X5714609Y-24317680D01*
X5472569Y-24559720D01*
X5315000Y-24940126D01*
X5315000Y-25351874D01*
X5472569Y-25732280D01*
X5763720Y-26023431D01*
X6144126Y-26181000D01*
X6555874Y-26181000D01*
X6936280Y-26023431D01*
X7053711Y-25906000D01*
X7448405Y-25906000D01*
X7601663Y-26008404D01*
X7823348Y-26052500D01*
X7823352Y-26052500D01*
X7898199Y-26067388D01*
X7973046Y-26052500D01*
X9074789Y-26052500D01*
X9192220Y-26169931D01*
X9320808Y-26223194D01*
X9103839Y-26295517D01*
X9046436Y-26334697D01*
X8411436Y-27096697D01*
X8383728Y-27157121D01*
X8256728Y-27919121D01*
X8256728Y-27960879D01*
X8383728Y-28722879D01*
X8411436Y-28783303D01*
X9046436Y-29545303D01*
X9068393Y-29566042D01*
X9113198Y-29587208D01*
X10129198Y-29841208D01*
X10180879Y-29843272D01*
X10942879Y-29716272D01*
X11003303Y-29688564D01*
X11765303Y-29053564D01*
X11786042Y-29031607D01*
X11807208Y-28986802D01*
X12061208Y-27970802D01*
X12063272Y-27919121D01*
X11936272Y-27157121D01*
X11908564Y-27096697D01*
X11273564Y-26334697D01*
X11251607Y-26313958D01*
X11206802Y-26292792D01*
X10434896Y-26099815D01*
X10655931Y-25878780D01*
X10813500Y-25498374D01*
X10813500Y-25086626D01*
X10655931Y-24706220D01*
X10364780Y-24415069D01*
X9984374Y-24257500D01*
X9572626Y-24257500D01*
X9192220Y-24415069D01*
X9074789Y-24532500D01*
X8201495Y-24532500D01*
X8048237Y-24430096D01*
X7826552Y-24386000D01*
X7826547Y-24386000D01*
X7751700Y-24371112D01*
X7676853Y-24386000D01*
X7243437Y-24386000D01*
X7293911Y-24075324D01*
X7305900Y-24015052D01*
X7305900Y-24001530D01*
X7308067Y-23988192D01*
X7305900Y-23926813D01*
X7305900Y-21868000D01*
X7641274Y-21868000D01*
X8021680Y-21710431D01*
X8312831Y-21419280D01*
X8470400Y-21038874D01*
X8470400Y-20627126D01*
X8312831Y-20246720D01*
X8195400Y-20129289D01*
X8195400Y-19098938D01*
X8466426Y-19211200D01*
X8878174Y-19211200D01*
X9258580Y-19053631D01*
X9376011Y-18936200D01*
X9479399Y-18936200D01*
X11920861Y-21377663D01*
X11963262Y-21441120D01*
X12214654Y-21609095D01*
X12436339Y-21653191D01*
X12436343Y-21653191D01*
X12511191Y-21668079D01*
X12586039Y-21653191D01*
X15371390Y-21653191D01*
X17401000Y-23682803D01*
X17401000Y-26345798D01*
X17071819Y-26165633D01*
X16989039Y-26148096D01*
X16767000Y-26270085D01*
X16767000Y-27813000D01*
X16787000Y-27813000D01*
X16787000Y-28067000D01*
X16767000Y-28067000D01*
X16767000Y-29609915D01*
X16989039Y-29731904D01*
X17071819Y-29714367D01*
X17401001Y-29534202D01*
X17401001Y-29784197D01*
X17084199Y-30101000D01*
X13227000Y-30101000D01*
X13227000Y-29893126D01*
X13203404Y-29836160D01*
X13540000Y-29903113D01*
X14099909Y-29791740D01*
X14574577Y-29474577D01*
X14891740Y-28999909D01*
X14975000Y-28581333D01*
X14975000Y-28067000D01*
X15205000Y-28067000D01*
X15205000Y-28467000D01*
X15362834Y-29006483D01*
X15715104Y-29444500D01*
X16208181Y-29714367D01*
X16290961Y-29731904D01*
X16513000Y-29609915D01*
X16513000Y-28067000D01*
X15205000Y-28067000D01*
X14975000Y-28067000D01*
X14975000Y-27413000D01*
X15205000Y-27413000D01*
X15205000Y-27813000D01*
X16513000Y-27813000D01*
X16513000Y-26270085D01*
X16290961Y-26148096D01*
X16208181Y-26165633D01*
X15715104Y-26435500D01*
X15362834Y-26873517D01*
X15205000Y-27413000D01*
X14975000Y-27413000D01*
X14975000Y-27298667D01*
X14891740Y-26880091D01*
X14574576Y-26405423D01*
X14099908Y-26088260D01*
X13540000Y-25976887D01*
X12980091Y-26088260D01*
X12505423Y-26405424D01*
X12188260Y-26880092D01*
X12105000Y-27298668D01*
X12105000Y-28581333D01*
X12188260Y-28999909D01*
X12231084Y-29064000D01*
X11986126Y-29064000D01*
X11605720Y-29221569D01*
X11314569Y-29512720D01*
X11157000Y-29893126D01*
X11157000Y-30304874D01*
X11314569Y-30685280D01*
X11336689Y-30707400D01*
X8953211Y-30707400D01*
X8835780Y-30589969D01*
X8455374Y-30432400D01*
X8043626Y-30432400D01*
X7663220Y-30589969D01*
X7372069Y-30881120D01*
X7214500Y-31261526D01*
X7214500Y-31673274D01*
X7372069Y-32053680D01*
X7663220Y-32344831D01*
X8043626Y-32502400D01*
X8455374Y-32502400D01*
X8835780Y-32344831D01*
X8953211Y-32227400D01*
X17733753Y-32227400D01*
X17808600Y-32242288D01*
X17883447Y-32227400D01*
X17883452Y-32227400D01*
X18105137Y-32183304D01*
X18356529Y-32015329D01*
X18398931Y-31951871D01*
X19086100Y-31264702D01*
X19086100Y-49268600D01*
X-19083900Y-49268600D01*
X-19083900Y-40767000D01*
X-18075000Y-40767000D01*
X-18075000Y-41167000D01*
X-17917166Y-41706483D01*
X-17564896Y-42144500D01*
X-17071819Y-42414367D01*
X-16989039Y-42431904D01*
X-16767000Y-42309915D01*
X-16767000Y-40767000D01*
X-16513000Y-40767000D01*
X-16513000Y-42309915D01*
X-16290961Y-42431904D01*
X-16208181Y-42414367D01*
X-15715104Y-42144500D01*
X-15362834Y-41706483D01*
X-15205000Y-41167000D01*
X-15205000Y-40767000D01*
X-16513000Y-40767000D01*
X-16767000Y-40767000D01*
X-18075000Y-40767000D01*
X-19083900Y-40767000D01*
X-19083900Y-40113000D01*
X-18075000Y-40113000D01*
X-18075000Y-40513000D01*
X-16767000Y-40513000D01*
X-16767000Y-38970085D01*
X-16513000Y-38970085D01*
X-16513000Y-40513000D01*
X-15205000Y-40513000D01*
X-15205000Y-40113000D01*
X-15238449Y-39998667D01*
X-14975000Y-39998667D01*
X-14975000Y-41281332D01*
X-14891740Y-41699908D01*
X-14574577Y-42174576D01*
X-14099909Y-42491740D01*
X-13540000Y-42603113D01*
X-12980092Y-42491740D01*
X-12505424Y-42174577D01*
X-12188260Y-41699909D01*
X-12105000Y-41281333D01*
X-12105000Y-40619121D01*
X-12063272Y-40619121D01*
X-12063272Y-40660879D01*
X-11936272Y-41422879D01*
X-11908564Y-41483303D01*
X-11273564Y-42245303D01*
X-11251607Y-42266042D01*
X-11206802Y-42287208D01*
X-10190802Y-42541208D01*
X-10139121Y-42543272D01*
X-9377121Y-42416272D01*
X-9316697Y-42388564D01*
X-8554697Y-41753564D01*
X-8533958Y-41731607D01*
X-8512792Y-41686802D01*
X-8258792Y-40670802D01*
X-8256728Y-40619121D01*
X-8367649Y-39953593D01*
X-6625000Y-39953593D01*
X-6625000Y-41326406D01*
X-6544641Y-41730399D01*
X-6238529Y-42188528D01*
X-5780400Y-42494641D01*
X-5240000Y-42602133D01*
X-4699601Y-42494641D01*
X-4241472Y-42188529D01*
X-3935359Y-41730400D01*
X-3855000Y-41326407D01*
X-3855000Y-39953594D01*
X3855000Y-39953594D01*
X3855000Y-41326407D01*
X3935359Y-41730400D01*
X4241472Y-42188529D01*
X4699601Y-42494641D01*
X5240000Y-42602133D01*
X5780400Y-42494641D01*
X6238529Y-42188529D01*
X6544641Y-41730400D01*
X6625000Y-41326407D01*
X6625000Y-40619121D01*
X8256728Y-40619121D01*
X8256728Y-40660879D01*
X8383728Y-41422879D01*
X8411436Y-41483303D01*
X9046436Y-42245303D01*
X9068393Y-42266042D01*
X9113198Y-42287208D01*
X10129198Y-42541208D01*
X10180879Y-42543272D01*
X10942879Y-42416272D01*
X11003303Y-42388564D01*
X11765303Y-41753564D01*
X11786042Y-41731607D01*
X11807208Y-41686802D01*
X12061208Y-40670802D01*
X12063272Y-40619121D01*
X11959864Y-39998668D01*
X12105000Y-39998668D01*
X12105000Y-41281333D01*
X12188260Y-41699909D01*
X12505424Y-42174577D01*
X12980092Y-42491740D01*
X13540000Y-42603113D01*
X14099909Y-42491740D01*
X14574577Y-42174577D01*
X14891740Y-41699909D01*
X14975000Y-41281333D01*
X14975000Y-40767000D01*
X15205000Y-40767000D01*
X15205000Y-41167000D01*
X15362834Y-41706483D01*
X15715104Y-42144500D01*
X16208181Y-42414367D01*
X16290961Y-42431904D01*
X16513000Y-42309915D01*
X16513000Y-40767000D01*
X16767000Y-40767000D01*
X16767000Y-42309915D01*
X16989039Y-42431904D01*
X17071819Y-42414367D01*
X17564896Y-42144500D01*
X17917166Y-41706483D01*
X18075000Y-41167000D01*
X18075000Y-40767000D01*
X16767000Y-40767000D01*
X16513000Y-40767000D01*
X15205000Y-40767000D01*
X14975000Y-40767000D01*
X14975000Y-40113000D01*
X15205000Y-40113000D01*
X15205000Y-40513000D01*
X16513000Y-40513000D01*
X16513000Y-38970085D01*
X16767000Y-38970085D01*
X16767000Y-40513000D01*
X18075000Y-40513000D01*
X18075000Y-40113000D01*
X17917166Y-39573517D01*
X17564896Y-39135500D01*
X17071819Y-38865633D01*
X16989039Y-38848096D01*
X16767000Y-38970085D01*
X16513000Y-38970085D01*
X16290961Y-38848096D01*
X16208181Y-38865633D01*
X15715104Y-39135500D01*
X15362834Y-39573517D01*
X15205000Y-40113000D01*
X14975000Y-40113000D01*
X14975000Y-39998667D01*
X14891740Y-39580091D01*
X14574576Y-39105423D01*
X14099908Y-38788260D01*
X13540000Y-38676887D01*
X12980091Y-38788260D01*
X12505423Y-39105424D01*
X12188260Y-39580092D01*
X12105000Y-39998668D01*
X11959864Y-39998668D01*
X11936272Y-39857121D01*
X11908564Y-39796697D01*
X11273564Y-39034697D01*
X11251607Y-39013958D01*
X11206802Y-38992792D01*
X10190802Y-38738792D01*
X10160000Y-38735000D01*
X9906000Y-38735000D01*
X9865839Y-38741517D01*
X9103839Y-38995517D01*
X9046436Y-39034697D01*
X8411436Y-39796697D01*
X8383728Y-39857121D01*
X8256728Y-40619121D01*
X6625000Y-40619121D01*
X6625000Y-39953593D01*
X6544641Y-39549600D01*
X6238528Y-39091471D01*
X5780399Y-38785359D01*
X5240000Y-38677867D01*
X4699600Y-38785359D01*
X4241471Y-39091472D01*
X3935359Y-39549601D01*
X3855000Y-39953594D01*
X-3855000Y-39953594D01*
X-3855000Y-39953593D01*
X-3935359Y-39549600D01*
X-4241471Y-39091471D01*
X-4699600Y-38785359D01*
X-5240000Y-38677867D01*
X-5780399Y-38785359D01*
X-6238528Y-39091471D01*
X-6544641Y-39549600D01*
X-6625000Y-39953593D01*
X-8367649Y-39953593D01*
X-8383728Y-39857121D01*
X-8411436Y-39796697D01*
X-9046436Y-39034697D01*
X-9068393Y-39013958D01*
X-9113198Y-38992792D01*
X-10129198Y-38738792D01*
X-10160000Y-38735000D01*
X-10414000Y-38735000D01*
X-10454161Y-38741517D01*
X-11216161Y-38995517D01*
X-11273564Y-39034697D01*
X-11908564Y-39796697D01*
X-11936272Y-39857121D01*
X-12063272Y-40619121D01*
X-12105000Y-40619121D01*
X-12105000Y-39998667D01*
X-12188260Y-39580091D01*
X-12505423Y-39105423D01*
X-12980091Y-38788260D01*
X-13540000Y-38676887D01*
X-14099908Y-38788260D01*
X-14574576Y-39105423D01*
X-14891740Y-39580091D01*
X-14975000Y-39998667D01*
X-15238449Y-39998667D01*
X-15362834Y-39573517D01*
X-15715104Y-39135500D01*
X-16208181Y-38865633D01*
X-16290961Y-38848096D01*
X-16513000Y-38970085D01*
X-16767000Y-38970085D01*
X-16989039Y-38848096D01*
X-17071819Y-38865633D01*
X-17564896Y-39135500D01*
X-17917166Y-39573517D01*
X-18075000Y-40113000D01*
X-19083900Y-40113000D01*
X-19083900Y-28067000D01*
X-18075000Y-28067000D01*
X-18075000Y-28467000D01*
X-17917166Y-29006483D01*
X-17564896Y-29444500D01*
X-17071819Y-29714367D01*
X-16989039Y-29731904D01*
X-16767000Y-29609915D01*
X-16767000Y-28067000D01*
X-16513000Y-28067000D01*
X-16513000Y-29609915D01*
X-16290961Y-29731904D01*
X-16208181Y-29714367D01*
X-15715104Y-29444500D01*
X-15362834Y-29006483D01*
X-15205000Y-28467000D01*
X-15205000Y-28067000D01*
X-14975000Y-28067000D01*
X-14975000Y-28567000D01*
X-14817166Y-29106483D01*
X-14464896Y-29544500D01*
X-13971819Y-29814367D01*
X-13889039Y-29831904D01*
X-13667000Y-29709915D01*
X-13667000Y-28067000D01*
X-13413000Y-28067000D01*
X-13413000Y-29709915D01*
X-13190961Y-29831904D01*
X-13108181Y-29814367D01*
X-12615104Y-29544500D01*
X-12262834Y-29106483D01*
X-12105000Y-28567000D01*
X-12105000Y-28067000D01*
X-13413000Y-28067000D01*
X-13667000Y-28067000D01*
X-14975000Y-28067000D01*
X-15205000Y-28067000D01*
X-16513000Y-28067000D01*
X-16767000Y-28067000D01*
X-18075000Y-28067000D01*
X-19083900Y-28067000D01*
X-19083900Y-27413000D01*
X-18075000Y-27413000D01*
X-18075000Y-27813000D01*
X-16767000Y-27813000D01*
X-16767000Y-26270085D01*
X-16513000Y-26270085D01*
X-16513000Y-27813000D01*
X-15205000Y-27813000D01*
X-15205000Y-27413000D01*
X-15234256Y-27313000D01*
X-14975000Y-27313000D01*
X-14975000Y-27813000D01*
X-13667000Y-27813000D01*
X-13667000Y-26170085D01*
X-13413000Y-26170085D01*
X-13413000Y-27813000D01*
X-12105000Y-27813000D01*
X-12105000Y-27313000D01*
X-12262834Y-26773517D01*
X-12615104Y-26335500D01*
X-13108181Y-26065633D01*
X-13190961Y-26048096D01*
X-13413000Y-26170085D01*
X-13667000Y-26170085D01*
X-13889039Y-26048096D01*
X-13971819Y-26065633D01*
X-14464896Y-26335500D01*
X-14817166Y-26773517D01*
X-14975000Y-27313000D01*
X-15234256Y-27313000D01*
X-15362834Y-26873517D01*
X-15715104Y-26435500D01*
X-16208181Y-26165633D01*
X-16290961Y-26148096D01*
X-16513000Y-26270085D01*
X-16767000Y-26270085D01*
X-16989039Y-26148096D01*
X-17071819Y-26165633D01*
X-17564896Y-26435500D01*
X-17917166Y-26873517D01*
X-18075000Y-27413000D01*
X-19083900Y-27413000D01*
X-19083900Y-15367000D01*
X-18075000Y-15367000D01*
X-18075000Y-15767000D01*
X-17917166Y-16306483D01*
X-17564896Y-16744500D01*
X-17071819Y-17014367D01*
X-16989039Y-17031904D01*
X-16767000Y-16909915D01*
X-16767000Y-15367000D01*
X-16513000Y-15367000D01*
X-16513000Y-16909915D01*
X-16290961Y-17031904D01*
X-16208181Y-17014367D01*
X-15715104Y-16744500D01*
X-15362834Y-16306483D01*
X-15205000Y-15767000D01*
X-15205000Y-15367000D01*
X-14975000Y-15367000D01*
X-14975000Y-15867000D01*
X-14817166Y-16406483D01*
X-14464896Y-16844500D01*
X-13971819Y-17114367D01*
X-13889039Y-17131904D01*
X-13667000Y-17009915D01*
X-13667000Y-15367000D01*
X-13413000Y-15367000D01*
X-13413000Y-17009915D01*
X-13190961Y-17131904D01*
X-13108181Y-17114367D01*
X-12615104Y-16844500D01*
X-12262834Y-16406483D01*
X-12105000Y-15867000D01*
X-12105000Y-15367000D01*
X-13413000Y-15367000D01*
X-13667000Y-15367000D01*
X-14975000Y-15367000D01*
X-15205000Y-15367000D01*
X-16513000Y-15367000D01*
X-16767000Y-15367000D01*
X-18075000Y-15367000D01*
X-19083900Y-15367000D01*
X-19083900Y-14713000D01*
X-18075000Y-14713000D01*
X-18075000Y-15113000D01*
X-16767000Y-15113000D01*
X-16767000Y-13570085D01*
X-16513000Y-13570085D01*
X-16513000Y-15113000D01*
X-15205000Y-15113000D01*
X-15205000Y-14713000D01*
X-15234256Y-14613000D01*
X-14975000Y-14613000D01*
X-14975000Y-15113000D01*
X-13667000Y-15113000D01*
X-13667000Y-13470085D01*
X-13413000Y-13470085D01*
X-13413000Y-15113000D01*
X-12105000Y-15113000D01*
X-12105000Y-14613000D01*
X-12262834Y-14073517D01*
X-12615104Y-13635500D01*
X-13108181Y-13365633D01*
X-13190961Y-13348096D01*
X-13413000Y-13470085D01*
X-13667000Y-13470085D01*
X-13889039Y-13348096D01*
X-13971819Y-13365633D01*
X-14464896Y-13635500D01*
X-14817166Y-14073517D01*
X-14975000Y-14613000D01*
X-15234256Y-14613000D01*
X-15362834Y-14173517D01*
X-15715104Y-13735500D01*
X-16208181Y-13465633D01*
X-16290961Y-13448096D01*
X-16513000Y-13570085D01*
X-16767000Y-13570085D01*
X-16989039Y-13448096D01*
X-17071819Y-13465633D01*
X-17564896Y-13735500D01*
X-17917166Y-14173517D01*
X-18075000Y-14713000D01*
X-19083900Y-14713000D01*
X-19083900Y-8580169D01*
X-13560554Y-8580169D01*
X-13474148Y-8836653D01*
X-12900664Y-9046468D01*
X-12290540Y-9020849D01*
X-11845852Y-8836653D01*
X-11759446Y-8580169D01*
X-12660000Y-7679615D01*
X-13560554Y-8580169D01*
X-19083900Y-8580169D01*
X-19083900Y-7259346D01*
X-14206458Y-7259346D01*
X-14180839Y-7869470D01*
X-13996643Y-8314158D01*
X-13740159Y-8400564D01*
X-12839605Y-7500010D01*
X-13740159Y-6599456D01*
X-13996643Y-6685862D01*
X-14206458Y-7259346D01*
X-19083900Y-7259346D01*
X-19083900Y-6419851D01*
X-13560554Y-6419851D01*
X-12660000Y-7320405D01*
X-11759446Y-6419851D01*
X-11845852Y-6163367D01*
X-12419336Y-5953552D01*
X-13029460Y-5979171D01*
X-13474148Y-6163367D01*
X-13560554Y-6419851D01*
X-19083900Y-6419851D01*
X-19083900Y0D01*
X-17128990Y0D01*
X-16994334Y-676963D01*
X-16610865Y-1250865D01*
X-16036963Y-1634334D01*
X-15530880Y-1735000D01*
X-14389120Y-1735000D01*
X-13883037Y-1634334D01*
X-13309135Y-1250865D01*
X-12925666Y-676963D01*
X-12791010Y0D01*
X-12925666Y676963D01*
X-13309135Y1250865D01*
X-13883037Y1634334D01*
X-14389120Y1735000D01*
X-15530880Y1735000D01*
X-16036963Y1634334D01*
X-16610865Y1250865D01*
X-16994334Y676963D01*
X-17128990Y0D01*
X-19083900Y0D01*
X-19083900Y11739831D01*
X-13560554Y11739831D01*
X-13474148Y11483347D01*
X-12900664Y11273532D01*
X-12290540Y11299151D01*
X-11845852Y11483347D01*
X-11759446Y11739831D01*
X-12660000Y12640385D01*
X-13560554Y11739831D01*
X-19083900Y11739831D01*
X-19083900Y13060654D01*
X-14206458Y13060654D01*
X-14180839Y12450530D01*
X-13996643Y12005842D01*
X-13740159Y11919436D01*
X-12839605Y12819990D01*
X-12480395Y12819990D01*
X-11579841Y11919436D01*
X-11429438Y11970105D01*
X-11421310Y11950483D01*
X-10989507Y11518680D01*
X-10425330Y11284990D01*
X-9814670Y11284990D01*
X-9650000Y11353199D01*
X-9649999Y-6033219D01*
X-9814670Y-5965010D01*
X-10425330Y-5965010D01*
X-10989507Y-6198700D01*
X-11421310Y-6630503D01*
X-11429438Y-6650125D01*
X-11579841Y-6599456D01*
X-12480395Y-7500010D01*
X-11579841Y-8400564D01*
X-11429438Y-8349895D01*
X-11421310Y-8369517D01*
X-10989507Y-8801320D01*
X-10425330Y-9035010D01*
X-9814670Y-9035010D01*
X-9649999Y-8966801D01*
X-9649999Y-13133148D01*
X-9664888Y-13208000D01*
X-9613213Y-13467788D01*
X-10129198Y-13338792D01*
X-10160000Y-13335000D01*
X-10414000Y-13335000D01*
X-10454161Y-13341517D01*
X-11216161Y-13595517D01*
X-11273564Y-13634697D01*
X-11908564Y-14396697D01*
X-11936272Y-14457121D01*
X-12063272Y-15219121D01*
X-12063272Y-15260879D01*
X-11936272Y-16022879D01*
X-11908564Y-16083303D01*
X-11273564Y-16845303D01*
X-11251607Y-16866042D01*
X-11206802Y-16887208D01*
X-10190802Y-17141208D01*
X-10139121Y-17143272D01*
X-9569766Y-17048379D01*
X-9605904Y-17102464D01*
X-9650000Y-17324149D01*
X-9650000Y-17324153D01*
X-9664888Y-17399000D01*
X-9650000Y-17473847D01*
X-9649999Y-25197588D01*
X-9767431Y-25315020D01*
X-9925000Y-25695426D01*
X-9925000Y-26089842D01*
X-10129198Y-26038792D01*
X-10160000Y-26035000D01*
X-10414000Y-26035000D01*
X-10454161Y-26041517D01*
X-11216161Y-26295517D01*
X-11273564Y-26334697D01*
X-11908564Y-27096697D01*
X-11936272Y-27157121D01*
X-12063272Y-27919121D01*
X-12063272Y-27960879D01*
X-11936272Y-28722879D01*
X-11908564Y-28783303D01*
X-11527405Y-29240694D01*
X-11672431Y-29385720D01*
X-11830000Y-29766126D01*
X-11830000Y-30177874D01*
X-11672431Y-30558280D01*
X-11381280Y-30849431D01*
X-11000874Y-31007000D01*
X-10589126Y-31007000D01*
X-10208720Y-30849431D01*
X-10091289Y-30732000D01*
X-8837847Y-30732000D01*
X-8763000Y-30746888D01*
X-8688153Y-30732000D01*
X-8688148Y-30732000D01*
X-8466463Y-30687904D01*
X-8215071Y-30519929D01*
X-8172669Y-30456470D01*
X-7262527Y-29546329D01*
X-7199071Y-29503929D01*
X-7031096Y-29252537D01*
X-6987000Y-29030852D01*
X-6987000Y-29030847D01*
X-6972112Y-28956000D01*
X-6987000Y-28881153D01*
X-6987000Y-27253593D01*
X-6625000Y-27253593D01*
X-6625000Y-28626406D01*
X-6544641Y-29030399D01*
X-6238529Y-29488528D01*
X-5780400Y-29794641D01*
X-5240000Y-29902133D01*
X-4699601Y-29794641D01*
X-4241472Y-29488529D01*
X-3935359Y-29030400D01*
X-3855000Y-28626407D01*
X-3855000Y-27253593D01*
X-3935359Y-26849600D01*
X-4241471Y-26391471D01*
X-4699600Y-26085359D01*
X-5240000Y-25977867D01*
X-5780399Y-26085359D01*
X-6238528Y-26391471D01*
X-6544641Y-26849600D01*
X-6625000Y-27253593D01*
X-6987000Y-27253593D01*
X-6987000Y-27111801D01*
X-3559327Y-23684129D01*
X-3495871Y-23641729D01*
X-3423018Y-23532697D01*
X-3327896Y-23390338D01*
X-3308564Y-23293148D01*
X-3283800Y-23168652D01*
X-3283800Y-23168648D01*
X-3268912Y-23093800D01*
X-3283800Y-23018952D01*
X-3283800Y-21875750D01*
X-2805000Y-21875750D01*
X-2805000Y-22616310D01*
X-2708327Y-22849699D01*
X-2529698Y-23028327D01*
X-2296309Y-23125000D01*
X-1555750Y-23125000D01*
X-1397000Y-22966250D01*
X-1397000Y-21717000D01*
X-2646250Y-21717000D01*
X-2805000Y-21875750D01*
X-3283800Y-21875750D01*
X-3283800Y-20563690D01*
X-2805000Y-20563690D01*
X-2805000Y-21304250D01*
X-2646250Y-21463000D01*
X-1397000Y-21463000D01*
X-1397000Y-20213750D01*
X-1143000Y-20213750D01*
X-1143000Y-21463000D01*
X-1123000Y-21463000D01*
X-1123000Y-21717000D01*
X-1143000Y-21717000D01*
X-1143000Y-22966250D01*
X-984250Y-23125000D01*
X-243691Y-23125000D01*
X-10302Y-23028327D01*
X168327Y-22849699D01*
X224139Y-22714956D01*
X400493Y-22891310D01*
X964670Y-23125000D01*
X1575330Y-23125000D01*
X2139507Y-22891310D01*
X2571310Y-22459507D01*
X2805000Y-21895330D01*
X2805000Y-21284670D01*
X2571310Y-20720493D01*
X2139507Y-20288690D01*
X1575330Y-20055000D01*
X964670Y-20055000D01*
X400493Y-20288690D01*
X224139Y-20465044D01*
X168327Y-20330301D01*
X-10302Y-20151673D01*
X-243691Y-20055000D01*
X-984250Y-20055000D01*
X-1143000Y-20213750D01*
X-1397000Y-20213750D01*
X-1555750Y-20055000D01*
X-2296309Y-20055000D01*
X-2529698Y-20151673D01*
X-2708327Y-20330301D01*
X-2805000Y-20563690D01*
X-3283800Y-20563690D01*
X-3283800Y-13506439D01*
X-3212153Y-13578086D01*
X-2611222Y-13827000D01*
X-1960778Y-13827000D01*
X-1864895Y-13787284D01*
X-1893331Y-13815720D01*
X-2050900Y-14196126D01*
X-2050900Y-14607874D01*
X-1893331Y-14988280D01*
X-1602180Y-15279431D01*
X-1221774Y-15437000D01*
X-810026Y-15437000D01*
X-429620Y-15279431D01*
X-138469Y-14988280D01*
X19100Y-14607874D01*
X19100Y-14196126D01*
X8450Y-14170414D01*
X12888Y-14148100D01*
X-2000Y-14073252D01*
X-2000Y-11927461D01*
X568092Y-11927461D01*
X592144Y-12577460D01*
X794613Y-13066264D01*
X1061468Y-13164927D01*
X2034395Y-12192000D01*
X1061468Y-11219073D01*
X794613Y-11317736D01*
X568092Y-11927461D01*
X-2000Y-11927461D01*
X-2000Y-6844532D01*
X1241073Y-6844532D01*
X1339736Y-7111387D01*
X1949461Y-7337908D01*
X2599460Y-7313856D01*
X3088264Y-7111387D01*
X3186927Y-6844532D01*
X2214000Y-5871605D01*
X1241073Y-6844532D01*
X-2000Y-6844532D01*
X-2000Y-5427461D01*
X568092Y-5427461D01*
X592144Y-6077460D01*
X794613Y-6566264D01*
X1061468Y-6664927D01*
X2034395Y-5692000D01*
X2393605Y-5692000D01*
X3366532Y-6664927D01*
X3633387Y-6566264D01*
X3859908Y-5956539D01*
X3835856Y-5306540D01*
X3633387Y-4817736D01*
X3366532Y-4719073D01*
X2393605Y-5692000D01*
X2034395Y-5692000D01*
X1061468Y-4719073D01*
X794613Y-4817736D01*
X568092Y-5427461D01*
X-2000Y-5427461D01*
X-2000Y-4539468D01*
X1241073Y-4539468D01*
X2214000Y-5512395D01*
X3186927Y-4539468D01*
X3088264Y-4272613D01*
X2478539Y-4046092D01*
X1828540Y-4070144D01*
X1339736Y-4272613D01*
X1241073Y-4539468D01*
X-2000Y-4539468D01*
X-2000Y-4519846D01*
X12888Y-4444999D01*
X-2000Y-4370152D01*
X-2000Y-4370148D01*
X-46096Y-4148463D01*
X-214071Y-3897071D01*
X-277527Y-3854671D01*
X-1483000Y-2649199D01*
X-1483000Y6425689D01*
X-1365569Y6543120D01*
X-1208000Y6923526D01*
X-1208000Y7335274D01*
X-1365569Y7715680D01*
X-1656720Y8006831D01*
X-2037126Y8164400D01*
X-2209500Y8164400D01*
X-2209500Y14522362D01*
X-2120000Y14504560D01*
X-2030000Y14504560D01*
X-2029999Y9052952D01*
X-2044888Y8978100D01*
X-2029999Y8903248D01*
X-2001188Y8758404D01*
X-1985903Y8681563D01*
X-1882608Y8526972D01*
X-1817928Y8430171D01*
X-1754472Y8387771D01*
X-660527Y7293824D01*
X-618129Y7230371D01*
X-554676Y7187973D01*
X-554674Y7187971D01*
X-429298Y7104198D01*
X-366737Y7062396D01*
X-145052Y7018300D01*
X-145048Y7018300D01*
X-70201Y7003412D01*
X4646Y7018300D01*
X1544689Y7018300D01*
X1662120Y6900869D01*
X2042526Y6743300D01*
X2454274Y6743300D01*
X2834680Y6900869D01*
X3125831Y7192020D01*
X3283400Y7572426D01*
X3283400Y7984174D01*
X3125831Y8364580D01*
X2834680Y8655731D01*
X2454274Y8813300D01*
X2042526Y8813300D01*
X1662120Y8655731D01*
X1544689Y8538300D01*
X1129700Y8538300D01*
X1129700Y8847274D01*
X972131Y9227680D01*
X854700Y9345111D01*
X854700Y14570516D01*
X1123744Y14517000D01*
X1416256Y14517000D01*
X1849418Y14603161D01*
X2340625Y14931375D01*
X2668839Y15422582D01*
X2784092Y16002000D01*
X2668839Y16581418D01*
X2340625Y17072625D01*
X2042239Y17272000D01*
X2340625Y17471375D01*
X2668839Y17962582D01*
X2784092Y18542000D01*
X2668839Y19121418D01*
X2340625Y19612625D01*
X2021522Y19825843D01*
X2151358Y19886817D01*
X2541645Y20315076D01*
X2543684Y20320000D01*
X3191010Y20320000D01*
X3325666Y19643037D01*
X3709135Y19069135D01*
X4283037Y18685666D01*
X4789120Y18585000D01*
X5930880Y18585000D01*
X6436963Y18685666D01*
X7010865Y19069135D01*
X7394334Y19643037D01*
X7528990Y20320000D01*
X7394334Y20996963D01*
X7010865Y21570865D01*
X6436963Y21954334D01*
X5930880Y22055000D01*
X4789120Y22055000D01*
X4283037Y21954334D01*
X3709135Y21570865D01*
X3325666Y20996963D01*
X3191010Y20320000D01*
X2543684Y20320000D01*
X2711476Y20725110D01*
X2590155Y20955000D01*
X1397000Y20955000D01*
X1397000Y20935000D01*
X1143000Y20935000D01*
X1143000Y20955000D01*
X1123000Y20955000D01*
X1123000Y21209000D01*
X1143000Y21209000D01*
X1143000Y22402819D01*
X1397000Y22402819D01*
X1397000Y21209000D01*
X2590155Y21209000D01*
X2711476Y21438890D01*
X2541645Y21848924D01*
X2151358Y22277183D01*
X1626892Y22523486D01*
X1397000Y22402819D01*
X1143000Y22402819D01*
X913108Y22523486D01*
X388642Y22277183D01*
X1353Y21852214D01*
X-199375Y22152625D01*
X-690582Y22480839D01*
X-1123744Y22567000D01*
X-1416256Y22567000D01*
X-1849418Y22480839D01*
X-2340625Y22152625D01*
X-2668839Y21661418D01*
X-2784092Y21082000D01*
X-2668839Y20502582D01*
X-2447491Y20171311D01*
X-3453970Y19164831D01*
X-3517429Y19122429D01*
X-3685404Y18871036D01*
X-3729500Y18649351D01*
X-3729500Y18649347D01*
X-3744388Y18574500D01*
X-3729500Y18499653D01*
X-3729499Y1264472D01*
X-4283037Y1634334D01*
X-4789120Y1735000D01*
X-5930880Y1735000D01*
X-6436963Y1634334D01*
X-7010865Y1250865D01*
X-7394334Y676963D01*
X-7528990Y0D01*
X-7394334Y-676963D01*
X-7010865Y-1250865D01*
X-6436963Y-1634334D01*
X-5930880Y-1735000D01*
X-4789120Y-1735000D01*
X-4283037Y-1634334D01*
X-3729499Y-1264472D01*
X-3729499Y-2290012D01*
X-3837926Y-2245100D01*
X-4249674Y-2245100D01*
X-4630080Y-2402669D01*
X-4921231Y-2693820D01*
X-5078800Y-3074226D01*
X-5078800Y-3485974D01*
X-4921231Y-3866380D01*
X-4803799Y-3983812D01*
X-4803800Y-13364632D01*
X-5240000Y-13277867D01*
X-5780399Y-13385359D01*
X-6238528Y-13691471D01*
X-6544641Y-14149600D01*
X-6625000Y-14553593D01*
X-6625000Y-15926406D01*
X-6544641Y-16330399D01*
X-6238529Y-16788528D01*
X-5780400Y-17094641D01*
X-5240000Y-17202133D01*
X-4803800Y-17115367D01*
X-4803800Y-22778998D01*
X-7855000Y-25830199D01*
X-7855000Y-25695426D01*
X-8012569Y-25315020D01*
X-8130000Y-25197589D01*
X-8130000Y-17713801D01*
X-7389527Y-16973329D01*
X-7326071Y-16930929D01*
X-7158096Y-16679537D01*
X-7114000Y-16457852D01*
X-7114000Y-16457847D01*
X-7099112Y-16383000D01*
X-7114000Y-16308153D01*
X-7114000Y-14298847D01*
X-7099112Y-14224000D01*
X-7114000Y-14149153D01*
X-7114000Y-14149148D01*
X-7158096Y-13927463D01*
X-7326071Y-13676071D01*
X-7389527Y-13633671D01*
X-8130000Y-12893199D01*
X-8130000Y-8966801D01*
X-7965330Y-9035010D01*
X-7354670Y-9035010D01*
X-6790493Y-8801320D01*
X-6358690Y-8369517D01*
X-6125000Y-7805340D01*
X-6125000Y-7194680D01*
X-6358690Y-6630503D01*
X-6790493Y-6198700D01*
X-7354670Y-5965010D01*
X-7965330Y-5965010D01*
X-8130000Y-6033219D01*
X-8130000Y11353199D01*
X-7965330Y11284990D01*
X-7354670Y11284990D01*
X-6790493Y11518680D01*
X-6358690Y11950483D01*
X-6125000Y12514660D01*
X-6125000Y13125320D01*
X-6358690Y13689497D01*
X-6790493Y14121300D01*
X-7354670Y14354990D01*
X-7965330Y14354990D01*
X-8130000Y14286781D01*
X-8130000Y20320000D01*
X-7528990Y20320000D01*
X-7394334Y19643037D01*
X-7010865Y19069135D01*
X-6436963Y18685666D01*
X-5930880Y18585000D01*
X-4789120Y18585000D01*
X-4283037Y18685666D01*
X-3709135Y19069135D01*
X-3325666Y19643037D01*
X-3191010Y20320000D01*
X-3325666Y20996963D01*
X-3709135Y21570865D01*
X-4283037Y21954334D01*
X-4789120Y22055000D01*
X-5930880Y22055000D01*
X-6436963Y21954334D01*
X-7010865Y21570865D01*
X-7394334Y20996963D01*
X-7528990Y20320000D01*
X-8130000Y20320000D01*
X-8130000Y31739767D01*
X-7925330Y31654990D01*
X-7314670Y31654990D01*
X-6750493Y31888680D01*
X-6318690Y32320483D01*
X-6085000Y32884660D01*
X-6085000Y33495320D01*
X-6318690Y34059497D01*
X-6750493Y34491300D01*
X-7314670Y34724990D01*
X-7925330Y34724990D01*
X-8489507Y34491300D01*
X-8850000Y34130807D01*
X-9210493Y34491300D01*
X-9774670Y34724990D01*
X-10385330Y34724990D01*
X-10949507Y34491300D01*
X-11381310Y34059497D01*
X-11389438Y34039875D01*
X-11539841Y34090544D01*
X-12440395Y33189990D01*
X-11539841Y32289436D01*
X-11389438Y32340105D01*
X-11381310Y32320483D01*
X-10949507Y31888680D01*
X-10385330Y31654990D01*
X-9774670Y31654990D01*
X-9665155Y31700353D01*
X-9650000Y31685198D01*
X-9650000Y14286781D01*
X-9814670Y14354990D01*
X-10425330Y14354990D01*
X-10989507Y14121300D01*
X-11421310Y13689497D01*
X-11429438Y13669875D01*
X-11579841Y13720544D01*
X-12480395Y12819990D01*
X-12839605Y12819990D01*
X-13740159Y13720544D01*
X-13996643Y13634138D01*
X-14206458Y13060654D01*
X-19083900Y13060654D01*
X-19083900Y13900149D01*
X-13560554Y13900149D01*
X-12660000Y12999595D01*
X-11759446Y13900149D01*
X-11845852Y14156633D01*
X-12419336Y14366448D01*
X-13029460Y14340829D01*
X-13474148Y14156633D01*
X-13560554Y13900149D01*
X-19083900Y13900149D01*
X-19083900Y20320000D01*
X-17128990Y20320000D01*
X-16994334Y19643037D01*
X-16610865Y19069135D01*
X-16036963Y18685666D01*
X-15530880Y18585000D01*
X-14389120Y18585000D01*
X-13883037Y18685666D01*
X-13309135Y19069135D01*
X-12925666Y19643037D01*
X-12791010Y20320000D01*
X-12925666Y20996963D01*
X-13309135Y21570865D01*
X-13883037Y21954334D01*
X-14389120Y22055000D01*
X-15530880Y22055000D01*
X-16036963Y21954334D01*
X-16610865Y21570865D01*
X-16994334Y20996963D01*
X-17128990Y20320000D01*
X-19083900Y20320000D01*
X-19083900Y32109831D01*
X-13520554Y32109831D01*
X-13434148Y31853347D01*
X-12860664Y31643532D01*
X-12250540Y31669151D01*
X-11805852Y31853347D01*
X-11719446Y32109831D01*
X-12620000Y33010385D01*
X-13520554Y32109831D01*
X-19083900Y32109831D01*
X-19083900Y33430654D01*
X-14166458Y33430654D01*
X-14140839Y32820530D01*
X-13956643Y32375842D01*
X-13700159Y32289436D01*
X-12799605Y33189990D01*
X-13700159Y34090544D01*
X-13956643Y34004138D01*
X-14166458Y33430654D01*
X-19083900Y33430654D01*
X-19083900Y34270149D01*
X-13520554Y34270149D01*
X-12620000Y33369595D01*
X-11719446Y34270149D01*
X-11805852Y34526633D01*
X-12379336Y34736448D01*
X-12989460Y34710829D01*
X-13434148Y34526633D01*
X-13520554Y34270149D01*
X-19083900Y34270149D01*
X-19083900Y36410000D01*
X-2767440Y36410000D01*
X-2767440Y34710000D01*
X-2718157Y34462235D01*
X-2577809Y34252191D01*
X-2367765Y34111843D01*
X-2120000Y34062560D01*
X-420000Y34062560D01*
X-172235Y34111843D01*
X37809Y34252191D01*
X178157Y34462235D01*
X187184Y34507619D01*
X199375Y34489375D01*
X690582Y34161161D01*
X1123744Y34075000D01*
X1416256Y34075000D01*
X1849418Y34161161D01*
X2340625Y34489375D01*
X2668839Y34980582D01*
X2784092Y35560000D01*
X2668839Y36139418D01*
X2340625Y36630625D01*
X2021522Y36843843D01*
X2151358Y36904817D01*
X2541645Y37333076D01*
X2711476Y37743110D01*
X2590155Y37973000D01*
X1397000Y37973000D01*
X1397000Y37953000D01*
X1143000Y37953000D01*
X1143000Y37973000D01*
X-1143000Y37973000D01*
X-1143000Y37953000D01*
X-1397000Y37953000D01*
X-1397000Y37973000D01*
X-2590155Y37973000D01*
X-2711476Y37743110D01*
X-2541645Y37333076D01*
X-2264292Y37028739D01*
X-2367765Y37008157D01*
X-2577809Y36867809D01*
X-2718157Y36657765D01*
X-2767440Y36410000D01*
X-19083900Y36410000D01*
X-19083900Y40690000D01*
X-17088990Y40690000D01*
X-16954334Y40013037D01*
X-16570865Y39439135D01*
X-15996963Y39055666D01*
X-15490880Y38955000D01*
X-14349120Y38955000D01*
X-13843037Y39055666D01*
X-13269135Y39439135D01*
X-12885666Y40013037D01*
X-12751010Y40690000D01*
X-7488990Y40690000D01*
X-7354334Y40013037D01*
X-6970865Y39439135D01*
X-6396963Y39055666D01*
X-5890880Y38955000D01*
X-4749120Y38955000D01*
X-4243037Y39055666D01*
X-3669135Y39439135D01*
X-3285666Y40013037D01*
X-3231946Y40283110D01*
X-2711476Y40283110D01*
X-2541645Y39873076D01*
X-2151358Y39444817D01*
X-1992046Y39370000D01*
X-2151358Y39295183D01*
X-2541645Y38866924D01*
X-2711476Y38456890D01*
X-2590155Y38227000D01*
X-1397000Y38227000D01*
X-1397000Y40513000D01*
X-1143000Y40513000D01*
X-1143000Y38227000D01*
X1143000Y38227000D01*
X1143000Y40513000D01*
X1397000Y40513000D01*
X1397000Y38227000D01*
X2590155Y38227000D01*
X2711476Y38456890D01*
X2541645Y38866924D01*
X2151358Y39295183D01*
X1992046Y39370000D01*
X2151358Y39444817D01*
X2541645Y39873076D01*
X2711476Y40283110D01*
X2590155Y40513000D01*
X1397000Y40513000D01*
X1143000Y40513000D01*
X-1143000Y40513000D01*
X-1397000Y40513000D01*
X-2590155Y40513000D01*
X-2711476Y40283110D01*
X-3231946Y40283110D01*
X-3151010Y40690000D01*
X-3285666Y41366963D01*
X-3669135Y41940865D01*
X-4243037Y42324334D01*
X-4749120Y42425000D01*
X-5890880Y42425000D01*
X-6396963Y42324334D01*
X-6970865Y41940865D01*
X-7354334Y41366963D01*
X-7488990Y40690000D01*
X-12751010Y40690000D01*
X-12885666Y41366963D01*
X-13269135Y41940865D01*
X-13843037Y42324334D01*
X-14349120Y42425000D01*
X-15490880Y42425000D01*
X-15996963Y42324334D01*
X-16570865Y41940865D01*
X-16954334Y41366963D01*
X-17088990Y40690000D01*
X-19083900Y40690000D01*
X-19083900Y42823110D01*
X-2711476Y42823110D01*
X-2541645Y42413076D01*
X-2151358Y41984817D01*
X-1992046Y41910000D01*
X-2151358Y41835183D01*
X-2541645Y41406924D01*
X-2711476Y40996890D01*
X-2590155Y40767000D01*
X-1397000Y40767000D01*
X-1397000Y43053000D01*
X-1143000Y43053000D01*
X-1143000Y40767000D01*
X1143000Y40767000D01*
X1143000Y43053000D01*
X1397000Y43053000D01*
X1397000Y40767000D01*
X2590155Y40767000D01*
X2711476Y40996890D01*
X2541645Y41406924D01*
X2151358Y41835183D01*
X1992046Y41910000D01*
X2151358Y41984817D01*
X2541645Y42413076D01*
X2711476Y42823110D01*
X2590155Y43053000D01*
X1397000Y43053000D01*
X1143000Y43053000D01*
X-1143000Y43053000D01*
X-1397000Y43053000D01*
X-2590155Y43053000D01*
X-2711476Y42823110D01*
X-19083900Y42823110D01*
X-19083900Y45720000D01*
X-2784092Y45720000D01*
X-2668839Y45140582D01*
X-2340625Y44649375D01*
X-2021522Y44436157D01*
X-2151358Y44375183D01*
X-2541645Y43946924D01*
X-2711476Y43536890D01*
X-2590155Y43307000D01*
X-1397000Y43307000D01*
X-1397000Y43327000D01*
X-1143000Y43327000D01*
X-1143000Y43307000D01*
X1143000Y43307000D01*
X1143000Y43327000D01*
X1397000Y43327000D01*
X1397000Y43307000D01*
X2590155Y43307000D01*
X2711476Y43536890D01*
X2541645Y43946924D01*
X2151358Y44375183D01*
X2021522Y44436157D01*
X2340625Y44649375D01*
X2668839Y45140582D01*
X2708505Y45340000D01*
X8038071Y45340000D01*
X8184369Y44604510D01*
X8600991Y43980991D01*
X9224510Y43564369D01*
X9774345Y43455000D01*
X10545655Y43455000D01*
X11095490Y43564369D01*
X11719009Y43980991D01*
X12135631Y44604510D01*
X12281929Y45340000D01*
X12135631Y46075490D01*
X11719009Y46699009D01*
X11095490Y47115631D01*
X10545655Y47225000D01*
X9774345Y47225000D01*
X9224510Y47115631D01*
X8600991Y46699009D01*
X8184369Y46075490D01*
X8038071Y45340000D01*
X2708505Y45340000D01*
X2784092Y45720000D01*
X2668839Y46299418D01*
X2340625Y46790625D01*
X1849418Y47118839D01*
X1416256Y47205000D01*
X1123744Y47205000D01*
X690582Y47118839D01*
X199375Y46790625D01*
X0Y46492239D01*
X-199375Y46790625D01*
X-690582Y47118839D01*
X-1123744Y47205000D01*
X-1416256Y47205000D01*
X-1849418Y47118839D01*
X-2340625Y46790625D01*
X-2668839Y46299418D01*
X-2784092Y45720000D01*
X-19083900Y45720000D01*
X-19083900Y49261400D01*
X19086101Y49261400D01*
X19086100Y-22202298D01*
X19086100Y-22202298D01*
G37*
X19086100Y-22202298D02*
X16567521Y-19683720D01*
X16525119Y-19620261D01*
X16273727Y-19452286D01*
X16052042Y-19408190D01*
X16052037Y-19408190D01*
X15977190Y-19393302D01*
X15902343Y-19408190D01*
X13896221Y-19408190D01*
X13778790Y-19290759D01*
X13583743Y-19209968D01*
X13619031Y-19174680D01*
X13776600Y-18794274D01*
X13776600Y-18382526D01*
X13728623Y-18266700D01*
X13938889Y-18266700D01*
X14056320Y-18384131D01*
X14436726Y-18541700D01*
X14848474Y-18541700D01*
X15228880Y-18384131D01*
X15520031Y-18092980D01*
X15677600Y-17712574D01*
X15677600Y-17300826D01*
X15520031Y-16920420D01*
X15228880Y-16629269D01*
X14848474Y-16471700D01*
X14776953Y-16471700D01*
X14891740Y-16299909D01*
X14975000Y-15881333D01*
X14975000Y-15367000D01*
X15205000Y-15367000D01*
X15205000Y-15767000D01*
X15362834Y-16306483D01*
X15715104Y-16744500D01*
X16208181Y-17014367D01*
X16290961Y-17031904D01*
X16513000Y-16909915D01*
X16513000Y-15367000D01*
X16767000Y-15367000D01*
X16767000Y-16909915D01*
X16989039Y-17031904D01*
X17071819Y-17014367D01*
X17564896Y-16744500D01*
X17917166Y-16306483D01*
X18075000Y-15767000D01*
X18075000Y-15367000D01*
X16767000Y-15367000D01*
X16513000Y-15367000D01*
X15205000Y-15367000D01*
X14975000Y-15367000D01*
X14975000Y-14713000D01*
X15205000Y-14713000D01*
X15205000Y-15113000D01*
X16513000Y-15113000D01*
X16513000Y-13570085D01*
X16767000Y-13570085D01*
X16767000Y-15113000D01*
X18075000Y-15113000D01*
X18075000Y-14713000D01*
X17917166Y-14173517D01*
X17564896Y-13735500D01*
X17071819Y-13465633D01*
X16989039Y-13448096D01*
X16767000Y-13570085D01*
X16513000Y-13570085D01*
X16290961Y-13448096D01*
X16208181Y-13465633D01*
X15715104Y-13735500D01*
X15362834Y-14173517D01*
X15205000Y-14713000D01*
X14975000Y-14713000D01*
X14975000Y-14598667D01*
X14891740Y-14180091D01*
X14574576Y-13705423D01*
X14099908Y-13388260D01*
X13540000Y-13276887D01*
X12980091Y-13388260D01*
X12952000Y-13407030D01*
X12952000Y-11825548D01*
X12966888Y-11750700D01*
X12952000Y-11675852D01*
X12952000Y-11675848D01*
X12907904Y-11454163D01*
X12907904Y-11454162D01*
X12782329Y-11266227D01*
X12739929Y-11202771D01*
X12676473Y-11160371D01*
X8990100Y-7473999D01*
X8990100Y-6319003D01*
X9224510Y-6475631D01*
X9774345Y-6585000D01*
X10545655Y-6585000D01*
X11095490Y-6475631D01*
X11719009Y-6059009D01*
X12135631Y-5435490D01*
X12281929Y-4700000D01*
X12135631Y-3964510D01*
X11719009Y-3340991D01*
X11095490Y-2924369D01*
X10545655Y-2815000D01*
X9774345Y-2815000D01*
X9224510Y-2924369D01*
X8990100Y-3080997D01*
X8990100Y-1619003D01*
X9224510Y-1775631D01*
X9774345Y-1885000D01*
X10545655Y-1885000D01*
X11095490Y-1775631D01*
X11719009Y-1359009D01*
X12135631Y-735490D01*
X12281929Y0D01*
X12135631Y735490D01*
X11719009Y1359009D01*
X11095490Y1775631D01*
X10545655Y1885000D01*
X9774345Y1885000D01*
X9224510Y1775631D01*
X8990100Y1619003D01*
X8990100Y3080997D01*
X9224510Y2924369D01*
X9774345Y2815000D01*
X10545655Y2815000D01*
X11095490Y2924369D01*
X11719009Y3340991D01*
X12135631Y3964510D01*
X12281929Y4700000D01*
X12135631Y5435490D01*
X11719009Y6059009D01*
X11095490Y6475631D01*
X10545655Y6585000D01*
X10031000Y6585000D01*
X10031000Y9083199D01*
X11909973Y10962171D01*
X11973429Y11004571D01*
X12141404Y11255963D01*
X12162972Y11364394D01*
X12354670Y11284990D01*
X12965330Y11284990D01*
X13529507Y11518680D01*
X13961310Y11950483D01*
X14195000Y12514660D01*
X14195000Y13125320D01*
X13961310Y13689497D01*
X13529507Y14121300D01*
X12965330Y14354990D01*
X12354670Y14354990D01*
X12185500Y14284917D01*
X12185500Y20320000D01*
X12791010Y20320000D01*
X12925666Y19643037D01*
X13309135Y19069135D01*
X13883037Y18685666D01*
X14389120Y18585000D01*
X15530880Y18585000D01*
X16036963Y18685666D01*
X16610865Y19069135D01*
X16994334Y19643037D01*
X17128990Y20320000D01*
X16994334Y20996963D01*
X16610865Y21570865D01*
X16036963Y21954334D01*
X15530880Y22055000D01*
X14389120Y22055000D01*
X13883037Y21954334D01*
X13309135Y21570865D01*
X12925666Y20996963D01*
X12791010Y20320000D01*
X12185500Y20320000D01*
X12185500Y33178898D01*
X12420575Y33413972D01*
X12484029Y33456371D01*
X12526427Y33519824D01*
X12526429Y33519826D01*
X12652003Y33707762D01*
X12652004Y33707763D01*
X12696100Y33929448D01*
X12696100Y33929452D01*
X12710988Y34004299D01*
X12696100Y34079146D01*
X12696100Y37213752D01*
X12710988Y37288600D01*
X12696100Y37363448D01*
X12696100Y37363452D01*
X12652004Y37585137D01*
X12652004Y37585138D01*
X12526429Y37773073D01*
X12484029Y37836529D01*
X12420573Y37878929D01*
X11299091Y39000411D01*
X11719009Y39280991D01*
X12135631Y39904510D01*
X12281929Y40640000D01*
X12135631Y41375490D01*
X11719009Y41999009D01*
X11095490Y42415631D01*
X10545655Y42525000D01*
X9774345Y42525000D01*
X9224510Y42415631D01*
X8600991Y41999009D01*
X8184369Y41375490D01*
X8038071Y40640000D01*
X8184369Y39904510D01*
X8600991Y39280991D01*
X9224510Y38864369D01*
X9433218Y38822854D01*
X9444097Y38768163D01*
X9612072Y38516771D01*
X9675528Y38474371D01*
X10324899Y37825000D01*
X9774345Y37825000D01*
X9224510Y37715631D01*
X8600991Y37299009D01*
X8184369Y36675490D01*
X8038071Y35940000D01*
X8184369Y35204510D01*
X8600991Y34580991D01*
X9224510Y34164369D01*
X9774345Y34055000D01*
X10545655Y34055000D01*
X11002963Y34145964D01*
X10941029Y34084030D01*
X10877571Y34041629D01*
X10709596Y33790236D01*
X10665500Y33568551D01*
X10665500Y33568547D01*
X10650612Y33493700D01*
X10665500Y33418853D01*
X10665501Y14288645D01*
X10505330Y14354990D01*
X9894670Y14354990D01*
X9330493Y14121300D01*
X8930000Y13720807D01*
X8529507Y14121300D01*
X7965330Y14354990D01*
X7354670Y14354990D01*
X6790493Y14121300D01*
X6358690Y13689497D01*
X6125000Y13125320D01*
X6125000Y12514660D01*
X6358690Y11950483D01*
X6790493Y11518680D01*
X7354670Y11284990D01*
X7965330Y11284990D01*
X8529507Y11518680D01*
X8930000Y11919173D01*
X9252186Y11596987D01*
X6288028Y8632829D01*
X6224572Y8590429D01*
X6182172Y8526973D01*
X6182171Y8526972D01*
X6056597Y8339037D01*
X5997612Y8042500D01*
X6012501Y7967648D01*
X6012500Y-13540444D01*
X5780399Y-13385359D01*
X5240000Y-13277867D01*
X4867800Y-13351902D01*
X4867800Y-9705402D01*
X5004002Y-9569200D01*
X5170074Y-9569200D01*
X5550480Y-9411631D01*
X5841631Y-9120480D01*
X5999200Y-8740074D01*
X5999200Y-8328326D01*
X5841631Y-7947920D01*
X5550480Y-7656769D01*
X5170074Y-7499200D01*
X4758326Y-7499200D01*
X4377920Y-7656769D01*
X4086769Y-7947920D01*
X3929200Y-8328326D01*
X3929200Y-8494398D01*
X3623329Y-8800269D01*
X3559871Y-8842671D01*
X3391896Y-9094064D01*
X3347800Y-9315749D01*
X3347800Y-9315753D01*
X3332912Y-9390600D01*
X3347800Y-9465447D01*
X3347800Y-10971780D01*
X3301206Y-10925186D01*
X3186926Y-11039466D01*
X3088264Y-10772613D01*
X2478539Y-10546092D01*
X1828540Y-10570144D01*
X1339736Y-10772613D01*
X1241073Y-11039468D01*
X2214000Y-12012395D01*
X2228143Y-11998253D01*
X2407748Y-12177858D01*
X2393605Y-12192000D01*
X2407748Y-12206143D01*
X2228143Y-12385748D01*
X2214000Y-12371605D01*
X1241073Y-13344532D01*
X1339736Y-13611387D01*
X1949461Y-13837908D01*
X2599460Y-13813856D01*
X3088264Y-13611387D01*
X3186926Y-13344534D01*
X3301206Y-13458814D01*
X3347800Y-13412220D01*
X3347801Y-22647397D01*
X-5501770Y-31496969D01*
X-5565229Y-31539371D01*
X-5733204Y-31790764D01*
X-5777300Y-32012449D01*
X-5777300Y-32012453D01*
X-5792188Y-32087300D01*
X-5777300Y-32162147D01*
X-5777299Y-35491288D01*
X-5894731Y-35608720D01*
X-6052300Y-35989126D01*
X-6052300Y-36400874D01*
X-5894731Y-36781280D01*
X-5603580Y-37072431D01*
X-5223174Y-37230000D01*
X-4811426Y-37230000D01*
X-4431020Y-37072431D01*
X-4139869Y-36781280D01*
X-4089727Y-36660226D01*
X-3111300Y-36660226D01*
X-3111300Y-37071974D01*
X-2953731Y-37452380D01*
X-2662580Y-37743531D01*
X-2282174Y-37901100D01*
X-1870426Y-37901100D01*
X-1490020Y-37743531D01*
X-1372589Y-37626100D01*
X5651453Y-37626100D01*
X5726300Y-37640988D01*
X5801147Y-37626100D01*
X5801152Y-37626100D01*
X6022837Y-37582004D01*
X6274229Y-37414029D01*
X6316631Y-37350570D01*
X6402301Y-37264900D01*
X6568374Y-37264900D01*
X6948780Y-37107331D01*
X7239931Y-36816180D01*
X7397500Y-36435774D01*
X7397500Y-36024026D01*
X7239931Y-35643620D01*
X6948780Y-35352469D01*
X6568374Y-35194900D01*
X6156626Y-35194900D01*
X5776220Y-35352469D01*
X5485069Y-35643620D01*
X5327500Y-36024026D01*
X5327500Y-36106100D01*
X-1372589Y-36106100D01*
X-1490020Y-35988669D01*
X-1870426Y-35831100D01*
X-2282174Y-35831100D01*
X-2662580Y-35988669D01*
X-2953731Y-36279820D01*
X-3111300Y-36660226D01*
X-4089727Y-36660226D01*
X-3982300Y-36400874D01*
X-3982300Y-35989126D01*
X-4139869Y-35608720D01*
X-4257300Y-35491289D01*
X-4257300Y-34575750D01*
X-2805000Y-34575750D01*
X-2805000Y-35316310D01*
X-2708327Y-35549699D01*
X-2529698Y-35728327D01*
X-2296309Y-35825000D01*
X-1555750Y-35825000D01*
X-1397000Y-35666250D01*
X-1397000Y-34417000D01*
X-2646250Y-34417000D01*
X-2805000Y-34575750D01*
X-4257300Y-34575750D01*
X-4257300Y-33263690D01*
X-2805000Y-33263690D01*
X-2805000Y-34004250D01*
X-2646250Y-34163000D01*
X-1397000Y-34163000D01*
X-1397000Y-32913750D01*
X-1143000Y-32913750D01*
X-1143000Y-34163000D01*
X-1123000Y-34163000D01*
X-1123000Y-34417000D01*
X-1143000Y-34417000D01*
X-1143000Y-35666250D01*
X-984250Y-35825000D01*
X-243691Y-35825000D01*
X-10302Y-35728327D01*
X168327Y-35549699D01*
X224139Y-35414956D01*
X400493Y-35591310D01*
X964670Y-35825000D01*
X1575330Y-35825000D01*
X2139507Y-35591310D01*
X2571310Y-35159507D01*
X2805000Y-34595330D01*
X2805000Y-33984670D01*
X2571310Y-33420493D01*
X2139507Y-32988690D01*
X1575330Y-32755000D01*
X964670Y-32755000D01*
X400493Y-32988690D01*
X224139Y-33165044D01*
X168327Y-33030301D01*
X-10302Y-32851673D01*
X-243691Y-32755000D01*
X-984250Y-32755000D01*
X-1143000Y-32913750D01*
X-1397000Y-32913750D01*
X-1555750Y-32755000D01*
X-2296309Y-32755000D01*
X-2529698Y-32851673D01*
X-2708327Y-33030301D01*
X-2805000Y-33263690D01*
X-4257300Y-33263690D01*
X-4257300Y-32402101D01*
X891207Y-27253594D01*
X3855000Y-27253594D01*
X3855000Y-28626407D01*
X3935359Y-29030400D01*
X4241472Y-29488529D01*
X4699601Y-29794641D01*
X5240000Y-29902133D01*
X5780400Y-29794641D01*
X6238529Y-29488529D01*
X6544641Y-29030400D01*
X6625000Y-28626407D01*
X6625000Y-27253593D01*
X6544641Y-26849600D01*
X6238528Y-26391471D01*
X5780399Y-26085359D01*
X5240000Y-25977867D01*
X4699600Y-26085359D01*
X4241471Y-26391472D01*
X3935359Y-26849601D01*
X3855000Y-27253594D01*
X891207Y-27253594D01*
X4592273Y-23552529D01*
X4655729Y-23510129D01*
X4823704Y-23258737D01*
X4867800Y-23037052D01*
X4867800Y-23037048D01*
X4882688Y-22962201D01*
X4867800Y-22887354D01*
X4867800Y-17128098D01*
X5240000Y-17202133D01*
X5510900Y-17148248D01*
X5510900Y-17341574D01*
X5668469Y-17721980D01*
X5785901Y-17839412D01*
X5785900Y-23878871D01*
X5714609Y-24317680D01*
X5472569Y-24559720D01*
X5315000Y-24940126D01*
X5315000Y-25351874D01*
X5472569Y-25732280D01*
X5763720Y-26023431D01*
X6144126Y-26181000D01*
X6555874Y-26181000D01*
X6936280Y-26023431D01*
X7053711Y-25906000D01*
X7448405Y-25906000D01*
X7601663Y-26008404D01*
X7823348Y-26052500D01*
X7823352Y-26052500D01*
X7898199Y-26067388D01*
X7973046Y-26052500D01*
X9074789Y-26052500D01*
X9192220Y-26169931D01*
X9320808Y-26223194D01*
X9103839Y-26295517D01*
X9046436Y-26334697D01*
X8411436Y-27096697D01*
X8383728Y-27157121D01*
X8256728Y-27919121D01*
X8256728Y-27960879D01*
X8383728Y-28722879D01*
X8411436Y-28783303D01*
X9046436Y-29545303D01*
X9068393Y-29566042D01*
X9113198Y-29587208D01*
X10129198Y-29841208D01*
X10180879Y-29843272D01*
X10942879Y-29716272D01*
X11003303Y-29688564D01*
X11765303Y-29053564D01*
X11786042Y-29031607D01*
X11807208Y-28986802D01*
X12061208Y-27970802D01*
X12063272Y-27919121D01*
X11936272Y-27157121D01*
X11908564Y-27096697D01*
X11273564Y-26334697D01*
X11251607Y-26313958D01*
X11206802Y-26292792D01*
X10434896Y-26099815D01*
X10655931Y-25878780D01*
X10813500Y-25498374D01*
X10813500Y-25086626D01*
X10655931Y-24706220D01*
X10364780Y-24415069D01*
X9984374Y-24257500D01*
X9572626Y-24257500D01*
X9192220Y-24415069D01*
X9074789Y-24532500D01*
X8201495Y-24532500D01*
X8048237Y-24430096D01*
X7826552Y-24386000D01*
X7826547Y-24386000D01*
X7751700Y-24371112D01*
X7676853Y-24386000D01*
X7243437Y-24386000D01*
X7293911Y-24075324D01*
X7305900Y-24015052D01*
X7305900Y-24001530D01*
X7308067Y-23988192D01*
X7305900Y-23926813D01*
X7305900Y-21868000D01*
X7641274Y-21868000D01*
X8021680Y-21710431D01*
X8312831Y-21419280D01*
X8470400Y-21038874D01*
X8470400Y-20627126D01*
X8312831Y-20246720D01*
X8195400Y-20129289D01*
X8195400Y-19098938D01*
X8466426Y-19211200D01*
X8878174Y-19211200D01*
X9258580Y-19053631D01*
X9376011Y-18936200D01*
X9479399Y-18936200D01*
X11920861Y-21377663D01*
X11963262Y-21441120D01*
X12214654Y-21609095D01*
X12436339Y-21653191D01*
X12436343Y-21653191D01*
X12511191Y-21668079D01*
X12586039Y-21653191D01*
X15371390Y-21653191D01*
X17401000Y-23682803D01*
X17401000Y-26345798D01*
X17071819Y-26165633D01*
X16989039Y-26148096D01*
X16767000Y-26270085D01*
X16767000Y-27813000D01*
X16787000Y-27813000D01*
X16787000Y-28067000D01*
X16767000Y-28067000D01*
X16767000Y-29609915D01*
X16989039Y-29731904D01*
X17071819Y-29714367D01*
X17401001Y-29534202D01*
X17401001Y-29784197D01*
X17084199Y-30101000D01*
X13227000Y-30101000D01*
X13227000Y-29893126D01*
X13203404Y-29836160D01*
X13540000Y-29903113D01*
X14099909Y-29791740D01*
X14574577Y-29474577D01*
X14891740Y-28999909D01*
X14975000Y-28581333D01*
X14975000Y-28067000D01*
X15205000Y-28067000D01*
X15205000Y-28467000D01*
X15362834Y-29006483D01*
X15715104Y-29444500D01*
X16208181Y-29714367D01*
X16290961Y-29731904D01*
X16513000Y-29609915D01*
X16513000Y-28067000D01*
X15205000Y-28067000D01*
X14975000Y-28067000D01*
X14975000Y-27413000D01*
X15205000Y-27413000D01*
X15205000Y-27813000D01*
X16513000Y-27813000D01*
X16513000Y-26270085D01*
X16290961Y-26148096D01*
X16208181Y-26165633D01*
X15715104Y-26435500D01*
X15362834Y-26873517D01*
X15205000Y-27413000D01*
X14975000Y-27413000D01*
X14975000Y-27298667D01*
X14891740Y-26880091D01*
X14574576Y-26405423D01*
X14099908Y-26088260D01*
X13540000Y-25976887D01*
X12980091Y-26088260D01*
X12505423Y-26405424D01*
X12188260Y-26880092D01*
X12105000Y-27298668D01*
X12105000Y-28581333D01*
X12188260Y-28999909D01*
X12231084Y-29064000D01*
X11986126Y-29064000D01*
X11605720Y-29221569D01*
X11314569Y-29512720D01*
X11157000Y-29893126D01*
X11157000Y-30304874D01*
X11314569Y-30685280D01*
X11336689Y-30707400D01*
X8953211Y-30707400D01*
X8835780Y-30589969D01*
X8455374Y-30432400D01*
X8043626Y-30432400D01*
X7663220Y-30589969D01*
X7372069Y-30881120D01*
X7214500Y-31261526D01*
X7214500Y-31673274D01*
X7372069Y-32053680D01*
X7663220Y-32344831D01*
X8043626Y-32502400D01*
X8455374Y-32502400D01*
X8835780Y-32344831D01*
X8953211Y-32227400D01*
X17733753Y-32227400D01*
X17808600Y-32242288D01*
X17883447Y-32227400D01*
X17883452Y-32227400D01*
X18105137Y-32183304D01*
X18356529Y-32015329D01*
X18398931Y-31951871D01*
X19086100Y-31264702D01*
X19086100Y-49268600D01*
X-19083900Y-49268600D01*
X-19083900Y-40767000D01*
X-18075000Y-40767000D01*
X-18075000Y-41167000D01*
X-17917166Y-41706483D01*
X-17564896Y-42144500D01*
X-17071819Y-42414367D01*
X-16989039Y-42431904D01*
X-16767000Y-42309915D01*
X-16767000Y-40767000D01*
X-16513000Y-40767000D01*
X-16513000Y-42309915D01*
X-16290961Y-42431904D01*
X-16208181Y-42414367D01*
X-15715104Y-42144500D01*
X-15362834Y-41706483D01*
X-15205000Y-41167000D01*
X-15205000Y-40767000D01*
X-16513000Y-40767000D01*
X-16767000Y-40767000D01*
X-18075000Y-40767000D01*
X-19083900Y-40767000D01*
X-19083900Y-40113000D01*
X-18075000Y-40113000D01*
X-18075000Y-40513000D01*
X-16767000Y-40513000D01*
X-16767000Y-38970085D01*
X-16513000Y-38970085D01*
X-16513000Y-40513000D01*
X-15205000Y-40513000D01*
X-15205000Y-40113000D01*
X-15238449Y-39998667D01*
X-14975000Y-39998667D01*
X-14975000Y-41281332D01*
X-14891740Y-41699908D01*
X-14574577Y-42174576D01*
X-14099909Y-42491740D01*
X-13540000Y-42603113D01*
X-12980092Y-42491740D01*
X-12505424Y-42174577D01*
X-12188260Y-41699909D01*
X-12105000Y-41281333D01*
X-12105000Y-40619121D01*
X-12063272Y-40619121D01*
X-12063272Y-40660879D01*
X-11936272Y-41422879D01*
X-11908564Y-41483303D01*
X-11273564Y-42245303D01*
X-11251607Y-42266042D01*
X-11206802Y-42287208D01*
X-10190802Y-42541208D01*
X-10139121Y-42543272D01*
X-9377121Y-42416272D01*
X-9316697Y-42388564D01*
X-8554697Y-41753564D01*
X-8533958Y-41731607D01*
X-8512792Y-41686802D01*
X-8258792Y-40670802D01*
X-8256728Y-40619121D01*
X-8367649Y-39953593D01*
X-6625000Y-39953593D01*
X-6625000Y-41326406D01*
X-6544641Y-41730399D01*
X-6238529Y-42188528D01*
X-5780400Y-42494641D01*
X-5240000Y-42602133D01*
X-4699601Y-42494641D01*
X-4241472Y-42188529D01*
X-3935359Y-41730400D01*
X-3855000Y-41326407D01*
X-3855000Y-39953594D01*
X3855000Y-39953594D01*
X3855000Y-41326407D01*
X3935359Y-41730400D01*
X4241472Y-42188529D01*
X4699601Y-42494641D01*
X5240000Y-42602133D01*
X5780400Y-42494641D01*
X6238529Y-42188529D01*
X6544641Y-41730400D01*
X6625000Y-41326407D01*
X6625000Y-40619121D01*
X8256728Y-40619121D01*
X8256728Y-40660879D01*
X8383728Y-41422879D01*
X8411436Y-41483303D01*
X9046436Y-42245303D01*
X9068393Y-42266042D01*
X9113198Y-42287208D01*
X10129198Y-42541208D01*
X10180879Y-42543272D01*
X10942879Y-42416272D01*
X11003303Y-42388564D01*
X11765303Y-41753564D01*
X11786042Y-41731607D01*
X11807208Y-41686802D01*
X12061208Y-40670802D01*
X12063272Y-40619121D01*
X11959864Y-39998668D01*
X12105000Y-39998668D01*
X12105000Y-41281333D01*
X12188260Y-41699909D01*
X12505424Y-42174577D01*
X12980092Y-42491740D01*
X13540000Y-42603113D01*
X14099909Y-42491740D01*
X14574577Y-42174577D01*
X14891740Y-41699909D01*
X14975000Y-41281333D01*
X14975000Y-40767000D01*
X15205000Y-40767000D01*
X15205000Y-41167000D01*
X15362834Y-41706483D01*
X15715104Y-42144500D01*
X16208181Y-42414367D01*
X16290961Y-42431904D01*
X16513000Y-42309915D01*
X16513000Y-40767000D01*
X16767000Y-40767000D01*
X16767000Y-42309915D01*
X16989039Y-42431904D01*
X17071819Y-42414367D01*
X17564896Y-42144500D01*
X17917166Y-41706483D01*
X18075000Y-41167000D01*
X18075000Y-40767000D01*
X16767000Y-40767000D01*
X16513000Y-40767000D01*
X15205000Y-40767000D01*
X14975000Y-40767000D01*
X14975000Y-40113000D01*
X15205000Y-40113000D01*
X15205000Y-40513000D01*
X16513000Y-40513000D01*
X16513000Y-38970085D01*
X16767000Y-38970085D01*
X16767000Y-40513000D01*
X18075000Y-40513000D01*
X18075000Y-40113000D01*
X17917166Y-39573517D01*
X17564896Y-39135500D01*
X17071819Y-38865633D01*
X16989039Y-38848096D01*
X16767000Y-38970085D01*
X16513000Y-38970085D01*
X16290961Y-38848096D01*
X16208181Y-38865633D01*
X15715104Y-39135500D01*
X15362834Y-39573517D01*
X15205000Y-40113000D01*
X14975000Y-40113000D01*
X14975000Y-39998667D01*
X14891740Y-39580091D01*
X14574576Y-39105423D01*
X14099908Y-38788260D01*
X13540000Y-38676887D01*
X12980091Y-38788260D01*
X12505423Y-39105424D01*
X12188260Y-39580092D01*
X12105000Y-39998668D01*
X11959864Y-39998668D01*
X11936272Y-39857121D01*
X11908564Y-39796697D01*
X11273564Y-39034697D01*
X11251607Y-39013958D01*
X11206802Y-38992792D01*
X10190802Y-38738792D01*
X10160000Y-38735000D01*
X9906000Y-38735000D01*
X9865839Y-38741517D01*
X9103839Y-38995517D01*
X9046436Y-39034697D01*
X8411436Y-39796697D01*
X8383728Y-39857121D01*
X8256728Y-40619121D01*
X6625000Y-40619121D01*
X6625000Y-39953593D01*
X6544641Y-39549600D01*
X6238528Y-39091471D01*
X5780399Y-38785359D01*
X5240000Y-38677867D01*
X4699600Y-38785359D01*
X4241471Y-39091472D01*
X3935359Y-39549601D01*
X3855000Y-39953594D01*
X-3855000Y-39953594D01*
X-3855000Y-39953593D01*
X-3935359Y-39549600D01*
X-4241471Y-39091471D01*
X-4699600Y-38785359D01*
X-5240000Y-38677867D01*
X-5780399Y-38785359D01*
X-6238528Y-39091471D01*
X-6544641Y-39549600D01*
X-6625000Y-39953593D01*
X-8367649Y-39953593D01*
X-8383728Y-39857121D01*
X-8411436Y-39796697D01*
X-9046436Y-39034697D01*
X-9068393Y-39013958D01*
X-9113198Y-38992792D01*
X-10129198Y-38738792D01*
X-10160000Y-38735000D01*
X-10414000Y-38735000D01*
X-10454161Y-38741517D01*
X-11216161Y-38995517D01*
X-11273564Y-39034697D01*
X-11908564Y-39796697D01*
X-11936272Y-39857121D01*
X-12063272Y-40619121D01*
X-12105000Y-40619121D01*
X-12105000Y-39998667D01*
X-12188260Y-39580091D01*
X-12505423Y-39105423D01*
X-12980091Y-38788260D01*
X-13540000Y-38676887D01*
X-14099908Y-38788260D01*
X-14574576Y-39105423D01*
X-14891740Y-39580091D01*
X-14975000Y-39998667D01*
X-15238449Y-39998667D01*
X-15362834Y-39573517D01*
X-15715104Y-39135500D01*
X-16208181Y-38865633D01*
X-16290961Y-38848096D01*
X-16513000Y-38970085D01*
X-16767000Y-38970085D01*
X-16989039Y-38848096D01*
X-17071819Y-38865633D01*
X-17564896Y-39135500D01*
X-17917166Y-39573517D01*
X-18075000Y-40113000D01*
X-19083900Y-40113000D01*
X-19083900Y-28067000D01*
X-18075000Y-28067000D01*
X-18075000Y-28467000D01*
X-17917166Y-29006483D01*
X-17564896Y-29444500D01*
X-17071819Y-29714367D01*
X-16989039Y-29731904D01*
X-16767000Y-29609915D01*
X-16767000Y-28067000D01*
X-16513000Y-28067000D01*
X-16513000Y-29609915D01*
X-16290961Y-29731904D01*
X-16208181Y-29714367D01*
X-15715104Y-29444500D01*
X-15362834Y-29006483D01*
X-15205000Y-28467000D01*
X-15205000Y-28067000D01*
X-14975000Y-28067000D01*
X-14975000Y-28567000D01*
X-14817166Y-29106483D01*
X-14464896Y-29544500D01*
X-13971819Y-29814367D01*
X-13889039Y-29831904D01*
X-13667000Y-29709915D01*
X-13667000Y-28067000D01*
X-13413000Y-28067000D01*
X-13413000Y-29709915D01*
X-13190961Y-29831904D01*
X-13108181Y-29814367D01*
X-12615104Y-29544500D01*
X-12262834Y-29106483D01*
X-12105000Y-28567000D01*
X-12105000Y-28067000D01*
X-13413000Y-28067000D01*
X-13667000Y-28067000D01*
X-14975000Y-28067000D01*
X-15205000Y-28067000D01*
X-16513000Y-28067000D01*
X-16767000Y-28067000D01*
X-18075000Y-28067000D01*
X-19083900Y-28067000D01*
X-19083900Y-27413000D01*
X-18075000Y-27413000D01*
X-18075000Y-27813000D01*
X-16767000Y-27813000D01*
X-16767000Y-26270085D01*
X-16513000Y-26270085D01*
X-16513000Y-27813000D01*
X-15205000Y-27813000D01*
X-15205000Y-27413000D01*
X-15234256Y-27313000D01*
X-14975000Y-27313000D01*
X-14975000Y-27813000D01*
X-13667000Y-27813000D01*
X-13667000Y-26170085D01*
X-13413000Y-26170085D01*
X-13413000Y-27813000D01*
X-12105000Y-27813000D01*
X-12105000Y-27313000D01*
X-12262834Y-26773517D01*
X-12615104Y-26335500D01*
X-13108181Y-26065633D01*
X-13190961Y-26048096D01*
X-13413000Y-26170085D01*
X-13667000Y-26170085D01*
X-13889039Y-26048096D01*
X-13971819Y-26065633D01*
X-14464896Y-26335500D01*
X-14817166Y-26773517D01*
X-14975000Y-27313000D01*
X-15234256Y-27313000D01*
X-15362834Y-26873517D01*
X-15715104Y-26435500D01*
X-16208181Y-26165633D01*
X-16290961Y-26148096D01*
X-16513000Y-26270085D01*
X-16767000Y-26270085D01*
X-16989039Y-26148096D01*
X-17071819Y-26165633D01*
X-17564896Y-26435500D01*
X-17917166Y-26873517D01*
X-18075000Y-27413000D01*
X-19083900Y-27413000D01*
X-19083900Y-15367000D01*
X-18075000Y-15367000D01*
X-18075000Y-15767000D01*
X-17917166Y-16306483D01*
X-17564896Y-16744500D01*
X-17071819Y-17014367D01*
X-16989039Y-17031904D01*
X-16767000Y-16909915D01*
X-16767000Y-15367000D01*
X-16513000Y-15367000D01*
X-16513000Y-16909915D01*
X-16290961Y-17031904D01*
X-16208181Y-17014367D01*
X-15715104Y-16744500D01*
X-15362834Y-16306483D01*
X-15205000Y-15767000D01*
X-15205000Y-15367000D01*
X-14975000Y-15367000D01*
X-14975000Y-15867000D01*
X-14817166Y-16406483D01*
X-14464896Y-16844500D01*
X-13971819Y-17114367D01*
X-13889039Y-17131904D01*
X-13667000Y-17009915D01*
X-13667000Y-15367000D01*
X-13413000Y-15367000D01*
X-13413000Y-17009915D01*
X-13190961Y-17131904D01*
X-13108181Y-17114367D01*
X-12615104Y-16844500D01*
X-12262834Y-16406483D01*
X-12105000Y-15867000D01*
X-12105000Y-15367000D01*
X-13413000Y-15367000D01*
X-13667000Y-15367000D01*
X-14975000Y-15367000D01*
X-15205000Y-15367000D01*
X-16513000Y-15367000D01*
X-16767000Y-15367000D01*
X-18075000Y-15367000D01*
X-19083900Y-15367000D01*
X-19083900Y-14713000D01*
X-18075000Y-14713000D01*
X-18075000Y-15113000D01*
X-16767000Y-15113000D01*
X-16767000Y-13570085D01*
X-16513000Y-13570085D01*
X-16513000Y-15113000D01*
X-15205000Y-15113000D01*
X-15205000Y-14713000D01*
X-15234256Y-14613000D01*
X-14975000Y-14613000D01*
X-14975000Y-15113000D01*
X-13667000Y-15113000D01*
X-13667000Y-13470085D01*
X-13413000Y-13470085D01*
X-13413000Y-15113000D01*
X-12105000Y-15113000D01*
X-12105000Y-14613000D01*
X-12262834Y-14073517D01*
X-12615104Y-13635500D01*
X-13108181Y-13365633D01*
X-13190961Y-13348096D01*
X-13413000Y-13470085D01*
X-13667000Y-13470085D01*
X-13889039Y-13348096D01*
X-13971819Y-13365633D01*
X-14464896Y-13635500D01*
X-14817166Y-14073517D01*
X-14975000Y-14613000D01*
X-15234256Y-14613000D01*
X-15362834Y-14173517D01*
X-15715104Y-13735500D01*
X-16208181Y-13465633D01*
X-16290961Y-13448096D01*
X-16513000Y-13570085D01*
X-16767000Y-13570085D01*
X-16989039Y-13448096D01*
X-17071819Y-13465633D01*
X-17564896Y-13735500D01*
X-17917166Y-14173517D01*
X-18075000Y-14713000D01*
X-19083900Y-14713000D01*
X-19083900Y-8580169D01*
X-13560554Y-8580169D01*
X-13474148Y-8836653D01*
X-12900664Y-9046468D01*
X-12290540Y-9020849D01*
X-11845852Y-8836653D01*
X-11759446Y-8580169D01*
X-12660000Y-7679615D01*
X-13560554Y-8580169D01*
X-19083900Y-8580169D01*
X-19083900Y-7259346D01*
X-14206458Y-7259346D01*
X-14180839Y-7869470D01*
X-13996643Y-8314158D01*
X-13740159Y-8400564D01*
X-12839605Y-7500010D01*
X-13740159Y-6599456D01*
X-13996643Y-6685862D01*
X-14206458Y-7259346D01*
X-19083900Y-7259346D01*
X-19083900Y-6419851D01*
X-13560554Y-6419851D01*
X-12660000Y-7320405D01*
X-11759446Y-6419851D01*
X-11845852Y-6163367D01*
X-12419336Y-5953552D01*
X-13029460Y-5979171D01*
X-13474148Y-6163367D01*
X-13560554Y-6419851D01*
X-19083900Y-6419851D01*
X-19083900Y0D01*
X-17128990Y0D01*
X-16994334Y-676963D01*
X-16610865Y-1250865D01*
X-16036963Y-1634334D01*
X-15530880Y-1735000D01*
X-14389120Y-1735000D01*
X-13883037Y-1634334D01*
X-13309135Y-1250865D01*
X-12925666Y-676963D01*
X-12791010Y0D01*
X-12925666Y676963D01*
X-13309135Y1250865D01*
X-13883037Y1634334D01*
X-14389120Y1735000D01*
X-15530880Y1735000D01*
X-16036963Y1634334D01*
X-16610865Y1250865D01*
X-16994334Y676963D01*
X-17128990Y0D01*
X-19083900Y0D01*
X-19083900Y11739831D01*
X-13560554Y11739831D01*
X-13474148Y11483347D01*
X-12900664Y11273532D01*
X-12290540Y11299151D01*
X-11845852Y11483347D01*
X-11759446Y11739831D01*
X-12660000Y12640385D01*
X-13560554Y11739831D01*
X-19083900Y11739831D01*
X-19083900Y13060654D01*
X-14206458Y13060654D01*
X-14180839Y12450530D01*
X-13996643Y12005842D01*
X-13740159Y11919436D01*
X-12839605Y12819990D01*
X-12480395Y12819990D01*
X-11579841Y11919436D01*
X-11429438Y11970105D01*
X-11421310Y11950483D01*
X-10989507Y11518680D01*
X-10425330Y11284990D01*
X-9814670Y11284990D01*
X-9650000Y11353199D01*
X-9649999Y-6033219D01*
X-9814670Y-5965010D01*
X-10425330Y-5965010D01*
X-10989507Y-6198700D01*
X-11421310Y-6630503D01*
X-11429438Y-6650125D01*
X-11579841Y-6599456D01*
X-12480395Y-7500010D01*
X-11579841Y-8400564D01*
X-11429438Y-8349895D01*
X-11421310Y-8369517D01*
X-10989507Y-8801320D01*
X-10425330Y-9035010D01*
X-9814670Y-9035010D01*
X-9649999Y-8966801D01*
X-9649999Y-13133148D01*
X-9664888Y-13208000D01*
X-9613213Y-13467788D01*
X-10129198Y-13338792D01*
X-10160000Y-13335000D01*
X-10414000Y-13335000D01*
X-10454161Y-13341517D01*
X-11216161Y-13595517D01*
X-11273564Y-13634697D01*
X-11908564Y-14396697D01*
X-11936272Y-14457121D01*
X-12063272Y-15219121D01*
X-12063272Y-15260879D01*
X-11936272Y-16022879D01*
X-11908564Y-16083303D01*
X-11273564Y-16845303D01*
X-11251607Y-16866042D01*
X-11206802Y-16887208D01*
X-10190802Y-17141208D01*
X-10139121Y-17143272D01*
X-9569766Y-17048379D01*
X-9605904Y-17102464D01*
X-9650000Y-17324149D01*
X-9650000Y-17324153D01*
X-9664888Y-17399000D01*
X-9650000Y-17473847D01*
X-9649999Y-25197588D01*
X-9767431Y-25315020D01*
X-9925000Y-25695426D01*
X-9925000Y-26089842D01*
X-10129198Y-26038792D01*
X-10160000Y-26035000D01*
X-10414000Y-26035000D01*
X-10454161Y-26041517D01*
X-11216161Y-26295517D01*
X-11273564Y-26334697D01*
X-11908564Y-27096697D01*
X-11936272Y-27157121D01*
X-12063272Y-27919121D01*
X-12063272Y-27960879D01*
X-11936272Y-28722879D01*
X-11908564Y-28783303D01*
X-11527405Y-29240694D01*
X-11672431Y-29385720D01*
X-11830000Y-29766126D01*
X-11830000Y-30177874D01*
X-11672431Y-30558280D01*
X-11381280Y-30849431D01*
X-11000874Y-31007000D01*
X-10589126Y-31007000D01*
X-10208720Y-30849431D01*
X-10091289Y-30732000D01*
X-8837847Y-30732000D01*
X-8763000Y-30746888D01*
X-8688153Y-30732000D01*
X-8688148Y-30732000D01*
X-8466463Y-30687904D01*
X-8215071Y-30519929D01*
X-8172669Y-30456470D01*
X-7262527Y-29546329D01*
X-7199071Y-29503929D01*
X-7031096Y-29252537D01*
X-6987000Y-29030852D01*
X-6987000Y-29030847D01*
X-6972112Y-28956000D01*
X-6987000Y-28881153D01*
X-6987000Y-27253593D01*
X-6625000Y-27253593D01*
X-6625000Y-28626406D01*
X-6544641Y-29030399D01*
X-6238529Y-29488528D01*
X-5780400Y-29794641D01*
X-5240000Y-29902133D01*
X-4699601Y-29794641D01*
X-4241472Y-29488529D01*
X-3935359Y-29030400D01*
X-3855000Y-28626407D01*
X-3855000Y-27253593D01*
X-3935359Y-26849600D01*
X-4241471Y-26391471D01*
X-4699600Y-26085359D01*
X-5240000Y-25977867D01*
X-5780399Y-26085359D01*
X-6238528Y-26391471D01*
X-6544641Y-26849600D01*
X-6625000Y-27253593D01*
X-6987000Y-27253593D01*
X-6987000Y-27111801D01*
X-3559327Y-23684129D01*
X-3495871Y-23641729D01*
X-3423018Y-23532697D01*
X-3327896Y-23390338D01*
X-3308564Y-23293148D01*
X-3283800Y-23168652D01*
X-3283800Y-23168648D01*
X-3268912Y-23093800D01*
X-3283800Y-23018952D01*
X-3283800Y-21875750D01*
X-2805000Y-21875750D01*
X-2805000Y-22616310D01*
X-2708327Y-22849699D01*
X-2529698Y-23028327D01*
X-2296309Y-23125000D01*
X-1555750Y-23125000D01*
X-1397000Y-22966250D01*
X-1397000Y-21717000D01*
X-2646250Y-21717000D01*
X-2805000Y-21875750D01*
X-3283800Y-21875750D01*
X-3283800Y-20563690D01*
X-2805000Y-20563690D01*
X-2805000Y-21304250D01*
X-2646250Y-21463000D01*
X-1397000Y-21463000D01*
X-1397000Y-20213750D01*
X-1143000Y-20213750D01*
X-1143000Y-21463000D01*
X-1123000Y-21463000D01*
X-1123000Y-21717000D01*
X-1143000Y-21717000D01*
X-1143000Y-22966250D01*
X-984250Y-23125000D01*
X-243691Y-23125000D01*
X-10302Y-23028327D01*
X168327Y-22849699D01*
X224139Y-22714956D01*
X400493Y-22891310D01*
X964670Y-23125000D01*
X1575330Y-23125000D01*
X2139507Y-22891310D01*
X2571310Y-22459507D01*
X2805000Y-21895330D01*
X2805000Y-21284670D01*
X2571310Y-20720493D01*
X2139507Y-20288690D01*
X1575330Y-20055000D01*
X964670Y-20055000D01*
X400493Y-20288690D01*
X224139Y-20465044D01*
X168327Y-20330301D01*
X-10302Y-20151673D01*
X-243691Y-20055000D01*
X-984250Y-20055000D01*
X-1143000Y-20213750D01*
X-1397000Y-20213750D01*
X-1555750Y-20055000D01*
X-2296309Y-20055000D01*
X-2529698Y-20151673D01*
X-2708327Y-20330301D01*
X-2805000Y-20563690D01*
X-3283800Y-20563690D01*
X-3283800Y-13506439D01*
X-3212153Y-13578086D01*
X-2611222Y-13827000D01*
X-1960778Y-13827000D01*
X-1864895Y-13787284D01*
X-1893331Y-13815720D01*
X-2050900Y-14196126D01*
X-2050900Y-14607874D01*
X-1893331Y-14988280D01*
X-1602180Y-15279431D01*
X-1221774Y-15437000D01*
X-810026Y-15437000D01*
X-429620Y-15279431D01*
X-138469Y-14988280D01*
X19100Y-14607874D01*
X19100Y-14196126D01*
X8450Y-14170414D01*
X12888Y-14148100D01*
X-2000Y-14073252D01*
X-2000Y-11927461D01*
X568092Y-11927461D01*
X592144Y-12577460D01*
X794613Y-13066264D01*
X1061468Y-13164927D01*
X2034395Y-12192000D01*
X1061468Y-11219073D01*
X794613Y-11317736D01*
X568092Y-11927461D01*
X-2000Y-11927461D01*
X-2000Y-6844532D01*
X1241073Y-6844532D01*
X1339736Y-7111387D01*
X1949461Y-7337908D01*
X2599460Y-7313856D01*
X3088264Y-7111387D01*
X3186927Y-6844532D01*
X2214000Y-5871605D01*
X1241073Y-6844532D01*
X-2000Y-6844532D01*
X-2000Y-5427461D01*
X568092Y-5427461D01*
X592144Y-6077460D01*
X794613Y-6566264D01*
X1061468Y-6664927D01*
X2034395Y-5692000D01*
X2393605Y-5692000D01*
X3366532Y-6664927D01*
X3633387Y-6566264D01*
X3859908Y-5956539D01*
X3835856Y-5306540D01*
X3633387Y-4817736D01*
X3366532Y-4719073D01*
X2393605Y-5692000D01*
X2034395Y-5692000D01*
X1061468Y-4719073D01*
X794613Y-4817736D01*
X568092Y-5427461D01*
X-2000Y-5427461D01*
X-2000Y-4539468D01*
X1241073Y-4539468D01*
X2214000Y-5512395D01*
X3186927Y-4539468D01*
X3088264Y-4272613D01*
X2478539Y-4046092D01*
X1828540Y-4070144D01*
X1339736Y-4272613D01*
X1241073Y-4539468D01*
X-2000Y-4539468D01*
X-2000Y-4519846D01*
X12888Y-4444999D01*
X-2000Y-4370152D01*
X-2000Y-4370148D01*
X-46096Y-4148463D01*
X-214071Y-3897071D01*
X-277527Y-3854671D01*
X-1483000Y-2649199D01*
X-1483000Y6425689D01*
X-1365569Y6543120D01*
X-1208000Y6923526D01*
X-1208000Y7335274D01*
X-1365569Y7715680D01*
X-1656720Y8006831D01*
X-2037126Y8164400D01*
X-2209500Y8164400D01*
X-2209500Y14522362D01*
X-2120000Y14504560D01*
X-2030000Y14504560D01*
X-2029999Y9052952D01*
X-2044888Y8978100D01*
X-2029999Y8903248D01*
X-2001188Y8758404D01*
X-1985903Y8681563D01*
X-1882608Y8526972D01*
X-1817928Y8430171D01*
X-1754472Y8387771D01*
X-660527Y7293824D01*
X-618129Y7230371D01*
X-554676Y7187973D01*
X-554674Y7187971D01*
X-429298Y7104198D01*
X-366737Y7062396D01*
X-145052Y7018300D01*
X-145048Y7018300D01*
X-70201Y7003412D01*
X4646Y7018300D01*
X1544689Y7018300D01*
X1662120Y6900869D01*
X2042526Y6743300D01*
X2454274Y6743300D01*
X2834680Y6900869D01*
X3125831Y7192020D01*
X3283400Y7572426D01*
X3283400Y7984174D01*
X3125831Y8364580D01*
X2834680Y8655731D01*
X2454274Y8813300D01*
X2042526Y8813300D01*
X1662120Y8655731D01*
X1544689Y8538300D01*
X1129700Y8538300D01*
X1129700Y8847274D01*
X972131Y9227680D01*
X854700Y9345111D01*
X854700Y14570516D01*
X1123744Y14517000D01*
X1416256Y14517000D01*
X1849418Y14603161D01*
X2340625Y14931375D01*
X2668839Y15422582D01*
X2784092Y16002000D01*
X2668839Y16581418D01*
X2340625Y17072625D01*
X2042239Y17272000D01*
X2340625Y17471375D01*
X2668839Y17962582D01*
X2784092Y18542000D01*
X2668839Y19121418D01*
X2340625Y19612625D01*
X2021522Y19825843D01*
X2151358Y19886817D01*
X2541645Y20315076D01*
X2543684Y20320000D01*
X3191010Y20320000D01*
X3325666Y19643037D01*
X3709135Y19069135D01*
X4283037Y18685666D01*
X4789120Y18585000D01*
X5930880Y18585000D01*
X6436963Y18685666D01*
X7010865Y19069135D01*
X7394334Y19643037D01*
X7528990Y20320000D01*
X7394334Y20996963D01*
X7010865Y21570865D01*
X6436963Y21954334D01*
X5930880Y22055000D01*
X4789120Y22055000D01*
X4283037Y21954334D01*
X3709135Y21570865D01*
X3325666Y20996963D01*
X3191010Y20320000D01*
X2543684Y20320000D01*
X2711476Y20725110D01*
X2590155Y20955000D01*
X1397000Y20955000D01*
X1397000Y20935000D01*
X1143000Y20935000D01*
X1143000Y20955000D01*
X1123000Y20955000D01*
X1123000Y21209000D01*
X1143000Y21209000D01*
X1143000Y22402819D01*
X1397000Y22402819D01*
X1397000Y21209000D01*
X2590155Y21209000D01*
X2711476Y21438890D01*
X2541645Y21848924D01*
X2151358Y22277183D01*
X1626892Y22523486D01*
X1397000Y22402819D01*
X1143000Y22402819D01*
X913108Y22523486D01*
X388642Y22277183D01*
X1353Y21852214D01*
X-199375Y22152625D01*
X-690582Y22480839D01*
X-1123744Y22567000D01*
X-1416256Y22567000D01*
X-1849418Y22480839D01*
X-2340625Y22152625D01*
X-2668839Y21661418D01*
X-2784092Y21082000D01*
X-2668839Y20502582D01*
X-2447491Y20171311D01*
X-3453970Y19164831D01*
X-3517429Y19122429D01*
X-3685404Y18871036D01*
X-3729500Y18649351D01*
X-3729500Y18649347D01*
X-3744388Y18574500D01*
X-3729500Y18499653D01*
X-3729499Y1264472D01*
X-4283037Y1634334D01*
X-4789120Y1735000D01*
X-5930880Y1735000D01*
X-6436963Y1634334D01*
X-7010865Y1250865D01*
X-7394334Y676963D01*
X-7528990Y0D01*
X-7394334Y-676963D01*
X-7010865Y-1250865D01*
X-6436963Y-1634334D01*
X-5930880Y-1735000D01*
X-4789120Y-1735000D01*
X-4283037Y-1634334D01*
X-3729499Y-1264472D01*
X-3729499Y-2290012D01*
X-3837926Y-2245100D01*
X-4249674Y-2245100D01*
X-4630080Y-2402669D01*
X-4921231Y-2693820D01*
X-5078800Y-3074226D01*
X-5078800Y-3485974D01*
X-4921231Y-3866380D01*
X-4803799Y-3983812D01*
X-4803800Y-13364632D01*
X-5240000Y-13277867D01*
X-5780399Y-13385359D01*
X-6238528Y-13691471D01*
X-6544641Y-14149600D01*
X-6625000Y-14553593D01*
X-6625000Y-15926406D01*
X-6544641Y-16330399D01*
X-6238529Y-16788528D01*
X-5780400Y-17094641D01*
X-5240000Y-17202133D01*
X-4803800Y-17115367D01*
X-4803800Y-22778998D01*
X-7855000Y-25830199D01*
X-7855000Y-25695426D01*
X-8012569Y-25315020D01*
X-8130000Y-25197589D01*
X-8130000Y-17713801D01*
X-7389527Y-16973329D01*
X-7326071Y-16930929D01*
X-7158096Y-16679537D01*
X-7114000Y-16457852D01*
X-7114000Y-16457847D01*
X-7099112Y-16383000D01*
X-7114000Y-16308153D01*
X-7114000Y-14298847D01*
X-7099112Y-14224000D01*
X-7114000Y-14149153D01*
X-7114000Y-14149148D01*
X-7158096Y-13927463D01*
X-7326071Y-13676071D01*
X-7389527Y-13633671D01*
X-8130000Y-12893199D01*
X-8130000Y-8966801D01*
X-7965330Y-9035010D01*
X-7354670Y-9035010D01*
X-6790493Y-8801320D01*
X-6358690Y-8369517D01*
X-6125000Y-7805340D01*
X-6125000Y-7194680D01*
X-6358690Y-6630503D01*
X-6790493Y-6198700D01*
X-7354670Y-5965010D01*
X-7965330Y-5965010D01*
X-8130000Y-6033219D01*
X-8130000Y11353199D01*
X-7965330Y11284990D01*
X-7354670Y11284990D01*
X-6790493Y11518680D01*
X-6358690Y11950483D01*
X-6125000Y12514660D01*
X-6125000Y13125320D01*
X-6358690Y13689497D01*
X-6790493Y14121300D01*
X-7354670Y14354990D01*
X-7965330Y14354990D01*
X-8130000Y14286781D01*
X-8130000Y20320000D01*
X-7528990Y20320000D01*
X-7394334Y19643037D01*
X-7010865Y19069135D01*
X-6436963Y18685666D01*
X-5930880Y18585000D01*
X-4789120Y18585000D01*
X-4283037Y18685666D01*
X-3709135Y19069135D01*
X-3325666Y19643037D01*
X-3191010Y20320000D01*
X-3325666Y20996963D01*
X-3709135Y21570865D01*
X-4283037Y21954334D01*
X-4789120Y22055000D01*
X-5930880Y22055000D01*
X-6436963Y21954334D01*
X-7010865Y21570865D01*
X-7394334Y20996963D01*
X-7528990Y20320000D01*
X-8130000Y20320000D01*
X-8130000Y31739767D01*
X-7925330Y31654990D01*
X-7314670Y31654990D01*
X-6750493Y31888680D01*
X-6318690Y32320483D01*
X-6085000Y32884660D01*
X-6085000Y33495320D01*
X-6318690Y34059497D01*
X-6750493Y34491300D01*
X-7314670Y34724990D01*
X-7925330Y34724990D01*
X-8489507Y34491300D01*
X-8850000Y34130807D01*
X-9210493Y34491300D01*
X-9774670Y34724990D01*
X-10385330Y34724990D01*
X-10949507Y34491300D01*
X-11381310Y34059497D01*
X-11389438Y34039875D01*
X-11539841Y34090544D01*
X-12440395Y33189990D01*
X-11539841Y32289436D01*
X-11389438Y32340105D01*
X-11381310Y32320483D01*
X-10949507Y31888680D01*
X-10385330Y31654990D01*
X-9774670Y31654990D01*
X-9665155Y31700353D01*
X-9650000Y31685198D01*
X-9650000Y14286781D01*
X-9814670Y14354990D01*
X-10425330Y14354990D01*
X-10989507Y14121300D01*
X-11421310Y13689497D01*
X-11429438Y13669875D01*
X-11579841Y13720544D01*
X-12480395Y12819990D01*
X-12839605Y12819990D01*
X-13740159Y13720544D01*
X-13996643Y13634138D01*
X-14206458Y13060654D01*
X-19083900Y13060654D01*
X-19083900Y13900149D01*
X-13560554Y13900149D01*
X-12660000Y12999595D01*
X-11759446Y13900149D01*
X-11845852Y14156633D01*
X-12419336Y14366448D01*
X-13029460Y14340829D01*
X-13474148Y14156633D01*
X-13560554Y13900149D01*
X-19083900Y13900149D01*
X-19083900Y20320000D01*
X-17128990Y20320000D01*
X-16994334Y19643037D01*
X-16610865Y19069135D01*
X-16036963Y18685666D01*
X-15530880Y18585000D01*
X-14389120Y18585000D01*
X-13883037Y18685666D01*
X-13309135Y19069135D01*
X-12925666Y19643037D01*
X-12791010Y20320000D01*
X-12925666Y20996963D01*
X-13309135Y21570865D01*
X-13883037Y21954334D01*
X-14389120Y22055000D01*
X-15530880Y22055000D01*
X-16036963Y21954334D01*
X-16610865Y21570865D01*
X-16994334Y20996963D01*
X-17128990Y20320000D01*
X-19083900Y20320000D01*
X-19083900Y32109831D01*
X-13520554Y32109831D01*
X-13434148Y31853347D01*
X-12860664Y31643532D01*
X-12250540Y31669151D01*
X-11805852Y31853347D01*
X-11719446Y32109831D01*
X-12620000Y33010385D01*
X-13520554Y32109831D01*
X-19083900Y32109831D01*
X-19083900Y33430654D01*
X-14166458Y33430654D01*
X-14140839Y32820530D01*
X-13956643Y32375842D01*
X-13700159Y32289436D01*
X-12799605Y33189990D01*
X-13700159Y34090544D01*
X-13956643Y34004138D01*
X-14166458Y33430654D01*
X-19083900Y33430654D01*
X-19083900Y34270149D01*
X-13520554Y34270149D01*
X-12620000Y33369595D01*
X-11719446Y34270149D01*
X-11805852Y34526633D01*
X-12379336Y34736448D01*
X-12989460Y34710829D01*
X-13434148Y34526633D01*
X-13520554Y34270149D01*
X-19083900Y34270149D01*
X-19083900Y36410000D01*
X-2767440Y36410000D01*
X-2767440Y34710000D01*
X-2718157Y34462235D01*
X-2577809Y34252191D01*
X-2367765Y34111843D01*
X-2120000Y34062560D01*
X-420000Y34062560D01*
X-172235Y34111843D01*
X37809Y34252191D01*
X178157Y34462235D01*
X187184Y34507619D01*
X199375Y34489375D01*
X690582Y34161161D01*
X1123744Y34075000D01*
X1416256Y34075000D01*
X1849418Y34161161D01*
X2340625Y34489375D01*
X2668839Y34980582D01*
X2784092Y35560000D01*
X2668839Y36139418D01*
X2340625Y36630625D01*
X2021522Y36843843D01*
X2151358Y36904817D01*
X2541645Y37333076D01*
X2711476Y37743110D01*
X2590155Y37973000D01*
X1397000Y37973000D01*
X1397000Y37953000D01*
X1143000Y37953000D01*
X1143000Y37973000D01*
X-1143000Y37973000D01*
X-1143000Y37953000D01*
X-1397000Y37953000D01*
X-1397000Y37973000D01*
X-2590155Y37973000D01*
X-2711476Y37743110D01*
X-2541645Y37333076D01*
X-2264292Y37028739D01*
X-2367765Y37008157D01*
X-2577809Y36867809D01*
X-2718157Y36657765D01*
X-2767440Y36410000D01*
X-19083900Y36410000D01*
X-19083900Y40690000D01*
X-17088990Y40690000D01*
X-16954334Y40013037D01*
X-16570865Y39439135D01*
X-15996963Y39055666D01*
X-15490880Y38955000D01*
X-14349120Y38955000D01*
X-13843037Y39055666D01*
X-13269135Y39439135D01*
X-12885666Y40013037D01*
X-12751010Y40690000D01*
X-7488990Y40690000D01*
X-7354334Y40013037D01*
X-6970865Y39439135D01*
X-6396963Y39055666D01*
X-5890880Y38955000D01*
X-4749120Y38955000D01*
X-4243037Y39055666D01*
X-3669135Y39439135D01*
X-3285666Y40013037D01*
X-3231946Y40283110D01*
X-2711476Y40283110D01*
X-2541645Y39873076D01*
X-2151358Y39444817D01*
X-1992046Y39370000D01*
X-2151358Y39295183D01*
X-2541645Y38866924D01*
X-2711476Y38456890D01*
X-2590155Y38227000D01*
X-1397000Y38227000D01*
X-1397000Y40513000D01*
X-1143000Y40513000D01*
X-1143000Y38227000D01*
X1143000Y38227000D01*
X1143000Y40513000D01*
X1397000Y40513000D01*
X1397000Y38227000D01*
X2590155Y38227000D01*
X2711476Y38456890D01*
X2541645Y38866924D01*
X2151358Y39295183D01*
X1992046Y39370000D01*
X2151358Y39444817D01*
X2541645Y39873076D01*
X2711476Y40283110D01*
X2590155Y40513000D01*
X1397000Y40513000D01*
X1143000Y40513000D01*
X-1143000Y40513000D01*
X-1397000Y40513000D01*
X-2590155Y40513000D01*
X-2711476Y40283110D01*
X-3231946Y40283110D01*
X-3151010Y40690000D01*
X-3285666Y41366963D01*
X-3669135Y41940865D01*
X-4243037Y42324334D01*
X-4749120Y42425000D01*
X-5890880Y42425000D01*
X-6396963Y42324334D01*
X-6970865Y41940865D01*
X-7354334Y41366963D01*
X-7488990Y40690000D01*
X-12751010Y40690000D01*
X-12885666Y41366963D01*
X-13269135Y41940865D01*
X-13843037Y42324334D01*
X-14349120Y42425000D01*
X-15490880Y42425000D01*
X-15996963Y42324334D01*
X-16570865Y41940865D01*
X-16954334Y41366963D01*
X-17088990Y40690000D01*
X-19083900Y40690000D01*
X-19083900Y42823110D01*
X-2711476Y42823110D01*
X-2541645Y42413076D01*
X-2151358Y41984817D01*
X-1992046Y41910000D01*
X-2151358Y41835183D01*
X-2541645Y41406924D01*
X-2711476Y40996890D01*
X-2590155Y40767000D01*
X-1397000Y40767000D01*
X-1397000Y43053000D01*
X-1143000Y43053000D01*
X-1143000Y40767000D01*
X1143000Y40767000D01*
X1143000Y43053000D01*
X1397000Y43053000D01*
X1397000Y40767000D01*
X2590155Y40767000D01*
X2711476Y40996890D01*
X2541645Y41406924D01*
X2151358Y41835183D01*
X1992046Y41910000D01*
X2151358Y41984817D01*
X2541645Y42413076D01*
X2711476Y42823110D01*
X2590155Y43053000D01*
X1397000Y43053000D01*
X1143000Y43053000D01*
X-1143000Y43053000D01*
X-1397000Y43053000D01*
X-2590155Y43053000D01*
X-2711476Y42823110D01*
X-19083900Y42823110D01*
X-19083900Y45720000D01*
X-2784092Y45720000D01*
X-2668839Y45140582D01*
X-2340625Y44649375D01*
X-2021522Y44436157D01*
X-2151358Y44375183D01*
X-2541645Y43946924D01*
X-2711476Y43536890D01*
X-2590155Y43307000D01*
X-1397000Y43307000D01*
X-1397000Y43327000D01*
X-1143000Y43327000D01*
X-1143000Y43307000D01*
X1143000Y43307000D01*
X1143000Y43327000D01*
X1397000Y43327000D01*
X1397000Y43307000D01*
X2590155Y43307000D01*
X2711476Y43536890D01*
X2541645Y43946924D01*
X2151358Y44375183D01*
X2021522Y44436157D01*
X2340625Y44649375D01*
X2668839Y45140582D01*
X2708505Y45340000D01*
X8038071Y45340000D01*
X8184369Y44604510D01*
X8600991Y43980991D01*
X9224510Y43564369D01*
X9774345Y43455000D01*
X10545655Y43455000D01*
X11095490Y43564369D01*
X11719009Y43980991D01*
X12135631Y44604510D01*
X12281929Y45340000D01*
X12135631Y46075490D01*
X11719009Y46699009D01*
X11095490Y47115631D01*
X10545655Y47225000D01*
X9774345Y47225000D01*
X9224510Y47115631D01*
X8600991Y46699009D01*
X8184369Y46075490D01*
X8038071Y45340000D01*
X2708505Y45340000D01*
X2784092Y45720000D01*
X2668839Y46299418D01*
X2340625Y46790625D01*
X1849418Y47118839D01*
X1416256Y47205000D01*
X1123744Y47205000D01*
X690582Y47118839D01*
X199375Y46790625D01*
X0Y46492239D01*
X-199375Y46790625D01*
X-690582Y47118839D01*
X-1123744Y47205000D01*
X-1416256Y47205000D01*
X-1849418Y47118839D01*
X-2340625Y46790625D01*
X-2668839Y46299418D01*
X-2784092Y45720000D01*
X-19083900Y45720000D01*
X-19083900Y49261400D01*
X19086101Y49261400D01*
X19086100Y-22202298D01*
G04 #@! TD*
M02*
