G04 #@! TF.GenerationSoftware,KiCad,Pcbnew,5.0.2-bee76a0~70~ubuntu18.04.1*
G04 #@! TF.CreationDate,2019-04-14T16:07:02+08:00*
G04 #@! TF.ProjectId,LFO,4c464f2e-6b69-4636-9164-5f7063625858,rev?*
G04 #@! TF.SameCoordinates,PX8d9ee20PY6422c40*
G04 #@! TF.FileFunction,Copper,L1,Top*
G04 #@! TF.FilePolarity,Positive*
%FSLAX46Y46*%
G04 Gerber Fmt 4.6, Leading zero omitted, Abs format (unit mm)*
G04 Created by KiCad (PCBNEW 5.0.2-bee76a0~70~ubuntu18.04.1) date Sun Apr 14 16:07:02 2019*
%MOMM*%
%LPD*%
G01*
G04 APERTURE LIST*
G04 #@! TA.AperFunction,ComponentPad*
%ADD10C,2.000000*%
G04 #@! TD*
G04 #@! TA.AperFunction,WasherPad*
%ADD11O,3.000000X2.200000*%
G04 #@! TD*
G04 #@! TA.AperFunction,ComponentPad*
%ADD12C,1.800000*%
G04 #@! TD*
G04 #@! TA.AperFunction,ComponentPad*
%ADD13O,1.500000X2.600000*%
G04 #@! TD*
G04 #@! TA.AperFunction,ComponentPad*
%ADD14O,1.600000X2.400000*%
G04 #@! TD*
G04 #@! TA.AperFunction,ComponentPad*
%ADD15O,1.600000X2.600000*%
G04 #@! TD*
G04 #@! TA.AperFunction,ComponentPad*
%ADD16R,1.800000X1.800000*%
G04 #@! TD*
G04 #@! TA.AperFunction,ComponentPad*
%ADD17O,1.700000X1.700000*%
G04 #@! TD*
G04 #@! TA.AperFunction,ComponentPad*
%ADD18R,1.700000X1.700000*%
G04 #@! TD*
G04 #@! TA.AperFunction,ComponentPad*
%ADD19O,2.900000X2.500000*%
G04 #@! TD*
G04 #@! TA.AperFunction,ViaPad*
%ADD20C,0.800000*%
G04 #@! TD*
G04 #@! TA.AperFunction,Conductor*
%ADD21C,0.250000*%
G04 #@! TD*
G04 #@! TA.AperFunction,Conductor*
%ADD22C,1.000000*%
G04 #@! TD*
G04 #@! TA.AperFunction,Conductor*
%ADD23C,0.254000*%
G04 #@! TD*
G04 APERTURE END LIST*
D10*
G04 #@! TO.P,SW1,1*
G04 #@! TO.N,RESET*
X-2286000Y-42522000D03*
G04 #@! TO.P,SW1,2*
G04 #@! TO.N,GND*
X2214000Y-42522000D03*
G04 #@! TO.P,SW1,1*
G04 #@! TO.N,RESET*
X-2286000Y-49022000D03*
G04 #@! TO.P,SW1,2*
G04 #@! TO.N,GND*
X2214000Y-49022000D03*
G04 #@! TD*
D11*
G04 #@! TO.P,RV4,*
G04 #@! TO.N,*
X12420000Y0D03*
D12*
G04 #@! TO.P,RV4,3*
G04 #@! TO.N,+12V*
X5120000Y-7500010D03*
G04 #@! TO.P,RV4,2*
G04 #@! TO.N,Net-(C22-Pad1)*
X7660000Y-7500010D03*
G04 #@! TO.P,RV4,1*
G04 #@! TO.N,-12V*
X10120000Y-7500010D03*
D11*
G04 #@! TO.P,RV4,*
G04 #@! TO.N,*
X2820000Y0D03*
G04 #@! TD*
G04 #@! TO.P,RV2,*
G04 #@! TO.N,*
X-2820000Y0D03*
D12*
G04 #@! TO.P,RV2,3*
G04 #@! TO.N,GND*
X-10120000Y-7500010D03*
G04 #@! TO.P,RV2,2*
G04 #@! TO.N,Net-(C8-Pad1)*
X-7580000Y-7500010D03*
G04 #@! TO.P,RV2,1*
G04 #@! TO.N,+5V*
X-5120000Y-7500010D03*
D11*
G04 #@! TO.P,RV2,*
G04 #@! TO.N,*
X-12420000Y0D03*
G04 #@! TD*
D13*
G04 #@! TO.P,J6,T*
G04 #@! TO.N,/DigitalOut/Out*
X12540000Y-45720000D03*
D14*
G04 #@! TO.P,J6,S*
G04 #@! TO.N,GND*
X1140000Y-45720000D03*
D15*
G04 #@! TO.P,J6,TN*
G04 #@! TO.N,Net-(J6-PadTN)*
X4240000Y-45720000D03*
G04 #@! TD*
D13*
G04 #@! TO.P,J5,T*
G04 #@! TO.N,/OutputStage/Inv*
X12540000Y-30480000D03*
D14*
G04 #@! TO.P,J5,S*
G04 #@! TO.N,GND*
X1140000Y-30480000D03*
D15*
G04 #@! TO.P,J5,TN*
G04 #@! TO.N,Net-(J5-PadTN)*
X4240000Y-30480000D03*
G04 #@! TD*
D13*
G04 #@! TO.P,J4,T*
G04 #@! TO.N,/OutputStage/Out*
X12540000Y-15240000D03*
D14*
G04 #@! TO.P,J4,S*
G04 #@! TO.N,GND*
X1140000Y-15240000D03*
D15*
G04 #@! TO.P,J4,TN*
G04 #@! TO.N,Net-(J4-PadTN)*
X4240000Y-15240000D03*
G04 #@! TD*
D13*
G04 #@! TO.P,J3,T*
G04 #@! TO.N,/DigitalIn/In*
X-12540000Y-45720000D03*
D14*
G04 #@! TO.P,J3,S*
G04 #@! TO.N,GND*
X-1140000Y-45720000D03*
D15*
G04 #@! TO.P,J3,TN*
G04 #@! TO.N,+5V*
X-4240000Y-45720000D03*
G04 #@! TD*
D13*
G04 #@! TO.P,J2,T*
G04 #@! TO.N,/CVIn05.sch/In*
X-12540000Y-30480000D03*
D14*
G04 #@! TO.P,J2,S*
G04 #@! TO.N,GND*
X-1140000Y-30480000D03*
D15*
G04 #@! TO.P,J2,TN*
X-4240000Y-30480000D03*
G04 #@! TD*
D13*
G04 #@! TO.P,J1,T*
G04 #@! TO.N,/CVIn55/In*
X-12540000Y-15240000D03*
D14*
G04 #@! TO.P,J1,S*
G04 #@! TO.N,GND*
X-1140000Y-15240000D03*
D15*
G04 #@! TO.P,J1,TN*
X-4240000Y-15240000D03*
G04 #@! TD*
D12*
G04 #@! TO.P,D2,2*
G04 #@! TO.N,Net-(D2-Pad2)*
X1270000Y-38100000D03*
D16*
G04 #@! TO.P,D2,1*
G04 #@! TO.N,GND*
X-1270000Y-38100000D03*
G04 #@! TD*
D17*
G04 #@! TO.P,J7,6*
G04 #@! TO.N,GND*
X6985000Y9906000D03*
G04 #@! TO.P,J7,5*
G04 #@! TO.N,RESET*
X6985000Y7366000D03*
G04 #@! TO.P,J7,4*
G04 #@! TO.N,MOSI*
X9525000Y9906000D03*
G04 #@! TO.P,J7,3*
G04 #@! TO.N,SCK*
X9525000Y7366000D03*
G04 #@! TO.P,J7,2*
G04 #@! TO.N,+5V*
X12065000Y9906000D03*
D18*
G04 #@! TO.P,J7,1*
G04 #@! TO.N,LED1*
X12065000Y7366000D03*
G04 #@! TD*
D17*
G04 #@! TO.P,J8,10*
G04 #@! TO.N,Net-(D3-Pad2)*
X-3810000Y49276000D03*
G04 #@! TO.P,J8,9*
X-6350000Y49276000D03*
G04 #@! TO.P,J8,8*
G04 #@! TO.N,GND*
X-3810000Y46736000D03*
G04 #@! TO.P,J8,7*
X-6350000Y46736000D03*
G04 #@! TO.P,J8,6*
X-3810000Y44196000D03*
G04 #@! TO.P,J8,5*
X-6350000Y44196000D03*
G04 #@! TO.P,J8,4*
X-3810000Y41656000D03*
G04 #@! TO.P,J8,3*
X-6350000Y41656000D03*
G04 #@! TO.P,J8,2*
G04 #@! TO.N,Net-(D5-Pad1)*
X-3810000Y39116000D03*
D18*
G04 #@! TO.P,J8,1*
X-6350000Y39116000D03*
G04 #@! TD*
D12*
G04 #@! TO.P,D1,2*
G04 #@! TO.N,Net-(D1-Pad2)*
X1270000Y-22860000D03*
D16*
G04 #@! TO.P,D1,1*
G04 #@! TO.N,GND*
X-1270000Y-22860000D03*
G04 #@! TD*
D11*
G04 #@! TO.P,RV1,*
G04 #@! TO.N,*
X-280000Y40640000D03*
D12*
G04 #@! TO.P,RV1,3*
G04 #@! TO.N,GND*
X-7580000Y33139990D03*
G04 #@! TO.P,RV1,2*
G04 #@! TO.N,Net-(C5-Pad1)*
X-5040000Y33139990D03*
G04 #@! TO.P,RV1,1*
G04 #@! TO.N,+5V*
X-2580000Y33139990D03*
D11*
G04 #@! TO.P,RV1,*
G04 #@! TO.N,*
X-9880000Y40640000D03*
G04 #@! TD*
G04 #@! TO.P,RV3,*
G04 #@! TO.N,*
X9880000Y20320000D03*
D12*
G04 #@! TO.P,RV3,3*
G04 #@! TO.N,GND*
X2580000Y12819990D03*
G04 #@! TO.P,RV3,2*
G04 #@! TO.N,Net-(R25-Pad1)*
X5120000Y12819990D03*
G04 #@! TO.P,RV3,1*
G04 #@! TO.N,Net-(C15-Pad1)*
X7580000Y12819990D03*
D11*
G04 #@! TO.P,RV3,*
G04 #@! TO.N,*
X280000Y20320000D03*
G04 #@! TD*
D19*
G04 #@! TO.P,SW3,1*
G04 #@! TO.N,Net-(R41-Pad2)*
X-7620000Y15620000D03*
G04 #@! TO.P,SW3,3*
G04 #@! TO.N,Net-(R38-Pad2)*
X-7620000Y25020000D03*
G04 #@! TO.P,SW3,2*
G04 #@! TO.N,SPDTS*
X-7620000Y20320000D03*
G04 #@! TD*
G04 #@! TO.P,SW2,1*
G04 #@! TO.N,Net-(R40-Pad2)*
X7620000Y35940000D03*
G04 #@! TO.P,SW2,3*
G04 #@! TO.N,+5V*
X7620000Y45340000D03*
G04 #@! TO.P,SW2,2*
G04 #@! TO.N,Net-(R38-Pad2)*
X7620000Y40640000D03*
G04 #@! TD*
D20*
G04 #@! TO.N,GND*
X-381000Y6731000D03*
X889000Y6731000D03*
X889000Y8001000D03*
X-381000Y8001000D03*
G04 #@! TO.N,+5V*
X-10199200Y43371700D03*
X6902400Y18973300D03*
X-483000Y3515100D03*
X-11150500Y-22441000D03*
X-9281900Y-33465200D03*
X-1410400Y30544000D03*
X-787500Y-11241200D03*
X-9635100Y-17431000D03*
X6924000Y-48242500D03*
X-10998500Y-34834600D03*
X12614900Y16317000D03*
X10220800Y40542500D03*
X-268000Y46221000D03*
X-268000Y47992000D03*
G04 #@! TO.N,+12V*
X11125000Y-22504000D03*
X12395000Y30759400D03*
X12319000Y45847000D03*
X12319000Y45847000D03*
X12319000Y45847000D03*
X12319000Y44831000D03*
G04 #@! TO.N,TRIG*
X-985400Y-27113600D03*
X2558800Y3429600D03*
G04 #@! TO.N,SPDTS*
X-1481900Y9129000D03*
G04 #@! TO.N,Net-(R29-Pad1)*
X9329000Y-23414400D03*
X1668600Y-13264800D03*
G04 #@! TO.N,Net-(R25-Pad1)*
X4757600Y-2775500D03*
G04 #@! TO.N,-12V*
X-1930000Y-20930000D03*
X9595000Y-17659000D03*
X-12065000Y27051000D03*
X3810000Y-23495000D03*
X-12446000Y33909000D03*
X-13589000Y33909000D03*
G04 #@! TO.N,Net-(C15-Pad1)*
X10128400Y-20930200D03*
X8223000Y-22285400D03*
G04 #@! TO.N,PWM*
X-8176200Y-34289100D03*
X1558400Y3699800D03*
G04 #@! TO.N,FREQ*
X-8884900Y-18922400D03*
X1983100Y5534800D03*
G04 #@! TO.N,SCK*
X9082800Y5172300D03*
G04 #@! TO.N,Net-(C5-Pad1)*
X-8850000Y-11197400D03*
G04 #@! TO.N,GND*
X7086500Y4889600D03*
X6312200Y-19521200D03*
X-9827700Y-1704100D03*
X3149500Y-19994600D03*
X-10382300Y50673500D03*
X-9829400Y4105100D03*
X2732500Y-26156700D03*
X-787500Y-8691100D03*
X-13641100Y15366300D03*
X-12725500Y-22175700D03*
X-13650900Y7343800D03*
X-13425700Y10602800D03*
X-6695100Y27999300D03*
X6339300Y14770400D03*
X8824000Y-43576700D03*
X5979700Y-43929700D03*
X-1402200Y27507500D03*
X-2107600Y-33749200D03*
X-9830700Y-47596800D03*
X-9974100Y23169600D03*
X-12573500Y-34845800D03*
X6959500Y-694600D03*
X13145900Y-2983500D03*
X12725500Y-24866500D03*
X558000Y3793300D03*
X9599300Y-33872300D03*
X12309300Y36255800D03*
X9112100Y27571000D03*
X-9232000Y30939500D03*
X10795000Y44110500D03*
X-3048000Y11684000D03*
X-4826000Y3810000D03*
X3683000Y48006000D03*
X2032000Y48006000D03*
G04 #@! TO.N,LED2*
X-1280100Y-4174800D03*
X-2483600Y8923700D03*
G04 #@! TD*
D21*
G04 #@! TO.N,TRIG*
X762000Y1632800D02*
X2558800Y3429600D01*
X762000Y-8484400D02*
X762000Y1632800D01*
X-2657900Y-11904300D02*
X762000Y-8484400D01*
X-985400Y-27113600D02*
X-2657900Y-25441100D01*
X-2657900Y-25441100D02*
X-2657900Y-11904300D01*
G04 #@! TO.N,SPDTS*
X-7620000Y20320000D02*
X-7620000Y18744700D01*
X-7620000Y18744700D02*
X-1481900Y12606600D01*
X-1481900Y12606600D02*
X-1481900Y9129000D01*
G04 #@! TO.N,Net-(R29-Pad1)*
X1668600Y-13264800D02*
X3090900Y-14687100D01*
X3090900Y-14687100D02*
X3090900Y-18191400D01*
X3090900Y-18191400D02*
X8313800Y-23414300D01*
X8313800Y-23414300D02*
X9329000Y-23414300D01*
X9329000Y-23414300D02*
X9329000Y-23414400D01*
G04 #@! TO.N,Net-(R25-Pad1)*
X5120000Y12820000D02*
X4757600Y12457600D01*
X4757600Y12457600D02*
X4757600Y-2775500D01*
G04 #@! TO.N,Net-(R38-Pad2)*
X-7620000Y25400000D02*
X-7620000Y25020000D01*
X7620000Y40640000D02*
X-7620000Y25400000D01*
G04 #@! TO.N,-12V*
X10120000Y-7500000D02*
X9931000Y-7311000D01*
D22*
X9931000Y-7311000D02*
X9931000Y1245000D01*
X9931000Y1245000D02*
X13835000Y5148300D01*
X13835000Y5148300D02*
X13835000Y52448600D01*
X13835000Y52448600D02*
X-13820000Y52448600D01*
X-13820000Y52448600D02*
X-13938000Y52330800D01*
X-13938000Y52330800D02*
X-13938000Y52254600D01*
X-13938000Y52254600D02*
X-13938000Y51645000D01*
X-13938000Y51645000D02*
X-13938000Y33687200D01*
X-13938000Y52254600D02*
X-13938000Y51645000D01*
X-12065000Y27051000D02*
X-13938000Y28365000D01*
X-13938000Y28365000D02*
X-13938000Y33687200D01*
X-13957000Y33909000D02*
X-12700000Y33909000D01*
X10826000Y-8206000D02*
X10120000Y-7500000D01*
X9595000Y-17659000D02*
X10826000Y-16428000D01*
X10826000Y-16428000D02*
X10826000Y-8206000D01*
D21*
G04 #@! TO.N,Net-(C15-Pad1)*
X10128400Y-20930200D02*
X8739000Y-19540800D01*
X8739000Y-19540800D02*
X8739000Y-17347700D01*
X8739000Y-17347700D02*
X9725400Y-16361300D01*
X9725400Y-16361300D02*
X9725400Y-10868100D01*
X9725400Y-10868100D02*
X8890000Y-10032700D01*
X8890000Y-10032700D02*
X8890000Y3901300D01*
X8890000Y3901300D02*
X8287500Y4503800D01*
X8287500Y4503800D02*
X8287500Y12112500D01*
X8287500Y12112500D02*
X7580000Y12820000D01*
X10128400Y-20930200D02*
X8773200Y-22285400D01*
X8773200Y-22285400D02*
X8223000Y-22285400D01*
G04 #@! TO.N,PWM*
X254000Y2395400D02*
X1558400Y3699800D01*
X254000Y-6620100D02*
X254000Y2395400D01*
X-5475700Y-12349800D02*
X254000Y-6620100D01*
X-8176200Y-34289100D02*
X-5475700Y-31588600D01*
X-5475700Y-31588600D02*
X-5475700Y-12349800D01*
G04 #@! TO.N,RESET*
X1397000Y-8763000D02*
X0Y-10160000D01*
X0Y-40236000D02*
X-2286000Y-42522000D01*
X1397000Y-8416300D02*
X1397000Y-8763000D01*
X3971300Y-5842000D02*
X1397000Y-8416300D01*
X0Y-10160000D02*
X0Y-40236000D01*
X6985000Y-5842000D02*
X3971300Y-5842000D01*
X6477000Y7366000D02*
X5588000Y6477000D01*
X6985000Y7366000D02*
X6477000Y7366000D01*
X5588000Y6477000D02*
X5588000Y2667000D01*
X5588000Y2667000D02*
X8128000Y127000D01*
X8128000Y-4699000D02*
X6985000Y-5842000D01*
X8128000Y127000D02*
X8128000Y-4699000D01*
G04 #@! TO.N,FREQ*
X-1208300Y3824400D02*
X502100Y5534800D01*
X-1208300Y2691500D02*
X-1208300Y3824400D01*
X-254000Y1737200D02*
X-1208300Y2691500D01*
X502100Y5534800D02*
X1983100Y5534800D01*
X-254000Y-6096000D02*
X-254000Y1737200D01*
X-8884900Y-17142900D02*
X-9723400Y-16304400D01*
X-8884900Y-18922400D02*
X-8884900Y-17142900D01*
X-8509000Y-12954000D02*
X-7112000Y-12954000D01*
X-9723400Y-16304400D02*
X-9723400Y-14168400D01*
X-9723400Y-14168400D02*
X-8509000Y-12954000D01*
X-7112000Y-12954000D02*
X-254000Y-6096000D01*
G04 #@! TO.N,SCK*
X9082800Y5172300D02*
X9525000Y5614500D01*
X9525000Y5614500D02*
X9525000Y7366000D01*
G04 #@! TO.N,Net-(C5-Pad1)*
X-10414000Y25400000D02*
X-10414000Y27766000D01*
X-10922000Y24892000D02*
X-10414000Y25400000D01*
X-8850000Y12576000D02*
X-10922000Y14648000D01*
X-10414000Y27766000D02*
X-5040000Y33140000D01*
X-10922000Y14648000D02*
X-10922000Y24892000D01*
X-8850000Y-11197400D02*
X-8850000Y12576000D01*
G04 #@! TO.N,LED2*
X-2483600Y3291500D02*
X-2483600Y8923700D01*
X-762000Y1569900D02*
X-2483600Y3291500D01*
X-1280100Y-4174800D02*
X-762000Y-3656700D01*
X-762000Y-3656700D02*
X-762000Y1569900D01*
G04 #@! TD*
D23*
G04 #@! TO.N,GND*
G36*
X-12625336Y26057650D02*
X-12316488Y25921422D01*
X-11865074Y25911166D01*
X-11444096Y26074439D01*
X-11174000Y26332536D01*
X-11174000Y25714802D01*
X-11406473Y25482328D01*
X-11469928Y25439929D01*
X-11512328Y25376473D01*
X-11512329Y25376472D01*
X-11637903Y25188537D01*
X-11696888Y24892000D01*
X-11681999Y24817148D01*
X-11682000Y14722847D01*
X-11696888Y14648000D01*
X-11682000Y14573153D01*
X-11682000Y14573149D01*
X-11637904Y14351464D01*
X-11469929Y14100071D01*
X-11406470Y14057669D01*
X-9609999Y12261197D01*
X-9610000Y-6052091D01*
X-9879336Y-5953552D01*
X-10489460Y-5979171D01*
X-10934148Y-6163367D01*
X-11020554Y-6419851D01*
X-10120000Y-7320405D01*
X-10105857Y-7306263D01*
X-9926252Y-7485868D01*
X-9940395Y-7500010D01*
X-9926252Y-7514153D01*
X-10105857Y-7693758D01*
X-10120000Y-7679615D01*
X-11020554Y-8580169D01*
X-10934148Y-8836653D01*
X-10360664Y-9046468D01*
X-9750540Y-9020849D01*
X-9610000Y-8962635D01*
X-9610000Y-10493689D01*
X-9727431Y-10611120D01*
X-9885000Y-10991526D01*
X-9885000Y-11403274D01*
X-9727431Y-11783680D01*
X-9436280Y-12074831D01*
X-9055874Y-12232400D01*
X-8776901Y-12232400D01*
X-8805537Y-12238096D01*
X-9056929Y-12406071D01*
X-9099329Y-12469527D01*
X-10207872Y-13578071D01*
X-10271328Y-13620471D01*
X-10313728Y-13683927D01*
X-10313729Y-13683928D01*
X-10439303Y-13871863D01*
X-10498288Y-14168400D01*
X-10483399Y-14243252D01*
X-10483400Y-16229553D01*
X-10498288Y-16304400D01*
X-10483400Y-16379247D01*
X-10483400Y-16379251D01*
X-10439304Y-16600936D01*
X-10370989Y-16703178D01*
X-10512531Y-16844720D01*
X-10670100Y-17225126D01*
X-10670100Y-17636874D01*
X-10512531Y-18017280D01*
X-10221380Y-18308431D01*
X-9840974Y-18466000D01*
X-9816129Y-18466000D01*
X-9919900Y-18716526D01*
X-9919900Y-19128274D01*
X-9762331Y-19508680D01*
X-9471180Y-19799831D01*
X-9090774Y-19957400D01*
X-8679026Y-19957400D01*
X-8298620Y-19799831D01*
X-8007469Y-19508680D01*
X-7849900Y-19128274D01*
X-7849900Y-18716526D01*
X-8007469Y-18336120D01*
X-8124900Y-18218689D01*
X-8124900Y-17217746D01*
X-8110012Y-17142899D01*
X-8124900Y-17068052D01*
X-8124900Y-17068048D01*
X-8134396Y-17020310D01*
X-7650802Y-17141208D01*
X-7599121Y-17143272D01*
X-6837121Y-17016272D01*
X-6776697Y-16988564D01*
X-6235699Y-16537733D01*
X-6235700Y-29199580D01*
X-6506436Y-28874697D01*
X-6528393Y-28853958D01*
X-6573198Y-28832792D01*
X-7589198Y-28578792D01*
X-7620000Y-28575000D01*
X-7874000Y-28575000D01*
X-7914161Y-28581517D01*
X-8676161Y-28835517D01*
X-8733564Y-28874697D01*
X-9368564Y-29636697D01*
X-9396272Y-29697121D01*
X-9523272Y-30459121D01*
X-9523272Y-30500879D01*
X-9396272Y-31262879D01*
X-9368564Y-31323303D01*
X-8733564Y-32085303D01*
X-8711607Y-32106042D01*
X-8666802Y-32127208D01*
X-7650802Y-32381208D01*
X-7599121Y-32383272D01*
X-7294384Y-32332483D01*
X-8216001Y-33254100D01*
X-8249065Y-33254100D01*
X-8404469Y-32878920D01*
X-8695620Y-32587769D01*
X-9076026Y-32430200D01*
X-9487774Y-32430200D01*
X-9868180Y-32587769D01*
X-10159331Y-32878920D01*
X-10316900Y-33259326D01*
X-10316900Y-33671074D01*
X-10159331Y-34051480D01*
X-9868180Y-34342631D01*
X-9487774Y-34500200D01*
X-9209035Y-34500200D01*
X-9053631Y-34875380D01*
X-8762480Y-35166531D01*
X-8382074Y-35324100D01*
X-7970326Y-35324100D01*
X-7589920Y-35166531D01*
X-7298769Y-34875380D01*
X-7141200Y-34494974D01*
X-7141200Y-34328901D01*
X-4991629Y-32179331D01*
X-4671819Y-32354367D01*
X-4589039Y-32371904D01*
X-4367000Y-32249915D01*
X-4367000Y-30607000D01*
X-4113000Y-30607000D01*
X-4113000Y-32249915D01*
X-3890961Y-32371904D01*
X-3808181Y-32354367D01*
X-3315104Y-32084500D01*
X-2962834Y-31646483D01*
X-2805000Y-31107000D01*
X-2805000Y-30607000D01*
X-2575000Y-30607000D01*
X-2575000Y-31007000D01*
X-2417166Y-31546483D01*
X-2064896Y-31984500D01*
X-1571819Y-32254367D01*
X-1489039Y-32271904D01*
X-1267000Y-32149915D01*
X-1267000Y-30607000D01*
X-2575000Y-30607000D01*
X-2805000Y-30607000D01*
X-4113000Y-30607000D01*
X-4367000Y-30607000D01*
X-4387000Y-30607000D01*
X-4387000Y-30353000D01*
X-4367000Y-30353000D01*
X-4367000Y-28710085D01*
X-4113000Y-28710085D01*
X-4113000Y-30353000D01*
X-2805000Y-30353000D01*
X-2805000Y-29953000D01*
X-2575000Y-29953000D01*
X-2575000Y-30353000D01*
X-1267000Y-30353000D01*
X-1267000Y-28810085D01*
X-1489039Y-28688096D01*
X-1571819Y-28705633D01*
X-2064896Y-28975500D01*
X-2417166Y-29413517D01*
X-2575000Y-29953000D01*
X-2805000Y-29953000D01*
X-2805000Y-29853000D01*
X-2962834Y-29313517D01*
X-3315104Y-28875500D01*
X-3808181Y-28605633D01*
X-3890961Y-28588096D01*
X-4113000Y-28710085D01*
X-4367000Y-28710085D01*
X-4589039Y-28588096D01*
X-4671819Y-28605633D01*
X-4715700Y-28629650D01*
X-4715700Y-17090350D01*
X-4671819Y-17114367D01*
X-4589039Y-17131904D01*
X-4367000Y-17009915D01*
X-4367000Y-15367000D01*
X-4387000Y-15367000D01*
X-4387000Y-15113000D01*
X-4367000Y-15113000D01*
X-4367000Y-13470085D01*
X-4589039Y-13348096D01*
X-4671819Y-13365633D01*
X-4715700Y-13389650D01*
X-4715700Y-12664601D01*
X2000Y-7946903D01*
X2000Y-8169598D01*
X-3142372Y-11313971D01*
X-3205828Y-11356371D01*
X-3248228Y-11419827D01*
X-3248229Y-11419828D01*
X-3373803Y-11607763D01*
X-3432788Y-11904300D01*
X-3417899Y-11979152D01*
X-3417899Y-13579239D01*
X-3808181Y-13365633D01*
X-3890961Y-13348096D01*
X-4113000Y-13470085D01*
X-4113000Y-15113000D01*
X-4093000Y-15113000D01*
X-4093000Y-15367000D01*
X-4113000Y-15367000D01*
X-4113000Y-17009915D01*
X-3890961Y-17131904D01*
X-3808181Y-17114367D01*
X-3417899Y-16900761D01*
X-3417900Y-25366253D01*
X-3432788Y-25441100D01*
X-3417900Y-25515947D01*
X-3417900Y-25515951D01*
X-3373804Y-25737636D01*
X-3205829Y-25989029D01*
X-3142370Y-26031431D01*
X-2020400Y-27153402D01*
X-2020400Y-27319474D01*
X-1862831Y-27699880D01*
X-1571680Y-27991031D01*
X-1191274Y-28148600D01*
X-779526Y-28148600D01*
X-759999Y-28140512D01*
X-759999Y-28694655D01*
X-790961Y-28688096D01*
X-1013000Y-28810085D01*
X-1013000Y-30353000D01*
X-993000Y-30353000D01*
X-993000Y-30607000D01*
X-1013000Y-30607000D01*
X-1013000Y-32149915D01*
X-790961Y-32271904D01*
X-759999Y-32265345D01*
X-759999Y-36565000D01*
X-984250Y-36565000D01*
X-1143000Y-36723750D01*
X-1143000Y-37973000D01*
X-1123000Y-37973000D01*
X-1123000Y-38227000D01*
X-1143000Y-38227000D01*
X-1143000Y-39476250D01*
X-984250Y-39635000D01*
X-759999Y-39635000D01*
X-759999Y-39921197D01*
X-1794625Y-40955823D01*
X-1960778Y-40887000D01*
X-2611222Y-40887000D01*
X-3212153Y-41135914D01*
X-3672086Y-41595847D01*
X-3921000Y-42196778D01*
X-3921000Y-42847222D01*
X-3672086Y-43448153D01*
X-3212153Y-43908086D01*
X-2611222Y-44157000D01*
X-1960778Y-44157000D01*
X-1949396Y-44152285D01*
X-2064896Y-44215500D01*
X-2417166Y-44653517D01*
X-2575000Y-45193000D01*
X-2575000Y-45593000D01*
X-1267000Y-45593000D01*
X-1267000Y-44050085D01*
X-1013000Y-44050085D01*
X-1013000Y-45593000D01*
X1013000Y-45593000D01*
X1013000Y-44050085D01*
X790961Y-43928096D01*
X708181Y-43945633D01*
X215104Y-44215500D01*
X0Y-44482963D01*
X-215104Y-44215500D01*
X-708181Y-43945633D01*
X-790961Y-43928096D01*
X-1013000Y-44050085D01*
X-1267000Y-44050085D01*
X-1454271Y-43947198D01*
X-1359847Y-43908086D01*
X-1126293Y-43674532D01*
X1241073Y-43674532D01*
X1339736Y-43941387D01*
X1414375Y-43969116D01*
X1267000Y-44050085D01*
X1267000Y-45593000D01*
X2575000Y-45593000D01*
X2575000Y-45193000D01*
X2541551Y-45078667D01*
X2805000Y-45078667D01*
X2805000Y-46361332D01*
X2888260Y-46779908D01*
X3205423Y-47254576D01*
X3680091Y-47571740D01*
X4240000Y-47683113D01*
X4799908Y-47571740D01*
X5274576Y-47254577D01*
X5591740Y-46779909D01*
X5675000Y-46361333D01*
X5675000Y-45699121D01*
X5716728Y-45699121D01*
X5716728Y-45740879D01*
X5843728Y-46502879D01*
X5871436Y-46563303D01*
X6487778Y-47302913D01*
X6337720Y-47365069D01*
X6046569Y-47656220D01*
X5889000Y-48036626D01*
X5889000Y-48448374D01*
X6046569Y-48828780D01*
X6337720Y-49119931D01*
X6718126Y-49277500D01*
X7129874Y-49277500D01*
X7510280Y-49119931D01*
X7801431Y-48828780D01*
X7959000Y-48448374D01*
X7959000Y-48036626D01*
X7801431Y-47656220D01*
X7750254Y-47605043D01*
X8402879Y-47496272D01*
X8463303Y-47468564D01*
X9225303Y-46833564D01*
X9246042Y-46811607D01*
X9267208Y-46766802D01*
X9521208Y-45750802D01*
X9523272Y-45699121D01*
X9412351Y-45033593D01*
X11155000Y-45033593D01*
X11155000Y-46406406D01*
X11235359Y-46810399D01*
X11541471Y-47268528D01*
X11999600Y-47574641D01*
X12540000Y-47682133D01*
X13080399Y-47574641D01*
X13538528Y-47268529D01*
X13844641Y-46810400D01*
X13925000Y-46406407D01*
X13925000Y-45033593D01*
X13844641Y-44629600D01*
X13538529Y-44171471D01*
X13080400Y-43865359D01*
X12540000Y-43757867D01*
X11999601Y-43865359D01*
X11541472Y-44171471D01*
X11235359Y-44629600D01*
X11155000Y-45033593D01*
X9412351Y-45033593D01*
X9396272Y-44937121D01*
X9368564Y-44876697D01*
X8733564Y-44114697D01*
X8711607Y-44093958D01*
X8666802Y-44072792D01*
X7650802Y-43818792D01*
X7620000Y-43815000D01*
X7366000Y-43815000D01*
X7325839Y-43821517D01*
X6563839Y-44075517D01*
X6506436Y-44114697D01*
X5871436Y-44876697D01*
X5843728Y-44937121D01*
X5716728Y-45699121D01*
X5675000Y-45699121D01*
X5675000Y-45078667D01*
X5591740Y-44660091D01*
X5274577Y-44185423D01*
X4799909Y-43868260D01*
X4240000Y-43756887D01*
X3680092Y-43868260D01*
X3205424Y-44185423D01*
X2888260Y-44660091D01*
X2805000Y-45078667D01*
X2541551Y-45078667D01*
X2417166Y-44653517D01*
X2064896Y-44215500D01*
X1976137Y-44166921D01*
X2599460Y-44143856D01*
X3088264Y-43941387D01*
X3186927Y-43674532D01*
X2214000Y-42701605D01*
X1241073Y-43674532D01*
X-1126293Y-43674532D01*
X-899914Y-43448153D01*
X-651000Y-42847222D01*
X-651000Y-42257461D01*
X568092Y-42257461D01*
X592144Y-42907460D01*
X794613Y-43396264D01*
X1061468Y-43494927D01*
X2034395Y-42522000D01*
X2393605Y-42522000D01*
X3366532Y-43494927D01*
X3633387Y-43396264D01*
X3859908Y-42786539D01*
X3835856Y-42136540D01*
X3633387Y-41647736D01*
X3366532Y-41549073D01*
X2393605Y-42522000D01*
X2034395Y-42522000D01*
X1061468Y-41549073D01*
X794613Y-41647736D01*
X568092Y-42257461D01*
X-651000Y-42257461D01*
X-651000Y-42196778D01*
X-719823Y-42030625D01*
X-58666Y-41369468D01*
X1241073Y-41369468D01*
X2214000Y-42342395D01*
X3186927Y-41369468D01*
X3088264Y-41102613D01*
X2478539Y-40876092D01*
X1828540Y-40900144D01*
X1339736Y-41102613D01*
X1241073Y-41369468D01*
X-58666Y-41369468D01*
X484473Y-40826329D01*
X547929Y-40783929D01*
X715904Y-40532537D01*
X760000Y-40310852D01*
X760000Y-40310848D01*
X774888Y-40236001D01*
X760000Y-40161154D01*
X760000Y-39550223D01*
X964670Y-39635000D01*
X1575330Y-39635000D01*
X2139507Y-39401310D01*
X2571310Y-38969507D01*
X2805000Y-38405330D01*
X2805000Y-37794670D01*
X2571310Y-37230493D01*
X2139507Y-36798690D01*
X1575330Y-36565000D01*
X964670Y-36565000D01*
X760000Y-36649777D01*
X760000Y-32265345D01*
X790961Y-32271904D01*
X1013000Y-32149915D01*
X1013000Y-30607000D01*
X1267000Y-30607000D01*
X1267000Y-32149915D01*
X1489039Y-32271904D01*
X1571819Y-32254367D01*
X2064896Y-31984500D01*
X2417166Y-31546483D01*
X2575000Y-31007000D01*
X2575000Y-30607000D01*
X1267000Y-30607000D01*
X1013000Y-30607000D01*
X993000Y-30607000D01*
X993000Y-30353000D01*
X1013000Y-30353000D01*
X1013000Y-28810085D01*
X1267000Y-28810085D01*
X1267000Y-30353000D01*
X2575000Y-30353000D01*
X2575000Y-29953000D01*
X2541551Y-29838667D01*
X2805000Y-29838667D01*
X2805000Y-31121332D01*
X2888260Y-31539908D01*
X3205423Y-32014576D01*
X3680091Y-32331740D01*
X4240000Y-32443113D01*
X4799908Y-32331740D01*
X5274576Y-32014577D01*
X5591740Y-31539909D01*
X5675000Y-31121333D01*
X5675000Y-30459121D01*
X5716728Y-30459121D01*
X5716728Y-30500879D01*
X5843728Y-31262879D01*
X5871436Y-31323303D01*
X6506436Y-32085303D01*
X6528393Y-32106042D01*
X6573198Y-32127208D01*
X7589198Y-32381208D01*
X7640879Y-32383272D01*
X8402879Y-32256272D01*
X8463303Y-32228564D01*
X9225303Y-31593564D01*
X9246042Y-31571607D01*
X9267208Y-31526802D01*
X9521208Y-30510802D01*
X9523272Y-30459121D01*
X9412351Y-29793593D01*
X11155000Y-29793593D01*
X11155000Y-31166406D01*
X11235359Y-31570399D01*
X11541471Y-32028528D01*
X11999600Y-32334641D01*
X12540000Y-32442133D01*
X13080399Y-32334641D01*
X13538528Y-32028529D01*
X13844641Y-31570400D01*
X13925000Y-31166407D01*
X13925000Y-29793593D01*
X13844641Y-29389600D01*
X13538529Y-28931471D01*
X13080400Y-28625359D01*
X12540000Y-28517867D01*
X11999601Y-28625359D01*
X11541472Y-28931471D01*
X11235359Y-29389600D01*
X11155000Y-29793593D01*
X9412351Y-29793593D01*
X9396272Y-29697121D01*
X9368564Y-29636697D01*
X8733564Y-28874697D01*
X8711607Y-28853958D01*
X8666802Y-28832792D01*
X7650802Y-28578792D01*
X7620000Y-28575000D01*
X7366000Y-28575000D01*
X7325839Y-28581517D01*
X6563839Y-28835517D01*
X6506436Y-28874697D01*
X5871436Y-29636697D01*
X5843728Y-29697121D01*
X5716728Y-30459121D01*
X5675000Y-30459121D01*
X5675000Y-29838667D01*
X5591740Y-29420091D01*
X5274577Y-28945423D01*
X4799909Y-28628260D01*
X4240000Y-28516887D01*
X3680092Y-28628260D01*
X3205424Y-28945423D01*
X2888260Y-29420091D01*
X2805000Y-29838667D01*
X2541551Y-29838667D01*
X2417166Y-29413517D01*
X2064896Y-28975500D01*
X1571819Y-28705633D01*
X1489039Y-28688096D01*
X1267000Y-28810085D01*
X1013000Y-28810085D01*
X790961Y-28688096D01*
X760000Y-28694655D01*
X760000Y-24310223D01*
X964670Y-24395000D01*
X1575330Y-24395000D01*
X2139507Y-24161310D01*
X2571310Y-23729507D01*
X2753721Y-23289126D01*
X2775000Y-23289126D01*
X2775000Y-23700874D01*
X2932569Y-24081280D01*
X3223720Y-24372431D01*
X3604126Y-24530000D01*
X4015874Y-24530000D01*
X4396280Y-24372431D01*
X4687431Y-24081280D01*
X4845000Y-23700874D01*
X4845000Y-23289126D01*
X4687431Y-22908720D01*
X4396280Y-22617569D01*
X4015874Y-22460000D01*
X3604126Y-22460000D01*
X3223720Y-22617569D01*
X2932569Y-22908720D01*
X2775000Y-23289126D01*
X2753721Y-23289126D01*
X2805000Y-23165330D01*
X2805000Y-22554670D01*
X2571310Y-21990493D01*
X2139507Y-21558690D01*
X1575330Y-21325000D01*
X964670Y-21325000D01*
X760000Y-21409777D01*
X760000Y-17025345D01*
X790961Y-17031904D01*
X1013000Y-16909915D01*
X1013000Y-15367000D01*
X993000Y-15367000D01*
X993000Y-15113000D01*
X1013000Y-15113000D01*
X1013000Y-15093000D01*
X1267000Y-15093000D01*
X1267000Y-15113000D01*
X1287000Y-15113000D01*
X1287000Y-15367000D01*
X1267000Y-15367000D01*
X1267000Y-16909915D01*
X1489039Y-17031904D01*
X1571819Y-17014367D01*
X2064896Y-16744500D01*
X2330900Y-16413747D01*
X2330901Y-18116548D01*
X2316012Y-18191400D01*
X2330901Y-18266252D01*
X2374997Y-18487937D01*
X2542972Y-18739329D01*
X2606428Y-18781729D01*
X7723471Y-23898773D01*
X7765871Y-23962229D01*
X8017263Y-24130204D01*
X8238948Y-24174300D01*
X8238952Y-24174300D01*
X8313799Y-24189188D01*
X8388646Y-24174300D01*
X8625189Y-24174300D01*
X8742720Y-24291831D01*
X9123126Y-24449400D01*
X9534874Y-24449400D01*
X9915280Y-24291831D01*
X10206431Y-24000680D01*
X10364000Y-23620274D01*
X10364000Y-23208526D01*
X10362717Y-23205428D01*
X10538720Y-23381431D01*
X10919126Y-23539000D01*
X11330874Y-23539000D01*
X11711280Y-23381431D01*
X12002431Y-23090280D01*
X12160000Y-22709874D01*
X12160000Y-22298126D01*
X12002431Y-21917720D01*
X11711280Y-21626569D01*
X11330874Y-21469000D01*
X11025498Y-21469000D01*
X11163400Y-21136074D01*
X11163400Y-20724326D01*
X11005831Y-20343920D01*
X10714680Y-20052769D01*
X10334274Y-19895200D01*
X10168202Y-19895200D01*
X9499000Y-19225999D01*
X9499000Y-18797139D01*
X9595000Y-18816235D01*
X10037854Y-18728146D01*
X10318523Y-18540608D01*
X11549521Y-17309611D01*
X11644289Y-17246289D01*
X11824011Y-16977316D01*
X11999600Y-17094641D01*
X12540000Y-17202133D01*
X13080399Y-17094641D01*
X13538528Y-16788529D01*
X13844641Y-16330400D01*
X13925000Y-15926407D01*
X13925000Y-14553593D01*
X13844641Y-14149600D01*
X13538529Y-13691471D01*
X13080400Y-13385359D01*
X12540000Y-13277867D01*
X11999601Y-13385359D01*
X11961000Y-13411151D01*
X11961000Y-8317783D01*
X11983235Y-8206000D01*
X11895146Y-7763145D01*
X11880131Y-7740674D01*
X11655000Y-7403741D01*
X11655000Y-7194680D01*
X11421310Y-6630503D01*
X11066000Y-6275193D01*
X11066000Y-1449224D01*
X11343037Y-1634334D01*
X11849120Y-1735000D01*
X12990880Y-1735000D01*
X13496963Y-1634334D01*
X14007160Y-1293431D01*
X14007160Y-52516440D01*
X-14002839Y-52516440D01*
X-14002839Y-48696778D01*
X-3921000Y-48696778D01*
X-3921000Y-49347222D01*
X-3672086Y-49948153D01*
X-3212153Y-50408086D01*
X-2611222Y-50657000D01*
X-1960778Y-50657000D01*
X-1359847Y-50408086D01*
X-1126293Y-50174532D01*
X1241073Y-50174532D01*
X1339736Y-50441387D01*
X1949461Y-50667908D01*
X2599460Y-50643856D01*
X3088264Y-50441387D01*
X3186927Y-50174532D01*
X2214000Y-49201605D01*
X1241073Y-50174532D01*
X-1126293Y-50174532D01*
X-899914Y-49948153D01*
X-651000Y-49347222D01*
X-651000Y-48757461D01*
X568092Y-48757461D01*
X592144Y-49407460D01*
X794613Y-49896264D01*
X1061468Y-49994927D01*
X2034395Y-49022000D01*
X2393605Y-49022000D01*
X3366532Y-49994927D01*
X3633387Y-49896264D01*
X3859908Y-49286539D01*
X3835856Y-48636540D01*
X3633387Y-48147736D01*
X3366532Y-48049073D01*
X2393605Y-49022000D01*
X2034395Y-49022000D01*
X1061468Y-48049073D01*
X794613Y-48147736D01*
X568092Y-48757461D01*
X-651000Y-48757461D01*
X-651000Y-48696778D01*
X-899914Y-48095847D01*
X-1126293Y-47869468D01*
X1241073Y-47869468D01*
X2214000Y-48842395D01*
X3186927Y-47869468D01*
X3088264Y-47602613D01*
X2478539Y-47376092D01*
X1828540Y-47400144D01*
X1339736Y-47602613D01*
X1241073Y-47869468D01*
X-1126293Y-47869468D01*
X-1359847Y-47635914D01*
X-1960778Y-47387000D01*
X-2611222Y-47387000D01*
X-3212153Y-47635914D01*
X-3672086Y-48095847D01*
X-3921000Y-48696778D01*
X-14002839Y-48696778D01*
X-14002839Y-45033594D01*
X-13925000Y-45033594D01*
X-13925000Y-46406407D01*
X-13844641Y-46810400D01*
X-13538528Y-47268529D01*
X-13080399Y-47574641D01*
X-12540000Y-47682133D01*
X-11999600Y-47574641D01*
X-11541471Y-47268529D01*
X-11235359Y-46810400D01*
X-11155000Y-46406407D01*
X-11155000Y-45699121D01*
X-9523272Y-45699121D01*
X-9523272Y-45740879D01*
X-9396272Y-46502879D01*
X-9368564Y-46563303D01*
X-8733564Y-47325303D01*
X-8711607Y-47346042D01*
X-8666802Y-47367208D01*
X-7650802Y-47621208D01*
X-7599121Y-47623272D01*
X-6837121Y-47496272D01*
X-6776697Y-47468564D01*
X-6014697Y-46833564D01*
X-5993958Y-46811607D01*
X-5972792Y-46766802D01*
X-5718792Y-45750802D01*
X-5716728Y-45699121D01*
X-5820136Y-45078668D01*
X-5675000Y-45078668D01*
X-5675000Y-46361333D01*
X-5591740Y-46779909D01*
X-5274576Y-47254577D01*
X-4799908Y-47571740D01*
X-4240000Y-47683113D01*
X-3680091Y-47571740D01*
X-3205423Y-47254577D01*
X-2888260Y-46779909D01*
X-2805000Y-46361333D01*
X-2805000Y-45847000D01*
X-2575000Y-45847000D01*
X-2575000Y-46247000D01*
X-2417166Y-46786483D01*
X-2064896Y-47224500D01*
X-1571819Y-47494367D01*
X-1489039Y-47511904D01*
X-1267000Y-47389915D01*
X-1267000Y-45847000D01*
X-1013000Y-45847000D01*
X-1013000Y-47389915D01*
X-790961Y-47511904D01*
X-708181Y-47494367D01*
X-215104Y-47224500D01*
X0Y-46957037D01*
X215104Y-47224500D01*
X708181Y-47494367D01*
X790961Y-47511904D01*
X1013000Y-47389915D01*
X1013000Y-45847000D01*
X1267000Y-45847000D01*
X1267000Y-47389915D01*
X1489039Y-47511904D01*
X1571819Y-47494367D01*
X2064896Y-47224500D01*
X2417166Y-46786483D01*
X2575000Y-46247000D01*
X2575000Y-45847000D01*
X1267000Y-45847000D01*
X1013000Y-45847000D01*
X-1013000Y-45847000D01*
X-1267000Y-45847000D01*
X-2575000Y-45847000D01*
X-2805000Y-45847000D01*
X-2805000Y-45078667D01*
X-2888260Y-44660091D01*
X-3205424Y-44185423D01*
X-3680092Y-43868260D01*
X-4240000Y-43756887D01*
X-4799909Y-43868260D01*
X-5274577Y-44185424D01*
X-5591740Y-44660092D01*
X-5675000Y-45078668D01*
X-5820136Y-45078668D01*
X-5843728Y-44937121D01*
X-5871436Y-44876697D01*
X-6506436Y-44114697D01*
X-6528393Y-44093958D01*
X-6573198Y-44072792D01*
X-7589198Y-43818792D01*
X-7620000Y-43815000D01*
X-7874000Y-43815000D01*
X-7914161Y-43821517D01*
X-8676161Y-44075517D01*
X-8733564Y-44114697D01*
X-9368564Y-44876697D01*
X-9396272Y-44937121D01*
X-9523272Y-45699121D01*
X-11155000Y-45699121D01*
X-11155000Y-45033593D01*
X-11235359Y-44629600D01*
X-11541472Y-44171471D01*
X-11999601Y-43865359D01*
X-12540000Y-43757867D01*
X-13080400Y-43865359D01*
X-13538529Y-44171472D01*
X-13844641Y-44629601D01*
X-13925000Y-45033594D01*
X-14002839Y-45033594D01*
X-14002839Y-38385750D01*
X-2805000Y-38385750D01*
X-2805000Y-39126310D01*
X-2708327Y-39359699D01*
X-2529698Y-39538327D01*
X-2296309Y-39635000D01*
X-1555750Y-39635000D01*
X-1397000Y-39476250D01*
X-1397000Y-38227000D01*
X-2646250Y-38227000D01*
X-2805000Y-38385750D01*
X-14002839Y-38385750D01*
X-14002839Y-37073690D01*
X-2805000Y-37073690D01*
X-2805000Y-37814250D01*
X-2646250Y-37973000D01*
X-1397000Y-37973000D01*
X-1397000Y-36723750D01*
X-1555750Y-36565000D01*
X-2296309Y-36565000D01*
X-2529698Y-36661673D01*
X-2708327Y-36840301D01*
X-2805000Y-37073690D01*
X-14002839Y-37073690D01*
X-14002839Y-34628726D01*
X-12033500Y-34628726D01*
X-12033500Y-35040474D01*
X-11875931Y-35420880D01*
X-11584780Y-35712031D01*
X-11204374Y-35869600D01*
X-10792626Y-35869600D01*
X-10412220Y-35712031D01*
X-10121069Y-35420880D01*
X-9963500Y-35040474D01*
X-9963500Y-34628726D01*
X-10121069Y-34248320D01*
X-10412220Y-33957169D01*
X-10792626Y-33799600D01*
X-11204374Y-33799600D01*
X-11584780Y-33957169D01*
X-11875931Y-34248320D01*
X-12033500Y-34628726D01*
X-14002839Y-34628726D01*
X-14002839Y-29793594D01*
X-13925000Y-29793594D01*
X-13925000Y-31166407D01*
X-13844641Y-31570400D01*
X-13538528Y-32028529D01*
X-13080399Y-32334641D01*
X-12540000Y-32442133D01*
X-11999600Y-32334641D01*
X-11541471Y-32028529D01*
X-11235359Y-31570400D01*
X-11155000Y-31166407D01*
X-11155000Y-29793593D01*
X-11235359Y-29389600D01*
X-11541472Y-28931471D01*
X-11999601Y-28625359D01*
X-12540000Y-28517867D01*
X-13080400Y-28625359D01*
X-13538529Y-28931472D01*
X-13844641Y-29389601D01*
X-13925000Y-29793594D01*
X-14002839Y-29793594D01*
X-14002839Y-22235126D01*
X-12185500Y-22235126D01*
X-12185500Y-22646874D01*
X-12027931Y-23027280D01*
X-11736780Y-23318431D01*
X-11356374Y-23476000D01*
X-10944626Y-23476000D01*
X-10564220Y-23318431D01*
X-10273069Y-23027280D01*
X-10115500Y-22646874D01*
X-10115500Y-22235126D01*
X-10273069Y-21854720D01*
X-10564220Y-21563569D01*
X-10944626Y-21406000D01*
X-11356374Y-21406000D01*
X-11736780Y-21563569D01*
X-12027931Y-21854720D01*
X-12185500Y-22235126D01*
X-14002839Y-22235126D01*
X-14002839Y-14553594D01*
X-13925000Y-14553594D01*
X-13925000Y-15926407D01*
X-13844641Y-16330400D01*
X-13538528Y-16788529D01*
X-13080399Y-17094641D01*
X-12540000Y-17202133D01*
X-11999600Y-17094641D01*
X-11541471Y-16788529D01*
X-11235359Y-16330400D01*
X-11155000Y-15926407D01*
X-11155000Y-14553593D01*
X-11235359Y-14149600D01*
X-11541472Y-13691471D01*
X-11999601Y-13385359D01*
X-12540000Y-13277867D01*
X-13080400Y-13385359D01*
X-13538529Y-13691472D01*
X-13844641Y-14149601D01*
X-13925000Y-14553594D01*
X-14002839Y-14553594D01*
X-14002839Y-7259346D01*
X-11666458Y-7259346D01*
X-11640839Y-7869470D01*
X-11456643Y-8314158D01*
X-11200159Y-8400564D01*
X-10299605Y-7500010D01*
X-11200159Y-6599456D01*
X-11456643Y-6685862D01*
X-11666458Y-7259346D01*
X-14002839Y-7259346D01*
X-14002839Y-1296319D01*
X-13496963Y-1634334D01*
X-12990880Y-1735000D01*
X-11849120Y-1735000D01*
X-11343037Y-1634334D01*
X-10769135Y-1250865D01*
X-10385666Y-676963D01*
X-10251010Y0D01*
X-10385666Y676963D01*
X-10769135Y1250865D01*
X-11343037Y1634334D01*
X-11849120Y1735000D01*
X-12990880Y1735000D01*
X-13496963Y1634334D01*
X-14002839Y1296319D01*
X-14002839Y27024036D01*
X-12625336Y26057650D01*
X-12625336Y26057650D01*
G37*
X-12625336Y26057650D02*
X-12316488Y25921422D01*
X-11865074Y25911166D01*
X-11444096Y26074439D01*
X-11174000Y26332536D01*
X-11174000Y25714802D01*
X-11406473Y25482328D01*
X-11469928Y25439929D01*
X-11512328Y25376473D01*
X-11512329Y25376472D01*
X-11637903Y25188537D01*
X-11696888Y24892000D01*
X-11681999Y24817148D01*
X-11682000Y14722847D01*
X-11696888Y14648000D01*
X-11682000Y14573153D01*
X-11682000Y14573149D01*
X-11637904Y14351464D01*
X-11469929Y14100071D01*
X-11406470Y14057669D01*
X-9609999Y12261197D01*
X-9610000Y-6052091D01*
X-9879336Y-5953552D01*
X-10489460Y-5979171D01*
X-10934148Y-6163367D01*
X-11020554Y-6419851D01*
X-10120000Y-7320405D01*
X-10105857Y-7306263D01*
X-9926252Y-7485868D01*
X-9940395Y-7500010D01*
X-9926252Y-7514153D01*
X-10105857Y-7693758D01*
X-10120000Y-7679615D01*
X-11020554Y-8580169D01*
X-10934148Y-8836653D01*
X-10360664Y-9046468D01*
X-9750540Y-9020849D01*
X-9610000Y-8962635D01*
X-9610000Y-10493689D01*
X-9727431Y-10611120D01*
X-9885000Y-10991526D01*
X-9885000Y-11403274D01*
X-9727431Y-11783680D01*
X-9436280Y-12074831D01*
X-9055874Y-12232400D01*
X-8776901Y-12232400D01*
X-8805537Y-12238096D01*
X-9056929Y-12406071D01*
X-9099329Y-12469527D01*
X-10207872Y-13578071D01*
X-10271328Y-13620471D01*
X-10313728Y-13683927D01*
X-10313729Y-13683928D01*
X-10439303Y-13871863D01*
X-10498288Y-14168400D01*
X-10483399Y-14243252D01*
X-10483400Y-16229553D01*
X-10498288Y-16304400D01*
X-10483400Y-16379247D01*
X-10483400Y-16379251D01*
X-10439304Y-16600936D01*
X-10370989Y-16703178D01*
X-10512531Y-16844720D01*
X-10670100Y-17225126D01*
X-10670100Y-17636874D01*
X-10512531Y-18017280D01*
X-10221380Y-18308431D01*
X-9840974Y-18466000D01*
X-9816129Y-18466000D01*
X-9919900Y-18716526D01*
X-9919900Y-19128274D01*
X-9762331Y-19508680D01*
X-9471180Y-19799831D01*
X-9090774Y-19957400D01*
X-8679026Y-19957400D01*
X-8298620Y-19799831D01*
X-8007469Y-19508680D01*
X-7849900Y-19128274D01*
X-7849900Y-18716526D01*
X-8007469Y-18336120D01*
X-8124900Y-18218689D01*
X-8124900Y-17217746D01*
X-8110012Y-17142899D01*
X-8124900Y-17068052D01*
X-8124900Y-17068048D01*
X-8134396Y-17020310D01*
X-7650802Y-17141208D01*
X-7599121Y-17143272D01*
X-6837121Y-17016272D01*
X-6776697Y-16988564D01*
X-6235699Y-16537733D01*
X-6235700Y-29199580D01*
X-6506436Y-28874697D01*
X-6528393Y-28853958D01*
X-6573198Y-28832792D01*
X-7589198Y-28578792D01*
X-7620000Y-28575000D01*
X-7874000Y-28575000D01*
X-7914161Y-28581517D01*
X-8676161Y-28835517D01*
X-8733564Y-28874697D01*
X-9368564Y-29636697D01*
X-9396272Y-29697121D01*
X-9523272Y-30459121D01*
X-9523272Y-30500879D01*
X-9396272Y-31262879D01*
X-9368564Y-31323303D01*
X-8733564Y-32085303D01*
X-8711607Y-32106042D01*
X-8666802Y-32127208D01*
X-7650802Y-32381208D01*
X-7599121Y-32383272D01*
X-7294384Y-32332483D01*
X-8216001Y-33254100D01*
X-8249065Y-33254100D01*
X-8404469Y-32878920D01*
X-8695620Y-32587769D01*
X-9076026Y-32430200D01*
X-9487774Y-32430200D01*
X-9868180Y-32587769D01*
X-10159331Y-32878920D01*
X-10316900Y-33259326D01*
X-10316900Y-33671074D01*
X-10159331Y-34051480D01*
X-9868180Y-34342631D01*
X-9487774Y-34500200D01*
X-9209035Y-34500200D01*
X-9053631Y-34875380D01*
X-8762480Y-35166531D01*
X-8382074Y-35324100D01*
X-7970326Y-35324100D01*
X-7589920Y-35166531D01*
X-7298769Y-34875380D01*
X-7141200Y-34494974D01*
X-7141200Y-34328901D01*
X-4991629Y-32179331D01*
X-4671819Y-32354367D01*
X-4589039Y-32371904D01*
X-4367000Y-32249915D01*
X-4367000Y-30607000D01*
X-4113000Y-30607000D01*
X-4113000Y-32249915D01*
X-3890961Y-32371904D01*
X-3808181Y-32354367D01*
X-3315104Y-32084500D01*
X-2962834Y-31646483D01*
X-2805000Y-31107000D01*
X-2805000Y-30607000D01*
X-2575000Y-30607000D01*
X-2575000Y-31007000D01*
X-2417166Y-31546483D01*
X-2064896Y-31984500D01*
X-1571819Y-32254367D01*
X-1489039Y-32271904D01*
X-1267000Y-32149915D01*
X-1267000Y-30607000D01*
X-2575000Y-30607000D01*
X-2805000Y-30607000D01*
X-4113000Y-30607000D01*
X-4367000Y-30607000D01*
X-4387000Y-30607000D01*
X-4387000Y-30353000D01*
X-4367000Y-30353000D01*
X-4367000Y-28710085D01*
X-4113000Y-28710085D01*
X-4113000Y-30353000D01*
X-2805000Y-30353000D01*
X-2805000Y-29953000D01*
X-2575000Y-29953000D01*
X-2575000Y-30353000D01*
X-1267000Y-30353000D01*
X-1267000Y-28810085D01*
X-1489039Y-28688096D01*
X-1571819Y-28705633D01*
X-2064896Y-28975500D01*
X-2417166Y-29413517D01*
X-2575000Y-29953000D01*
X-2805000Y-29953000D01*
X-2805000Y-29853000D01*
X-2962834Y-29313517D01*
X-3315104Y-28875500D01*
X-3808181Y-28605633D01*
X-3890961Y-28588096D01*
X-4113000Y-28710085D01*
X-4367000Y-28710085D01*
X-4589039Y-28588096D01*
X-4671819Y-28605633D01*
X-4715700Y-28629650D01*
X-4715700Y-17090350D01*
X-4671819Y-17114367D01*
X-4589039Y-17131904D01*
X-4367000Y-17009915D01*
X-4367000Y-15367000D01*
X-4387000Y-15367000D01*
X-4387000Y-15113000D01*
X-4367000Y-15113000D01*
X-4367000Y-13470085D01*
X-4589039Y-13348096D01*
X-4671819Y-13365633D01*
X-4715700Y-13389650D01*
X-4715700Y-12664601D01*
X2000Y-7946903D01*
X2000Y-8169598D01*
X-3142372Y-11313971D01*
X-3205828Y-11356371D01*
X-3248228Y-11419827D01*
X-3248229Y-11419828D01*
X-3373803Y-11607763D01*
X-3432788Y-11904300D01*
X-3417899Y-11979152D01*
X-3417899Y-13579239D01*
X-3808181Y-13365633D01*
X-3890961Y-13348096D01*
X-4113000Y-13470085D01*
X-4113000Y-15113000D01*
X-4093000Y-15113000D01*
X-4093000Y-15367000D01*
X-4113000Y-15367000D01*
X-4113000Y-17009915D01*
X-3890961Y-17131904D01*
X-3808181Y-17114367D01*
X-3417899Y-16900761D01*
X-3417900Y-25366253D01*
X-3432788Y-25441100D01*
X-3417900Y-25515947D01*
X-3417900Y-25515951D01*
X-3373804Y-25737636D01*
X-3205829Y-25989029D01*
X-3142370Y-26031431D01*
X-2020400Y-27153402D01*
X-2020400Y-27319474D01*
X-1862831Y-27699880D01*
X-1571680Y-27991031D01*
X-1191274Y-28148600D01*
X-779526Y-28148600D01*
X-759999Y-28140512D01*
X-759999Y-28694655D01*
X-790961Y-28688096D01*
X-1013000Y-28810085D01*
X-1013000Y-30353000D01*
X-993000Y-30353000D01*
X-993000Y-30607000D01*
X-1013000Y-30607000D01*
X-1013000Y-32149915D01*
X-790961Y-32271904D01*
X-759999Y-32265345D01*
X-759999Y-36565000D01*
X-984250Y-36565000D01*
X-1143000Y-36723750D01*
X-1143000Y-37973000D01*
X-1123000Y-37973000D01*
X-1123000Y-38227000D01*
X-1143000Y-38227000D01*
X-1143000Y-39476250D01*
X-984250Y-39635000D01*
X-759999Y-39635000D01*
X-759999Y-39921197D01*
X-1794625Y-40955823D01*
X-1960778Y-40887000D01*
X-2611222Y-40887000D01*
X-3212153Y-41135914D01*
X-3672086Y-41595847D01*
X-3921000Y-42196778D01*
X-3921000Y-42847222D01*
X-3672086Y-43448153D01*
X-3212153Y-43908086D01*
X-2611222Y-44157000D01*
X-1960778Y-44157000D01*
X-1949396Y-44152285D01*
X-2064896Y-44215500D01*
X-2417166Y-44653517D01*
X-2575000Y-45193000D01*
X-2575000Y-45593000D01*
X-1267000Y-45593000D01*
X-1267000Y-44050085D01*
X-1013000Y-44050085D01*
X-1013000Y-45593000D01*
X1013000Y-45593000D01*
X1013000Y-44050085D01*
X790961Y-43928096D01*
X708181Y-43945633D01*
X215104Y-44215500D01*
X0Y-44482963D01*
X-215104Y-44215500D01*
X-708181Y-43945633D01*
X-790961Y-43928096D01*
X-1013000Y-44050085D01*
X-1267000Y-44050085D01*
X-1454271Y-43947198D01*
X-1359847Y-43908086D01*
X-1126293Y-43674532D01*
X1241073Y-43674532D01*
X1339736Y-43941387D01*
X1414375Y-43969116D01*
X1267000Y-44050085D01*
X1267000Y-45593000D01*
X2575000Y-45593000D01*
X2575000Y-45193000D01*
X2541551Y-45078667D01*
X2805000Y-45078667D01*
X2805000Y-46361332D01*
X2888260Y-46779908D01*
X3205423Y-47254576D01*
X3680091Y-47571740D01*
X4240000Y-47683113D01*
X4799908Y-47571740D01*
X5274576Y-47254577D01*
X5591740Y-46779909D01*
X5675000Y-46361333D01*
X5675000Y-45699121D01*
X5716728Y-45699121D01*
X5716728Y-45740879D01*
X5843728Y-46502879D01*
X5871436Y-46563303D01*
X6487778Y-47302913D01*
X6337720Y-47365069D01*
X6046569Y-47656220D01*
X5889000Y-48036626D01*
X5889000Y-48448374D01*
X6046569Y-48828780D01*
X6337720Y-49119931D01*
X6718126Y-49277500D01*
X7129874Y-49277500D01*
X7510280Y-49119931D01*
X7801431Y-48828780D01*
X7959000Y-48448374D01*
X7959000Y-48036626D01*
X7801431Y-47656220D01*
X7750254Y-47605043D01*
X8402879Y-47496272D01*
X8463303Y-47468564D01*
X9225303Y-46833564D01*
X9246042Y-46811607D01*
X9267208Y-46766802D01*
X9521208Y-45750802D01*
X9523272Y-45699121D01*
X9412351Y-45033593D01*
X11155000Y-45033593D01*
X11155000Y-46406406D01*
X11235359Y-46810399D01*
X11541471Y-47268528D01*
X11999600Y-47574641D01*
X12540000Y-47682133D01*
X13080399Y-47574641D01*
X13538528Y-47268529D01*
X13844641Y-46810400D01*
X13925000Y-46406407D01*
X13925000Y-45033593D01*
X13844641Y-44629600D01*
X13538529Y-44171471D01*
X13080400Y-43865359D01*
X12540000Y-43757867D01*
X11999601Y-43865359D01*
X11541472Y-44171471D01*
X11235359Y-44629600D01*
X11155000Y-45033593D01*
X9412351Y-45033593D01*
X9396272Y-44937121D01*
X9368564Y-44876697D01*
X8733564Y-44114697D01*
X8711607Y-44093958D01*
X8666802Y-44072792D01*
X7650802Y-43818792D01*
X7620000Y-43815000D01*
X7366000Y-43815000D01*
X7325839Y-43821517D01*
X6563839Y-44075517D01*
X6506436Y-44114697D01*
X5871436Y-44876697D01*
X5843728Y-44937121D01*
X5716728Y-45699121D01*
X5675000Y-45699121D01*
X5675000Y-45078667D01*
X5591740Y-44660091D01*
X5274577Y-44185423D01*
X4799909Y-43868260D01*
X4240000Y-43756887D01*
X3680092Y-43868260D01*
X3205424Y-44185423D01*
X2888260Y-44660091D01*
X2805000Y-45078667D01*
X2541551Y-45078667D01*
X2417166Y-44653517D01*
X2064896Y-44215500D01*
X1976137Y-44166921D01*
X2599460Y-44143856D01*
X3088264Y-43941387D01*
X3186927Y-43674532D01*
X2214000Y-42701605D01*
X1241073Y-43674532D01*
X-1126293Y-43674532D01*
X-899914Y-43448153D01*
X-651000Y-42847222D01*
X-651000Y-42257461D01*
X568092Y-42257461D01*
X592144Y-42907460D01*
X794613Y-43396264D01*
X1061468Y-43494927D01*
X2034395Y-42522000D01*
X2393605Y-42522000D01*
X3366532Y-43494927D01*
X3633387Y-43396264D01*
X3859908Y-42786539D01*
X3835856Y-42136540D01*
X3633387Y-41647736D01*
X3366532Y-41549073D01*
X2393605Y-42522000D01*
X2034395Y-42522000D01*
X1061468Y-41549073D01*
X794613Y-41647736D01*
X568092Y-42257461D01*
X-651000Y-42257461D01*
X-651000Y-42196778D01*
X-719823Y-42030625D01*
X-58666Y-41369468D01*
X1241073Y-41369468D01*
X2214000Y-42342395D01*
X3186927Y-41369468D01*
X3088264Y-41102613D01*
X2478539Y-40876092D01*
X1828540Y-40900144D01*
X1339736Y-41102613D01*
X1241073Y-41369468D01*
X-58666Y-41369468D01*
X484473Y-40826329D01*
X547929Y-40783929D01*
X715904Y-40532537D01*
X760000Y-40310852D01*
X760000Y-40310848D01*
X774888Y-40236001D01*
X760000Y-40161154D01*
X760000Y-39550223D01*
X964670Y-39635000D01*
X1575330Y-39635000D01*
X2139507Y-39401310D01*
X2571310Y-38969507D01*
X2805000Y-38405330D01*
X2805000Y-37794670D01*
X2571310Y-37230493D01*
X2139507Y-36798690D01*
X1575330Y-36565000D01*
X964670Y-36565000D01*
X760000Y-36649777D01*
X760000Y-32265345D01*
X790961Y-32271904D01*
X1013000Y-32149915D01*
X1013000Y-30607000D01*
X1267000Y-30607000D01*
X1267000Y-32149915D01*
X1489039Y-32271904D01*
X1571819Y-32254367D01*
X2064896Y-31984500D01*
X2417166Y-31546483D01*
X2575000Y-31007000D01*
X2575000Y-30607000D01*
X1267000Y-30607000D01*
X1013000Y-30607000D01*
X993000Y-30607000D01*
X993000Y-30353000D01*
X1013000Y-30353000D01*
X1013000Y-28810085D01*
X1267000Y-28810085D01*
X1267000Y-30353000D01*
X2575000Y-30353000D01*
X2575000Y-29953000D01*
X2541551Y-29838667D01*
X2805000Y-29838667D01*
X2805000Y-31121332D01*
X2888260Y-31539908D01*
X3205423Y-32014576D01*
X3680091Y-32331740D01*
X4240000Y-32443113D01*
X4799908Y-32331740D01*
X5274576Y-32014577D01*
X5591740Y-31539909D01*
X5675000Y-31121333D01*
X5675000Y-30459121D01*
X5716728Y-30459121D01*
X5716728Y-30500879D01*
X5843728Y-31262879D01*
X5871436Y-31323303D01*
X6506436Y-32085303D01*
X6528393Y-32106042D01*
X6573198Y-32127208D01*
X7589198Y-32381208D01*
X7640879Y-32383272D01*
X8402879Y-32256272D01*
X8463303Y-32228564D01*
X9225303Y-31593564D01*
X9246042Y-31571607D01*
X9267208Y-31526802D01*
X9521208Y-30510802D01*
X9523272Y-30459121D01*
X9412351Y-29793593D01*
X11155000Y-29793593D01*
X11155000Y-31166406D01*
X11235359Y-31570399D01*
X11541471Y-32028528D01*
X11999600Y-32334641D01*
X12540000Y-32442133D01*
X13080399Y-32334641D01*
X13538528Y-32028529D01*
X13844641Y-31570400D01*
X13925000Y-31166407D01*
X13925000Y-29793593D01*
X13844641Y-29389600D01*
X13538529Y-28931471D01*
X13080400Y-28625359D01*
X12540000Y-28517867D01*
X11999601Y-28625359D01*
X11541472Y-28931471D01*
X11235359Y-29389600D01*
X11155000Y-29793593D01*
X9412351Y-29793593D01*
X9396272Y-29697121D01*
X9368564Y-29636697D01*
X8733564Y-28874697D01*
X8711607Y-28853958D01*
X8666802Y-28832792D01*
X7650802Y-28578792D01*
X7620000Y-28575000D01*
X7366000Y-28575000D01*
X7325839Y-28581517D01*
X6563839Y-28835517D01*
X6506436Y-28874697D01*
X5871436Y-29636697D01*
X5843728Y-29697121D01*
X5716728Y-30459121D01*
X5675000Y-30459121D01*
X5675000Y-29838667D01*
X5591740Y-29420091D01*
X5274577Y-28945423D01*
X4799909Y-28628260D01*
X4240000Y-28516887D01*
X3680092Y-28628260D01*
X3205424Y-28945423D01*
X2888260Y-29420091D01*
X2805000Y-29838667D01*
X2541551Y-29838667D01*
X2417166Y-29413517D01*
X2064896Y-28975500D01*
X1571819Y-28705633D01*
X1489039Y-28688096D01*
X1267000Y-28810085D01*
X1013000Y-28810085D01*
X790961Y-28688096D01*
X760000Y-28694655D01*
X760000Y-24310223D01*
X964670Y-24395000D01*
X1575330Y-24395000D01*
X2139507Y-24161310D01*
X2571310Y-23729507D01*
X2753721Y-23289126D01*
X2775000Y-23289126D01*
X2775000Y-23700874D01*
X2932569Y-24081280D01*
X3223720Y-24372431D01*
X3604126Y-24530000D01*
X4015874Y-24530000D01*
X4396280Y-24372431D01*
X4687431Y-24081280D01*
X4845000Y-23700874D01*
X4845000Y-23289126D01*
X4687431Y-22908720D01*
X4396280Y-22617569D01*
X4015874Y-22460000D01*
X3604126Y-22460000D01*
X3223720Y-22617569D01*
X2932569Y-22908720D01*
X2775000Y-23289126D01*
X2753721Y-23289126D01*
X2805000Y-23165330D01*
X2805000Y-22554670D01*
X2571310Y-21990493D01*
X2139507Y-21558690D01*
X1575330Y-21325000D01*
X964670Y-21325000D01*
X760000Y-21409777D01*
X760000Y-17025345D01*
X790961Y-17031904D01*
X1013000Y-16909915D01*
X1013000Y-15367000D01*
X993000Y-15367000D01*
X993000Y-15113000D01*
X1013000Y-15113000D01*
X1013000Y-15093000D01*
X1267000Y-15093000D01*
X1267000Y-15113000D01*
X1287000Y-15113000D01*
X1287000Y-15367000D01*
X1267000Y-15367000D01*
X1267000Y-16909915D01*
X1489039Y-17031904D01*
X1571819Y-17014367D01*
X2064896Y-16744500D01*
X2330900Y-16413747D01*
X2330901Y-18116548D01*
X2316012Y-18191400D01*
X2330901Y-18266252D01*
X2374997Y-18487937D01*
X2542972Y-18739329D01*
X2606428Y-18781729D01*
X7723471Y-23898773D01*
X7765871Y-23962229D01*
X8017263Y-24130204D01*
X8238948Y-24174300D01*
X8238952Y-24174300D01*
X8313799Y-24189188D01*
X8388646Y-24174300D01*
X8625189Y-24174300D01*
X8742720Y-24291831D01*
X9123126Y-24449400D01*
X9534874Y-24449400D01*
X9915280Y-24291831D01*
X10206431Y-24000680D01*
X10364000Y-23620274D01*
X10364000Y-23208526D01*
X10362717Y-23205428D01*
X10538720Y-23381431D01*
X10919126Y-23539000D01*
X11330874Y-23539000D01*
X11711280Y-23381431D01*
X12002431Y-23090280D01*
X12160000Y-22709874D01*
X12160000Y-22298126D01*
X12002431Y-21917720D01*
X11711280Y-21626569D01*
X11330874Y-21469000D01*
X11025498Y-21469000D01*
X11163400Y-21136074D01*
X11163400Y-20724326D01*
X11005831Y-20343920D01*
X10714680Y-20052769D01*
X10334274Y-19895200D01*
X10168202Y-19895200D01*
X9499000Y-19225999D01*
X9499000Y-18797139D01*
X9595000Y-18816235D01*
X10037854Y-18728146D01*
X10318523Y-18540608D01*
X11549521Y-17309611D01*
X11644289Y-17246289D01*
X11824011Y-16977316D01*
X11999600Y-17094641D01*
X12540000Y-17202133D01*
X13080399Y-17094641D01*
X13538528Y-16788529D01*
X13844641Y-16330400D01*
X13925000Y-15926407D01*
X13925000Y-14553593D01*
X13844641Y-14149600D01*
X13538529Y-13691471D01*
X13080400Y-13385359D01*
X12540000Y-13277867D01*
X11999601Y-13385359D01*
X11961000Y-13411151D01*
X11961000Y-8317783D01*
X11983235Y-8206000D01*
X11895146Y-7763145D01*
X11880131Y-7740674D01*
X11655000Y-7403741D01*
X11655000Y-7194680D01*
X11421310Y-6630503D01*
X11066000Y-6275193D01*
X11066000Y-1449224D01*
X11343037Y-1634334D01*
X11849120Y-1735000D01*
X12990880Y-1735000D01*
X13496963Y-1634334D01*
X14007160Y-1293431D01*
X14007160Y-52516440D01*
X-14002839Y-52516440D01*
X-14002839Y-48696778D01*
X-3921000Y-48696778D01*
X-3921000Y-49347222D01*
X-3672086Y-49948153D01*
X-3212153Y-50408086D01*
X-2611222Y-50657000D01*
X-1960778Y-50657000D01*
X-1359847Y-50408086D01*
X-1126293Y-50174532D01*
X1241073Y-50174532D01*
X1339736Y-50441387D01*
X1949461Y-50667908D01*
X2599460Y-50643856D01*
X3088264Y-50441387D01*
X3186927Y-50174532D01*
X2214000Y-49201605D01*
X1241073Y-50174532D01*
X-1126293Y-50174532D01*
X-899914Y-49948153D01*
X-651000Y-49347222D01*
X-651000Y-48757461D01*
X568092Y-48757461D01*
X592144Y-49407460D01*
X794613Y-49896264D01*
X1061468Y-49994927D01*
X2034395Y-49022000D01*
X2393605Y-49022000D01*
X3366532Y-49994927D01*
X3633387Y-49896264D01*
X3859908Y-49286539D01*
X3835856Y-48636540D01*
X3633387Y-48147736D01*
X3366532Y-48049073D01*
X2393605Y-49022000D01*
X2034395Y-49022000D01*
X1061468Y-48049073D01*
X794613Y-48147736D01*
X568092Y-48757461D01*
X-651000Y-48757461D01*
X-651000Y-48696778D01*
X-899914Y-48095847D01*
X-1126293Y-47869468D01*
X1241073Y-47869468D01*
X2214000Y-48842395D01*
X3186927Y-47869468D01*
X3088264Y-47602613D01*
X2478539Y-47376092D01*
X1828540Y-47400144D01*
X1339736Y-47602613D01*
X1241073Y-47869468D01*
X-1126293Y-47869468D01*
X-1359847Y-47635914D01*
X-1960778Y-47387000D01*
X-2611222Y-47387000D01*
X-3212153Y-47635914D01*
X-3672086Y-48095847D01*
X-3921000Y-48696778D01*
X-14002839Y-48696778D01*
X-14002839Y-45033594D01*
X-13925000Y-45033594D01*
X-13925000Y-46406407D01*
X-13844641Y-46810400D01*
X-13538528Y-47268529D01*
X-13080399Y-47574641D01*
X-12540000Y-47682133D01*
X-11999600Y-47574641D01*
X-11541471Y-47268529D01*
X-11235359Y-46810400D01*
X-11155000Y-46406407D01*
X-11155000Y-45699121D01*
X-9523272Y-45699121D01*
X-9523272Y-45740879D01*
X-9396272Y-46502879D01*
X-9368564Y-46563303D01*
X-8733564Y-47325303D01*
X-8711607Y-47346042D01*
X-8666802Y-47367208D01*
X-7650802Y-47621208D01*
X-7599121Y-47623272D01*
X-6837121Y-47496272D01*
X-6776697Y-47468564D01*
X-6014697Y-46833564D01*
X-5993958Y-46811607D01*
X-5972792Y-46766802D01*
X-5718792Y-45750802D01*
X-5716728Y-45699121D01*
X-5820136Y-45078668D01*
X-5675000Y-45078668D01*
X-5675000Y-46361333D01*
X-5591740Y-46779909D01*
X-5274576Y-47254577D01*
X-4799908Y-47571740D01*
X-4240000Y-47683113D01*
X-3680091Y-47571740D01*
X-3205423Y-47254577D01*
X-2888260Y-46779909D01*
X-2805000Y-46361333D01*
X-2805000Y-45847000D01*
X-2575000Y-45847000D01*
X-2575000Y-46247000D01*
X-2417166Y-46786483D01*
X-2064896Y-47224500D01*
X-1571819Y-47494367D01*
X-1489039Y-47511904D01*
X-1267000Y-47389915D01*
X-1267000Y-45847000D01*
X-1013000Y-45847000D01*
X-1013000Y-47389915D01*
X-790961Y-47511904D01*
X-708181Y-47494367D01*
X-215104Y-47224500D01*
X0Y-46957037D01*
X215104Y-47224500D01*
X708181Y-47494367D01*
X790961Y-47511904D01*
X1013000Y-47389915D01*
X1013000Y-45847000D01*
X1267000Y-45847000D01*
X1267000Y-47389915D01*
X1489039Y-47511904D01*
X1571819Y-47494367D01*
X2064896Y-47224500D01*
X2417166Y-46786483D01*
X2575000Y-46247000D01*
X2575000Y-45847000D01*
X1267000Y-45847000D01*
X1013000Y-45847000D01*
X-1013000Y-45847000D01*
X-1267000Y-45847000D01*
X-2575000Y-45847000D01*
X-2805000Y-45847000D01*
X-2805000Y-45078667D01*
X-2888260Y-44660091D01*
X-3205424Y-44185423D01*
X-3680092Y-43868260D01*
X-4240000Y-43756887D01*
X-4799909Y-43868260D01*
X-5274577Y-44185424D01*
X-5591740Y-44660092D01*
X-5675000Y-45078668D01*
X-5820136Y-45078668D01*
X-5843728Y-44937121D01*
X-5871436Y-44876697D01*
X-6506436Y-44114697D01*
X-6528393Y-44093958D01*
X-6573198Y-44072792D01*
X-7589198Y-43818792D01*
X-7620000Y-43815000D01*
X-7874000Y-43815000D01*
X-7914161Y-43821517D01*
X-8676161Y-44075517D01*
X-8733564Y-44114697D01*
X-9368564Y-44876697D01*
X-9396272Y-44937121D01*
X-9523272Y-45699121D01*
X-11155000Y-45699121D01*
X-11155000Y-45033593D01*
X-11235359Y-44629600D01*
X-11541472Y-44171471D01*
X-11999601Y-43865359D01*
X-12540000Y-43757867D01*
X-13080400Y-43865359D01*
X-13538529Y-44171472D01*
X-13844641Y-44629601D01*
X-13925000Y-45033594D01*
X-14002839Y-45033594D01*
X-14002839Y-38385750D01*
X-2805000Y-38385750D01*
X-2805000Y-39126310D01*
X-2708327Y-39359699D01*
X-2529698Y-39538327D01*
X-2296309Y-39635000D01*
X-1555750Y-39635000D01*
X-1397000Y-39476250D01*
X-1397000Y-38227000D01*
X-2646250Y-38227000D01*
X-2805000Y-38385750D01*
X-14002839Y-38385750D01*
X-14002839Y-37073690D01*
X-2805000Y-37073690D01*
X-2805000Y-37814250D01*
X-2646250Y-37973000D01*
X-1397000Y-37973000D01*
X-1397000Y-36723750D01*
X-1555750Y-36565000D01*
X-2296309Y-36565000D01*
X-2529698Y-36661673D01*
X-2708327Y-36840301D01*
X-2805000Y-37073690D01*
X-14002839Y-37073690D01*
X-14002839Y-34628726D01*
X-12033500Y-34628726D01*
X-12033500Y-35040474D01*
X-11875931Y-35420880D01*
X-11584780Y-35712031D01*
X-11204374Y-35869600D01*
X-10792626Y-35869600D01*
X-10412220Y-35712031D01*
X-10121069Y-35420880D01*
X-9963500Y-35040474D01*
X-9963500Y-34628726D01*
X-10121069Y-34248320D01*
X-10412220Y-33957169D01*
X-10792626Y-33799600D01*
X-11204374Y-33799600D01*
X-11584780Y-33957169D01*
X-11875931Y-34248320D01*
X-12033500Y-34628726D01*
X-14002839Y-34628726D01*
X-14002839Y-29793594D01*
X-13925000Y-29793594D01*
X-13925000Y-31166407D01*
X-13844641Y-31570400D01*
X-13538528Y-32028529D01*
X-13080399Y-32334641D01*
X-12540000Y-32442133D01*
X-11999600Y-32334641D01*
X-11541471Y-32028529D01*
X-11235359Y-31570400D01*
X-11155000Y-31166407D01*
X-11155000Y-29793593D01*
X-11235359Y-29389600D01*
X-11541472Y-28931471D01*
X-11999601Y-28625359D01*
X-12540000Y-28517867D01*
X-13080400Y-28625359D01*
X-13538529Y-28931472D01*
X-13844641Y-29389601D01*
X-13925000Y-29793594D01*
X-14002839Y-29793594D01*
X-14002839Y-22235126D01*
X-12185500Y-22235126D01*
X-12185500Y-22646874D01*
X-12027931Y-23027280D01*
X-11736780Y-23318431D01*
X-11356374Y-23476000D01*
X-10944626Y-23476000D01*
X-10564220Y-23318431D01*
X-10273069Y-23027280D01*
X-10115500Y-22646874D01*
X-10115500Y-22235126D01*
X-10273069Y-21854720D01*
X-10564220Y-21563569D01*
X-10944626Y-21406000D01*
X-11356374Y-21406000D01*
X-11736780Y-21563569D01*
X-12027931Y-21854720D01*
X-12185500Y-22235126D01*
X-14002839Y-22235126D01*
X-14002839Y-14553594D01*
X-13925000Y-14553594D01*
X-13925000Y-15926407D01*
X-13844641Y-16330400D01*
X-13538528Y-16788529D01*
X-13080399Y-17094641D01*
X-12540000Y-17202133D01*
X-11999600Y-17094641D01*
X-11541471Y-16788529D01*
X-11235359Y-16330400D01*
X-11155000Y-15926407D01*
X-11155000Y-14553593D01*
X-11235359Y-14149600D01*
X-11541472Y-13691471D01*
X-11999601Y-13385359D01*
X-12540000Y-13277867D01*
X-13080400Y-13385359D01*
X-13538529Y-13691472D01*
X-13844641Y-14149601D01*
X-13925000Y-14553594D01*
X-14002839Y-14553594D01*
X-14002839Y-7259346D01*
X-11666458Y-7259346D01*
X-11640839Y-7869470D01*
X-11456643Y-8314158D01*
X-11200159Y-8400564D01*
X-10299605Y-7500010D01*
X-11200159Y-6599456D01*
X-11456643Y-6685862D01*
X-11666458Y-7259346D01*
X-14002839Y-7259346D01*
X-14002839Y-1296319D01*
X-13496963Y-1634334D01*
X-12990880Y-1735000D01*
X-11849120Y-1735000D01*
X-11343037Y-1634334D01*
X-10769135Y-1250865D01*
X-10385666Y-676963D01*
X-10251010Y0D01*
X-10385666Y676963D01*
X-10769135Y1250865D01*
X-11343037Y1634334D01*
X-11849120Y1735000D01*
X-12990880Y1735000D01*
X-13496963Y1634334D01*
X-14002839Y1296319D01*
X-14002839Y27024036D01*
X-12625336Y26057650D01*
G36*
X-1143000Y-22733000D02*
X-1123000Y-22733000D01*
X-1123000Y-22987000D01*
X-1143000Y-22987000D01*
X-1143000Y-24236250D01*
X-984250Y-24395000D01*
X-760000Y-24395000D01*
X-759999Y-26086688D01*
X-779526Y-26078600D01*
X-945598Y-26078600D01*
X-1897900Y-25126299D01*
X-1897900Y-24395000D01*
X-1555750Y-24395000D01*
X-1397000Y-24236250D01*
X-1397000Y-22987000D01*
X-1417000Y-22987000D01*
X-1417000Y-22733000D01*
X-1397000Y-22733000D01*
X-1397000Y-22713000D01*
X-1143000Y-22713000D01*
X-1143000Y-22733000D01*
X-1143000Y-22733000D01*
G37*
X-1143000Y-22733000D02*
X-1123000Y-22733000D01*
X-1123000Y-22987000D01*
X-1143000Y-22987000D01*
X-1143000Y-24236250D01*
X-984250Y-24395000D01*
X-760000Y-24395000D01*
X-759999Y-26086688D01*
X-779526Y-26078600D01*
X-945598Y-26078600D01*
X-1897900Y-25126299D01*
X-1897900Y-24395000D01*
X-1555750Y-24395000D01*
X-1397000Y-24236250D01*
X-1397000Y-22987000D01*
X-1417000Y-22987000D01*
X-1417000Y-22733000D01*
X-1397000Y-22733000D01*
X-1397000Y-22713000D01*
X-1143000Y-22713000D01*
X-1143000Y-22733000D01*
G36*
X3585000Y-7805340D02*
X3818690Y-8369517D01*
X4250493Y-8801320D01*
X4814670Y-9035010D01*
X5425330Y-9035010D01*
X5989507Y-8801320D01*
X6390000Y-8400827D01*
X6790493Y-8801320D01*
X7354670Y-9035010D01*
X7965330Y-9035010D01*
X8130000Y-8966801D01*
X8130000Y-9957853D01*
X8115112Y-10032700D01*
X8130000Y-10107547D01*
X8130000Y-10107551D01*
X8174096Y-10329236D01*
X8342071Y-10580629D01*
X8405530Y-10623031D01*
X8965401Y-11182903D01*
X8965400Y-13912901D01*
X8733564Y-13634697D01*
X8711607Y-13613958D01*
X8666802Y-13592792D01*
X7650802Y-13338792D01*
X7620000Y-13335000D01*
X7366000Y-13335000D01*
X7325839Y-13341517D01*
X6563839Y-13595517D01*
X6506436Y-13634697D01*
X5871436Y-14396697D01*
X5843728Y-14457121D01*
X5716728Y-15219121D01*
X5716728Y-15260879D01*
X5843728Y-16022879D01*
X5871436Y-16083303D01*
X6506436Y-16845303D01*
X6528393Y-16866042D01*
X6573198Y-16887208D01*
X7589198Y-17141208D01*
X7640879Y-17143272D01*
X8017253Y-17080543D01*
X7964112Y-17347700D01*
X7979001Y-17422552D01*
X7979000Y-19465953D01*
X7964112Y-19540800D01*
X7979000Y-19615647D01*
X7979000Y-19615651D01*
X8023096Y-19837336D01*
X8191071Y-20088729D01*
X8254530Y-20131131D01*
X9053598Y-20930200D01*
X8644206Y-21339593D01*
X8428874Y-21250400D01*
X8017126Y-21250400D01*
X7636720Y-21407969D01*
X7509495Y-21535194D01*
X3850900Y-17876599D01*
X3850900Y-17125716D01*
X4240000Y-17203113D01*
X4799908Y-17091740D01*
X5274576Y-16774577D01*
X5591740Y-16299909D01*
X5675000Y-15881333D01*
X5675000Y-14598667D01*
X5591740Y-14180091D01*
X5274577Y-13705423D01*
X4799909Y-13388260D01*
X4240000Y-13276887D01*
X3680092Y-13388260D01*
X3205424Y-13705423D01*
X3196853Y-13718251D01*
X2703600Y-13224999D01*
X2703600Y-13058926D01*
X2546031Y-12678520D01*
X2254880Y-12387369D01*
X1874474Y-12229800D01*
X1462726Y-12229800D01*
X1082320Y-12387369D01*
X791169Y-12678520D01*
X760000Y-12753769D01*
X760000Y-10474801D01*
X1881476Y-9353327D01*
X1944929Y-9310929D01*
X1987327Y-9247476D01*
X1987329Y-9247474D01*
X2071102Y-9122098D01*
X2112904Y-9059537D01*
X2157000Y-8837851D01*
X2157000Y-8837848D01*
X2171888Y-8763001D01*
X2164125Y-8723976D01*
X3585000Y-7303102D01*
X3585000Y-7805340D01*
X3585000Y-7805340D01*
G37*
X3585000Y-7805340D02*
X3818690Y-8369517D01*
X4250493Y-8801320D01*
X4814670Y-9035010D01*
X5425330Y-9035010D01*
X5989507Y-8801320D01*
X6390000Y-8400827D01*
X6790493Y-8801320D01*
X7354670Y-9035010D01*
X7965330Y-9035010D01*
X8130000Y-8966801D01*
X8130000Y-9957853D01*
X8115112Y-10032700D01*
X8130000Y-10107547D01*
X8130000Y-10107551D01*
X8174096Y-10329236D01*
X8342071Y-10580629D01*
X8405530Y-10623031D01*
X8965401Y-11182903D01*
X8965400Y-13912901D01*
X8733564Y-13634697D01*
X8711607Y-13613958D01*
X8666802Y-13592792D01*
X7650802Y-13338792D01*
X7620000Y-13335000D01*
X7366000Y-13335000D01*
X7325839Y-13341517D01*
X6563839Y-13595517D01*
X6506436Y-13634697D01*
X5871436Y-14396697D01*
X5843728Y-14457121D01*
X5716728Y-15219121D01*
X5716728Y-15260879D01*
X5843728Y-16022879D01*
X5871436Y-16083303D01*
X6506436Y-16845303D01*
X6528393Y-16866042D01*
X6573198Y-16887208D01*
X7589198Y-17141208D01*
X7640879Y-17143272D01*
X8017253Y-17080543D01*
X7964112Y-17347700D01*
X7979001Y-17422552D01*
X7979000Y-19465953D01*
X7964112Y-19540800D01*
X7979000Y-19615647D01*
X7979000Y-19615651D01*
X8023096Y-19837336D01*
X8191071Y-20088729D01*
X8254530Y-20131131D01*
X9053598Y-20930200D01*
X8644206Y-21339593D01*
X8428874Y-21250400D01*
X8017126Y-21250400D01*
X7636720Y-21407969D01*
X7509495Y-21535194D01*
X3850900Y-17876599D01*
X3850900Y-17125716D01*
X4240000Y-17203113D01*
X4799908Y-17091740D01*
X5274576Y-16774577D01*
X5591740Y-16299909D01*
X5675000Y-15881333D01*
X5675000Y-14598667D01*
X5591740Y-14180091D01*
X5274577Y-13705423D01*
X4799909Y-13388260D01*
X4240000Y-13276887D01*
X3680092Y-13388260D01*
X3205424Y-13705423D01*
X3196853Y-13718251D01*
X2703600Y-13224999D01*
X2703600Y-13058926D01*
X2546031Y-12678520D01*
X2254880Y-12387369D01*
X1874474Y-12229800D01*
X1462726Y-12229800D01*
X1082320Y-12387369D01*
X791169Y-12678520D01*
X760000Y-12753769D01*
X760000Y-10474801D01*
X1881476Y-9353327D01*
X1944929Y-9310929D01*
X1987327Y-9247476D01*
X1987329Y-9247474D01*
X2071102Y-9122098D01*
X2112904Y-9059537D01*
X2157000Y-8837851D01*
X2157000Y-8837848D01*
X2171888Y-8763001D01*
X2164125Y-8723976D01*
X3585000Y-7303102D01*
X3585000Y-7805340D01*
G36*
X-1373780Y-12118631D02*
X-993374Y-12276200D01*
X-760000Y-12276200D01*
X-760000Y-13454655D01*
X-790961Y-13448096D01*
X-1013000Y-13570085D01*
X-1013000Y-15113000D01*
X-993000Y-15113000D01*
X-993000Y-15367000D01*
X-1013000Y-15367000D01*
X-1013000Y-16909915D01*
X-790961Y-17031904D01*
X-760000Y-17025345D01*
X-760000Y-21325000D01*
X-973338Y-21325000D01*
X-895000Y-21135874D01*
X-895000Y-20724126D01*
X-1052569Y-20343720D01*
X-1343720Y-20052569D01*
X-1724126Y-19895000D01*
X-1897900Y-19895000D01*
X-1897900Y-16835899D01*
X-1571819Y-17014367D01*
X-1489039Y-17031904D01*
X-1267000Y-16909915D01*
X-1267000Y-15367000D01*
X-1287000Y-15367000D01*
X-1287000Y-15113000D01*
X-1267000Y-15113000D01*
X-1267000Y-13570085D01*
X-1489039Y-13448096D01*
X-1571819Y-13465633D01*
X-1897900Y-13644101D01*
X-1897900Y-12219101D01*
X-1585605Y-11906806D01*
X-1373780Y-12118631D01*
X-1373780Y-12118631D01*
G37*
X-1373780Y-12118631D02*
X-993374Y-12276200D01*
X-760000Y-12276200D01*
X-760000Y-13454655D01*
X-790961Y-13448096D01*
X-1013000Y-13570085D01*
X-1013000Y-15113000D01*
X-993000Y-15113000D01*
X-993000Y-15367000D01*
X-1013000Y-15367000D01*
X-1013000Y-16909915D01*
X-790961Y-17031904D01*
X-760000Y-17025345D01*
X-760000Y-21325000D01*
X-973338Y-21325000D01*
X-895000Y-21135874D01*
X-895000Y-20724126D01*
X-1052569Y-20343720D01*
X-1343720Y-20052569D01*
X-1724126Y-19895000D01*
X-1897900Y-19895000D01*
X-1897900Y-16835899D01*
X-1571819Y-17014367D01*
X-1489039Y-17031904D01*
X-1267000Y-16909915D01*
X-1267000Y-15367000D01*
X-1287000Y-15367000D01*
X-1287000Y-15113000D01*
X-1267000Y-15113000D01*
X-1267000Y-13570085D01*
X-1489039Y-13448096D01*
X-1571819Y-13465633D01*
X-1897900Y-13644101D01*
X-1897900Y-12219101D01*
X-1585605Y-11906806D01*
X-1373780Y-12118631D01*
G36*
X12700001Y46809460D02*
X12524874Y46882000D01*
X12113126Y46882000D01*
X11732720Y46724431D01*
X11441569Y46433280D01*
X11284000Y46052874D01*
X11284000Y45641126D01*
X11409144Y45339000D01*
X11284000Y45036874D01*
X11284000Y44625126D01*
X11441569Y44244720D01*
X11732720Y43953569D01*
X12113126Y43796000D01*
X12524874Y43796000D01*
X12700001Y43868540D01*
X12700001Y31753341D01*
X12600874Y31794400D01*
X12189126Y31794400D01*
X11808720Y31636831D01*
X11517569Y31345680D01*
X11360000Y30965274D01*
X11360000Y30553526D01*
X11517569Y30173120D01*
X11808720Y29881969D01*
X12189126Y29724400D01*
X12600874Y29724400D01*
X12700001Y29765459D01*
X12700000Y17352000D01*
X12409026Y17352000D01*
X12028620Y17194431D01*
X11737469Y16903280D01*
X11579900Y16522874D01*
X11579900Y16111126D01*
X11737469Y15730720D01*
X12028620Y15439569D01*
X12409026Y15282000D01*
X12700000Y15282000D01*
X12700000Y11267700D01*
X12644418Y11304839D01*
X12211256Y11391000D01*
X11918744Y11391000D01*
X11485582Y11304839D01*
X10994375Y10976625D01*
X10795000Y10678239D01*
X10595625Y10976625D01*
X10104418Y11304839D01*
X9671256Y11391000D01*
X9378744Y11391000D01*
X9047500Y11325112D01*
X9047500Y12037654D01*
X9062388Y12112501D01*
X9047500Y12187348D01*
X9047500Y12187352D01*
X9025415Y12298382D01*
X9115000Y12514660D01*
X9115000Y13125320D01*
X8881310Y13689497D01*
X8449507Y14121300D01*
X7885330Y14354990D01*
X7274670Y14354990D01*
X6710493Y14121300D01*
X6350000Y13760807D01*
X5989507Y14121300D01*
X5425330Y14354990D01*
X4814670Y14354990D01*
X4250493Y14121300D01*
X3818690Y13689497D01*
X3810562Y13669875D01*
X3660159Y13720544D01*
X2759605Y12819990D01*
X3660159Y11919436D01*
X3810562Y11970105D01*
X3818690Y11950483D01*
X3997600Y11771573D01*
X3997601Y1567090D01*
X3896963Y1634334D01*
X3390880Y1735000D01*
X2249120Y1735000D01*
X1861998Y1657997D01*
X2598602Y2394600D01*
X2764674Y2394600D01*
X3145080Y2552169D01*
X3436231Y2843320D01*
X3593800Y3223726D01*
X3593800Y3635474D01*
X3436231Y4015880D01*
X3145080Y4307031D01*
X2764674Y4464600D01*
X2352926Y4464600D01*
X2285316Y4436595D01*
X2212405Y4509506D01*
X2569380Y4657369D01*
X2860531Y4948520D01*
X3018100Y5328926D01*
X3018100Y5740674D01*
X2860531Y6121080D01*
X2569380Y6412231D01*
X2188974Y6569800D01*
X1777226Y6569800D01*
X1396820Y6412231D01*
X1279389Y6294800D01*
X576947Y6294800D01*
X502100Y6309688D01*
X427253Y6294800D01*
X427248Y6294800D01*
X205563Y6250704D01*
X-45829Y6082729D01*
X-88229Y6019273D01*
X-1692772Y4414729D01*
X-1723600Y4394130D01*
X-1723600Y8108840D01*
X-1687774Y8094000D01*
X-1276026Y8094000D01*
X-895620Y8251569D01*
X-604469Y8542720D01*
X-446900Y8923126D01*
X-446900Y9334874D01*
X-604469Y9715280D01*
X-721900Y9832711D01*
X-721900Y11739831D01*
X1679446Y11739831D01*
X1765852Y11483347D01*
X2339336Y11273532D01*
X2949460Y11299151D01*
X3394148Y11483347D01*
X3480554Y11739831D01*
X2580000Y12640385D01*
X1679446Y11739831D01*
X-721900Y11739831D01*
X-721900Y12531754D01*
X-707012Y12606601D01*
X-721900Y12681448D01*
X-721900Y12681452D01*
X-765996Y12903137D01*
X-871245Y13060654D01*
X1033542Y13060654D01*
X1059161Y12450530D01*
X1243357Y12005842D01*
X1499841Y11919436D01*
X2400395Y12819990D01*
X1499841Y13720544D01*
X1243357Y13634138D01*
X1033542Y13060654D01*
X-871245Y13060654D01*
X-933971Y13154529D01*
X-997427Y13196929D01*
X-1700647Y13900149D01*
X1679446Y13900149D01*
X2580000Y12999595D01*
X3480554Y13900149D01*
X3394148Y14156633D01*
X2820664Y14366448D01*
X2210540Y14340829D01*
X1765852Y14156633D01*
X1679446Y13900149D01*
X-1700647Y13900149D01*
X-6480909Y18680411D01*
X-6060991Y18960991D01*
X-5644369Y19584510D01*
X-5498071Y20320000D01*
X-1888990Y20320000D01*
X-1754334Y19643037D01*
X-1370865Y19069135D01*
X-796963Y18685666D01*
X-290880Y18585000D01*
X850880Y18585000D01*
X1356963Y18685666D01*
X1930865Y19069135D01*
X2004390Y19179174D01*
X5867400Y19179174D01*
X5867400Y18767426D01*
X6024969Y18387020D01*
X6316120Y18095869D01*
X6696526Y17938300D01*
X7108274Y17938300D01*
X7488680Y18095869D01*
X7779831Y18387020D01*
X7937400Y18767426D01*
X7937400Y19179174D01*
X7779831Y19559580D01*
X7488680Y19850731D01*
X7108274Y20008300D01*
X6696526Y20008300D01*
X6316120Y19850731D01*
X6024969Y19559580D01*
X5867400Y19179174D01*
X2004390Y19179174D01*
X2314334Y19643037D01*
X2448990Y20320000D01*
X7711010Y20320000D01*
X7845666Y19643037D01*
X8229135Y19069135D01*
X8803037Y18685666D01*
X9309120Y18585000D01*
X10450880Y18585000D01*
X10956963Y18685666D01*
X11530865Y19069135D01*
X11914334Y19643037D01*
X12048990Y20320000D01*
X11914334Y20996963D01*
X11530865Y21570865D01*
X10956963Y21954334D01*
X10450880Y22055000D01*
X9309120Y22055000D01*
X8803037Y21954334D01*
X8229135Y21570865D01*
X7845666Y20996963D01*
X7711010Y20320000D01*
X2448990Y20320000D01*
X2314334Y20996963D01*
X1930865Y21570865D01*
X1356963Y21954334D01*
X850880Y22055000D01*
X-290880Y22055000D01*
X-796963Y21954334D01*
X-1370865Y21570865D01*
X-1754334Y20996963D01*
X-1888990Y20320000D01*
X-5498071Y20320000D01*
X-5644369Y21055490D01*
X-6060991Y21679009D01*
X-6684510Y22095631D01*
X-7234345Y22205000D01*
X-8005655Y22205000D01*
X-8555490Y22095631D01*
X-9179009Y21679009D01*
X-9595631Y21055490D01*
X-9741929Y20320000D01*
X-9595631Y19584510D01*
X-9179009Y18960991D01*
X-8555490Y18544369D01*
X-8346782Y18502854D01*
X-8335903Y18448163D01*
X-8295048Y18387020D01*
X-8167928Y18196771D01*
X-8104472Y18154371D01*
X-7455101Y17505000D01*
X-8005655Y17505000D01*
X-8555490Y17395631D01*
X-9179009Y16979009D01*
X-9595631Y16355490D01*
X-9741929Y15620000D01*
X-9595631Y14884510D01*
X-9179009Y14260991D01*
X-8555490Y13844369D01*
X-8005655Y13735000D01*
X-7234345Y13735000D01*
X-6684510Y13844369D01*
X-6060991Y14260991D01*
X-5644369Y14884510D01*
X-5510022Y15559920D01*
X-2241900Y12291798D01*
X-2241899Y9943860D01*
X-2277726Y9958700D01*
X-2689474Y9958700D01*
X-3069880Y9801131D01*
X-3361031Y9509980D01*
X-3518600Y9129574D01*
X-3518600Y8717826D01*
X-3361031Y8337420D01*
X-3243599Y8219988D01*
X-3243600Y3366347D01*
X-3258488Y3291500D01*
X-3243600Y3216653D01*
X-3243600Y3216649D01*
X-3199504Y2994964D01*
X-3031529Y2743571D01*
X-2968070Y2701169D01*
X-1940517Y1673615D01*
X-2249120Y1735000D01*
X-3390880Y1735000D01*
X-3896963Y1634334D01*
X-4470865Y1250865D01*
X-4854334Y676963D01*
X-4988990Y0D01*
X-4854334Y-676963D01*
X-4470865Y-1250865D01*
X-3896963Y-1634334D01*
X-3390880Y-1735000D01*
X-2249120Y-1735000D01*
X-1743037Y-1634334D01*
X-1522000Y-1486642D01*
X-1522000Y-3154722D01*
X-1866380Y-3297369D01*
X-2157531Y-3588520D01*
X-2315100Y-3968926D01*
X-2315100Y-4380674D01*
X-2157531Y-4761080D01*
X-1866380Y-5052231D01*
X-1485974Y-5209800D01*
X-1074226Y-5209800D01*
X-1014000Y-5184854D01*
X-1014000Y-5781198D01*
X-7426801Y-12194000D01*
X-8434153Y-12194000D01*
X-8509000Y-12179112D01*
X-8521461Y-12181591D01*
X-8263720Y-12074831D01*
X-7972569Y-11783680D01*
X-7815000Y-11403274D01*
X-7815000Y-10991526D01*
X-7972569Y-10611120D01*
X-8090000Y-10493689D01*
X-8090000Y-8950233D01*
X-7885330Y-9035010D01*
X-7274670Y-9035010D01*
X-6710493Y-8801320D01*
X-6350000Y-8440827D01*
X-5989507Y-8801320D01*
X-5425330Y-9035010D01*
X-4814670Y-9035010D01*
X-4250493Y-8801320D01*
X-3818690Y-8369517D01*
X-3585000Y-7805340D01*
X-3585000Y-7194680D01*
X-3818690Y-6630503D01*
X-4250493Y-6198700D01*
X-4814670Y-5965010D01*
X-5425330Y-5965010D01*
X-5989507Y-6198700D01*
X-6350000Y-6559193D01*
X-6710493Y-6198700D01*
X-7274670Y-5965010D01*
X-7885330Y-5965010D01*
X-8090000Y-6049787D01*
X-8090000Y12501152D01*
X-8075112Y12576000D01*
X-8090000Y12650848D01*
X-8090000Y12650852D01*
X-8134096Y12872537D01*
X-8302071Y13123929D01*
X-8365527Y13166329D01*
X-10162000Y14962801D01*
X-10162000Y24577198D01*
X-9929525Y24809673D01*
X-9866071Y24852071D01*
X-9823673Y24915524D01*
X-9823671Y24915526D01*
X-9736870Y25045434D01*
X-9741929Y25020000D01*
X-9595631Y24284510D01*
X-9179009Y23660991D01*
X-8555490Y23244369D01*
X-8005655Y23135000D01*
X-7234345Y23135000D01*
X-6684510Y23244369D01*
X-6060991Y23660991D01*
X-5644369Y24284510D01*
X-5498071Y25020000D01*
X-5644369Y25755490D01*
X-5862802Y26082397D01*
X-2137655Y29807544D01*
X-1996680Y29666569D01*
X-1616274Y29509000D01*
X-1204526Y29509000D01*
X-824120Y29666569D01*
X-532969Y29957720D01*
X-375400Y30338126D01*
X-375400Y30749874D01*
X-532969Y31130280D01*
X-673944Y31271255D01*
X3994801Y35940000D01*
X5498071Y35940000D01*
X5644369Y35204510D01*
X6060991Y34580991D01*
X6684510Y34164369D01*
X7234345Y34055000D01*
X8005655Y34055000D01*
X8555490Y34164369D01*
X9179009Y34580991D01*
X9595631Y35204510D01*
X9741929Y35940000D01*
X9595631Y36675490D01*
X9179009Y37299009D01*
X8555490Y37715631D01*
X8005655Y37825000D01*
X7234345Y37825000D01*
X6684510Y37715631D01*
X6060991Y37299009D01*
X5644369Y36675490D01*
X5498071Y35940000D01*
X3994801Y35940000D01*
X6880238Y38825436D01*
X7234345Y38755000D01*
X8005655Y38755000D01*
X8555490Y38864369D01*
X9179009Y39280991D01*
X9515301Y39784288D01*
X9634520Y39665069D01*
X10014926Y39507500D01*
X10426674Y39507500D01*
X10807080Y39665069D01*
X11098231Y39956220D01*
X11255800Y40336626D01*
X11255800Y40748374D01*
X11098231Y41128780D01*
X10807080Y41419931D01*
X10426674Y41577500D01*
X10014926Y41577500D01*
X9634520Y41419931D01*
X9593407Y41378818D01*
X9179009Y41999009D01*
X8555490Y42415631D01*
X8005655Y42525000D01*
X7234345Y42525000D01*
X6684510Y42415631D01*
X6060991Y41999009D01*
X5644369Y41375490D01*
X5498071Y40640000D01*
X5644369Y39904510D01*
X5710595Y39805396D01*
X-1045000Y33049801D01*
X-1045000Y33445320D01*
X-1278690Y34009497D01*
X-1710493Y34441300D01*
X-2274670Y34674990D01*
X-2885330Y34674990D01*
X-3449507Y34441300D01*
X-3810000Y34080807D01*
X-4170493Y34441300D01*
X-4734670Y34674990D01*
X-5345330Y34674990D01*
X-5909507Y34441300D01*
X-6341310Y34009497D01*
X-6349438Y33989875D01*
X-6499841Y34040544D01*
X-7400395Y33139990D01*
X-7386252Y33125847D01*
X-7565857Y32946242D01*
X-7580000Y32960385D01*
X-8480554Y32059831D01*
X-8394148Y31803347D01*
X-7820664Y31593532D01*
X-7654283Y31600518D01*
X-10898472Y28356329D01*
X-10961928Y28313929D01*
X-11004328Y28250473D01*
X-11004329Y28250472D01*
X-11129903Y28062537D01*
X-11187073Y27775125D01*
X-11321646Y27915954D01*
X-12803000Y28955195D01*
X-12803000Y32774000D01*
X-12588217Y32774000D01*
X-12257145Y32839854D01*
X-12150452Y32911144D01*
X-11859720Y33031569D01*
X-11568569Y33322720D01*
X-11544573Y33380654D01*
X-9126458Y33380654D01*
X-9100839Y32770530D01*
X-8916643Y32325842D01*
X-8660159Y32239436D01*
X-7759605Y33139990D01*
X-8660159Y34040544D01*
X-8916643Y33954138D01*
X-9126458Y33380654D01*
X-11544573Y33380654D01*
X-11411000Y33703126D01*
X-11411000Y34114874D01*
X-11454606Y34220149D01*
X-8480554Y34220149D01*
X-7580000Y33319595D01*
X-6679446Y34220149D01*
X-6765852Y34476633D01*
X-7339336Y34686448D01*
X-7949460Y34660829D01*
X-8394148Y34476633D01*
X-8480554Y34220149D01*
X-11454606Y34220149D01*
X-11568569Y34495280D01*
X-11859720Y34786431D01*
X-12150452Y34906856D01*
X-12257145Y34978146D01*
X-12588217Y35044000D01*
X-12803000Y35044000D01*
X-12803000Y40640000D01*
X-12048990Y40640000D01*
X-11914334Y39963037D01*
X-11530865Y39389135D01*
X-10956963Y39005666D01*
X-10450880Y38905000D01*
X-9309120Y38905000D01*
X-8803037Y39005666D01*
X-8229135Y39389135D01*
X-7847440Y39960382D01*
X-7847440Y38266000D01*
X-7798157Y38018235D01*
X-7657809Y37808191D01*
X-7447765Y37667843D01*
X-7200000Y37618560D01*
X-5500000Y37618560D01*
X-5252235Y37667843D01*
X-5042191Y37808191D01*
X-4901843Y38018235D01*
X-4892816Y38063619D01*
X-4880625Y38045375D01*
X-4389418Y37717161D01*
X-3956256Y37631000D01*
X-3663744Y37631000D01*
X-3230582Y37717161D01*
X-2739375Y38045375D01*
X-2411161Y38536582D01*
X-2295908Y39116000D01*
X-2411161Y39695418D01*
X-2739375Y40186625D01*
X-3058478Y40399843D01*
X-2928642Y40460817D01*
X-2765347Y40640000D01*
X-2448990Y40640000D01*
X-2314334Y39963037D01*
X-1930865Y39389135D01*
X-1356963Y39005666D01*
X-850880Y38905000D01*
X290880Y38905000D01*
X796963Y39005666D01*
X1370865Y39389135D01*
X1754334Y39963037D01*
X1888990Y40640000D01*
X1754334Y41316963D01*
X1370865Y41890865D01*
X796963Y42274334D01*
X290880Y42375000D01*
X-850880Y42375000D01*
X-1356963Y42274334D01*
X-1930865Y41890865D01*
X-2314334Y41316963D01*
X-2448990Y40640000D01*
X-2765347Y40640000D01*
X-2538355Y40889076D01*
X-2368524Y41299110D01*
X-2489845Y41529000D01*
X-3683000Y41529000D01*
X-3683000Y41509000D01*
X-3937000Y41509000D01*
X-3937000Y41529000D01*
X-6223000Y41529000D01*
X-6223000Y41509000D01*
X-6477000Y41509000D01*
X-6477000Y41529000D01*
X-7670155Y41529000D01*
X-7791476Y41299110D01*
X-7621645Y40889076D01*
X-7344292Y40584739D01*
X-7447765Y40564157D01*
X-7657809Y40423809D01*
X-7794791Y40218802D01*
X-7711010Y40640000D01*
X-7845666Y41316963D01*
X-8229135Y41890865D01*
X-8803037Y42274334D01*
X-9309120Y42375000D01*
X-9900861Y42375000D01*
X-9612920Y42494269D01*
X-9321769Y42785420D01*
X-9164200Y43165826D01*
X-9164200Y43577574D01*
X-9272531Y43839110D01*
X-7791476Y43839110D01*
X-7621645Y43429076D01*
X-7231358Y43000817D01*
X-7072046Y42926000D01*
X-7231358Y42851183D01*
X-7621645Y42422924D01*
X-7791476Y42012890D01*
X-7670155Y41783000D01*
X-6477000Y41783000D01*
X-6477000Y44069000D01*
X-6223000Y44069000D01*
X-6223000Y41783000D01*
X-3937000Y41783000D01*
X-3937000Y44069000D01*
X-3683000Y44069000D01*
X-3683000Y41783000D01*
X-2489845Y41783000D01*
X-2368524Y42012890D01*
X-2538355Y42422924D01*
X-2928642Y42851183D01*
X-3087954Y42926000D01*
X-2928642Y43000817D01*
X-2538355Y43429076D01*
X-2368524Y43839110D01*
X-2489845Y44069000D01*
X-3683000Y44069000D01*
X-3937000Y44069000D01*
X-6223000Y44069000D01*
X-6477000Y44069000D01*
X-7670155Y44069000D01*
X-7791476Y43839110D01*
X-9272531Y43839110D01*
X-9321769Y43957980D01*
X-9612920Y44249131D01*
X-9993326Y44406700D01*
X-10405074Y44406700D01*
X-10785480Y44249131D01*
X-11076631Y43957980D01*
X-11234200Y43577574D01*
X-11234200Y43165826D01*
X-11076631Y42785420D01*
X-10785480Y42494269D01*
X-10482401Y42368730D01*
X-10956963Y42274334D01*
X-11530865Y41890865D01*
X-11914334Y41316963D01*
X-12048990Y40640000D01*
X-12803000Y40640000D01*
X-12803000Y46379110D01*
X-7791476Y46379110D01*
X-7621645Y45969076D01*
X-7231358Y45540817D01*
X-7072046Y45466000D01*
X-7231358Y45391183D01*
X-7621645Y44962924D01*
X-7791476Y44552890D01*
X-7670155Y44323000D01*
X-6477000Y44323000D01*
X-6477000Y46609000D01*
X-6223000Y46609000D01*
X-6223000Y44323000D01*
X-3937000Y44323000D01*
X-3937000Y46609000D01*
X-3683000Y46609000D01*
X-3683000Y44323000D01*
X-2489845Y44323000D01*
X-2368524Y44552890D01*
X-2538355Y44962924D01*
X-2928642Y45391183D01*
X-3087954Y45466000D01*
X-2928642Y45540817D01*
X-2538355Y45969076D01*
X-2368524Y46379110D01*
X-2489845Y46609000D01*
X-3683000Y46609000D01*
X-3937000Y46609000D01*
X-6223000Y46609000D01*
X-6477000Y46609000D01*
X-7670155Y46609000D01*
X-7791476Y46379110D01*
X-12803000Y46379110D01*
X-12803000Y49276000D01*
X-7864092Y49276000D01*
X-7748839Y48696582D01*
X-7420625Y48205375D01*
X-7101522Y47992157D01*
X-7231358Y47931183D01*
X-7621645Y47502924D01*
X-7791476Y47092890D01*
X-7670155Y46863000D01*
X-6477000Y46863000D01*
X-6477000Y46883000D01*
X-6223000Y46883000D01*
X-6223000Y46863000D01*
X-3937000Y46863000D01*
X-3937000Y46883000D01*
X-3683000Y46883000D01*
X-3683000Y46863000D01*
X-2489845Y46863000D01*
X-2368524Y47092890D01*
X-2538355Y47502924D01*
X-2928642Y47931183D01*
X-3058478Y47992157D01*
X-2750602Y48197874D01*
X-1303000Y48197874D01*
X-1303000Y47786126D01*
X-1145431Y47405720D01*
X-854280Y47114569D01*
X-834800Y47106500D01*
X-854280Y47098431D01*
X-1145431Y46807280D01*
X-1303000Y46426874D01*
X-1303000Y46015126D01*
X-1145431Y45634720D01*
X-854280Y45343569D01*
X-473874Y45186000D01*
X-62126Y45186000D01*
X309663Y45340000D01*
X5498071Y45340000D01*
X5644369Y44604510D01*
X6060991Y43980991D01*
X6684510Y43564369D01*
X7234345Y43455000D01*
X8005655Y43455000D01*
X8555490Y43564369D01*
X9179009Y43980991D01*
X9595631Y44604510D01*
X9741929Y45340000D01*
X9595631Y46075490D01*
X9179009Y46699009D01*
X8555490Y47115631D01*
X8005655Y47225000D01*
X7234345Y47225000D01*
X6684510Y47115631D01*
X6060991Y46699009D01*
X5644369Y46075490D01*
X5498071Y45340000D01*
X309663Y45340000D01*
X318280Y45343569D01*
X609431Y45634720D01*
X767000Y46015126D01*
X767000Y46426874D01*
X609431Y46807280D01*
X318280Y47098431D01*
X298800Y47106500D01*
X318280Y47114569D01*
X609431Y47405720D01*
X767000Y47786126D01*
X767000Y48197874D01*
X609431Y48578280D01*
X318280Y48869431D01*
X-62126Y49027000D01*
X-473874Y49027000D01*
X-854280Y48869431D01*
X-1145431Y48578280D01*
X-1303000Y48197874D01*
X-2750602Y48197874D01*
X-2739375Y48205375D01*
X-2411161Y48696582D01*
X-2295908Y49276000D01*
X-2411161Y49855418D01*
X-2739375Y50346625D01*
X-3230582Y50674839D01*
X-3663744Y50761000D01*
X-3956256Y50761000D01*
X-4389418Y50674839D01*
X-4880625Y50346625D01*
X-5080000Y50048239D01*
X-5279375Y50346625D01*
X-5770582Y50674839D01*
X-6203744Y50761000D01*
X-6496256Y50761000D01*
X-6929418Y50674839D01*
X-7420625Y50346625D01*
X-7748839Y49855418D01*
X-7864092Y49276000D01*
X-12803000Y49276000D01*
X-12803000Y51313600D01*
X12700001Y51313600D01*
X12700001Y46809460D01*
X12700001Y46809460D01*
G37*
X12700001Y46809460D02*
X12524874Y46882000D01*
X12113126Y46882000D01*
X11732720Y46724431D01*
X11441569Y46433280D01*
X11284000Y46052874D01*
X11284000Y45641126D01*
X11409144Y45339000D01*
X11284000Y45036874D01*
X11284000Y44625126D01*
X11441569Y44244720D01*
X11732720Y43953569D01*
X12113126Y43796000D01*
X12524874Y43796000D01*
X12700001Y43868540D01*
X12700001Y31753341D01*
X12600874Y31794400D01*
X12189126Y31794400D01*
X11808720Y31636831D01*
X11517569Y31345680D01*
X11360000Y30965274D01*
X11360000Y30553526D01*
X11517569Y30173120D01*
X11808720Y29881969D01*
X12189126Y29724400D01*
X12600874Y29724400D01*
X12700001Y29765459D01*
X12700000Y17352000D01*
X12409026Y17352000D01*
X12028620Y17194431D01*
X11737469Y16903280D01*
X11579900Y16522874D01*
X11579900Y16111126D01*
X11737469Y15730720D01*
X12028620Y15439569D01*
X12409026Y15282000D01*
X12700000Y15282000D01*
X12700000Y11267700D01*
X12644418Y11304839D01*
X12211256Y11391000D01*
X11918744Y11391000D01*
X11485582Y11304839D01*
X10994375Y10976625D01*
X10795000Y10678239D01*
X10595625Y10976625D01*
X10104418Y11304839D01*
X9671256Y11391000D01*
X9378744Y11391000D01*
X9047500Y11325112D01*
X9047500Y12037654D01*
X9062388Y12112501D01*
X9047500Y12187348D01*
X9047500Y12187352D01*
X9025415Y12298382D01*
X9115000Y12514660D01*
X9115000Y13125320D01*
X8881310Y13689497D01*
X8449507Y14121300D01*
X7885330Y14354990D01*
X7274670Y14354990D01*
X6710493Y14121300D01*
X6350000Y13760807D01*
X5989507Y14121300D01*
X5425330Y14354990D01*
X4814670Y14354990D01*
X4250493Y14121300D01*
X3818690Y13689497D01*
X3810562Y13669875D01*
X3660159Y13720544D01*
X2759605Y12819990D01*
X3660159Y11919436D01*
X3810562Y11970105D01*
X3818690Y11950483D01*
X3997600Y11771573D01*
X3997601Y1567090D01*
X3896963Y1634334D01*
X3390880Y1735000D01*
X2249120Y1735000D01*
X1861998Y1657997D01*
X2598602Y2394600D01*
X2764674Y2394600D01*
X3145080Y2552169D01*
X3436231Y2843320D01*
X3593800Y3223726D01*
X3593800Y3635474D01*
X3436231Y4015880D01*
X3145080Y4307031D01*
X2764674Y4464600D01*
X2352926Y4464600D01*
X2285316Y4436595D01*
X2212405Y4509506D01*
X2569380Y4657369D01*
X2860531Y4948520D01*
X3018100Y5328926D01*
X3018100Y5740674D01*
X2860531Y6121080D01*
X2569380Y6412231D01*
X2188974Y6569800D01*
X1777226Y6569800D01*
X1396820Y6412231D01*
X1279389Y6294800D01*
X576947Y6294800D01*
X502100Y6309688D01*
X427253Y6294800D01*
X427248Y6294800D01*
X205563Y6250704D01*
X-45829Y6082729D01*
X-88229Y6019273D01*
X-1692772Y4414729D01*
X-1723600Y4394130D01*
X-1723600Y8108840D01*
X-1687774Y8094000D01*
X-1276026Y8094000D01*
X-895620Y8251569D01*
X-604469Y8542720D01*
X-446900Y8923126D01*
X-446900Y9334874D01*
X-604469Y9715280D01*
X-721900Y9832711D01*
X-721900Y11739831D01*
X1679446Y11739831D01*
X1765852Y11483347D01*
X2339336Y11273532D01*
X2949460Y11299151D01*
X3394148Y11483347D01*
X3480554Y11739831D01*
X2580000Y12640385D01*
X1679446Y11739831D01*
X-721900Y11739831D01*
X-721900Y12531754D01*
X-707012Y12606601D01*
X-721900Y12681448D01*
X-721900Y12681452D01*
X-765996Y12903137D01*
X-871245Y13060654D01*
X1033542Y13060654D01*
X1059161Y12450530D01*
X1243357Y12005842D01*
X1499841Y11919436D01*
X2400395Y12819990D01*
X1499841Y13720544D01*
X1243357Y13634138D01*
X1033542Y13060654D01*
X-871245Y13060654D01*
X-933971Y13154529D01*
X-997427Y13196929D01*
X-1700647Y13900149D01*
X1679446Y13900149D01*
X2580000Y12999595D01*
X3480554Y13900149D01*
X3394148Y14156633D01*
X2820664Y14366448D01*
X2210540Y14340829D01*
X1765852Y14156633D01*
X1679446Y13900149D01*
X-1700647Y13900149D01*
X-6480909Y18680411D01*
X-6060991Y18960991D01*
X-5644369Y19584510D01*
X-5498071Y20320000D01*
X-1888990Y20320000D01*
X-1754334Y19643037D01*
X-1370865Y19069135D01*
X-796963Y18685666D01*
X-290880Y18585000D01*
X850880Y18585000D01*
X1356963Y18685666D01*
X1930865Y19069135D01*
X2004390Y19179174D01*
X5867400Y19179174D01*
X5867400Y18767426D01*
X6024969Y18387020D01*
X6316120Y18095869D01*
X6696526Y17938300D01*
X7108274Y17938300D01*
X7488680Y18095869D01*
X7779831Y18387020D01*
X7937400Y18767426D01*
X7937400Y19179174D01*
X7779831Y19559580D01*
X7488680Y19850731D01*
X7108274Y20008300D01*
X6696526Y20008300D01*
X6316120Y19850731D01*
X6024969Y19559580D01*
X5867400Y19179174D01*
X2004390Y19179174D01*
X2314334Y19643037D01*
X2448990Y20320000D01*
X7711010Y20320000D01*
X7845666Y19643037D01*
X8229135Y19069135D01*
X8803037Y18685666D01*
X9309120Y18585000D01*
X10450880Y18585000D01*
X10956963Y18685666D01*
X11530865Y19069135D01*
X11914334Y19643037D01*
X12048990Y20320000D01*
X11914334Y20996963D01*
X11530865Y21570865D01*
X10956963Y21954334D01*
X10450880Y22055000D01*
X9309120Y22055000D01*
X8803037Y21954334D01*
X8229135Y21570865D01*
X7845666Y20996963D01*
X7711010Y20320000D01*
X2448990Y20320000D01*
X2314334Y20996963D01*
X1930865Y21570865D01*
X1356963Y21954334D01*
X850880Y22055000D01*
X-290880Y22055000D01*
X-796963Y21954334D01*
X-1370865Y21570865D01*
X-1754334Y20996963D01*
X-1888990Y20320000D01*
X-5498071Y20320000D01*
X-5644369Y21055490D01*
X-6060991Y21679009D01*
X-6684510Y22095631D01*
X-7234345Y22205000D01*
X-8005655Y22205000D01*
X-8555490Y22095631D01*
X-9179009Y21679009D01*
X-9595631Y21055490D01*
X-9741929Y20320000D01*
X-9595631Y19584510D01*
X-9179009Y18960991D01*
X-8555490Y18544369D01*
X-8346782Y18502854D01*
X-8335903Y18448163D01*
X-8295048Y18387020D01*
X-8167928Y18196771D01*
X-8104472Y18154371D01*
X-7455101Y17505000D01*
X-8005655Y17505000D01*
X-8555490Y17395631D01*
X-9179009Y16979009D01*
X-9595631Y16355490D01*
X-9741929Y15620000D01*
X-9595631Y14884510D01*
X-9179009Y14260991D01*
X-8555490Y13844369D01*
X-8005655Y13735000D01*
X-7234345Y13735000D01*
X-6684510Y13844369D01*
X-6060991Y14260991D01*
X-5644369Y14884510D01*
X-5510022Y15559920D01*
X-2241900Y12291798D01*
X-2241899Y9943860D01*
X-2277726Y9958700D01*
X-2689474Y9958700D01*
X-3069880Y9801131D01*
X-3361031Y9509980D01*
X-3518600Y9129574D01*
X-3518600Y8717826D01*
X-3361031Y8337420D01*
X-3243599Y8219988D01*
X-3243600Y3366347D01*
X-3258488Y3291500D01*
X-3243600Y3216653D01*
X-3243600Y3216649D01*
X-3199504Y2994964D01*
X-3031529Y2743571D01*
X-2968070Y2701169D01*
X-1940517Y1673615D01*
X-2249120Y1735000D01*
X-3390880Y1735000D01*
X-3896963Y1634334D01*
X-4470865Y1250865D01*
X-4854334Y676963D01*
X-4988990Y0D01*
X-4854334Y-676963D01*
X-4470865Y-1250865D01*
X-3896963Y-1634334D01*
X-3390880Y-1735000D01*
X-2249120Y-1735000D01*
X-1743037Y-1634334D01*
X-1522000Y-1486642D01*
X-1522000Y-3154722D01*
X-1866380Y-3297369D01*
X-2157531Y-3588520D01*
X-2315100Y-3968926D01*
X-2315100Y-4380674D01*
X-2157531Y-4761080D01*
X-1866380Y-5052231D01*
X-1485974Y-5209800D01*
X-1074226Y-5209800D01*
X-1014000Y-5184854D01*
X-1014000Y-5781198D01*
X-7426801Y-12194000D01*
X-8434153Y-12194000D01*
X-8509000Y-12179112D01*
X-8521461Y-12181591D01*
X-8263720Y-12074831D01*
X-7972569Y-11783680D01*
X-7815000Y-11403274D01*
X-7815000Y-10991526D01*
X-7972569Y-10611120D01*
X-8090000Y-10493689D01*
X-8090000Y-8950233D01*
X-7885330Y-9035010D01*
X-7274670Y-9035010D01*
X-6710493Y-8801320D01*
X-6350000Y-8440827D01*
X-5989507Y-8801320D01*
X-5425330Y-9035010D01*
X-4814670Y-9035010D01*
X-4250493Y-8801320D01*
X-3818690Y-8369517D01*
X-3585000Y-7805340D01*
X-3585000Y-7194680D01*
X-3818690Y-6630503D01*
X-4250493Y-6198700D01*
X-4814670Y-5965010D01*
X-5425330Y-5965010D01*
X-5989507Y-6198700D01*
X-6350000Y-6559193D01*
X-6710493Y-6198700D01*
X-7274670Y-5965010D01*
X-7885330Y-5965010D01*
X-8090000Y-6049787D01*
X-8090000Y12501152D01*
X-8075112Y12576000D01*
X-8090000Y12650848D01*
X-8090000Y12650852D01*
X-8134096Y12872537D01*
X-8302071Y13123929D01*
X-8365527Y13166329D01*
X-10162000Y14962801D01*
X-10162000Y24577198D01*
X-9929525Y24809673D01*
X-9866071Y24852071D01*
X-9823673Y24915524D01*
X-9823671Y24915526D01*
X-9736870Y25045434D01*
X-9741929Y25020000D01*
X-9595631Y24284510D01*
X-9179009Y23660991D01*
X-8555490Y23244369D01*
X-8005655Y23135000D01*
X-7234345Y23135000D01*
X-6684510Y23244369D01*
X-6060991Y23660991D01*
X-5644369Y24284510D01*
X-5498071Y25020000D01*
X-5644369Y25755490D01*
X-5862802Y26082397D01*
X-2137655Y29807544D01*
X-1996680Y29666569D01*
X-1616274Y29509000D01*
X-1204526Y29509000D01*
X-824120Y29666569D01*
X-532969Y29957720D01*
X-375400Y30338126D01*
X-375400Y30749874D01*
X-532969Y31130280D01*
X-673944Y31271255D01*
X3994801Y35940000D01*
X5498071Y35940000D01*
X5644369Y35204510D01*
X6060991Y34580991D01*
X6684510Y34164369D01*
X7234345Y34055000D01*
X8005655Y34055000D01*
X8555490Y34164369D01*
X9179009Y34580991D01*
X9595631Y35204510D01*
X9741929Y35940000D01*
X9595631Y36675490D01*
X9179009Y37299009D01*
X8555490Y37715631D01*
X8005655Y37825000D01*
X7234345Y37825000D01*
X6684510Y37715631D01*
X6060991Y37299009D01*
X5644369Y36675490D01*
X5498071Y35940000D01*
X3994801Y35940000D01*
X6880238Y38825436D01*
X7234345Y38755000D01*
X8005655Y38755000D01*
X8555490Y38864369D01*
X9179009Y39280991D01*
X9515301Y39784288D01*
X9634520Y39665069D01*
X10014926Y39507500D01*
X10426674Y39507500D01*
X10807080Y39665069D01*
X11098231Y39956220D01*
X11255800Y40336626D01*
X11255800Y40748374D01*
X11098231Y41128780D01*
X10807080Y41419931D01*
X10426674Y41577500D01*
X10014926Y41577500D01*
X9634520Y41419931D01*
X9593407Y41378818D01*
X9179009Y41999009D01*
X8555490Y42415631D01*
X8005655Y42525000D01*
X7234345Y42525000D01*
X6684510Y42415631D01*
X6060991Y41999009D01*
X5644369Y41375490D01*
X5498071Y40640000D01*
X5644369Y39904510D01*
X5710595Y39805396D01*
X-1045000Y33049801D01*
X-1045000Y33445320D01*
X-1278690Y34009497D01*
X-1710493Y34441300D01*
X-2274670Y34674990D01*
X-2885330Y34674990D01*
X-3449507Y34441300D01*
X-3810000Y34080807D01*
X-4170493Y34441300D01*
X-4734670Y34674990D01*
X-5345330Y34674990D01*
X-5909507Y34441300D01*
X-6341310Y34009497D01*
X-6349438Y33989875D01*
X-6499841Y34040544D01*
X-7400395Y33139990D01*
X-7386252Y33125847D01*
X-7565857Y32946242D01*
X-7580000Y32960385D01*
X-8480554Y32059831D01*
X-8394148Y31803347D01*
X-7820664Y31593532D01*
X-7654283Y31600518D01*
X-10898472Y28356329D01*
X-10961928Y28313929D01*
X-11004328Y28250473D01*
X-11004329Y28250472D01*
X-11129903Y28062537D01*
X-11187073Y27775125D01*
X-11321646Y27915954D01*
X-12803000Y28955195D01*
X-12803000Y32774000D01*
X-12588217Y32774000D01*
X-12257145Y32839854D01*
X-12150452Y32911144D01*
X-11859720Y33031569D01*
X-11568569Y33322720D01*
X-11544573Y33380654D01*
X-9126458Y33380654D01*
X-9100839Y32770530D01*
X-8916643Y32325842D01*
X-8660159Y32239436D01*
X-7759605Y33139990D01*
X-8660159Y34040544D01*
X-8916643Y33954138D01*
X-9126458Y33380654D01*
X-11544573Y33380654D01*
X-11411000Y33703126D01*
X-11411000Y34114874D01*
X-11454606Y34220149D01*
X-8480554Y34220149D01*
X-7580000Y33319595D01*
X-6679446Y34220149D01*
X-6765852Y34476633D01*
X-7339336Y34686448D01*
X-7949460Y34660829D01*
X-8394148Y34476633D01*
X-8480554Y34220149D01*
X-11454606Y34220149D01*
X-11568569Y34495280D01*
X-11859720Y34786431D01*
X-12150452Y34906856D01*
X-12257145Y34978146D01*
X-12588217Y35044000D01*
X-12803000Y35044000D01*
X-12803000Y40640000D01*
X-12048990Y40640000D01*
X-11914334Y39963037D01*
X-11530865Y39389135D01*
X-10956963Y39005666D01*
X-10450880Y38905000D01*
X-9309120Y38905000D01*
X-8803037Y39005666D01*
X-8229135Y39389135D01*
X-7847440Y39960382D01*
X-7847440Y38266000D01*
X-7798157Y38018235D01*
X-7657809Y37808191D01*
X-7447765Y37667843D01*
X-7200000Y37618560D01*
X-5500000Y37618560D01*
X-5252235Y37667843D01*
X-5042191Y37808191D01*
X-4901843Y38018235D01*
X-4892816Y38063619D01*
X-4880625Y38045375D01*
X-4389418Y37717161D01*
X-3956256Y37631000D01*
X-3663744Y37631000D01*
X-3230582Y37717161D01*
X-2739375Y38045375D01*
X-2411161Y38536582D01*
X-2295908Y39116000D01*
X-2411161Y39695418D01*
X-2739375Y40186625D01*
X-3058478Y40399843D01*
X-2928642Y40460817D01*
X-2765347Y40640000D01*
X-2448990Y40640000D01*
X-2314334Y39963037D01*
X-1930865Y39389135D01*
X-1356963Y39005666D01*
X-850880Y38905000D01*
X290880Y38905000D01*
X796963Y39005666D01*
X1370865Y39389135D01*
X1754334Y39963037D01*
X1888990Y40640000D01*
X1754334Y41316963D01*
X1370865Y41890865D01*
X796963Y42274334D01*
X290880Y42375000D01*
X-850880Y42375000D01*
X-1356963Y42274334D01*
X-1930865Y41890865D01*
X-2314334Y41316963D01*
X-2448990Y40640000D01*
X-2765347Y40640000D01*
X-2538355Y40889076D01*
X-2368524Y41299110D01*
X-2489845Y41529000D01*
X-3683000Y41529000D01*
X-3683000Y41509000D01*
X-3937000Y41509000D01*
X-3937000Y41529000D01*
X-6223000Y41529000D01*
X-6223000Y41509000D01*
X-6477000Y41509000D01*
X-6477000Y41529000D01*
X-7670155Y41529000D01*
X-7791476Y41299110D01*
X-7621645Y40889076D01*
X-7344292Y40584739D01*
X-7447765Y40564157D01*
X-7657809Y40423809D01*
X-7794791Y40218802D01*
X-7711010Y40640000D01*
X-7845666Y41316963D01*
X-8229135Y41890865D01*
X-8803037Y42274334D01*
X-9309120Y42375000D01*
X-9900861Y42375000D01*
X-9612920Y42494269D01*
X-9321769Y42785420D01*
X-9164200Y43165826D01*
X-9164200Y43577574D01*
X-9272531Y43839110D01*
X-7791476Y43839110D01*
X-7621645Y43429076D01*
X-7231358Y43000817D01*
X-7072046Y42926000D01*
X-7231358Y42851183D01*
X-7621645Y42422924D01*
X-7791476Y42012890D01*
X-7670155Y41783000D01*
X-6477000Y41783000D01*
X-6477000Y44069000D01*
X-6223000Y44069000D01*
X-6223000Y41783000D01*
X-3937000Y41783000D01*
X-3937000Y44069000D01*
X-3683000Y44069000D01*
X-3683000Y41783000D01*
X-2489845Y41783000D01*
X-2368524Y42012890D01*
X-2538355Y42422924D01*
X-2928642Y42851183D01*
X-3087954Y42926000D01*
X-2928642Y43000817D01*
X-2538355Y43429076D01*
X-2368524Y43839110D01*
X-2489845Y44069000D01*
X-3683000Y44069000D01*
X-3937000Y44069000D01*
X-6223000Y44069000D01*
X-6477000Y44069000D01*
X-7670155Y44069000D01*
X-7791476Y43839110D01*
X-9272531Y43839110D01*
X-9321769Y43957980D01*
X-9612920Y44249131D01*
X-9993326Y44406700D01*
X-10405074Y44406700D01*
X-10785480Y44249131D01*
X-11076631Y43957980D01*
X-11234200Y43577574D01*
X-11234200Y43165826D01*
X-11076631Y42785420D01*
X-10785480Y42494269D01*
X-10482401Y42368730D01*
X-10956963Y42274334D01*
X-11530865Y41890865D01*
X-11914334Y41316963D01*
X-12048990Y40640000D01*
X-12803000Y40640000D01*
X-12803000Y46379110D01*
X-7791476Y46379110D01*
X-7621645Y45969076D01*
X-7231358Y45540817D01*
X-7072046Y45466000D01*
X-7231358Y45391183D01*
X-7621645Y44962924D01*
X-7791476Y44552890D01*
X-7670155Y44323000D01*
X-6477000Y44323000D01*
X-6477000Y46609000D01*
X-6223000Y46609000D01*
X-6223000Y44323000D01*
X-3937000Y44323000D01*
X-3937000Y46609000D01*
X-3683000Y46609000D01*
X-3683000Y44323000D01*
X-2489845Y44323000D01*
X-2368524Y44552890D01*
X-2538355Y44962924D01*
X-2928642Y45391183D01*
X-3087954Y45466000D01*
X-2928642Y45540817D01*
X-2538355Y45969076D01*
X-2368524Y46379110D01*
X-2489845Y46609000D01*
X-3683000Y46609000D01*
X-3937000Y46609000D01*
X-6223000Y46609000D01*
X-6477000Y46609000D01*
X-7670155Y46609000D01*
X-7791476Y46379110D01*
X-12803000Y46379110D01*
X-12803000Y49276000D01*
X-7864092Y49276000D01*
X-7748839Y48696582D01*
X-7420625Y48205375D01*
X-7101522Y47992157D01*
X-7231358Y47931183D01*
X-7621645Y47502924D01*
X-7791476Y47092890D01*
X-7670155Y46863000D01*
X-6477000Y46863000D01*
X-6477000Y46883000D01*
X-6223000Y46883000D01*
X-6223000Y46863000D01*
X-3937000Y46863000D01*
X-3937000Y46883000D01*
X-3683000Y46883000D01*
X-3683000Y46863000D01*
X-2489845Y46863000D01*
X-2368524Y47092890D01*
X-2538355Y47502924D01*
X-2928642Y47931183D01*
X-3058478Y47992157D01*
X-2750602Y48197874D01*
X-1303000Y48197874D01*
X-1303000Y47786126D01*
X-1145431Y47405720D01*
X-854280Y47114569D01*
X-834800Y47106500D01*
X-854280Y47098431D01*
X-1145431Y46807280D01*
X-1303000Y46426874D01*
X-1303000Y46015126D01*
X-1145431Y45634720D01*
X-854280Y45343569D01*
X-473874Y45186000D01*
X-62126Y45186000D01*
X309663Y45340000D01*
X5498071Y45340000D01*
X5644369Y44604510D01*
X6060991Y43980991D01*
X6684510Y43564369D01*
X7234345Y43455000D01*
X8005655Y43455000D01*
X8555490Y43564369D01*
X9179009Y43980991D01*
X9595631Y44604510D01*
X9741929Y45340000D01*
X9595631Y46075490D01*
X9179009Y46699009D01*
X8555490Y47115631D01*
X8005655Y47225000D01*
X7234345Y47225000D01*
X6684510Y47115631D01*
X6060991Y46699009D01*
X5644369Y46075490D01*
X5498071Y45340000D01*
X309663Y45340000D01*
X318280Y45343569D01*
X609431Y45634720D01*
X767000Y46015126D01*
X767000Y46426874D01*
X609431Y46807280D01*
X318280Y47098431D01*
X298800Y47106500D01*
X318280Y47114569D01*
X609431Y47405720D01*
X767000Y47786126D01*
X767000Y48197874D01*
X609431Y48578280D01*
X318280Y48869431D01*
X-62126Y49027000D01*
X-473874Y49027000D01*
X-854280Y48869431D01*
X-1145431Y48578280D01*
X-1303000Y48197874D01*
X-2750602Y48197874D01*
X-2739375Y48205375D01*
X-2411161Y48696582D01*
X-2295908Y49276000D01*
X-2411161Y49855418D01*
X-2739375Y50346625D01*
X-3230582Y50674839D01*
X-3663744Y50761000D01*
X-3956256Y50761000D01*
X-4389418Y50674839D01*
X-4880625Y50346625D01*
X-5080000Y50048239D01*
X-5279375Y50346625D01*
X-5770582Y50674839D01*
X-6203744Y50761000D01*
X-6496256Y50761000D01*
X-6929418Y50674839D01*
X-7420625Y50346625D01*
X-7748839Y49855418D01*
X-7864092Y49276000D01*
X-12803000Y49276000D01*
X-12803000Y51313600D01*
X12700001Y51313600D01*
X12700001Y46809460D01*
G36*
X7368000Y-187803D02*
X7368001Y-4384197D01*
X6670199Y-5082000D01*
X4046147Y-5082000D01*
X3971300Y-5067112D01*
X3896453Y-5082000D01*
X3896448Y-5082000D01*
X3674763Y-5126096D01*
X3423371Y-5294071D01*
X3380971Y-5357527D01*
X1522000Y-7216499D01*
X1522000Y-1486642D01*
X1743037Y-1634334D01*
X2249120Y-1735000D01*
X3390880Y-1735000D01*
X3896963Y-1634334D01*
X3997601Y-1567090D01*
X3997601Y-2071788D01*
X3880169Y-2189220D01*
X3722600Y-2569626D01*
X3722600Y-2981374D01*
X3880169Y-3361780D01*
X4171320Y-3652931D01*
X4551726Y-3810500D01*
X4963474Y-3810500D01*
X5343880Y-3652931D01*
X5635031Y-3361780D01*
X5792600Y-2981374D01*
X5792600Y-2569626D01*
X5635031Y-2189220D01*
X5517600Y-2071789D01*
X5517600Y1662599D01*
X7368000Y-187803D01*
X7368000Y-187803D01*
G37*
X7368000Y-187803D02*
X7368001Y-4384197D01*
X6670199Y-5082000D01*
X4046147Y-5082000D01*
X3971300Y-5067112D01*
X3896453Y-5082000D01*
X3896448Y-5082000D01*
X3674763Y-5126096D01*
X3423371Y-5294071D01*
X3380971Y-5357527D01*
X1522000Y-7216499D01*
X1522000Y-1486642D01*
X1743037Y-1634334D01*
X2249120Y-1735000D01*
X3390880Y-1735000D01*
X3896963Y-1634334D01*
X3997601Y-1567090D01*
X3997601Y-2071788D01*
X3880169Y-2189220D01*
X3722600Y-2569626D01*
X3722600Y-2981374D01*
X3880169Y-3361780D01*
X4171320Y-3652931D01*
X4551726Y-3810500D01*
X4963474Y-3810500D01*
X5343880Y-3652931D01*
X5635031Y-3361780D01*
X5792600Y-2981374D01*
X5792600Y-2569626D01*
X5635031Y-2189220D01*
X5517600Y-2071789D01*
X5517600Y1662599D01*
X7368000Y-187803D01*
G36*
X6405582Y5967161D02*
X6838744Y5881000D01*
X7131256Y5881000D01*
X7527500Y5959818D01*
X7527500Y4578647D01*
X7512612Y4503800D01*
X7527500Y4428953D01*
X7527500Y4428949D01*
X7571596Y4207264D01*
X7739571Y3955871D01*
X7803030Y3913469D01*
X8130001Y3586497D01*
X8130001Y1199802D01*
X6348000Y2981801D01*
X6348000Y6005636D01*
X6405582Y5967161D01*
X6405582Y5967161D01*
G37*
X6405582Y5967161D02*
X6838744Y5881000D01*
X7131256Y5881000D01*
X7527500Y5959818D01*
X7527500Y4578647D01*
X7512612Y4503800D01*
X7527500Y4428953D01*
X7527500Y4428949D01*
X7571596Y4207264D01*
X7739571Y3955871D01*
X7803030Y3913469D01*
X8130001Y3586497D01*
X8130001Y1199802D01*
X6348000Y2981801D01*
X6348000Y6005636D01*
X6405582Y5967161D01*
G36*
X1329095Y4725094D02*
X972120Y4577231D01*
X680969Y4286080D01*
X523400Y3905674D01*
X523400Y3790021D01*
X394431Y4101380D01*
X268956Y4226855D01*
X816902Y4774800D01*
X1279389Y4774800D01*
X1329095Y4725094D01*
X1329095Y4725094D01*
G37*
X1329095Y4725094D02*
X972120Y4577231D01*
X680969Y4286080D01*
X523400Y3905674D01*
X523400Y3790021D01*
X394431Y4101380D01*
X268956Y4226855D01*
X816902Y4774800D01*
X1279389Y4774800D01*
X1329095Y4725094D01*
G36*
X6710493Y11518680D02*
X7245994Y11296868D01*
X7112000Y11226155D01*
X7112000Y10033000D01*
X7132000Y10033000D01*
X7132000Y9779000D01*
X7112000Y9779000D01*
X7112000Y9759000D01*
X6858000Y9759000D01*
X6858000Y9779000D01*
X6838000Y9779000D01*
X6838000Y10033000D01*
X6858000Y10033000D01*
X6858000Y11226155D01*
X6628110Y11347476D01*
X6218076Y11177645D01*
X5789817Y10787358D01*
X5543514Y10262892D01*
X5664180Y10033002D01*
X5517600Y10033002D01*
X5517600Y11323210D01*
X5989507Y11518680D01*
X6350000Y11879173D01*
X6710493Y11518680D01*
X6710493Y11518680D01*
G37*
X6710493Y11518680D02*
X7245994Y11296868D01*
X7112000Y11226155D01*
X7112000Y10033000D01*
X7132000Y10033000D01*
X7132000Y9779000D01*
X7112000Y9779000D01*
X7112000Y9759000D01*
X6858000Y9759000D01*
X6858000Y9779000D01*
X6838000Y9779000D01*
X6838000Y10033000D01*
X6858000Y10033000D01*
X6858000Y11226155D01*
X6628110Y11347476D01*
X6218076Y11177645D01*
X5789817Y10787358D01*
X5543514Y10262892D01*
X5664180Y10033002D01*
X5517600Y10033002D01*
X5517600Y11323210D01*
X5989507Y11518680D01*
X6350000Y11879173D01*
X6710493Y11518680D01*
G36*
X-3449507Y31838680D02*
X-2885330Y31604990D01*
X-2489811Y31604990D01*
X-7197191Y26897610D01*
X-7234345Y26905000D01*
X-8005655Y26905000D01*
X-8555490Y26795631D01*
X-9179009Y26379009D01*
X-9595631Y25755490D01*
X-9652727Y25468447D01*
X-9654000Y25474846D01*
X-9654000Y27451199D01*
X-5454845Y31650353D01*
X-5345330Y31604990D01*
X-4734670Y31604990D01*
X-4170493Y31838680D01*
X-3810000Y32199173D01*
X-3449507Y31838680D01*
X-3449507Y31838680D01*
G37*
X-3449507Y31838680D02*
X-2885330Y31604990D01*
X-2489811Y31604990D01*
X-7197191Y26897610D01*
X-7234345Y26905000D01*
X-8005655Y26905000D01*
X-8555490Y26795631D01*
X-9179009Y26379009D01*
X-9595631Y25755490D01*
X-9652727Y25468447D01*
X-9654000Y25474846D01*
X-9654000Y27451199D01*
X-5454845Y31650353D01*
X-5345330Y31604990D01*
X-4734670Y31604990D01*
X-4170493Y31838680D01*
X-3810000Y32199173D01*
X-3449507Y31838680D01*
G04 #@! TD*
M02*
