M48
;DRILL file {KiCad 5.0.2-bee76a0~70~ubuntu18.04.1} date Sun Apr 14 16:06:57 2019
;FORMAT={-:-/ absolute / inch / decimal}
FMAT,2
INCH,TZ
T1C0.0157
T2C0.0197
T3C0.0236
T4C0.0354
T5C0.0394
T6C0.0433
T7C0.0453
%
G90
G05
T1
X-0.5374Y0.2891
X-0.5371Y0.605
X-0.535Y1.335
X-0.5286Y0.4174
X-0.501Y-0.8731
X-0.495Y-1.3719
X-0.49Y1.335
X-0.475Y1.065
X-0.439Y-0.8835
X-0.433Y-1.3714
X-0.4088Y1.995
X-0.4015Y1.7075
X-0.3927Y0.9122
X-0.387Y-1.8739
X-0.387Y0.1616
X-0.3869Y-0.0671
X-0.3793Y-0.6863
X-0.3654Y-1.3175
X-0.3635Y1.2181
X-0.3498Y-0.745
X-0.3484Y-0.4408
X-0.3219Y-1.35
X-0.2636Y1.1023
X-0.19Y0.15
X-0.12Y0.46
X-0.0978Y0.3513
X-0.083Y-1.3287
X-0.076Y-0.824
X-0.0583Y0.3594
X-0.0555Y1.2025
X-0.0552Y1.083
X-0.0504Y-0.1644
X-0.0388Y-1.0675
X-0.031Y-0.3422
X-0.031Y-0.4426
X-0.019Y0.1384
X-0.015Y0.315
X-0.015Y0.265
X-0.0106Y1.8894
X-0.0106Y1.8197
X0.022Y0.1493
X0.035Y0.315
X0.035Y0.265
X0.0614Y0.1457
X0.0657Y-0.5222
X0.0781Y0.2179
X0.08Y1.89
X0.1007Y0.135
X0.1076Y-1.0298
X0.124Y-0.7872
X0.145Y1.89
X0.15Y-0.925
X0.1873Y-0.1093
X0.2354Y-1.7295
X0.2485Y-0.7686
X0.2496Y0.5815
X0.2717Y0.747
X0.2726Y-1.8993
X0.274Y-0.0273
X0.279Y0.1925
X0.3237Y-0.8774
X0.3474Y-1.7156
X0.3576Y0.2036
X0.3587Y1.0855
X0.3673Y-0.9218
X0.3778Y-0.6952
X0.3779Y-1.3336
X0.3988Y-0.824
X0.4024Y1.5962
X0.425Y1.7366
X0.438Y-0.886
X0.4846Y1.4274
X0.485Y1.805
X0.485Y1.805
X0.485Y1.805
X0.485Y1.765
X0.488Y1.211
X0.4966Y0.6424
X0.501Y-0.979
X0.5176Y-0.1175
T4
X-0.05Y-0.9
X0.05Y-0.9
X-0.05Y-1.5
X0.05Y-1.5
T5
X-0.25Y1.94
X-0.25Y1.84
X-0.25Y1.74
X-0.25Y1.64
X-0.25Y1.54
X-0.15Y1.94
X-0.15Y1.84
X-0.15Y1.74
X-0.15Y1.64
X-0.15Y1.54
X0.1016Y0.5047
X0.2016Y0.5047
X0.2984Y0.5047
X0.2016Y-0.2953
X0.3016Y-0.2953
X0.3984Y-0.2953
X-0.3984Y-0.2953
X-0.2984Y-0.2953
X-0.2016Y-0.2953
X-0.2984Y1.3047
X-0.1984Y1.3047
X-0.1016Y1.3047
X0.275Y0.39
X0.275Y0.29
X0.375Y0.39
X0.375Y0.29
X0.475Y0.39
X0.475Y0.29
T6
X-0.09Y-1.6741
X-0.09Y-1.93
X0.0872Y-1.6741
X0.0872Y-1.93
T2
X0.4937Y-1.1783G85X0.4937Y-1.2217
G05
X0.4937Y-1.7783G85X0.4937Y-1.8217
G05
X0.4937Y-0.5783G85X0.4937Y-0.6217
G05
X-0.4937Y-1.2217G85X-0.4937Y-1.1783
G05
X-0.4937Y-1.8217G85X-0.4937Y-1.7783
G05
X-0.4937Y-0.6217G85X-0.4937Y-0.5783
G05
T3
X0.0449Y-1.1843G85X0.0449Y-1.2157
G05
X0.1669Y-1.1803G85X0.1669Y-1.2197
G05
X0.0449Y-1.7843G85X0.0449Y-1.8157
G05
X0.1669Y-1.7803G85X0.1669Y-1.8197
G05
X0.0449Y-0.5843G85X0.0449Y-0.6157
G05
X0.1669Y-0.5803G85X0.1669Y-0.6197
G05
X-0.1669Y-1.2197G85X-0.1669Y-1.1803
G05
X-0.0449Y-1.2157G85X-0.0449Y-1.1843
G05
X-0.1669Y-1.8197G85X-0.1669Y-1.7803
G05
X-0.0449Y-1.8157G85X-0.0449Y-1.7843
G05
X-0.1669Y-0.6197G85X-0.1669Y-0.5803
G05
X-0.0449Y-0.6157G85X-0.0449Y-0.5843
G05
T7
X-0.3079Y0.985G85X-0.2921Y0.985
G05
X-0.3079Y0.8G85X-0.2921Y0.8
G05
X-0.3079Y0.615G85X-0.2921Y0.615
G05
X0.2921Y1.785G85X0.3079Y1.785
G05
X0.2921Y1.6G85X0.3079Y1.6
G05
X0.2921Y1.415G85X0.3079Y1.415
G05
T0
M30
