G04 #@! TF.GenerationSoftware,KiCad,Pcbnew,5.0.2-bee76a0~70~ubuntu18.04.1*
G04 #@! TF.CreationDate,2019-04-14T16:07:02+08:00*
G04 #@! TF.ProjectId,LFO,4c464f2e-6b69-4636-9164-5f7063625858,rev?*
G04 #@! TF.SameCoordinates,PX8d9ee20PY6422c40*
G04 #@! TF.FileFunction,Legend,Top*
G04 #@! TF.FilePolarity,Positive*
%FSLAX46Y46*%
G04 Gerber Fmt 4.6, Leading zero omitted, Abs format (unit mm)*
G04 Created by KiCad (PCBNEW 5.0.2-bee76a0~70~ubuntu18.04.1) date Sun Apr 14 16:07:02 2019*
%MOMM*%
%LPD*%
G01*
G04 APERTURE LIST*
%ADD10C,0.120000*%
%ADD11C,0.150000*%
%ADD12C,0.200000*%
G04 APERTURE END LIST*
D10*
G04 #@! TO.C,SW1*
X714000Y-42272000D02*
X-786000Y-42272000D01*
X-3286000Y-43522000D02*
X-3286000Y-48022000D01*
X-786000Y-49272000D02*
X714000Y-49272000D01*
X3214000Y-48022000D02*
X3214000Y-43522000D01*
G04 #@! TO.C,RV4*
X2639000Y-6740000D02*
X2639000Y-2803000D01*
X2639000Y1564000D02*
X2639000Y5500000D01*
X12680000Y-6740000D02*
X12680000Y-2803000D01*
X12680000Y1564000D02*
X12680000Y5500000D01*
X2639000Y-6740000D02*
X4289000Y-6740000D01*
X6031000Y-6740000D02*
X6790000Y-6740000D01*
X8531000Y-6740000D02*
X9290000Y-6740000D01*
X11030000Y-6740000D02*
X12680000Y-6740000D01*
X2639000Y5500000D02*
X12680000Y5500000D01*
G04 #@! TO.C,RV2*
X-12601000Y-6740000D02*
X-12601000Y-2803000D01*
X-12601000Y1564000D02*
X-12601000Y5500000D01*
X-2560000Y-6740000D02*
X-2560000Y-2803000D01*
X-2560000Y1564000D02*
X-2560000Y5500000D01*
X-12601000Y-6740000D02*
X-10951000Y-6740000D01*
X-9209000Y-6740000D02*
X-8450000Y-6740000D01*
X-6709000Y-6740000D02*
X-5950000Y-6740000D01*
X-4210000Y-6740000D02*
X-2560000Y-6740000D01*
X-12601000Y5500000D02*
X-2560000Y5500000D01*
D11*
G04 #@! TO.C,J6*
X9420000Y-45720000D02*
G75*
G03X9420000Y-45720000I-1800000J0D01*
G01*
X10626659Y-45720000D02*
G75*
G03X10626659Y-45720000I-3006659J0D01*
G01*
X13620000Y-41220000D02*
X3120000Y-41220000D01*
X13620000Y-50220000D02*
X13620000Y-41220000D01*
X3120000Y-50220000D02*
X13620000Y-50220000D01*
X3120000Y-41220000D02*
X3120000Y-50220000D01*
X9420000Y-45720000D02*
X5820000Y-45720000D01*
X7620000Y-47520000D02*
X7620000Y-43920000D01*
G04 #@! TO.C,J5*
X9420000Y-30480000D02*
G75*
G03X9420000Y-30480000I-1800000J0D01*
G01*
X10626659Y-30480000D02*
G75*
G03X10626659Y-30480000I-3006659J0D01*
G01*
X13620000Y-25980000D02*
X3120000Y-25980000D01*
X13620000Y-34980000D02*
X13620000Y-25980000D01*
X3120000Y-34980000D02*
X13620000Y-34980000D01*
X3120000Y-25980000D02*
X3120000Y-34980000D01*
X9420000Y-30480000D02*
X5820000Y-30480000D01*
X7620000Y-32280000D02*
X7620000Y-28680000D01*
G04 #@! TO.C,J4*
X9420000Y-15240000D02*
G75*
G03X9420000Y-15240000I-1800000J0D01*
G01*
X10626659Y-15240000D02*
G75*
G03X10626659Y-15240000I-3006659J0D01*
G01*
X13620000Y-10740000D02*
X3120000Y-10740000D01*
X13620000Y-19740000D02*
X13620000Y-10740000D01*
X3120000Y-19740000D02*
X13620000Y-19740000D01*
X3120000Y-10740000D02*
X3120000Y-19740000D01*
X9420000Y-15240000D02*
X5820000Y-15240000D01*
X7620000Y-17040000D02*
X7620000Y-13440000D01*
G04 #@! TO.C,J3*
X-5820000Y-45720000D02*
G75*
G03X-5820000Y-45720000I-1800000J0D01*
G01*
X-4613341Y-45720000D02*
G75*
G03X-4613341Y-45720000I-3006659J0D01*
G01*
X-13620000Y-50220000D02*
X-3120000Y-50220000D01*
X-13620000Y-41220000D02*
X-13620000Y-50220000D01*
X-3120000Y-41220000D02*
X-13620000Y-41220000D01*
X-3120000Y-50220000D02*
X-3120000Y-41220000D01*
X-9420000Y-45720000D02*
X-5820000Y-45720000D01*
X-7620000Y-43920000D02*
X-7620000Y-47520000D01*
G04 #@! TO.C,J2*
X-5820000Y-30480000D02*
G75*
G03X-5820000Y-30480000I-1800000J0D01*
G01*
X-4613341Y-30480000D02*
G75*
G03X-4613341Y-30480000I-3006659J0D01*
G01*
X-13620000Y-34980000D02*
X-3120000Y-34980000D01*
X-13620000Y-25980000D02*
X-13620000Y-34980000D01*
X-3120000Y-25980000D02*
X-13620000Y-25980000D01*
X-3120000Y-34980000D02*
X-3120000Y-25980000D01*
X-9420000Y-30480000D02*
X-5820000Y-30480000D01*
X-7620000Y-28680000D02*
X-7620000Y-32280000D01*
G04 #@! TO.C,J1*
X-5820000Y-15240000D02*
G75*
G03X-5820000Y-15240000I-1800000J0D01*
G01*
X-4613341Y-15240000D02*
G75*
G03X-4613341Y-15240000I-3006659J0D01*
G01*
X-13620000Y-19740000D02*
X-3120000Y-19740000D01*
X-13620000Y-10740000D02*
X-13620000Y-19740000D01*
X-3120000Y-10740000D02*
X-13620000Y-10740000D01*
X-3120000Y-19740000D02*
X-3120000Y-10740000D01*
X-9420000Y-15240000D02*
X-5820000Y-15240000D01*
X-7620000Y-13440000D02*
X-7620000Y-17040000D01*
D10*
G04 #@! TO.C,D2*
X-1560000Y-39180000D02*
X-1560000Y-39336000D01*
X-1560000Y-36864000D02*
X-1560000Y-37020000D01*
X1041130Y-39179837D02*
G75*
G02X-1040961Y-39180000I-1041130J1079837D01*
G01*
X1041130Y-37020163D02*
G75*
G03X-1040961Y-37020000I-1041130J-1079837D01*
G01*
X1672335Y-39178608D02*
G75*
G02X-1560000Y-39335516I-1672335J1078608D01*
G01*
X1672335Y-37021392D02*
G75*
G03X-1560000Y-36864484I-1672335J-1078608D01*
G01*
G04 #@! TO.C,D1*
X-1560000Y-23940000D02*
X-1560000Y-24096000D01*
X-1560000Y-21624000D02*
X-1560000Y-21780000D01*
X1041130Y-23939837D02*
G75*
G02X-1040961Y-23940000I-1041130J1079837D01*
G01*
X1041130Y-21780163D02*
G75*
G03X-1040961Y-21780000I-1041130J-1079837D01*
G01*
X1672335Y-23938608D02*
G75*
G02X-1560000Y-24095516I-1672335J1078608D01*
G01*
X1672335Y-21781392D02*
G75*
G03X-1560000Y-21624484I-1672335J-1078608D01*
G01*
G04 #@! TO.C,RV1*
X-10061000Y33900000D02*
X-10061000Y37837000D01*
X-10061000Y42204000D02*
X-10061000Y46140000D01*
X-20000Y33900000D02*
X-20000Y37837000D01*
X-20000Y42204000D02*
X-20000Y46140000D01*
X-10061000Y33900000D02*
X-8411000Y33900000D01*
X-6669000Y33900000D02*
X-5910000Y33900000D01*
X-4169000Y33900000D02*
X-3410000Y33900000D01*
X-1670000Y33900000D02*
X-20000Y33900000D01*
X-10061000Y46140000D02*
X-20000Y46140000D01*
G04 #@! TO.C,RV3*
X99000Y13580000D02*
X99000Y17517000D01*
X99000Y21884000D02*
X99000Y25820000D01*
X10140000Y13580000D02*
X10140000Y17517000D01*
X10140000Y21884000D02*
X10140000Y25820000D01*
X99000Y13580000D02*
X1749000Y13580000D01*
X3491000Y13580000D02*
X4250000Y13580000D01*
X5991000Y13580000D02*
X6750000Y13580000D01*
X8490000Y13580000D02*
X10140000Y13580000D01*
X99000Y25820000D02*
X10140000Y25820000D01*
D12*
G04 #@! TO.C,SW3*
X-3420000Y27170000D02*
X-11820000Y27170000D01*
X-3420000Y13470000D02*
X-3420000Y27170000D01*
X-11820000Y27170000D02*
X-11820000Y13470000D01*
X-11820000Y13470000D02*
X-3420000Y13470000D01*
G04 #@! TO.C,SW2*
X11820000Y47490000D02*
X3420000Y47490000D01*
X11820000Y33790000D02*
X11820000Y47490000D01*
X3420000Y47490000D02*
X3420000Y33790000D01*
X3420000Y33790000D02*
X11820000Y33790000D01*
G04 #@! TO.C,SW1*
D11*
X-1320667Y-40709809D02*
X-1206381Y-40747904D01*
X-1015905Y-40747904D01*
X-939715Y-40709809D01*
X-901620Y-40671714D01*
X-863524Y-40595523D01*
X-863524Y-40519333D01*
X-901620Y-40443142D01*
X-939715Y-40405047D01*
X-1015905Y-40366952D01*
X-1168286Y-40328857D01*
X-1244477Y-40290761D01*
X-1282572Y-40252666D01*
X-1320667Y-40176476D01*
X-1320667Y-40100285D01*
X-1282572Y-40024095D01*
X-1244477Y-39986000D01*
X-1168286Y-39947904D01*
X-977810Y-39947904D01*
X-863524Y-39986000D01*
X-596858Y-39947904D02*
X-406381Y-40747904D01*
X-254000Y-40176476D01*
X-101620Y-40747904D01*
X88857Y-39947904D01*
X812666Y-40747904D02*
X355523Y-40747904D01*
X584095Y-40747904D02*
X584095Y-39947904D01*
X507904Y-40062190D01*
X431714Y-40138380D01*
X355523Y-40176476D01*
G04 #@! TO.C,RV4*
X3460809Y6242096D02*
X3194142Y6623048D01*
X3003666Y6242096D02*
X3003666Y7042096D01*
X3308428Y7042096D01*
X3384619Y7004000D01*
X3422714Y6965905D01*
X3460809Y6889715D01*
X3460809Y6775429D01*
X3422714Y6699239D01*
X3384619Y6661143D01*
X3308428Y6623048D01*
X3003666Y6623048D01*
X3689380Y7042096D02*
X3956047Y6242096D01*
X4222714Y7042096D01*
X4832238Y6775429D02*
X4832238Y6242096D01*
X4641761Y7080191D02*
X4451285Y6508762D01*
X4946523Y6508762D01*
G04 #@! TO.C,RV2*
X-8223191Y5988096D02*
X-8489858Y6369048D01*
X-8680334Y5988096D02*
X-8680334Y6788096D01*
X-8375572Y6788096D01*
X-8299381Y6750000D01*
X-8261286Y6711905D01*
X-8223191Y6635715D01*
X-8223191Y6521429D01*
X-8261286Y6445239D01*
X-8299381Y6407143D01*
X-8375572Y6369048D01*
X-8680334Y6369048D01*
X-7994620Y6788096D02*
X-7727953Y5988096D01*
X-7461286Y6788096D01*
X-7232715Y6711905D02*
X-7194620Y6750000D01*
X-7118429Y6788096D01*
X-6927953Y6788096D01*
X-6851762Y6750000D01*
X-6813667Y6711905D01*
X-6775572Y6635715D01*
X-6775572Y6559524D01*
X-6813667Y6445239D01*
X-7270810Y5988096D01*
X-6775572Y5988096D01*
G04 #@! TO.C,J6*
X7268333Y-39947904D02*
X7268333Y-40519333D01*
X7230238Y-40633619D01*
X7154047Y-40709809D01*
X7039761Y-40747904D01*
X6963571Y-40747904D01*
X7992142Y-39947904D02*
X7839761Y-39947904D01*
X7763571Y-39986000D01*
X7725476Y-40024095D01*
X7649285Y-40138380D01*
X7611190Y-40290761D01*
X7611190Y-40595523D01*
X7649285Y-40671714D01*
X7687380Y-40709809D01*
X7763571Y-40747904D01*
X7915952Y-40747904D01*
X7992142Y-40709809D01*
X8030238Y-40671714D01*
X8068333Y-40595523D01*
X8068333Y-40405047D01*
X8030238Y-40328857D01*
X7992142Y-40290761D01*
X7915952Y-40252666D01*
X7763571Y-40252666D01*
X7687380Y-40290761D01*
X7649285Y-40328857D01*
X7611190Y-40405047D01*
G04 #@! TO.C,J5*
X7268333Y-24707904D02*
X7268333Y-25279333D01*
X7230238Y-25393619D01*
X7154047Y-25469809D01*
X7039761Y-25507904D01*
X6963571Y-25507904D01*
X8030238Y-24707904D02*
X7649285Y-24707904D01*
X7611190Y-25088857D01*
X7649285Y-25050761D01*
X7725476Y-25012666D01*
X7915952Y-25012666D01*
X7992142Y-25050761D01*
X8030238Y-25088857D01*
X8068333Y-25165047D01*
X8068333Y-25355523D01*
X8030238Y-25431714D01*
X7992142Y-25469809D01*
X7915952Y-25507904D01*
X7725476Y-25507904D01*
X7649285Y-25469809D01*
X7611190Y-25431714D01*
G04 #@! TO.C,J4*
X7268333Y-9467904D02*
X7268333Y-10039333D01*
X7230238Y-10153619D01*
X7154047Y-10229809D01*
X7039761Y-10267904D01*
X6963571Y-10267904D01*
X7992142Y-9734571D02*
X7992142Y-10267904D01*
X7801666Y-9429809D02*
X7611190Y-10001238D01*
X8106428Y-10001238D01*
G04 #@! TO.C,J3*
X-7674667Y-39947904D02*
X-7674667Y-40519333D01*
X-7712762Y-40633619D01*
X-7788953Y-40709809D01*
X-7903239Y-40747904D01*
X-7979429Y-40747904D01*
X-7369905Y-39947904D02*
X-6874667Y-39947904D01*
X-7141334Y-40252666D01*
X-7027048Y-40252666D01*
X-6950858Y-40290761D01*
X-6912762Y-40328857D01*
X-6874667Y-40405047D01*
X-6874667Y-40595523D01*
X-6912762Y-40671714D01*
X-6950858Y-40709809D01*
X-7027048Y-40747904D01*
X-7255620Y-40747904D01*
X-7331810Y-40709809D01*
X-7369905Y-40671714D01*
G04 #@! TO.C,J2*
X-7674667Y-24707904D02*
X-7674667Y-25279333D01*
X-7712762Y-25393619D01*
X-7788953Y-25469809D01*
X-7903239Y-25507904D01*
X-7979429Y-25507904D01*
X-7331810Y-24784095D02*
X-7293715Y-24746000D01*
X-7217524Y-24707904D01*
X-7027048Y-24707904D01*
X-6950858Y-24746000D01*
X-6912762Y-24784095D01*
X-6874667Y-24860285D01*
X-6874667Y-24936476D01*
X-6912762Y-25050761D01*
X-7369905Y-25507904D01*
X-6874667Y-25507904D01*
G04 #@! TO.C,J1*
X-7674667Y-9467904D02*
X-7674667Y-10039333D01*
X-7712762Y-10153619D01*
X-7788953Y-10229809D01*
X-7903239Y-10267904D01*
X-7979429Y-10267904D01*
X-6874667Y-10267904D02*
X-7331810Y-10267904D01*
X-7103239Y-10267904D02*
X-7103239Y-9467904D01*
X-7179429Y-9582190D01*
X-7255620Y-9658380D01*
X-7331810Y-9696476D01*
G04 #@! TO.C,D2*
X-590477Y-35501904D02*
X-590477Y-34701904D01*
X-400000Y-34701904D01*
X-285715Y-34740000D01*
X-209524Y-34816190D01*
X-171429Y-34892380D01*
X-133334Y-35044761D01*
X-133334Y-35159047D01*
X-171429Y-35311428D01*
X-209524Y-35387619D01*
X-285715Y-35463809D01*
X-400000Y-35501904D01*
X-590477Y-35501904D01*
X171428Y-34778095D02*
X209523Y-34740000D01*
X285714Y-34701904D01*
X476190Y-34701904D01*
X552380Y-34740000D01*
X590476Y-34778095D01*
X628571Y-34854285D01*
X628571Y-34930476D01*
X590476Y-35044761D01*
X133333Y-35501904D01*
X628571Y-35501904D01*
G04 #@! TO.C,D1*
X-590477Y-20261904D02*
X-590477Y-19461904D01*
X-400000Y-19461904D01*
X-285715Y-19500000D01*
X-209524Y-19576190D01*
X-171429Y-19652380D01*
X-133334Y-19804761D01*
X-133334Y-19919047D01*
X-171429Y-20071428D01*
X-209524Y-20147619D01*
X-285715Y-20223809D01*
X-400000Y-20261904D01*
X-590477Y-20261904D01*
X628571Y-20261904D02*
X171428Y-20261904D01*
X400000Y-20261904D02*
X400000Y-19461904D01*
X323809Y-19576190D01*
X247619Y-19652380D01*
X171428Y-19690476D01*
G04 #@! TO.C,RV1*
X-5596191Y46578096D02*
X-5862858Y46959048D01*
X-6053334Y46578096D02*
X-6053334Y47378096D01*
X-5748572Y47378096D01*
X-5672381Y47340000D01*
X-5634286Y47301905D01*
X-5596191Y47225715D01*
X-5596191Y47111429D01*
X-5634286Y47035239D01*
X-5672381Y46997143D01*
X-5748572Y46959048D01*
X-6053334Y46959048D01*
X-5367620Y47378096D02*
X-5100953Y46578096D01*
X-4834286Y47378096D01*
X-4148572Y46578096D02*
X-4605715Y46578096D01*
X-4377143Y46578096D02*
X-4377143Y47378096D01*
X-4453334Y47263810D01*
X-4529524Y47187620D01*
X-4605715Y47149524D01*
G04 #@! TO.C,RV3*
X4603809Y26308096D02*
X4337142Y26689048D01*
X4146666Y26308096D02*
X4146666Y27108096D01*
X4451428Y27108096D01*
X4527619Y27070000D01*
X4565714Y27031905D01*
X4603809Y26955715D01*
X4603809Y26841429D01*
X4565714Y26765239D01*
X4527619Y26727143D01*
X4451428Y26689048D01*
X4146666Y26689048D01*
X4832380Y27108096D02*
X5099047Y26308096D01*
X5365714Y27108096D01*
X5556190Y27108096D02*
X6051428Y27108096D01*
X5784761Y26803334D01*
X5899047Y26803334D01*
X5975238Y26765239D01*
X6013333Y26727143D01*
X6051428Y26650953D01*
X6051428Y26460477D01*
X6013333Y26384286D01*
X5975238Y26346191D01*
X5899047Y26308096D01*
X5670476Y26308096D01*
X5594285Y26346191D01*
X5556190Y26384286D01*
G04 #@! TO.C,SW3*
X-8686667Y27870191D02*
X-8572381Y27832096D01*
X-8381905Y27832096D01*
X-8305715Y27870191D01*
X-8267620Y27908286D01*
X-8229524Y27984477D01*
X-8229524Y28060667D01*
X-8267620Y28136858D01*
X-8305715Y28174953D01*
X-8381905Y28213048D01*
X-8534286Y28251143D01*
X-8610477Y28289239D01*
X-8648572Y28327334D01*
X-8686667Y28403524D01*
X-8686667Y28479715D01*
X-8648572Y28555905D01*
X-8610477Y28594000D01*
X-8534286Y28632096D01*
X-8343810Y28632096D01*
X-8229524Y28594000D01*
X-7962858Y28632096D02*
X-7772381Y27832096D01*
X-7620000Y28403524D01*
X-7467620Y27832096D01*
X-7277143Y28632096D01*
X-7048572Y28632096D02*
X-6553334Y28632096D01*
X-6820000Y28327334D01*
X-6705715Y28327334D01*
X-6629524Y28289239D01*
X-6591429Y28251143D01*
X-6553334Y28174953D01*
X-6553334Y27984477D01*
X-6591429Y27908286D01*
X-6629524Y27870191D01*
X-6705715Y27832096D01*
X-6934286Y27832096D01*
X-7010477Y27870191D01*
X-7048572Y27908286D01*
G04 #@! TO.C,SW2*
X6553333Y47936191D02*
X6667619Y47898096D01*
X6858095Y47898096D01*
X6934285Y47936191D01*
X6972380Y47974286D01*
X7010476Y48050477D01*
X7010476Y48126667D01*
X6972380Y48202858D01*
X6934285Y48240953D01*
X6858095Y48279048D01*
X6705714Y48317143D01*
X6629523Y48355239D01*
X6591428Y48393334D01*
X6553333Y48469524D01*
X6553333Y48545715D01*
X6591428Y48621905D01*
X6629523Y48660000D01*
X6705714Y48698096D01*
X6896190Y48698096D01*
X7010476Y48660000D01*
X7277142Y48698096D02*
X7467619Y47898096D01*
X7620000Y48469524D01*
X7772380Y47898096D01*
X7962857Y48698096D01*
X8229523Y48621905D02*
X8267619Y48660000D01*
X8343809Y48698096D01*
X8534285Y48698096D01*
X8610476Y48660000D01*
X8648571Y48621905D01*
X8686666Y48545715D01*
X8686666Y48469524D01*
X8648571Y48355239D01*
X8191428Y47898096D01*
X8686666Y47898096D01*
G04 #@! TD*
M02*
