G04 #@! TF.GenerationSoftware,KiCad,Pcbnew,5.0.2-bee76a0~70~ubuntu18.04.1*
G04 #@! TF.CreationDate,2019-04-14T16:07:02+08:00*
G04 #@! TF.ProjectId,LFO,4c464f2e-6b69-4636-9164-5f7063625858,rev?*
G04 #@! TF.SameCoordinates,PX8d9ee20PY6422c40*
G04 #@! TF.FileFunction,Copper,L2,Inr*
G04 #@! TF.FilePolarity,Positive*
%FSLAX46Y46*%
G04 Gerber Fmt 4.6, Leading zero omitted, Abs format (unit mm)*
G04 Created by KiCad (PCBNEW 5.0.2-bee76a0~70~ubuntu18.04.1) date Sun Apr 14 16:07:02 2019*
%MOMM*%
%LPD*%
G01*
G04 APERTURE LIST*
G04 #@! TA.AperFunction,ViaPad*
%ADD10C,2.000000*%
G04 #@! TD*
G04 #@! TA.AperFunction,WasherPad*
%ADD11O,3.000000X2.200000*%
G04 #@! TD*
G04 #@! TA.AperFunction,ViaPad*
%ADD12C,1.800000*%
G04 #@! TD*
G04 #@! TA.AperFunction,ViaPad*
%ADD13O,1.500000X2.600000*%
G04 #@! TD*
G04 #@! TA.AperFunction,ViaPad*
%ADD14O,1.600000X2.400000*%
G04 #@! TD*
G04 #@! TA.AperFunction,ViaPad*
%ADD15O,1.600000X2.600000*%
G04 #@! TD*
G04 #@! TA.AperFunction,ViaPad*
%ADD16R,1.800000X1.800000*%
G04 #@! TD*
G04 #@! TA.AperFunction,ViaPad*
%ADD17O,1.700000X1.700000*%
G04 #@! TD*
G04 #@! TA.AperFunction,ViaPad*
%ADD18R,1.700000X1.700000*%
G04 #@! TD*
G04 #@! TA.AperFunction,ViaPad*
%ADD19O,2.900000X2.500000*%
G04 #@! TD*
G04 #@! TA.AperFunction,ViaPad*
%ADD20C,0.800000*%
G04 #@! TD*
G04 #@! TA.AperFunction,Conductor*
%ADD21C,1.000000*%
G04 #@! TD*
G04 #@! TA.AperFunction,Conductor*
%ADD22C,0.250000*%
G04 #@! TD*
G04 #@! TA.AperFunction,Conductor*
%ADD23C,0.254000*%
G04 #@! TD*
G04 APERTURE END LIST*
D10*
G04 #@! TO.N,RESET*
G04 #@! TO.C,SW1*
X-2286000Y-42522000D03*
G04 #@! TO.N,GND*
X2214000Y-42522000D03*
G04 #@! TO.N,RESET*
X-2286000Y-49022000D03*
G04 #@! TO.N,GND*
X2214000Y-49022000D03*
G04 #@! TD*
D11*
G04 #@! TO.N,*
G04 #@! TO.C,RV4*
X12420000Y0D03*
D12*
G04 #@! TO.N,+12V*
X5120000Y-7500010D03*
G04 #@! TO.N,Net-(C22-Pad1)*
X7660000Y-7500010D03*
G04 #@! TO.N,-12V*
X10120000Y-7500010D03*
D11*
G04 #@! TO.N,*
X2820000Y0D03*
G04 #@! TD*
G04 #@! TO.N,*
G04 #@! TO.C,RV2*
X-2820000Y0D03*
D12*
G04 #@! TO.N,GND*
X-10120000Y-7500010D03*
G04 #@! TO.N,Net-(C8-Pad1)*
X-7580000Y-7500010D03*
G04 #@! TO.N,+5V*
X-5120000Y-7500010D03*
D11*
G04 #@! TO.N,*
X-12420000Y0D03*
G04 #@! TD*
D13*
G04 #@! TO.N,/DigitalOut/Out*
G04 #@! TO.C,J6*
X12540000Y-45720000D03*
D14*
G04 #@! TO.N,GND*
X1140000Y-45720000D03*
D15*
G04 #@! TO.N,Net-(J6-PadTN)*
X4240000Y-45720000D03*
G04 #@! TD*
D13*
G04 #@! TO.N,/OutputStage/Inv*
G04 #@! TO.C,J5*
X12540000Y-30480000D03*
D14*
G04 #@! TO.N,GND*
X1140000Y-30480000D03*
D15*
G04 #@! TO.N,Net-(J5-PadTN)*
X4240000Y-30480000D03*
G04 #@! TD*
D13*
G04 #@! TO.N,/OutputStage/Out*
G04 #@! TO.C,J4*
X12540000Y-15240000D03*
D14*
G04 #@! TO.N,GND*
X1140000Y-15240000D03*
D15*
G04 #@! TO.N,Net-(J4-PadTN)*
X4240000Y-15240000D03*
G04 #@! TD*
D13*
G04 #@! TO.N,/DigitalIn/In*
G04 #@! TO.C,J3*
X-12540000Y-45720000D03*
D14*
G04 #@! TO.N,GND*
X-1140000Y-45720000D03*
D15*
G04 #@! TO.N,+5V*
X-4240000Y-45720000D03*
G04 #@! TD*
D13*
G04 #@! TO.N,/CVIn05.sch/In*
G04 #@! TO.C,J2*
X-12540000Y-30480000D03*
D14*
G04 #@! TO.N,GND*
X-1140000Y-30480000D03*
D15*
X-4240000Y-30480000D03*
G04 #@! TD*
D13*
G04 #@! TO.N,/CVIn55/In*
G04 #@! TO.C,J1*
X-12540000Y-15240000D03*
D14*
G04 #@! TO.N,GND*
X-1140000Y-15240000D03*
D15*
X-4240000Y-15240000D03*
G04 #@! TD*
D12*
G04 #@! TO.N,Net-(D2-Pad2)*
G04 #@! TO.C,D2*
X1270000Y-38100000D03*
D16*
G04 #@! TO.N,GND*
X-1270000Y-38100000D03*
G04 #@! TD*
D17*
G04 #@! TO.N,GND*
G04 #@! TO.C,J7*
X6985000Y9906000D03*
G04 #@! TO.N,RESET*
X6985000Y7366000D03*
G04 #@! TO.N,MOSI*
X9525000Y9906000D03*
G04 #@! TO.N,SCK*
X9525000Y7366000D03*
G04 #@! TO.N,+5V*
X12065000Y9906000D03*
D18*
G04 #@! TO.N,LED1*
X12065000Y7366000D03*
G04 #@! TD*
D17*
G04 #@! TO.N,Net-(D3-Pad2)*
G04 #@! TO.C,J8*
X-3810000Y49276000D03*
X-6350000Y49276000D03*
G04 #@! TO.N,GND*
X-3810000Y46736000D03*
X-6350000Y46736000D03*
X-3810000Y44196000D03*
X-6350000Y44196000D03*
X-3810000Y41656000D03*
X-6350000Y41656000D03*
G04 #@! TO.N,Net-(D5-Pad1)*
X-3810000Y39116000D03*
D18*
X-6350000Y39116000D03*
G04 #@! TD*
D12*
G04 #@! TO.N,Net-(D1-Pad2)*
G04 #@! TO.C,D1*
X1270000Y-22860000D03*
D16*
G04 #@! TO.N,GND*
X-1270000Y-22860000D03*
G04 #@! TD*
D11*
G04 #@! TO.N,*
G04 #@! TO.C,RV1*
X-280000Y40640000D03*
D12*
G04 #@! TO.N,GND*
X-7580000Y33139990D03*
G04 #@! TO.N,Net-(C5-Pad1)*
X-5040000Y33139990D03*
G04 #@! TO.N,+5V*
X-2580000Y33139990D03*
D11*
G04 #@! TO.N,*
X-9880000Y40640000D03*
G04 #@! TD*
G04 #@! TO.N,*
G04 #@! TO.C,RV3*
X9880000Y20320000D03*
D12*
G04 #@! TO.N,GND*
X2580000Y12819990D03*
G04 #@! TO.N,Net-(R25-Pad1)*
X5120000Y12819990D03*
G04 #@! TO.N,Net-(C15-Pad1)*
X7580000Y12819990D03*
D11*
G04 #@! TO.N,*
X280000Y20320000D03*
G04 #@! TD*
D19*
G04 #@! TO.N,Net-(R41-Pad2)*
G04 #@! TO.C,SW3*
X-7620000Y15620000D03*
G04 #@! TO.N,Net-(R38-Pad2)*
X-7620000Y25020000D03*
G04 #@! TO.N,SPDTS*
X-7620000Y20320000D03*
G04 #@! TD*
G04 #@! TO.N,Net-(R40-Pad2)*
G04 #@! TO.C,SW2*
X7620000Y35940000D03*
G04 #@! TO.N,+5V*
X7620000Y45340000D03*
G04 #@! TO.N,Net-(R38-Pad2)*
X7620000Y40640000D03*
G04 #@! TD*
D20*
G04 #@! TO.N,GND*
X-381000Y6731000D03*
X889000Y6731000D03*
X889000Y8001000D03*
X-381000Y8001000D03*
G04 #@! TO.N,+5V*
X-10199200Y43371700D03*
X6902400Y18973300D03*
X-483000Y3515100D03*
X-11150500Y-22441000D03*
X-9281900Y-33465200D03*
X-1410400Y30544000D03*
X-787500Y-11241200D03*
X-9635100Y-17431000D03*
X6924000Y-48242500D03*
X-10998500Y-34834600D03*
X12614900Y16317000D03*
X10220800Y40542500D03*
X-268000Y46221000D03*
X-268000Y47992000D03*
G04 #@! TO.N,+12V*
X11125000Y-22504000D03*
X12395000Y30759400D03*
X12319000Y45847000D03*
X12319000Y45847000D03*
X12319000Y45847000D03*
X12319000Y44831000D03*
G04 #@! TO.N,TRIG*
X-985400Y-27113600D03*
X2558800Y3429600D03*
G04 #@! TO.N,SPDTS*
X-1481900Y9129000D03*
G04 #@! TO.N,Net-(R29-Pad1)*
X9329000Y-23414400D03*
X1668600Y-13264800D03*
G04 #@! TO.N,Net-(R25-Pad1)*
X4757600Y-2775500D03*
G04 #@! TO.N,-12V*
X-1930000Y-20930000D03*
X9595000Y-17659000D03*
X-12065000Y27051000D03*
X3810000Y-23495000D03*
X-12446000Y33909000D03*
X-13589000Y33909000D03*
G04 #@! TO.N,Net-(C15-Pad1)*
X10128400Y-20930200D03*
X8223000Y-22285400D03*
G04 #@! TO.N,PWM*
X-8176200Y-34289100D03*
X1558400Y3699800D03*
G04 #@! TO.N,FREQ*
X-8884900Y-18922400D03*
X1983100Y5534800D03*
G04 #@! TO.N,SCK*
X9082800Y5172300D03*
G04 #@! TO.N,Net-(C5-Pad1)*
X-8850000Y-11197400D03*
G04 #@! TO.N,GND*
X7086500Y4889600D03*
X6312200Y-19521200D03*
X-9827700Y-1704100D03*
X3149500Y-19994600D03*
X-10382300Y50673500D03*
X-9829400Y4105100D03*
X2732500Y-26156700D03*
X-787500Y-8691100D03*
X-13641100Y15366300D03*
X-12725500Y-22175700D03*
X-13650900Y7343800D03*
X-13425700Y10602800D03*
X-6695100Y27999300D03*
X6339300Y14770400D03*
X8824000Y-43576700D03*
X5979700Y-43929700D03*
X-1402200Y27507500D03*
X-2107600Y-33749200D03*
X-9830700Y-47596800D03*
X-9974100Y23169600D03*
X-12573500Y-34845800D03*
X6959500Y-694600D03*
X13145900Y-2983500D03*
X12725500Y-24866500D03*
X558000Y3793300D03*
X9599300Y-33872300D03*
X12309300Y36255800D03*
X9112100Y27571000D03*
X-9232000Y30939500D03*
X10795000Y44110500D03*
X-3048000Y11684000D03*
X-4826000Y3810000D03*
X3683000Y48006000D03*
X2032000Y48006000D03*
G04 #@! TO.N,LED2*
X-1280100Y-4174800D03*
X-2483600Y8923700D03*
G04 #@! TD*
D21*
G04 #@! TO.N,+12V*
X13716000Y29438600D02*
X12395000Y30759400D01*
X13233000Y-5842000D02*
X13233000Y-4648000D01*
X13233000Y-4648000D02*
X10001000Y-1416000D01*
X10001000Y-1416000D02*
X9931000Y-1416000D01*
X9931000Y-1416000D02*
X9931000Y1219000D01*
X9931000Y1219000D02*
X13716000Y5003800D01*
X13716000Y5003800D02*
X13716000Y29438600D01*
X11125000Y-22504000D02*
X13526000Y-22504000D01*
X13526000Y-22504000D02*
X13526000Y-19114000D01*
X13526000Y-19114000D02*
X10795000Y-16383000D01*
X10795000Y-16383000D02*
X10795000Y-13919000D01*
X10795000Y-13919000D02*
X13589000Y-11125000D01*
X13589000Y-11125000D02*
X13589000Y-6198000D01*
X13589000Y-6198000D02*
X13233000Y-5842000D01*
D22*
X13233000Y-5842000D02*
X6778000Y-5842000D01*
X6778000Y-5842000D02*
X5120000Y-7500000D01*
D21*
X13716000Y44069000D02*
X13716000Y29438600D01*
X13062857Y44831000D02*
X13316857Y44577000D01*
X12319000Y44831000D02*
X13062857Y44831000D01*
X12319000Y45847000D02*
X13316857Y44577000D01*
X13316857Y44577000D02*
X13716000Y44069000D01*
D22*
G04 #@! TO.N,-12V*
X3810000Y-23368000D02*
X3810000Y-22301000D01*
X3810000Y-22301000D02*
X2438000Y-20930000D01*
X2438000Y-20930000D02*
X-1930000Y-20930000D01*
X3810000Y-23495000D02*
X3810000Y-23368000D01*
D21*
X3810000Y-23368000D02*
X6375000Y-20803000D01*
X6375000Y-20803000D02*
X8357000Y-20803000D01*
X8357000Y-20803000D02*
X9595000Y-19564000D01*
X9595000Y-19564000D02*
X9595000Y-17659000D01*
X3810000Y-23495000D02*
X3810000Y-23368000D01*
X10120000Y-7500000D02*
X9931000Y-7311000D01*
G04 #@! TD*
D23*
G04 #@! TO.N,+5V*
G36*
X14007161Y45535531D02*
X13177026Y46592066D01*
X13061092Y46713035D01*
X12877878Y46841169D01*
X12673187Y46931099D01*
X12454884Y46979367D01*
X12231360Y46984119D01*
X12011203Y46945171D01*
X11802875Y46864022D01*
X11614381Y46743789D01*
X11452965Y46589092D01*
X11324831Y46405878D01*
X11234901Y46201187D01*
X11186633Y45982884D01*
X11181881Y45759360D01*
X11220829Y45539203D01*
X11300818Y45333852D01*
X11265324Y45267447D01*
X11202941Y45061801D01*
X11096898Y45105726D01*
X10896939Y45145500D01*
X10693061Y45145500D01*
X10493102Y45105726D01*
X10304744Y45027705D01*
X10135226Y44914437D01*
X9991063Y44770274D01*
X9877795Y44600756D01*
X9799774Y44412398D01*
X9760000Y44212439D01*
X9760000Y44008561D01*
X9799774Y43808602D01*
X9877795Y43620244D01*
X9991063Y43450726D01*
X10135226Y43306563D01*
X10304744Y43193295D01*
X10493102Y43115274D01*
X10693061Y43075500D01*
X10896939Y43075500D01*
X11096898Y43115274D01*
X11285256Y43193295D01*
X11454774Y43306563D01*
X11598937Y43450726D01*
X11712205Y43620244D01*
X11790226Y43808602D01*
X11793475Y43824937D01*
X11882553Y43777324D01*
X12096501Y43712423D01*
X12263248Y43696000D01*
X12565637Y43696000D01*
X12581000Y43676447D01*
X12581000Y37257033D01*
X12411239Y37290800D01*
X12207361Y37290800D01*
X12007402Y37251026D01*
X11819044Y37173005D01*
X11649526Y37059737D01*
X11505363Y36915574D01*
X11392095Y36746056D01*
X11314074Y36557698D01*
X11274300Y36357739D01*
X11274300Y36153861D01*
X11314074Y35953902D01*
X11392095Y35765544D01*
X11505363Y35596026D01*
X11649526Y35451863D01*
X11819044Y35338595D01*
X12007402Y35260574D01*
X12207361Y35220800D01*
X12411239Y35220800D01*
X12581001Y35254567D01*
X12581001Y31881578D01*
X12394914Y31899891D01*
X12172417Y31877960D01*
X11958474Y31813043D01*
X11761306Y31707635D01*
X11588491Y31565787D01*
X11446669Y31392951D01*
X11341291Y31195767D01*
X11276406Y30981814D01*
X11254509Y30759314D01*
X11276440Y30536817D01*
X11341357Y30322874D01*
X11446765Y30125706D01*
X11553069Y29996193D01*
X12581001Y28968417D01*
X12581000Y11297156D01*
X12569099Y11302825D01*
X12421890Y11347476D01*
X12192000Y11226155D01*
X12192000Y10033000D01*
X12212000Y10033000D01*
X12212000Y9779000D01*
X12192000Y9779000D01*
X12192000Y9759000D01*
X11938000Y9759000D01*
X11938000Y9779000D01*
X11918000Y9779000D01*
X11918000Y10033000D01*
X11938000Y10033000D01*
X11938000Y11226155D01*
X11708110Y11347476D01*
X11560901Y11302825D01*
X11298080Y11177641D01*
X11064731Y11003588D01*
X10869822Y10787355D01*
X10800201Y10670477D01*
X10765706Y10735014D01*
X10580134Y10961134D01*
X10354014Y11146706D01*
X10096034Y11284599D01*
X9816111Y11369513D01*
X9597950Y11391000D01*
X9452050Y11391000D01*
X9233889Y11369513D01*
X8953966Y11284599D01*
X8695986Y11146706D01*
X8469866Y10961134D01*
X8284294Y10735014D01*
X8255000Y10680209D01*
X8225706Y10735014D01*
X8040134Y10961134D01*
X7814014Y11146706D01*
X7556034Y11284599D01*
X7554745Y11284990D01*
X7731184Y11284990D01*
X8027743Y11343979D01*
X8307095Y11459691D01*
X8558505Y11627678D01*
X8772312Y11841485D01*
X8940299Y12092895D01*
X9056011Y12372247D01*
X9115000Y12668806D01*
X9115000Y12971174D01*
X9056011Y13267733D01*
X8940299Y13547085D01*
X8772312Y13798495D01*
X8558505Y14012302D01*
X8307095Y14180289D01*
X8027743Y14296001D01*
X7731184Y14354990D01*
X7428816Y14354990D01*
X7274819Y14324358D01*
X7334526Y14468502D01*
X7374300Y14668461D01*
X7374300Y14872339D01*
X7334526Y15072298D01*
X7256505Y15260656D01*
X7143237Y15430174D01*
X6999074Y15574337D01*
X6829556Y15687605D01*
X6641198Y15765626D01*
X6441239Y15805400D01*
X6237361Y15805400D01*
X6037402Y15765626D01*
X5849044Y15687605D01*
X5679526Y15574337D01*
X5535363Y15430174D01*
X5422095Y15260656D01*
X5344074Y15072298D01*
X5304300Y14872339D01*
X5304300Y14668461D01*
X5344074Y14468502D01*
X5401859Y14328997D01*
X5271184Y14354990D01*
X4968816Y14354990D01*
X4672257Y14296001D01*
X4392905Y14180289D01*
X4141495Y14012302D01*
X3927688Y13798495D01*
X3850000Y13682227D01*
X3772312Y13798495D01*
X3558505Y14012302D01*
X3307095Y14180289D01*
X3027743Y14296001D01*
X2731184Y14354990D01*
X2428816Y14354990D01*
X2132257Y14296001D01*
X1852905Y14180289D01*
X1601495Y14012302D01*
X1387688Y13798495D01*
X1219701Y13547085D01*
X1103989Y13267733D01*
X1045000Y12971174D01*
X1045000Y12668806D01*
X1103989Y12372247D01*
X1219701Y12092895D01*
X1387688Y11841485D01*
X1601495Y11627678D01*
X1852905Y11459691D01*
X2132257Y11343979D01*
X2428816Y11284990D01*
X2731184Y11284990D01*
X3027743Y11343979D01*
X3307095Y11459691D01*
X3558505Y11627678D01*
X3772312Y11841485D01*
X3850000Y11957753D01*
X3927688Y11841485D01*
X4141495Y11627678D01*
X4392905Y11459691D01*
X4672257Y11343979D01*
X4968816Y11284990D01*
X5271184Y11284990D01*
X5567743Y11343979D01*
X5847095Y11459691D01*
X6098505Y11627678D01*
X6312312Y11841485D01*
X6350000Y11897889D01*
X6387688Y11841485D01*
X6601495Y11627678D01*
X6852905Y11459691D01*
X7018739Y11391000D01*
X6912050Y11391000D01*
X6693889Y11369513D01*
X6413966Y11284599D01*
X6155986Y11146706D01*
X5929866Y10961134D01*
X5744294Y10735014D01*
X5606401Y10477034D01*
X5521487Y10197111D01*
X5492815Y9906000D01*
X5521487Y9614889D01*
X5606401Y9334966D01*
X5744294Y9076986D01*
X5929866Y8850866D01*
X6155986Y8665294D01*
X6210791Y8636000D01*
X6155986Y8606706D01*
X5929866Y8421134D01*
X5744294Y8195014D01*
X5606401Y7937034D01*
X5521487Y7657111D01*
X5492815Y7366000D01*
X5521487Y7074889D01*
X5606401Y6794966D01*
X5744294Y6536986D01*
X5929866Y6310866D01*
X6155986Y6125294D01*
X6413966Y5987401D01*
X6693889Y5902487D01*
X6813945Y5890663D01*
X6784602Y5884826D01*
X6596244Y5806805D01*
X6426726Y5693537D01*
X6282563Y5549374D01*
X6169295Y5379856D01*
X6091274Y5191498D01*
X6051500Y4991539D01*
X6051500Y4787661D01*
X6091274Y4587702D01*
X6169295Y4399344D01*
X6282563Y4229826D01*
X6426726Y4085663D01*
X6596244Y3972395D01*
X6784602Y3894374D01*
X6984561Y3854600D01*
X7188439Y3854600D01*
X7388398Y3894374D01*
X7576756Y3972395D01*
X7746274Y4085663D01*
X7890437Y4229826D01*
X8003705Y4399344D01*
X8081726Y4587702D01*
X8121500Y4787661D01*
X8121500Y4788498D01*
X8165595Y4682044D01*
X8278863Y4512526D01*
X8423026Y4368363D01*
X8592544Y4255095D01*
X8780902Y4177074D01*
X8980861Y4137300D01*
X9184739Y4137300D01*
X9384698Y4177074D01*
X9573056Y4255095D01*
X9742574Y4368363D01*
X9886737Y4512526D01*
X10000005Y4682044D01*
X10078026Y4870402D01*
X10117800Y5070361D01*
X10117800Y5274239D01*
X10078026Y5474198D01*
X10000005Y5662556D01*
X9886737Y5832074D01*
X9816274Y5902537D01*
X10096034Y5987401D01*
X10354014Y6125294D01*
X10580134Y6310866D01*
X10604607Y6340687D01*
X10625498Y6271820D01*
X10684463Y6161506D01*
X10763815Y6064815D01*
X10860506Y5985463D01*
X10970820Y5926498D01*
X11090518Y5890188D01*
X11215000Y5877928D01*
X12581000Y5877928D01*
X12581000Y5473950D01*
X9167872Y2061001D01*
X9124552Y2025449D01*
X9047688Y1931790D01*
X8982733Y1852647D01*
X8982726Y1852634D01*
X8982717Y1852623D01*
X8932108Y1757940D01*
X8877336Y1655474D01*
X8877331Y1655459D01*
X8877325Y1655447D01*
X8849734Y1564491D01*
X8812429Y1441528D01*
X8812427Y1441509D01*
X8812424Y1441499D01*
X8804668Y1362747D01*
X8790509Y1219030D01*
X8796001Y1163253D01*
X8796000Y-1360248D01*
X8790509Y-1416000D01*
X8812423Y-1638499D01*
X8877324Y-1852447D01*
X8949925Y-1988274D01*
X8982716Y-2049623D01*
X9124551Y-2222449D01*
X9297377Y-2364284D01*
X9397864Y-2417995D01*
X12061868Y-5082000D01*
X6815322Y-5082000D01*
X6777999Y-5078324D01*
X6740676Y-5082000D01*
X6740667Y-5082000D01*
X6629014Y-5092997D01*
X6485753Y-5136454D01*
X6353723Y-5207026D01*
X6301706Y-5249716D01*
X6237999Y-5301999D01*
X6214201Y-5330997D01*
X5528921Y-6016277D01*
X5271184Y-5965010D01*
X4968816Y-5965010D01*
X4672257Y-6023999D01*
X4392905Y-6139711D01*
X4141495Y-6307698D01*
X3927688Y-6521505D01*
X3759701Y-6772915D01*
X3643989Y-7052267D01*
X3585000Y-7348826D01*
X3585000Y-7651194D01*
X3643989Y-7947753D01*
X3759701Y-8227105D01*
X3927688Y-8478515D01*
X4141495Y-8692322D01*
X4392905Y-8860309D01*
X4672257Y-8976021D01*
X4968816Y-9035010D01*
X5271184Y-9035010D01*
X5567743Y-8976021D01*
X5847095Y-8860309D01*
X6098505Y-8692322D01*
X6312312Y-8478515D01*
X6390000Y-8362247D01*
X6467688Y-8478515D01*
X6681495Y-8692322D01*
X6932905Y-8860309D01*
X7212257Y-8976021D01*
X7508816Y-9035010D01*
X7811184Y-9035010D01*
X8107743Y-8976021D01*
X8387095Y-8860309D01*
X8638505Y-8692322D01*
X8852312Y-8478515D01*
X8890000Y-8422111D01*
X8927688Y-8478515D01*
X9141495Y-8692322D01*
X9392905Y-8860309D01*
X9672257Y-8976021D01*
X9968816Y-9035010D01*
X10271184Y-9035010D01*
X10567743Y-8976021D01*
X10847095Y-8860309D01*
X11098505Y-8692322D01*
X11312312Y-8478515D01*
X11480299Y-8227105D01*
X11596011Y-7947753D01*
X11655000Y-7651194D01*
X11655000Y-7348826D01*
X11596011Y-7052267D01*
X11480299Y-6772915D01*
X11366097Y-6602000D01*
X12388431Y-6602000D01*
X12426551Y-6648449D01*
X12454001Y-6670977D01*
X12454000Y-10654867D01*
X10031860Y-13077009D01*
X9988552Y-13112551D01*
X9846717Y-13285377D01*
X9790384Y-13390770D01*
X9741324Y-13482554D01*
X9676423Y-13696502D01*
X9654509Y-13919000D01*
X9660001Y-13974761D01*
X9660000Y-16327248D01*
X9654509Y-16383000D01*
X9668569Y-16525755D01*
X9595000Y-16518509D01*
X9372502Y-16540423D01*
X9158554Y-16605324D01*
X8961378Y-16710716D01*
X8788552Y-16852551D01*
X8646717Y-17025377D01*
X8541325Y-17222553D01*
X8476424Y-17436501D01*
X8460001Y-17603248D01*
X8460000Y-19094136D01*
X7886600Y-19668000D01*
X7338277Y-19668000D01*
X7347200Y-19623139D01*
X7347200Y-19419261D01*
X7307426Y-19219302D01*
X7229405Y-19030944D01*
X7116137Y-18861426D01*
X6971974Y-18717263D01*
X6802456Y-18603995D01*
X6614098Y-18525974D01*
X6414139Y-18486200D01*
X6210261Y-18486200D01*
X6010302Y-18525974D01*
X5821944Y-18603995D01*
X5652426Y-18717263D01*
X5508263Y-18861426D01*
X5394995Y-19030944D01*
X5316974Y-19219302D01*
X5277200Y-19419261D01*
X5277200Y-19623139D01*
X5316974Y-19823098D01*
X5394995Y-20011456D01*
X5461652Y-20111216D01*
X4078237Y-21494631D01*
X3537410Y-20954198D01*
X3639756Y-20911805D01*
X3809274Y-20798537D01*
X3953437Y-20654374D01*
X4066705Y-20484856D01*
X4144726Y-20296498D01*
X4184500Y-20096539D01*
X4184500Y-19892661D01*
X4144726Y-19692702D01*
X4066705Y-19504344D01*
X3953437Y-19334826D01*
X3809274Y-19190663D01*
X3639756Y-19077395D01*
X3451398Y-18999374D01*
X3251439Y-18959600D01*
X3047561Y-18959600D01*
X2847602Y-18999374D01*
X2659244Y-19077395D01*
X2489726Y-19190663D01*
X2345563Y-19334826D01*
X2232295Y-19504344D01*
X2154274Y-19692702D01*
X2114500Y-19892661D01*
X2114500Y-20096539D01*
X2129112Y-20170000D01*
X-1226289Y-20170000D01*
X-1270226Y-20126063D01*
X-1439744Y-20012795D01*
X-1628102Y-19934774D01*
X-1828061Y-19895000D01*
X-2031939Y-19895000D01*
X-2231898Y-19934774D01*
X-2420256Y-20012795D01*
X-2589774Y-20126063D01*
X-2733937Y-20270226D01*
X-2847205Y-20439744D01*
X-2925226Y-20628102D01*
X-2965000Y-20828061D01*
X-2965000Y-21031939D01*
X-2925226Y-21231898D01*
X-2847205Y-21420256D01*
X-2733937Y-21589774D01*
X-2706691Y-21617020D01*
X-2759502Y-21715820D01*
X-2795812Y-21835518D01*
X-2808072Y-21960000D01*
X-2808072Y-23760000D01*
X-2795812Y-23884482D01*
X-2759502Y-24004180D01*
X-2700537Y-24114494D01*
X-2621185Y-24211185D01*
X-2524494Y-24290537D01*
X-2414180Y-24349502D01*
X-2294482Y-24385812D01*
X-2170000Y-24398072D01*
X-370000Y-24398072D01*
X-245518Y-24385812D01*
X-125820Y-24349502D01*
X-15506Y-24290537D01*
X81185Y-24211185D01*
X160537Y-24114494D01*
X219502Y-24004180D01*
X225056Y-23985873D01*
X291495Y-24052312D01*
X542905Y-24220299D01*
X822257Y-24336011D01*
X1118816Y-24395000D01*
X1421184Y-24395000D01*
X1717743Y-24336011D01*
X1997095Y-24220299D01*
X2248505Y-24052312D01*
X2462312Y-23838505D01*
X2630299Y-23587095D01*
X2675000Y-23479178D01*
X2675000Y-23550751D01*
X2691423Y-23717498D01*
X2756324Y-23931446D01*
X2861716Y-24128623D01*
X3003551Y-24301449D01*
X3176377Y-24443284D01*
X3373553Y-24548676D01*
X3587501Y-24613577D01*
X3810000Y-24635491D01*
X4032498Y-24613577D01*
X4246446Y-24548676D01*
X4443623Y-24443284D01*
X4616449Y-24301449D01*
X4758284Y-24128623D01*
X4863676Y-23931447D01*
X4868898Y-23914233D01*
X6845132Y-21938000D01*
X7246622Y-21938000D01*
X7227774Y-21983502D01*
X7188000Y-22183461D01*
X7188000Y-22387339D01*
X7227774Y-22587298D01*
X7305795Y-22775656D01*
X7419063Y-22945174D01*
X7563226Y-23089337D01*
X7732744Y-23202605D01*
X7921102Y-23280626D01*
X8121061Y-23320400D01*
X8294000Y-23320400D01*
X8294000Y-23516339D01*
X8333774Y-23716298D01*
X8411795Y-23904656D01*
X8525063Y-24074174D01*
X8669226Y-24218337D01*
X8838744Y-24331605D01*
X9027102Y-24409626D01*
X9227061Y-24449400D01*
X9430939Y-24449400D01*
X9630898Y-24409626D01*
X9819256Y-24331605D01*
X9988774Y-24218337D01*
X10132937Y-24074174D01*
X10246205Y-23904656D01*
X10324226Y-23716298D01*
X10364000Y-23516339D01*
X10364000Y-23347748D01*
X10491377Y-23452284D01*
X10688553Y-23557676D01*
X10902501Y-23622577D01*
X11069248Y-23639000D01*
X13470248Y-23639000D01*
X13526000Y-23644491D01*
X13581751Y-23639000D01*
X13581752Y-23639000D01*
X13748499Y-23622577D01*
X13962447Y-23557676D01*
X14007160Y-23533776D01*
X14007160Y-52516440D01*
X-14002839Y-52516440D01*
X-14002839Y-48860967D01*
X-3921000Y-48860967D01*
X-3921000Y-49183033D01*
X-3858168Y-49498912D01*
X-3734918Y-49796463D01*
X-3555987Y-50064252D01*
X-3328252Y-50291987D01*
X-3060463Y-50470918D01*
X-2762912Y-50594168D01*
X-2447033Y-50657000D01*
X-2124967Y-50657000D01*
X-1809088Y-50594168D01*
X-1511537Y-50470918D01*
X-1243748Y-50291987D01*
X-1016013Y-50064252D01*
X-837082Y-49796463D01*
X-713832Y-49498912D01*
X-651000Y-49183033D01*
X-651000Y-48860967D01*
X579000Y-48860967D01*
X579000Y-49183033D01*
X641832Y-49498912D01*
X765082Y-49796463D01*
X944013Y-50064252D01*
X1171748Y-50291987D01*
X1439537Y-50470918D01*
X1737088Y-50594168D01*
X2052967Y-50657000D01*
X2375033Y-50657000D01*
X2690912Y-50594168D01*
X2988463Y-50470918D01*
X3256252Y-50291987D01*
X3483987Y-50064252D01*
X3662918Y-49796463D01*
X3786168Y-49498912D01*
X3849000Y-49183033D01*
X3849000Y-48860967D01*
X3786168Y-48545088D01*
X3662918Y-48247537D01*
X3483987Y-47979748D01*
X3256252Y-47752013D01*
X2988463Y-47573082D01*
X2690912Y-47449832D01*
X2375033Y-47387000D01*
X2052967Y-47387000D01*
X1737088Y-47449832D01*
X1439537Y-47573082D01*
X1171748Y-47752013D01*
X944013Y-47979748D01*
X765082Y-48247537D01*
X641832Y-48545088D01*
X579000Y-48860967D01*
X-651000Y-48860967D01*
X-713832Y-48545088D01*
X-837082Y-48247537D01*
X-1016013Y-47979748D01*
X-1243748Y-47752013D01*
X-1511537Y-47573082D01*
X-1809088Y-47449832D01*
X-2124967Y-47387000D01*
X-2447033Y-47387000D01*
X-2762912Y-47449832D01*
X-3060463Y-47573082D01*
X-3328252Y-47752013D01*
X-3555987Y-47979748D01*
X-3734918Y-48247537D01*
X-3858168Y-48545088D01*
X-3921000Y-48860967D01*
X-14002839Y-48860967D01*
X-14002839Y-45101964D01*
X-13925000Y-45101964D01*
X-13925000Y-46338037D01*
X-13904960Y-46541507D01*
X-13825764Y-46802581D01*
X-13697157Y-47043188D01*
X-13524080Y-47254081D01*
X-13313187Y-47427157D01*
X-13072580Y-47555764D01*
X-12811506Y-47634960D01*
X-12540000Y-47661701D01*
X-12268493Y-47634960D01*
X-12007419Y-47555764D01*
X-11893478Y-47494861D01*
X-10865700Y-47494861D01*
X-10865700Y-47698739D01*
X-10825926Y-47898698D01*
X-10747905Y-48087056D01*
X-10634637Y-48256574D01*
X-10490474Y-48400737D01*
X-10320956Y-48514005D01*
X-10132598Y-48592026D01*
X-9932639Y-48631800D01*
X-9728761Y-48631800D01*
X-9528802Y-48592026D01*
X-9340444Y-48514005D01*
X-9170926Y-48400737D01*
X-9026763Y-48256574D01*
X-8913495Y-48087056D01*
X-8835474Y-47898698D01*
X-8795700Y-47698739D01*
X-8795700Y-47494861D01*
X-8835474Y-47294902D01*
X-8913495Y-47106544D01*
X-9026763Y-46937026D01*
X-9170926Y-46792863D01*
X-9340444Y-46679595D01*
X-9528802Y-46601574D01*
X-9728761Y-46561800D01*
X-9932639Y-46561800D01*
X-10132598Y-46601574D01*
X-10320956Y-46679595D01*
X-10490474Y-46792863D01*
X-10634637Y-46937026D01*
X-10747905Y-47106544D01*
X-10825926Y-47294902D01*
X-10865700Y-47494861D01*
X-11893478Y-47494861D01*
X-11766812Y-47427157D01*
X-11555919Y-47254081D01*
X-11382843Y-47043188D01*
X-11254236Y-46802581D01*
X-11175040Y-46541507D01*
X-11155000Y-46338037D01*
X-11155000Y-45847000D01*
X-5675000Y-45847000D01*
X-5675000Y-46347000D01*
X-5622650Y-46624514D01*
X-5517166Y-46886483D01*
X-5362601Y-47122839D01*
X-5164895Y-47324500D01*
X-4931646Y-47483715D01*
X-4671818Y-47594367D01*
X-4589039Y-47611904D01*
X-4367000Y-47489915D01*
X-4367000Y-45847000D01*
X-4113000Y-45847000D01*
X-4113000Y-47489915D01*
X-3890961Y-47611904D01*
X-3808182Y-47594367D01*
X-3548354Y-47483715D01*
X-3315105Y-47324500D01*
X-3117399Y-47122839D01*
X-2962834Y-46886483D01*
X-2857350Y-46624514D01*
X-2805000Y-46347000D01*
X-2805000Y-45847000D01*
X-4113000Y-45847000D01*
X-4367000Y-45847000D01*
X-5675000Y-45847000D01*
X-11155000Y-45847000D01*
X-11155000Y-45101963D01*
X-11155882Y-45093000D01*
X-5675000Y-45093000D01*
X-5675000Y-45593000D01*
X-4367000Y-45593000D01*
X-4367000Y-43950085D01*
X-4113000Y-43950085D01*
X-4113000Y-45593000D01*
X-2805000Y-45593000D01*
X-2805000Y-45093000D01*
X-2857350Y-44815486D01*
X-2962834Y-44553517D01*
X-3117399Y-44317161D01*
X-3315105Y-44115500D01*
X-3548354Y-43956285D01*
X-3808182Y-43845633D01*
X-3890961Y-43828096D01*
X-4113000Y-43950085D01*
X-4367000Y-43950085D01*
X-4589039Y-43828096D01*
X-4671818Y-43845633D01*
X-4931646Y-43956285D01*
X-5164895Y-44115500D01*
X-5362601Y-44317161D01*
X-5517166Y-44553517D01*
X-5622650Y-44815486D01*
X-5675000Y-45093000D01*
X-11155882Y-45093000D01*
X-11175040Y-44898493D01*
X-11254236Y-44637419D01*
X-11382843Y-44396812D01*
X-11555920Y-44185919D01*
X-11766813Y-44012843D01*
X-12007420Y-43884236D01*
X-12268494Y-43805040D01*
X-12540000Y-43778299D01*
X-12811507Y-43805040D01*
X-13072581Y-43884236D01*
X-13313188Y-44012843D01*
X-13524081Y-44185920D01*
X-13697157Y-44396813D01*
X-13825764Y-44637420D01*
X-13904960Y-44898494D01*
X-13925000Y-45101964D01*
X-14002839Y-45101964D01*
X-14002839Y-42360967D01*
X-3921000Y-42360967D01*
X-3921000Y-42683033D01*
X-3858168Y-42998912D01*
X-3734918Y-43296463D01*
X-3555987Y-43564252D01*
X-3328252Y-43791987D01*
X-3060463Y-43970918D01*
X-2762912Y-44094168D01*
X-2447033Y-44157000D01*
X-2124967Y-44157000D01*
X-1939191Y-44120047D01*
X-1941101Y-44121068D01*
X-2159608Y-44300393D01*
X-2338932Y-44518900D01*
X-2472182Y-44768193D01*
X-2554236Y-45038692D01*
X-2575000Y-45249509D01*
X-2575000Y-46190492D01*
X-2554236Y-46401309D01*
X-2472182Y-46671808D01*
X-2338932Y-46921101D01*
X-2159607Y-47139608D01*
X-1941100Y-47318932D01*
X-1691807Y-47452182D01*
X-1421308Y-47534236D01*
X-1140000Y-47561943D01*
X-858691Y-47534236D01*
X-588192Y-47452182D01*
X-338899Y-47318932D01*
X-120392Y-47139608D01*
X0Y-46992909D01*
X120392Y-47139607D01*
X338899Y-47318932D01*
X588192Y-47452182D01*
X858691Y-47534236D01*
X1140000Y-47561943D01*
X1421308Y-47534236D01*
X1691807Y-47452182D01*
X1941100Y-47318932D01*
X2159607Y-47139608D01*
X2338932Y-46921101D01*
X2472182Y-46671808D01*
X2554236Y-46401309D01*
X2575000Y-46190492D01*
X2575000Y-45249509D01*
X2565151Y-45149508D01*
X2805000Y-45149508D01*
X2805000Y-46290491D01*
X2825764Y-46501308D01*
X2907818Y-46771807D01*
X3041068Y-47021100D01*
X3220392Y-47239607D01*
X3438899Y-47418932D01*
X3688192Y-47552182D01*
X3958691Y-47634236D01*
X4240000Y-47661943D01*
X4521308Y-47634236D01*
X4791807Y-47552182D01*
X5041100Y-47418932D01*
X5259607Y-47239608D01*
X5438932Y-47021101D01*
X5572182Y-46771808D01*
X5654236Y-46501309D01*
X5675000Y-46290492D01*
X5675000Y-45149508D01*
X5670318Y-45101963D01*
X11155000Y-45101963D01*
X11155000Y-46338036D01*
X11175040Y-46541506D01*
X11254236Y-46802580D01*
X11382843Y-47043187D01*
X11555919Y-47254080D01*
X11766812Y-47427157D01*
X12007419Y-47555764D01*
X12268493Y-47634960D01*
X12540000Y-47661701D01*
X12811506Y-47634960D01*
X13072580Y-47555764D01*
X13313187Y-47427157D01*
X13524080Y-47254081D01*
X13697157Y-47043188D01*
X13825764Y-46802581D01*
X13904960Y-46541507D01*
X13925000Y-46338037D01*
X13925000Y-45101963D01*
X13904960Y-44898493D01*
X13825764Y-44637419D01*
X13697157Y-44396812D01*
X13524081Y-44185919D01*
X13313188Y-44012843D01*
X13072581Y-43884236D01*
X12811507Y-43805040D01*
X12540000Y-43778299D01*
X12268494Y-43805040D01*
X12007420Y-43884236D01*
X11766813Y-44012843D01*
X11555920Y-44185919D01*
X11382843Y-44396812D01*
X11254236Y-44637419D01*
X11175040Y-44898493D01*
X11155000Y-45101963D01*
X5670318Y-45101963D01*
X5654236Y-44938691D01*
X5646074Y-44911784D01*
X5677802Y-44924926D01*
X5877761Y-44964700D01*
X6081639Y-44964700D01*
X6281598Y-44924926D01*
X6469956Y-44846905D01*
X6639474Y-44733637D01*
X6783637Y-44589474D01*
X6896905Y-44419956D01*
X6974926Y-44231598D01*
X7014700Y-44031639D01*
X7014700Y-43827761D01*
X6974926Y-43627802D01*
X6911534Y-43474761D01*
X7789000Y-43474761D01*
X7789000Y-43678639D01*
X7828774Y-43878598D01*
X7906795Y-44066956D01*
X8020063Y-44236474D01*
X8164226Y-44380637D01*
X8333744Y-44493905D01*
X8522102Y-44571926D01*
X8722061Y-44611700D01*
X8925939Y-44611700D01*
X9125898Y-44571926D01*
X9314256Y-44493905D01*
X9483774Y-44380637D01*
X9627937Y-44236474D01*
X9741205Y-44066956D01*
X9819226Y-43878598D01*
X9859000Y-43678639D01*
X9859000Y-43474761D01*
X9819226Y-43274802D01*
X9741205Y-43086444D01*
X9627937Y-42916926D01*
X9483774Y-42772763D01*
X9314256Y-42659495D01*
X9125898Y-42581474D01*
X8925939Y-42541700D01*
X8722061Y-42541700D01*
X8522102Y-42581474D01*
X8333744Y-42659495D01*
X8164226Y-42772763D01*
X8020063Y-42916926D01*
X7906795Y-43086444D01*
X7828774Y-43274802D01*
X7789000Y-43474761D01*
X6911534Y-43474761D01*
X6896905Y-43439444D01*
X6783637Y-43269926D01*
X6639474Y-43125763D01*
X6469956Y-43012495D01*
X6281598Y-42934474D01*
X6081639Y-42894700D01*
X5877761Y-42894700D01*
X5677802Y-42934474D01*
X5489444Y-43012495D01*
X5319926Y-43125763D01*
X5175763Y-43269926D01*
X5062495Y-43439444D01*
X4984474Y-43627802D01*
X4944700Y-43827761D01*
X4944700Y-43969541D01*
X4791808Y-43887818D01*
X4521309Y-43805764D01*
X4240000Y-43778057D01*
X3958692Y-43805764D01*
X3688193Y-43887818D01*
X3438900Y-44021068D01*
X3220393Y-44200392D01*
X3041068Y-44418899D01*
X2907818Y-44668192D01*
X2825764Y-44938691D01*
X2805000Y-45149508D01*
X2565151Y-45149508D01*
X2554236Y-45038691D01*
X2472182Y-44768192D01*
X2338932Y-44518899D01*
X2159608Y-44300392D01*
X1963104Y-44139125D01*
X2052967Y-44157000D01*
X2375033Y-44157000D01*
X2690912Y-44094168D01*
X2988463Y-43970918D01*
X3256252Y-43791987D01*
X3483987Y-43564252D01*
X3662918Y-43296463D01*
X3786168Y-42998912D01*
X3849000Y-42683033D01*
X3849000Y-42360967D01*
X3786168Y-42045088D01*
X3662918Y-41747537D01*
X3483987Y-41479748D01*
X3256252Y-41252013D01*
X2988463Y-41073082D01*
X2690912Y-40949832D01*
X2375033Y-40887000D01*
X2052967Y-40887000D01*
X1737088Y-40949832D01*
X1439537Y-41073082D01*
X1171748Y-41252013D01*
X944013Y-41479748D01*
X765082Y-41747537D01*
X641832Y-42045088D01*
X579000Y-42360967D01*
X579000Y-42683033D01*
X641832Y-42998912D01*
X765082Y-43296463D01*
X944013Y-43564252D01*
X1171748Y-43791987D01*
X1328320Y-43896605D01*
X1140000Y-43878057D01*
X858692Y-43905764D01*
X588193Y-43987818D01*
X338900Y-44121068D01*
X120393Y-44300392D01*
X0Y-44447091D01*
X-120393Y-44300392D01*
X-338900Y-44121068D01*
X-588193Y-43987818D01*
X-858692Y-43905764D01*
X-1140000Y-43878057D01*
X-1412768Y-43904923D01*
X-1243748Y-43791987D01*
X-1016013Y-43564252D01*
X-837082Y-43296463D01*
X-713832Y-42998912D01*
X-651000Y-42683033D01*
X-651000Y-42360967D01*
X-713832Y-42045088D01*
X-837082Y-41747537D01*
X-1016013Y-41479748D01*
X-1243748Y-41252013D01*
X-1511537Y-41073082D01*
X-1809088Y-40949832D01*
X-2124967Y-40887000D01*
X-2447033Y-40887000D01*
X-2762912Y-40949832D01*
X-3060463Y-41073082D01*
X-3328252Y-41252013D01*
X-3555987Y-41479748D01*
X-3734918Y-41747537D01*
X-3858168Y-42045088D01*
X-3921000Y-42360967D01*
X-14002839Y-42360967D01*
X-14002839Y-37200000D01*
X-2808072Y-37200000D01*
X-2808072Y-39000000D01*
X-2795812Y-39124482D01*
X-2759502Y-39244180D01*
X-2700537Y-39354494D01*
X-2621185Y-39451185D01*
X-2524494Y-39530537D01*
X-2414180Y-39589502D01*
X-2294482Y-39625812D01*
X-2170000Y-39638072D01*
X-370000Y-39638072D01*
X-245518Y-39625812D01*
X-125820Y-39589502D01*
X-15506Y-39530537D01*
X81185Y-39451185D01*
X160537Y-39354494D01*
X219502Y-39244180D01*
X225056Y-39225873D01*
X291495Y-39292312D01*
X542905Y-39460299D01*
X822257Y-39576011D01*
X1118816Y-39635000D01*
X1421184Y-39635000D01*
X1717743Y-39576011D01*
X1997095Y-39460299D01*
X2248505Y-39292312D01*
X2462312Y-39078505D01*
X2630299Y-38827095D01*
X2746011Y-38547743D01*
X2805000Y-38251184D01*
X2805000Y-37948816D01*
X2746011Y-37652257D01*
X2630299Y-37372905D01*
X2462312Y-37121495D01*
X2248505Y-36907688D01*
X1997095Y-36739701D01*
X1717743Y-36623989D01*
X1421184Y-36565000D01*
X1118816Y-36565000D01*
X822257Y-36623989D01*
X542905Y-36739701D01*
X291495Y-36907688D01*
X225056Y-36974127D01*
X219502Y-36955820D01*
X160537Y-36845506D01*
X81185Y-36748815D01*
X-15506Y-36669463D01*
X-125820Y-36610498D01*
X-245518Y-36574188D01*
X-370000Y-36561928D01*
X-2170000Y-36561928D01*
X-2294482Y-36574188D01*
X-2414180Y-36610498D01*
X-2524494Y-36669463D01*
X-2621185Y-36748815D01*
X-2700537Y-36845506D01*
X-2759502Y-36955820D01*
X-2795812Y-37075518D01*
X-2808072Y-37200000D01*
X-14002839Y-37200000D01*
X-14002839Y-34743861D01*
X-13608500Y-34743861D01*
X-13608500Y-34947739D01*
X-13568726Y-35147698D01*
X-13490705Y-35336056D01*
X-13377437Y-35505574D01*
X-13233274Y-35649737D01*
X-13063756Y-35763005D01*
X-12875398Y-35841026D01*
X-12675439Y-35880800D01*
X-12471561Y-35880800D01*
X-12271602Y-35841026D01*
X-12083244Y-35763005D01*
X-11913726Y-35649737D01*
X-11769563Y-35505574D01*
X-11656295Y-35336056D01*
X-11578274Y-35147698D01*
X-11538500Y-34947739D01*
X-11538500Y-34743861D01*
X-11578274Y-34543902D01*
X-11656295Y-34355544D01*
X-11768804Y-34187161D01*
X-9211200Y-34187161D01*
X-9211200Y-34391039D01*
X-9171426Y-34590998D01*
X-9093405Y-34779356D01*
X-8980137Y-34948874D01*
X-8835974Y-35093037D01*
X-8666456Y-35206305D01*
X-8478098Y-35284326D01*
X-8278139Y-35324100D01*
X-8074261Y-35324100D01*
X-7874302Y-35284326D01*
X-7685944Y-35206305D01*
X-7516426Y-35093037D01*
X-7372263Y-34948874D01*
X-7258995Y-34779356D01*
X-7180974Y-34590998D01*
X-7141200Y-34391039D01*
X-7141200Y-34187161D01*
X-7180974Y-33987202D01*
X-7258995Y-33798844D01*
X-7360279Y-33647261D01*
X-3142600Y-33647261D01*
X-3142600Y-33851139D01*
X-3102826Y-34051098D01*
X-3024805Y-34239456D01*
X-2911537Y-34408974D01*
X-2767374Y-34553137D01*
X-2597856Y-34666405D01*
X-2409498Y-34744426D01*
X-2209539Y-34784200D01*
X-2005661Y-34784200D01*
X-1805702Y-34744426D01*
X-1617344Y-34666405D01*
X-1447826Y-34553137D01*
X-1303663Y-34408974D01*
X-1190395Y-34239456D01*
X-1112374Y-34051098D01*
X-1072600Y-33851139D01*
X-1072600Y-33770361D01*
X8564300Y-33770361D01*
X8564300Y-33974239D01*
X8604074Y-34174198D01*
X8682095Y-34362556D01*
X8795363Y-34532074D01*
X8939526Y-34676237D01*
X9109044Y-34789505D01*
X9297402Y-34867526D01*
X9497361Y-34907300D01*
X9701239Y-34907300D01*
X9901198Y-34867526D01*
X10089556Y-34789505D01*
X10259074Y-34676237D01*
X10403237Y-34532074D01*
X10516505Y-34362556D01*
X10594526Y-34174198D01*
X10634300Y-33974239D01*
X10634300Y-33770361D01*
X10594526Y-33570402D01*
X10516505Y-33382044D01*
X10403237Y-33212526D01*
X10259074Y-33068363D01*
X10089556Y-32955095D01*
X9901198Y-32877074D01*
X9701239Y-32837300D01*
X9497361Y-32837300D01*
X9297402Y-32877074D01*
X9109044Y-32955095D01*
X8939526Y-33068363D01*
X8795363Y-33212526D01*
X8682095Y-33382044D01*
X8604074Y-33570402D01*
X8564300Y-33770361D01*
X-1072600Y-33770361D01*
X-1072600Y-33647261D01*
X-1112374Y-33447302D01*
X-1190395Y-33258944D01*
X-1303663Y-33089426D01*
X-1447826Y-32945263D01*
X-1617344Y-32831995D01*
X-1805702Y-32753974D01*
X-2005661Y-32714200D01*
X-2209539Y-32714200D01*
X-2409498Y-32753974D01*
X-2597856Y-32831995D01*
X-2767374Y-32945263D01*
X-2911537Y-33089426D01*
X-3024805Y-33258944D01*
X-3102826Y-33447302D01*
X-3142600Y-33647261D01*
X-7360279Y-33647261D01*
X-7372263Y-33629326D01*
X-7516426Y-33485163D01*
X-7685944Y-33371895D01*
X-7874302Y-33293874D01*
X-8074261Y-33254100D01*
X-8278139Y-33254100D01*
X-8478098Y-33293874D01*
X-8666456Y-33371895D01*
X-8835974Y-33485163D01*
X-8980137Y-33629326D01*
X-9093405Y-33798844D01*
X-9171426Y-33987202D01*
X-9211200Y-34187161D01*
X-11768804Y-34187161D01*
X-11769563Y-34186026D01*
X-11913726Y-34041863D01*
X-12083244Y-33928595D01*
X-12271602Y-33850574D01*
X-12471561Y-33810800D01*
X-12675439Y-33810800D01*
X-12875398Y-33850574D01*
X-13063756Y-33928595D01*
X-13233274Y-34041863D01*
X-13377437Y-34186026D01*
X-13490705Y-34355544D01*
X-13568726Y-34543902D01*
X-13608500Y-34743861D01*
X-14002839Y-34743861D01*
X-14002839Y-29861964D01*
X-13925000Y-29861964D01*
X-13925000Y-31098037D01*
X-13904960Y-31301507D01*
X-13825764Y-31562581D01*
X-13697157Y-31803188D01*
X-13524080Y-32014081D01*
X-13313187Y-32187157D01*
X-13072580Y-32315764D01*
X-12811506Y-32394960D01*
X-12540000Y-32421701D01*
X-12268493Y-32394960D01*
X-12007419Y-32315764D01*
X-11766812Y-32187157D01*
X-11555919Y-32014081D01*
X-11382843Y-31803188D01*
X-11254236Y-31562581D01*
X-11175040Y-31301507D01*
X-11155000Y-31098037D01*
X-11155000Y-29909509D01*
X-5675000Y-29909509D01*
X-5675000Y-31050492D01*
X-5654236Y-31261309D01*
X-5572182Y-31531808D01*
X-5438932Y-31781101D01*
X-5259607Y-31999608D01*
X-5041100Y-32178932D01*
X-4791807Y-32312182D01*
X-4521308Y-32394236D01*
X-4240000Y-32421943D01*
X-3958691Y-32394236D01*
X-3688192Y-32312182D01*
X-3438899Y-32178932D01*
X-3220392Y-31999608D01*
X-3041068Y-31781101D01*
X-2907818Y-31531808D01*
X-2825764Y-31261309D01*
X-2805000Y-31050492D01*
X-2805000Y-30009509D01*
X-2575000Y-30009509D01*
X-2575000Y-30950492D01*
X-2554236Y-31161309D01*
X-2472182Y-31431808D01*
X-2338932Y-31681101D01*
X-2159607Y-31899608D01*
X-1941100Y-32078932D01*
X-1691807Y-32212182D01*
X-1421308Y-32294236D01*
X-1140000Y-32321943D01*
X-858691Y-32294236D01*
X-588192Y-32212182D01*
X-338899Y-32078932D01*
X-120392Y-31899608D01*
X0Y-31752909D01*
X120392Y-31899607D01*
X338899Y-32078932D01*
X588192Y-32212182D01*
X858691Y-32294236D01*
X1140000Y-32321943D01*
X1421308Y-32294236D01*
X1691807Y-32212182D01*
X1941100Y-32078932D01*
X2159607Y-31899608D01*
X2338932Y-31681101D01*
X2472182Y-31431808D01*
X2554236Y-31161309D01*
X2575000Y-30950492D01*
X2575000Y-30009509D01*
X2565151Y-29909508D01*
X2805000Y-29909508D01*
X2805000Y-31050491D01*
X2825764Y-31261308D01*
X2907818Y-31531807D01*
X3041068Y-31781100D01*
X3220392Y-31999607D01*
X3438899Y-32178932D01*
X3688192Y-32312182D01*
X3958691Y-32394236D01*
X4240000Y-32421943D01*
X4521308Y-32394236D01*
X4791807Y-32312182D01*
X5041100Y-32178932D01*
X5259607Y-31999608D01*
X5438932Y-31781101D01*
X5572182Y-31531808D01*
X5654236Y-31261309D01*
X5675000Y-31050492D01*
X5675000Y-29909508D01*
X5670318Y-29861963D01*
X11155000Y-29861963D01*
X11155000Y-31098036D01*
X11175040Y-31301506D01*
X11254236Y-31562580D01*
X11382843Y-31803187D01*
X11555919Y-32014080D01*
X11766812Y-32187157D01*
X12007419Y-32315764D01*
X12268493Y-32394960D01*
X12540000Y-32421701D01*
X12811506Y-32394960D01*
X13072580Y-32315764D01*
X13313187Y-32187157D01*
X13524080Y-32014081D01*
X13697157Y-31803188D01*
X13825764Y-31562581D01*
X13904960Y-31301507D01*
X13925000Y-31098037D01*
X13925000Y-29861963D01*
X13904960Y-29658493D01*
X13825764Y-29397419D01*
X13697157Y-29156812D01*
X13524081Y-28945919D01*
X13313188Y-28772843D01*
X13072581Y-28644236D01*
X12811507Y-28565040D01*
X12540000Y-28538299D01*
X12268494Y-28565040D01*
X12007420Y-28644236D01*
X11766813Y-28772843D01*
X11555920Y-28945919D01*
X11382843Y-29156812D01*
X11254236Y-29397419D01*
X11175040Y-29658493D01*
X11155000Y-29861963D01*
X5670318Y-29861963D01*
X5654236Y-29698691D01*
X5572182Y-29428192D01*
X5438932Y-29178899D01*
X5259608Y-28960392D01*
X5041101Y-28781068D01*
X4791808Y-28647818D01*
X4521309Y-28565764D01*
X4240000Y-28538057D01*
X3958692Y-28565764D01*
X3688193Y-28647818D01*
X3438900Y-28781068D01*
X3220393Y-28960392D01*
X3041068Y-29178899D01*
X2907818Y-29428192D01*
X2825764Y-29698691D01*
X2805000Y-29909508D01*
X2565151Y-29909508D01*
X2554236Y-29798691D01*
X2472182Y-29528192D01*
X2338932Y-29278899D01*
X2159608Y-29060392D01*
X1941101Y-28881068D01*
X1691808Y-28747818D01*
X1421309Y-28665764D01*
X1140000Y-28638057D01*
X858692Y-28665764D01*
X588193Y-28747818D01*
X338900Y-28881068D01*
X120393Y-29060392D01*
X0Y-29207091D01*
X-120393Y-29060392D01*
X-338900Y-28881068D01*
X-588193Y-28747818D01*
X-858692Y-28665764D01*
X-1140000Y-28638057D01*
X-1421309Y-28665764D01*
X-1691808Y-28747818D01*
X-1941101Y-28881068D01*
X-2159608Y-29060393D01*
X-2338932Y-29278900D01*
X-2472182Y-29528193D01*
X-2554236Y-29798692D01*
X-2575000Y-30009509D01*
X-2805000Y-30009509D01*
X-2805000Y-29909508D01*
X-2825764Y-29698691D01*
X-2907818Y-29428192D01*
X-3041068Y-29178899D01*
X-3220393Y-28960392D01*
X-3438900Y-28781068D01*
X-3688193Y-28647818D01*
X-3958692Y-28565764D01*
X-4240000Y-28538057D01*
X-4521309Y-28565764D01*
X-4791808Y-28647818D01*
X-5041101Y-28781068D01*
X-5259608Y-28960393D01*
X-5438932Y-29178900D01*
X-5572182Y-29428193D01*
X-5654236Y-29698692D01*
X-5675000Y-29909509D01*
X-11155000Y-29909509D01*
X-11155000Y-29861963D01*
X-11175040Y-29658493D01*
X-11254236Y-29397419D01*
X-11382843Y-29156812D01*
X-11555920Y-28945919D01*
X-11766813Y-28772843D01*
X-12007420Y-28644236D01*
X-12268494Y-28565040D01*
X-12540000Y-28538299D01*
X-12811507Y-28565040D01*
X-13072581Y-28644236D01*
X-13313188Y-28772843D01*
X-13524081Y-28945920D01*
X-13697157Y-29156813D01*
X-13825764Y-29397420D01*
X-13904960Y-29658494D01*
X-13925000Y-29861964D01*
X-14002839Y-29861964D01*
X-14002839Y-27011661D01*
X-2020400Y-27011661D01*
X-2020400Y-27215539D01*
X-1980626Y-27415498D01*
X-1902605Y-27603856D01*
X-1789337Y-27773374D01*
X-1645174Y-27917537D01*
X-1475656Y-28030805D01*
X-1287298Y-28108826D01*
X-1087339Y-28148600D01*
X-883461Y-28148600D01*
X-683502Y-28108826D01*
X-495144Y-28030805D01*
X-325626Y-27917537D01*
X-181463Y-27773374D01*
X-68195Y-27603856D01*
X9826Y-27415498D01*
X49600Y-27215539D01*
X49600Y-27011661D01*
X9826Y-26811702D01*
X-68195Y-26623344D01*
X-181463Y-26453826D01*
X-325626Y-26309663D01*
X-495144Y-26196395D01*
X-683502Y-26118374D01*
X-883461Y-26078600D01*
X-1087339Y-26078600D01*
X-1287298Y-26118374D01*
X-1475656Y-26196395D01*
X-1645174Y-26309663D01*
X-1789337Y-26453826D01*
X-1902605Y-26623344D01*
X-1980626Y-26811702D01*
X-2020400Y-27011661D01*
X-14002839Y-27011661D01*
X-14002839Y-26054761D01*
X1697500Y-26054761D01*
X1697500Y-26258639D01*
X1737274Y-26458598D01*
X1815295Y-26646956D01*
X1928563Y-26816474D01*
X2072726Y-26960637D01*
X2242244Y-27073905D01*
X2430602Y-27151926D01*
X2630561Y-27191700D01*
X2834439Y-27191700D01*
X3034398Y-27151926D01*
X3222756Y-27073905D01*
X3392274Y-26960637D01*
X3536437Y-26816474D01*
X3649705Y-26646956D01*
X3727726Y-26458598D01*
X3767500Y-26258639D01*
X3767500Y-26054761D01*
X3727726Y-25854802D01*
X3649705Y-25666444D01*
X3536437Y-25496926D01*
X3392274Y-25352763D01*
X3222756Y-25239495D01*
X3034398Y-25161474D01*
X2834439Y-25121700D01*
X2630561Y-25121700D01*
X2430602Y-25161474D01*
X2242244Y-25239495D01*
X2072726Y-25352763D01*
X1928563Y-25496926D01*
X1815295Y-25666444D01*
X1737274Y-25854802D01*
X1697500Y-26054761D01*
X-14002839Y-26054761D01*
X-14002839Y-24764561D01*
X11690500Y-24764561D01*
X11690500Y-24968439D01*
X11730274Y-25168398D01*
X11808295Y-25356756D01*
X11921563Y-25526274D01*
X12065726Y-25670437D01*
X12235244Y-25783705D01*
X12423602Y-25861726D01*
X12623561Y-25901500D01*
X12827439Y-25901500D01*
X13027398Y-25861726D01*
X13215756Y-25783705D01*
X13385274Y-25670437D01*
X13529437Y-25526274D01*
X13642705Y-25356756D01*
X13720726Y-25168398D01*
X13760500Y-24968439D01*
X13760500Y-24764561D01*
X13720726Y-24564602D01*
X13642705Y-24376244D01*
X13529437Y-24206726D01*
X13385274Y-24062563D01*
X13215756Y-23949295D01*
X13027398Y-23871274D01*
X12827439Y-23831500D01*
X12623561Y-23831500D01*
X12423602Y-23871274D01*
X12235244Y-23949295D01*
X12065726Y-24062563D01*
X11921563Y-24206726D01*
X11808295Y-24376244D01*
X11730274Y-24564602D01*
X11690500Y-24764561D01*
X-14002839Y-24764561D01*
X-14002839Y-22073761D01*
X-13760500Y-22073761D01*
X-13760500Y-22277639D01*
X-13720726Y-22477598D01*
X-13642705Y-22665956D01*
X-13529437Y-22835474D01*
X-13385274Y-22979637D01*
X-13215756Y-23092905D01*
X-13027398Y-23170926D01*
X-12827439Y-23210700D01*
X-12623561Y-23210700D01*
X-12423602Y-23170926D01*
X-12235244Y-23092905D01*
X-12065726Y-22979637D01*
X-11921563Y-22835474D01*
X-11808295Y-22665956D01*
X-11730274Y-22477598D01*
X-11690500Y-22277639D01*
X-11690500Y-22073761D01*
X-11730274Y-21873802D01*
X-11808295Y-21685444D01*
X-11921563Y-21515926D01*
X-12065726Y-21371763D01*
X-12235244Y-21258495D01*
X-12423602Y-21180474D01*
X-12623561Y-21140700D01*
X-12827439Y-21140700D01*
X-13027398Y-21180474D01*
X-13215756Y-21258495D01*
X-13385274Y-21371763D01*
X-13529437Y-21515926D01*
X-13642705Y-21685444D01*
X-13720726Y-21873802D01*
X-13760500Y-22073761D01*
X-14002839Y-22073761D01*
X-14002839Y-18820461D01*
X-9919900Y-18820461D01*
X-9919900Y-19024339D01*
X-9880126Y-19224298D01*
X-9802105Y-19412656D01*
X-9688837Y-19582174D01*
X-9544674Y-19726337D01*
X-9375156Y-19839605D01*
X-9186798Y-19917626D01*
X-8986839Y-19957400D01*
X-8782961Y-19957400D01*
X-8583002Y-19917626D01*
X-8394644Y-19839605D01*
X-8225126Y-19726337D01*
X-8080963Y-19582174D01*
X-7967695Y-19412656D01*
X-7889674Y-19224298D01*
X-7849900Y-19024339D01*
X-7849900Y-18820461D01*
X-7889674Y-18620502D01*
X-7967695Y-18432144D01*
X-8080963Y-18262626D01*
X-8225126Y-18118463D01*
X-8394644Y-18005195D01*
X-8583002Y-17927174D01*
X-8782961Y-17887400D01*
X-8986839Y-17887400D01*
X-9186798Y-17927174D01*
X-9375156Y-18005195D01*
X-9544674Y-18118463D01*
X-9688837Y-18262626D01*
X-9802105Y-18432144D01*
X-9880126Y-18620502D01*
X-9919900Y-18820461D01*
X-14002839Y-18820461D01*
X-14002839Y-14621964D01*
X-13925000Y-14621964D01*
X-13925000Y-15858037D01*
X-13904960Y-16061507D01*
X-13825764Y-16322581D01*
X-13697157Y-16563188D01*
X-13524080Y-16774081D01*
X-13313187Y-16947157D01*
X-13072580Y-17075764D01*
X-12811506Y-17154960D01*
X-12540000Y-17181701D01*
X-12268493Y-17154960D01*
X-12007419Y-17075764D01*
X-11766812Y-16947157D01*
X-11555919Y-16774081D01*
X-11382843Y-16563188D01*
X-11254236Y-16322581D01*
X-11175040Y-16061507D01*
X-11155000Y-15858037D01*
X-11155000Y-14669509D01*
X-5675000Y-14669509D01*
X-5675000Y-15810492D01*
X-5654236Y-16021309D01*
X-5572182Y-16291808D01*
X-5438932Y-16541101D01*
X-5259607Y-16759608D01*
X-5041100Y-16938932D01*
X-4791807Y-17072182D01*
X-4521308Y-17154236D01*
X-4240000Y-17181943D01*
X-3958691Y-17154236D01*
X-3688192Y-17072182D01*
X-3438899Y-16938932D01*
X-3220392Y-16759608D01*
X-3041068Y-16541101D01*
X-2907818Y-16291808D01*
X-2825764Y-16021309D01*
X-2805000Y-15810492D01*
X-2805000Y-14769509D01*
X-2575000Y-14769509D01*
X-2575000Y-15710492D01*
X-2554236Y-15921309D01*
X-2472182Y-16191808D01*
X-2338932Y-16441101D01*
X-2159607Y-16659608D01*
X-1941100Y-16838932D01*
X-1691807Y-16972182D01*
X-1421308Y-17054236D01*
X-1140000Y-17081943D01*
X-858691Y-17054236D01*
X-588192Y-16972182D01*
X-338899Y-16838932D01*
X-120392Y-16659608D01*
X0Y-16512909D01*
X120392Y-16659607D01*
X338899Y-16838932D01*
X588192Y-16972182D01*
X858691Y-17054236D01*
X1140000Y-17081943D01*
X1421308Y-17054236D01*
X1691807Y-16972182D01*
X1941100Y-16838932D01*
X2159607Y-16659608D01*
X2338932Y-16441101D01*
X2472182Y-16191808D01*
X2554236Y-15921309D01*
X2575000Y-15710492D01*
X2575000Y-14769509D01*
X2565151Y-14669508D01*
X2805000Y-14669508D01*
X2805000Y-15810491D01*
X2825764Y-16021308D01*
X2907818Y-16291807D01*
X3041068Y-16541100D01*
X3220392Y-16759607D01*
X3438899Y-16938932D01*
X3688192Y-17072182D01*
X3958691Y-17154236D01*
X4240000Y-17181943D01*
X4521308Y-17154236D01*
X4791807Y-17072182D01*
X5041100Y-16938932D01*
X5259607Y-16759608D01*
X5438932Y-16541101D01*
X5572182Y-16291808D01*
X5654236Y-16021309D01*
X5675000Y-15810492D01*
X5675000Y-14669508D01*
X5654236Y-14458691D01*
X5572182Y-14188192D01*
X5438932Y-13938899D01*
X5259608Y-13720392D01*
X5041101Y-13541068D01*
X4791808Y-13407818D01*
X4521309Y-13325764D01*
X4240000Y-13298057D01*
X3958692Y-13325764D01*
X3688193Y-13407818D01*
X3438900Y-13541068D01*
X3220393Y-13720392D01*
X3041068Y-13938899D01*
X2907818Y-14188192D01*
X2825764Y-14458691D01*
X2805000Y-14669508D01*
X2565151Y-14669508D01*
X2554236Y-14558691D01*
X2472182Y-14288192D01*
X2345648Y-14051463D01*
X2472537Y-13924574D01*
X2585805Y-13755056D01*
X2663826Y-13566698D01*
X2703600Y-13366739D01*
X2703600Y-13162861D01*
X2663826Y-12962902D01*
X2585805Y-12774544D01*
X2472537Y-12605026D01*
X2328374Y-12460863D01*
X2158856Y-12347595D01*
X1970498Y-12269574D01*
X1770539Y-12229800D01*
X1566661Y-12229800D01*
X1366702Y-12269574D01*
X1178344Y-12347595D01*
X1008826Y-12460863D01*
X864663Y-12605026D01*
X751395Y-12774544D01*
X673374Y-12962902D01*
X633600Y-13162861D01*
X633600Y-13366739D01*
X657481Y-13486800D01*
X588193Y-13507818D01*
X338900Y-13641068D01*
X120393Y-13820392D01*
X0Y-13967091D01*
X-120393Y-13820392D01*
X-338900Y-13641068D01*
X-588193Y-13507818D01*
X-858692Y-13425764D01*
X-1140000Y-13398057D01*
X-1421309Y-13425764D01*
X-1691808Y-13507818D01*
X-1941101Y-13641068D01*
X-2159608Y-13820393D01*
X-2338932Y-14038900D01*
X-2472182Y-14288193D01*
X-2554236Y-14558692D01*
X-2575000Y-14769509D01*
X-2805000Y-14769509D01*
X-2805000Y-14669508D01*
X-2825764Y-14458691D01*
X-2907818Y-14188192D01*
X-3041068Y-13938899D01*
X-3220393Y-13720392D01*
X-3438900Y-13541068D01*
X-3688193Y-13407818D01*
X-3958692Y-13325764D01*
X-4240000Y-13298057D01*
X-4521309Y-13325764D01*
X-4791808Y-13407818D01*
X-5041101Y-13541068D01*
X-5259608Y-13720393D01*
X-5438932Y-13938900D01*
X-5572182Y-14188193D01*
X-5654236Y-14458692D01*
X-5675000Y-14669509D01*
X-11155000Y-14669509D01*
X-11155000Y-14621963D01*
X-11175040Y-14418493D01*
X-11254236Y-14157419D01*
X-11382843Y-13916812D01*
X-11555920Y-13705919D01*
X-11766813Y-13532843D01*
X-12007420Y-13404236D01*
X-12268494Y-13325040D01*
X-12540000Y-13298299D01*
X-12811507Y-13325040D01*
X-13072581Y-13404236D01*
X-13313188Y-13532843D01*
X-13524081Y-13705920D01*
X-13697157Y-13916813D01*
X-13825764Y-14157420D01*
X-13904960Y-14418494D01*
X-13925000Y-14621964D01*
X-14002839Y-14621964D01*
X-14002839Y-11095461D01*
X-9885000Y-11095461D01*
X-9885000Y-11299339D01*
X-9845226Y-11499298D01*
X-9767205Y-11687656D01*
X-9653937Y-11857174D01*
X-9509774Y-12001337D01*
X-9340256Y-12114605D01*
X-9151898Y-12192626D01*
X-8951939Y-12232400D01*
X-8748061Y-12232400D01*
X-8548102Y-12192626D01*
X-8359744Y-12114605D01*
X-8190226Y-12001337D01*
X-8046063Y-11857174D01*
X-7932795Y-11687656D01*
X-7854774Y-11499298D01*
X-7815000Y-11299339D01*
X-7815000Y-11095461D01*
X-7854774Y-10895502D01*
X-7932795Y-10707144D01*
X-8046063Y-10537626D01*
X-8190226Y-10393463D01*
X-8359744Y-10280195D01*
X-8548102Y-10202174D01*
X-8748061Y-10162400D01*
X-8951939Y-10162400D01*
X-9151898Y-10202174D01*
X-9340256Y-10280195D01*
X-9509774Y-10393463D01*
X-9653937Y-10537626D01*
X-9767205Y-10707144D01*
X-9845226Y-10895502D01*
X-9885000Y-11095461D01*
X-14002839Y-11095461D01*
X-14002839Y-7348826D01*
X-11655000Y-7348826D01*
X-11655000Y-7651194D01*
X-11596011Y-7947753D01*
X-11480299Y-8227105D01*
X-11312312Y-8478515D01*
X-11098505Y-8692322D01*
X-10847095Y-8860309D01*
X-10567743Y-8976021D01*
X-10271184Y-9035010D01*
X-9968816Y-9035010D01*
X-9672257Y-8976021D01*
X-9392905Y-8860309D01*
X-9141495Y-8692322D01*
X-8927688Y-8478515D01*
X-8850000Y-8362247D01*
X-8772312Y-8478515D01*
X-8558505Y-8692322D01*
X-8307095Y-8860309D01*
X-8027743Y-8976021D01*
X-7731184Y-9035010D01*
X-7428816Y-9035010D01*
X-7132257Y-8976021D01*
X-6852905Y-8860309D01*
X-6601495Y-8692322D01*
X-6473263Y-8564090D01*
X-6004475Y-8564090D01*
X-5920792Y-8818271D01*
X-5648225Y-8949168D01*
X-5355358Y-9024375D01*
X-5053447Y-9041001D01*
X-4754093Y-8998407D01*
X-4468801Y-8898232D01*
X-4319208Y-8818271D01*
X-4243780Y-8589161D01*
X-1822500Y-8589161D01*
X-1822500Y-8793039D01*
X-1782726Y-8992998D01*
X-1704705Y-9181356D01*
X-1591437Y-9350874D01*
X-1447274Y-9495037D01*
X-1277756Y-9608305D01*
X-1089398Y-9686326D01*
X-889439Y-9726100D01*
X-685561Y-9726100D01*
X-485602Y-9686326D01*
X-297244Y-9608305D01*
X-127726Y-9495037D01*
X16437Y-9350874D01*
X129705Y-9181356D01*
X207726Y-8992998D01*
X247500Y-8793039D01*
X247500Y-8589161D01*
X207726Y-8389202D01*
X129705Y-8200844D01*
X16437Y-8031326D01*
X-127726Y-7887163D01*
X-297244Y-7773895D01*
X-485602Y-7695874D01*
X-685561Y-7656100D01*
X-889439Y-7656100D01*
X-1089398Y-7695874D01*
X-1277756Y-7773895D01*
X-1447274Y-7887163D01*
X-1591437Y-8031326D01*
X-1704705Y-8200844D01*
X-1782726Y-8389202D01*
X-1822500Y-8589161D01*
X-4243780Y-8589161D01*
X-4235525Y-8564090D01*
X-5120000Y-7679615D01*
X-6004475Y-8564090D01*
X-6473263Y-8564090D01*
X-6387688Y-8478515D01*
X-6299474Y-8346494D01*
X-6184080Y-8384485D01*
X-5299605Y-7500010D01*
X-4940395Y-7500010D01*
X-4055920Y-8384485D01*
X-3801739Y-8300802D01*
X-3670842Y-8028235D01*
X-3595635Y-7735368D01*
X-3579009Y-7433457D01*
X-3621603Y-7134103D01*
X-3721778Y-6848811D01*
X-3801739Y-6699218D01*
X-4055920Y-6615535D01*
X-4940395Y-7500010D01*
X-5299605Y-7500010D01*
X-6184080Y-6615535D01*
X-6299474Y-6653526D01*
X-6387688Y-6521505D01*
X-6473263Y-6435930D01*
X-6004475Y-6435930D01*
X-5120000Y-7320405D01*
X-4235525Y-6435930D01*
X-4319208Y-6181749D01*
X-4591775Y-6050852D01*
X-4884642Y-5975645D01*
X-5186553Y-5959019D01*
X-5485907Y-6001613D01*
X-5771199Y-6101788D01*
X-5920792Y-6181749D01*
X-6004475Y-6435930D01*
X-6473263Y-6435930D01*
X-6601495Y-6307698D01*
X-6852905Y-6139711D01*
X-7132257Y-6023999D01*
X-7428816Y-5965010D01*
X-7731184Y-5965010D01*
X-8027743Y-6023999D01*
X-8307095Y-6139711D01*
X-8558505Y-6307698D01*
X-8772312Y-6521505D01*
X-8850000Y-6637773D01*
X-8927688Y-6521505D01*
X-9141495Y-6307698D01*
X-9392905Y-6139711D01*
X-9672257Y-6023999D01*
X-9968816Y-5965010D01*
X-10271184Y-5965010D01*
X-10567743Y-6023999D01*
X-10847095Y-6139711D01*
X-11098505Y-6307698D01*
X-11312312Y-6521505D01*
X-11480299Y-6772915D01*
X-11596011Y-7052267D01*
X-11655000Y-7348826D01*
X-14002839Y-7348826D01*
X-14002839Y-4072861D01*
X-2315100Y-4072861D01*
X-2315100Y-4276739D01*
X-2275326Y-4476698D01*
X-2197305Y-4665056D01*
X-2084037Y-4834574D01*
X-1939874Y-4978737D01*
X-1770356Y-5092005D01*
X-1581998Y-5170026D01*
X-1382039Y-5209800D01*
X-1178161Y-5209800D01*
X-978202Y-5170026D01*
X-789844Y-5092005D01*
X-620326Y-4978737D01*
X-476163Y-4834574D01*
X-362895Y-4665056D01*
X-284874Y-4476698D01*
X-245100Y-4276739D01*
X-245100Y-4072861D01*
X-284874Y-3872902D01*
X-362895Y-3684544D01*
X-476163Y-3515026D01*
X-620326Y-3370863D01*
X-789844Y-3257595D01*
X-978202Y-3179574D01*
X-1178161Y-3139800D01*
X-1382039Y-3139800D01*
X-1581998Y-3179574D01*
X-1770356Y-3257595D01*
X-1939874Y-3370863D01*
X-2084037Y-3515026D01*
X-2197305Y-3684544D01*
X-2275326Y-3872902D01*
X-2315100Y-4072861D01*
X-14002839Y-4072861D01*
X-14002839Y-1273740D01*
X-13788578Y-1449579D01*
X-13487168Y-1610686D01*
X-13160119Y-1709895D01*
X-12905225Y-1735000D01*
X-11934775Y-1735000D01*
X-11679881Y-1709895D01*
X-11352832Y-1610686D01*
X-11336883Y-1602161D01*
X-10862700Y-1602161D01*
X-10862700Y-1806039D01*
X-10822926Y-2005998D01*
X-10744905Y-2194356D01*
X-10631637Y-2363874D01*
X-10487474Y-2508037D01*
X-10317956Y-2621305D01*
X-10129598Y-2699326D01*
X-9929639Y-2739100D01*
X-9725761Y-2739100D01*
X-9525802Y-2699326D01*
X-9463601Y-2673561D01*
X3722600Y-2673561D01*
X3722600Y-2877439D01*
X3762374Y-3077398D01*
X3840395Y-3265756D01*
X3953663Y-3435274D01*
X4097826Y-3579437D01*
X4267344Y-3692705D01*
X4455702Y-3770726D01*
X4655661Y-3810500D01*
X4859539Y-3810500D01*
X5059498Y-3770726D01*
X5247856Y-3692705D01*
X5417374Y-3579437D01*
X5561537Y-3435274D01*
X5674805Y-3265756D01*
X5752826Y-3077398D01*
X5792600Y-2877439D01*
X5792600Y-2673561D01*
X5752826Y-2473602D01*
X5674805Y-2285244D01*
X5561537Y-2115726D01*
X5417374Y-1971563D01*
X5247856Y-1858295D01*
X5059498Y-1780274D01*
X4859539Y-1740500D01*
X4655661Y-1740500D01*
X4455702Y-1780274D01*
X4267344Y-1858295D01*
X4097826Y-1971563D01*
X3953663Y-2115726D01*
X3840395Y-2285244D01*
X3762374Y-2473602D01*
X3722600Y-2673561D01*
X-9463601Y-2673561D01*
X-9337444Y-2621305D01*
X-9167926Y-2508037D01*
X-9023763Y-2363874D01*
X-8910495Y-2194356D01*
X-8832474Y-2005998D01*
X-8792700Y-1806039D01*
X-8792700Y-1602161D01*
X-8832474Y-1402202D01*
X-8910495Y-1213844D01*
X-9023763Y-1044326D01*
X-9167926Y-900163D01*
X-9337444Y-786895D01*
X-9525802Y-708874D01*
X-9725761Y-669100D01*
X-9929639Y-669100D01*
X-10129598Y-708874D01*
X-10317956Y-786895D01*
X-10487474Y-900163D01*
X-10631637Y-1044326D01*
X-10744905Y-1213844D01*
X-10822926Y-1402202D01*
X-10862700Y-1602161D01*
X-11336883Y-1602161D01*
X-11051422Y-1449579D01*
X-10787234Y-1232766D01*
X-10570421Y-968578D01*
X-10409314Y-667168D01*
X-10310105Y-340119D01*
X-10276606Y0D01*
X-4963394Y0D01*
X-4929895Y-340119D01*
X-4830686Y-667168D01*
X-4669579Y-968578D01*
X-4452766Y-1232766D01*
X-4188578Y-1449579D01*
X-3887168Y-1610686D01*
X-3560119Y-1709895D01*
X-3305225Y-1735000D01*
X-2334775Y-1735000D01*
X-2079881Y-1709895D01*
X-1752832Y-1610686D01*
X-1451422Y-1449579D01*
X-1187234Y-1232766D01*
X-970421Y-968578D01*
X-809314Y-667168D01*
X-710105Y-340119D01*
X-676606Y0D01*
X676606Y0D01*
X710105Y-340119D01*
X809314Y-667168D01*
X970421Y-968578D01*
X1187234Y-1232766D01*
X1451422Y-1449579D01*
X1752832Y-1610686D01*
X2079881Y-1709895D01*
X2334775Y-1735000D01*
X3305225Y-1735000D01*
X3560119Y-1709895D01*
X3887168Y-1610686D01*
X4188578Y-1449579D01*
X4452766Y-1232766D01*
X4669579Y-968578D01*
X4830686Y-667168D01*
X4853287Y-592661D01*
X5924500Y-592661D01*
X5924500Y-796539D01*
X5964274Y-996498D01*
X6042295Y-1184856D01*
X6155563Y-1354374D01*
X6299726Y-1498537D01*
X6469244Y-1611805D01*
X6657602Y-1689826D01*
X6857561Y-1729600D01*
X7061439Y-1729600D01*
X7261398Y-1689826D01*
X7449756Y-1611805D01*
X7619274Y-1498537D01*
X7763437Y-1354374D01*
X7876705Y-1184856D01*
X7954726Y-996498D01*
X7994500Y-796539D01*
X7994500Y-592661D01*
X7954726Y-392702D01*
X7876705Y-204344D01*
X7763437Y-34826D01*
X7619274Y109337D01*
X7449756Y222605D01*
X7261398Y300626D01*
X7061439Y340400D01*
X6857561Y340400D01*
X6657602Y300626D01*
X6469244Y222605D01*
X6299726Y109337D01*
X6155563Y-34826D01*
X6042295Y-204344D01*
X5964274Y-392702D01*
X5924500Y-592661D01*
X4853287Y-592661D01*
X4929895Y-340119D01*
X4963394Y0D01*
X4929895Y340119D01*
X4830686Y667168D01*
X4669579Y968578D01*
X4452766Y1232766D01*
X4188578Y1449579D01*
X3887168Y1610686D01*
X3560119Y1709895D01*
X3305225Y1735000D01*
X2334775Y1735000D01*
X2079881Y1709895D01*
X1752832Y1610686D01*
X1451422Y1449579D01*
X1187234Y1232766D01*
X970421Y968578D01*
X809314Y667168D01*
X710105Y340119D01*
X676606Y0D01*
X-676606Y0D01*
X-710105Y340119D01*
X-809314Y667168D01*
X-970421Y968578D01*
X-1187234Y1232766D01*
X-1451422Y1449579D01*
X-1752832Y1610686D01*
X-2079881Y1709895D01*
X-2334775Y1735000D01*
X-3305225Y1735000D01*
X-3560119Y1709895D01*
X-3887168Y1610686D01*
X-4188578Y1449579D01*
X-4452766Y1232766D01*
X-4669579Y968578D01*
X-4830686Y667168D01*
X-4929895Y340119D01*
X-4963394Y0D01*
X-10276606Y0D01*
X-10310105Y340119D01*
X-10409314Y667168D01*
X-10570421Y968578D01*
X-10787234Y1232766D01*
X-11051422Y1449579D01*
X-11352832Y1610686D01*
X-11679881Y1709895D01*
X-11934775Y1735000D01*
X-12905225Y1735000D01*
X-13160119Y1709895D01*
X-13487168Y1610686D01*
X-13788578Y1449579D01*
X-14002839Y1273740D01*
X-14002839Y4207039D01*
X-10864400Y4207039D01*
X-10864400Y4003161D01*
X-10824626Y3803202D01*
X-10746605Y3614844D01*
X-10633337Y3445326D01*
X-10489174Y3301163D01*
X-10319656Y3187895D01*
X-10131298Y3109874D01*
X-9931339Y3070100D01*
X-9727461Y3070100D01*
X-9527502Y3109874D01*
X-9339144Y3187895D01*
X-9169626Y3301163D01*
X-9025463Y3445326D01*
X-8912195Y3614844D01*
X-8834174Y3803202D01*
X-8812546Y3911939D01*
X-5861000Y3911939D01*
X-5861000Y3708061D01*
X-5821226Y3508102D01*
X-5743205Y3319744D01*
X-5629937Y3150226D01*
X-5485774Y3006063D01*
X-5316256Y2892795D01*
X-5127898Y2814774D01*
X-4927939Y2775000D01*
X-4724061Y2775000D01*
X-4524102Y2814774D01*
X-4335744Y2892795D01*
X-4166226Y3006063D01*
X-4022063Y3150226D01*
X-3908795Y3319744D01*
X-3830774Y3508102D01*
X-3791000Y3708061D01*
X-3791000Y3911939D01*
X-3830774Y4111898D01*
X-3908795Y4300256D01*
X-4022063Y4469774D01*
X-4166226Y4613937D01*
X-4335744Y4727205D01*
X-4524102Y4805226D01*
X-4724061Y4845000D01*
X-4927939Y4845000D01*
X-5127898Y4805226D01*
X-5316256Y4727205D01*
X-5485774Y4613937D01*
X-5629937Y4469774D01*
X-5743205Y4300256D01*
X-5821226Y4111898D01*
X-5861000Y3911939D01*
X-8812546Y3911939D01*
X-8794400Y4003161D01*
X-8794400Y4207039D01*
X-8834174Y4406998D01*
X-8912195Y4595356D01*
X-9025463Y4764874D01*
X-9169626Y4909037D01*
X-9339144Y5022305D01*
X-9527502Y5100326D01*
X-9727461Y5140100D01*
X-9931339Y5140100D01*
X-10131298Y5100326D01*
X-10319656Y5022305D01*
X-10489174Y4909037D01*
X-10633337Y4764874D01*
X-10746605Y4595356D01*
X-10824626Y4406998D01*
X-10864400Y4207039D01*
X-14002839Y4207039D01*
X-14002839Y6369302D01*
X-13952798Y6348574D01*
X-13752839Y6308800D01*
X-13548961Y6308800D01*
X-13349002Y6348574D01*
X-13160644Y6426595D01*
X-12991126Y6539863D01*
X-12846963Y6684026D01*
X-12733695Y6853544D01*
X-12655674Y7041902D01*
X-12615900Y7241861D01*
X-12615900Y7445739D01*
X-12655674Y7645698D01*
X-12733695Y7834056D01*
X-12846963Y8003574D01*
X-12991126Y8147737D01*
X-13160644Y8261005D01*
X-13349002Y8339026D01*
X-13548961Y8378800D01*
X-13752839Y8378800D01*
X-13952798Y8339026D01*
X-14002839Y8318298D01*
X-14002839Y9025639D01*
X-3518600Y9025639D01*
X-3518600Y8821761D01*
X-3478826Y8621802D01*
X-3400805Y8433444D01*
X-3287537Y8263926D01*
X-3143374Y8119763D01*
X-2973856Y8006495D01*
X-2785498Y7928474D01*
X-2585539Y7888700D01*
X-2381661Y7888700D01*
X-2181702Y7928474D01*
X-1993344Y8006495D01*
X-1823826Y8119763D01*
X-1802195Y8141394D01*
X-1783798Y8133774D01*
X-1583839Y8094000D01*
X-1416000Y8094000D01*
X-1416000Y7899061D01*
X-1376226Y7699102D01*
X-1298205Y7510744D01*
X-1201490Y7366000D01*
X-1298205Y7221256D01*
X-1376226Y7032898D01*
X-1416000Y6832939D01*
X-1416000Y6629061D01*
X-1376226Y6429102D01*
X-1298205Y6240744D01*
X-1184937Y6071226D01*
X-1040774Y5927063D01*
X-871256Y5813795D01*
X-682898Y5735774D01*
X-482939Y5696000D01*
X-279061Y5696000D01*
X-79102Y5735774D01*
X109256Y5813795D01*
X254000Y5910510D01*
X398744Y5813795D01*
X587102Y5735774D01*
X787061Y5696000D01*
X959888Y5696000D01*
X948100Y5636739D01*
X948100Y5432861D01*
X987874Y5232902D01*
X1065895Y5044544D01*
X1179163Y4875026D01*
X1323326Y4730863D01*
X1349327Y4713490D01*
X1256502Y4695026D01*
X1142249Y4647701D01*
X1048256Y4710505D01*
X859898Y4788526D01*
X659939Y4828300D01*
X456061Y4828300D01*
X256102Y4788526D01*
X67744Y4710505D01*
X-101774Y4597237D01*
X-245937Y4453074D01*
X-359205Y4283556D01*
X-437226Y4095198D01*
X-477000Y3895239D01*
X-477000Y3691361D01*
X-437226Y3491402D01*
X-359205Y3303044D01*
X-245937Y3133526D01*
X-101774Y2989363D01*
X67744Y2876095D01*
X256102Y2798074D01*
X456061Y2758300D01*
X659939Y2758300D01*
X859898Y2798074D01*
X974151Y2845399D01*
X1068144Y2782595D01*
X1256502Y2704574D01*
X1456461Y2664800D01*
X1660339Y2664800D01*
X1826782Y2697907D01*
X1899026Y2625663D01*
X2068544Y2512395D01*
X2256902Y2434374D01*
X2456861Y2394600D01*
X2660739Y2394600D01*
X2860698Y2434374D01*
X3049056Y2512395D01*
X3218574Y2625663D01*
X3362737Y2769826D01*
X3476005Y2939344D01*
X3554026Y3127702D01*
X3593800Y3327661D01*
X3593800Y3531539D01*
X3554026Y3731498D01*
X3476005Y3919856D01*
X3362737Y4089374D01*
X3218574Y4233537D01*
X3049056Y4346805D01*
X2860698Y4424826D01*
X2660739Y4464600D01*
X2456861Y4464600D01*
X2290418Y4431493D01*
X2218174Y4503737D01*
X2192173Y4521110D01*
X2284998Y4539574D01*
X2473356Y4617595D01*
X2642874Y4730863D01*
X2787037Y4875026D01*
X2900305Y5044544D01*
X2978326Y5232902D01*
X3018100Y5432861D01*
X3018100Y5636739D01*
X2978326Y5836698D01*
X2900305Y6025056D01*
X2787037Y6194574D01*
X2642874Y6338737D01*
X2473356Y6452005D01*
X2284998Y6530026D01*
X2085039Y6569800D01*
X1912212Y6569800D01*
X1924000Y6629061D01*
X1924000Y6832939D01*
X1884226Y7032898D01*
X1806205Y7221256D01*
X1709490Y7366000D01*
X1806205Y7510744D01*
X1884226Y7699102D01*
X1924000Y7899061D01*
X1924000Y8102939D01*
X1884226Y8302898D01*
X1806205Y8491256D01*
X1692937Y8660774D01*
X1548774Y8804937D01*
X1379256Y8918205D01*
X1190898Y8996226D01*
X990939Y9036000D01*
X787061Y9036000D01*
X587102Y8996226D01*
X398744Y8918205D01*
X254000Y8821490D01*
X109256Y8918205D01*
X-79102Y8996226D01*
X-279061Y9036000D01*
X-446900Y9036000D01*
X-446900Y9230939D01*
X-486674Y9430898D01*
X-564695Y9619256D01*
X-677963Y9788774D01*
X-822126Y9932937D01*
X-991644Y10046205D01*
X-1180002Y10124226D01*
X-1379961Y10164000D01*
X-1583839Y10164000D01*
X-1783798Y10124226D01*
X-1972156Y10046205D01*
X-2141674Y9932937D01*
X-2163305Y9911306D01*
X-2181702Y9918926D01*
X-2381661Y9958700D01*
X-2585539Y9958700D01*
X-2785498Y9918926D01*
X-2973856Y9840905D01*
X-3143374Y9727637D01*
X-3287537Y9583474D01*
X-3400805Y9413956D01*
X-3478826Y9225598D01*
X-3518600Y9025639D01*
X-14002839Y9025639D01*
X-14002839Y9743648D01*
X-13915956Y9685595D01*
X-13727598Y9607574D01*
X-13527639Y9567800D01*
X-13323761Y9567800D01*
X-13123802Y9607574D01*
X-12935444Y9685595D01*
X-12765926Y9798863D01*
X-12621763Y9943026D01*
X-12508495Y10112544D01*
X-12430474Y10300902D01*
X-12390700Y10500861D01*
X-12390700Y10704739D01*
X-12430474Y10904698D01*
X-12508495Y11093056D01*
X-12621763Y11262574D01*
X-12765926Y11406737D01*
X-12935444Y11520005D01*
X-13123802Y11598026D01*
X-13323761Y11637800D01*
X-13527639Y11637800D01*
X-13727598Y11598026D01*
X-13915956Y11520005D01*
X-14002839Y11461952D01*
X-14002839Y11785939D01*
X-4083000Y11785939D01*
X-4083000Y11582061D01*
X-4043226Y11382102D01*
X-3965205Y11193744D01*
X-3851937Y11024226D01*
X-3707774Y10880063D01*
X-3538256Y10766795D01*
X-3349898Y10688774D01*
X-3149939Y10649000D01*
X-2946061Y10649000D01*
X-2746102Y10688774D01*
X-2557744Y10766795D01*
X-2388226Y10880063D01*
X-2244063Y11024226D01*
X-2130795Y11193744D01*
X-2052774Y11382102D01*
X-2013000Y11582061D01*
X-2013000Y11785939D01*
X-2052774Y11985898D01*
X-2130795Y12174256D01*
X-2244063Y12343774D01*
X-2388226Y12487937D01*
X-2557744Y12601205D01*
X-2746102Y12679226D01*
X-2946061Y12719000D01*
X-3149939Y12719000D01*
X-3349898Y12679226D01*
X-3538256Y12601205D01*
X-3707774Y12487937D01*
X-3851937Y12343774D01*
X-3965205Y12174256D01*
X-4043226Y11985898D01*
X-4083000Y11785939D01*
X-14002839Y11785939D01*
X-14002839Y14395861D01*
X-13942998Y14371074D01*
X-13743039Y14331300D01*
X-13539161Y14331300D01*
X-13339202Y14371074D01*
X-13150844Y14449095D01*
X-12981326Y14562363D01*
X-12837163Y14706526D01*
X-12723895Y14876044D01*
X-12645874Y15064402D01*
X-12606100Y15264361D01*
X-12606100Y15468239D01*
X-12636286Y15620000D01*
X-9714120Y15620000D01*
X-9677725Y15250476D01*
X-9569939Y14895152D01*
X-9394903Y14567683D01*
X-9159345Y14280655D01*
X-8872317Y14045097D01*
X-8544848Y13870061D01*
X-8189524Y13762275D01*
X-7912597Y13735000D01*
X-7327403Y13735000D01*
X-7050476Y13762275D01*
X-6695152Y13870061D01*
X-6367683Y14045097D01*
X-6080655Y14280655D01*
X-5845097Y14567683D01*
X-5670061Y14895152D01*
X-5562275Y15250476D01*
X-5525880Y15620000D01*
X-5562275Y15989524D01*
X-5670061Y16344848D01*
X-5845097Y16672317D01*
X-6080655Y16959345D01*
X-6367683Y17194903D01*
X-6695152Y17369939D01*
X-7050476Y17477725D01*
X-7327403Y17505000D01*
X-7912597Y17505000D01*
X-8189524Y17477725D01*
X-8544848Y17369939D01*
X-8872317Y17194903D01*
X-9159345Y16959345D01*
X-9394903Y16672317D01*
X-9569939Y16344848D01*
X-9677725Y15989524D01*
X-9714120Y15620000D01*
X-12636286Y15620000D01*
X-12645874Y15668198D01*
X-12723895Y15856556D01*
X-12837163Y16026074D01*
X-12981326Y16170237D01*
X-13150844Y16283505D01*
X-13339202Y16361526D01*
X-13539161Y16401300D01*
X-13743039Y16401300D01*
X-13942998Y16361526D01*
X-14002839Y16336739D01*
X-14002839Y20320000D01*
X-9714120Y20320000D01*
X-9677725Y19950476D01*
X-9569939Y19595152D01*
X-9394903Y19267683D01*
X-9159345Y18980655D01*
X-8872317Y18745097D01*
X-8544848Y18570061D01*
X-8189524Y18462275D01*
X-7912597Y18435000D01*
X-7327403Y18435000D01*
X-7050476Y18462275D01*
X-6695152Y18570061D01*
X-6367683Y18745097D01*
X-6080655Y18980655D01*
X-5845097Y19267683D01*
X-5670061Y19595152D01*
X-5562275Y19950476D01*
X-5525880Y20320000D01*
X-1863394Y20320000D01*
X-1829895Y19979881D01*
X-1730686Y19652832D01*
X-1569579Y19351422D01*
X-1352766Y19087234D01*
X-1088578Y18870421D01*
X-787168Y18709314D01*
X-460119Y18610105D01*
X-205225Y18585000D01*
X765225Y18585000D01*
X1020119Y18610105D01*
X1347168Y18709314D01*
X1648578Y18870421D01*
X1912766Y19087234D01*
X2129579Y19351422D01*
X2290686Y19652832D01*
X2389895Y19979881D01*
X2423394Y20320000D01*
X7736606Y20320000D01*
X7770105Y19979881D01*
X7869314Y19652832D01*
X8030421Y19351422D01*
X8247234Y19087234D01*
X8511422Y18870421D01*
X8812832Y18709314D01*
X9139881Y18610105D01*
X9394775Y18585000D01*
X10365225Y18585000D01*
X10620119Y18610105D01*
X10947168Y18709314D01*
X11248578Y18870421D01*
X11512766Y19087234D01*
X11729579Y19351422D01*
X11890686Y19652832D01*
X11989895Y19979881D01*
X12023394Y20320000D01*
X11989895Y20660119D01*
X11890686Y20987168D01*
X11729579Y21288578D01*
X11512766Y21552766D01*
X11248578Y21769579D01*
X10947168Y21930686D01*
X10620119Y22029895D01*
X10365225Y22055000D01*
X9394775Y22055000D01*
X9139881Y22029895D01*
X8812832Y21930686D01*
X8511422Y21769579D01*
X8247234Y21552766D01*
X8030421Y21288578D01*
X7869314Y20987168D01*
X7770105Y20660119D01*
X7736606Y20320000D01*
X2423394Y20320000D01*
X2389895Y20660119D01*
X2290686Y20987168D01*
X2129579Y21288578D01*
X1912766Y21552766D01*
X1648578Y21769579D01*
X1347168Y21930686D01*
X1020119Y22029895D01*
X765225Y22055000D01*
X-205225Y22055000D01*
X-460119Y22029895D01*
X-787168Y21930686D01*
X-1088578Y21769579D01*
X-1352766Y21552766D01*
X-1569579Y21288578D01*
X-1730686Y20987168D01*
X-1829895Y20660119D01*
X-1863394Y20320000D01*
X-5525880Y20320000D01*
X-5562275Y20689524D01*
X-5670061Y21044848D01*
X-5845097Y21372317D01*
X-6080655Y21659345D01*
X-6367683Y21894903D01*
X-6695152Y22069939D01*
X-7050476Y22177725D01*
X-7327403Y22205000D01*
X-7912597Y22205000D01*
X-8189524Y22177725D01*
X-8544848Y22069939D01*
X-8872317Y21894903D01*
X-9159345Y21659345D01*
X-9394903Y21372317D01*
X-9569939Y21044848D01*
X-9677725Y20689524D01*
X-9714120Y20320000D01*
X-14002839Y20320000D01*
X-14002839Y23271539D01*
X-11009100Y23271539D01*
X-11009100Y23067661D01*
X-10969326Y22867702D01*
X-10891305Y22679344D01*
X-10778037Y22509826D01*
X-10633874Y22365663D01*
X-10464356Y22252395D01*
X-10275998Y22174374D01*
X-10076039Y22134600D01*
X-9872161Y22134600D01*
X-9672202Y22174374D01*
X-9483844Y22252395D01*
X-9314326Y22365663D01*
X-9170163Y22509826D01*
X-9056895Y22679344D01*
X-8978874Y22867702D01*
X-8939100Y23067661D01*
X-8939100Y23271539D01*
X-8978874Y23471498D01*
X-9017184Y23563987D01*
X-8872317Y23445097D01*
X-8544848Y23270061D01*
X-8189524Y23162275D01*
X-7912597Y23135000D01*
X-7327403Y23135000D01*
X-7050476Y23162275D01*
X-6695152Y23270061D01*
X-6367683Y23445097D01*
X-6080655Y23680655D01*
X-5845097Y23967683D01*
X-5670061Y24295152D01*
X-5562275Y24650476D01*
X-5525880Y25020000D01*
X-5562275Y25389524D01*
X-5670061Y25744848D01*
X-5845097Y26072317D01*
X-6080655Y26359345D01*
X-6367683Y26594903D01*
X-6695152Y26769939D01*
X-7050476Y26877725D01*
X-7327403Y26905000D01*
X-7912597Y26905000D01*
X-8189524Y26877725D01*
X-8544848Y26769939D01*
X-8872317Y26594903D01*
X-9159345Y26359345D01*
X-9394903Y26072317D01*
X-9569939Y25744848D01*
X-9677725Y25389524D01*
X-9714120Y25020000D01*
X-9677725Y24650476D01*
X-9569939Y24295152D01*
X-9444536Y24060541D01*
X-9483844Y24086805D01*
X-9672202Y24164826D01*
X-9872161Y24204600D01*
X-10076039Y24204600D01*
X-10275998Y24164826D01*
X-10464356Y24086805D01*
X-10633874Y23973537D01*
X-10778037Y23829374D01*
X-10891305Y23659856D01*
X-10969326Y23471498D01*
X-11009100Y23271539D01*
X-14002839Y23271539D01*
X-14002839Y27152939D01*
X-13100000Y27152939D01*
X-13100000Y26949061D01*
X-13060226Y26749102D01*
X-12982205Y26560744D01*
X-12868937Y26391226D01*
X-12724774Y26247063D01*
X-12555256Y26133795D01*
X-12366898Y26055774D01*
X-12166939Y26016000D01*
X-11963061Y26016000D01*
X-11763102Y26055774D01*
X-11574744Y26133795D01*
X-11405226Y26247063D01*
X-11261063Y26391226D01*
X-11147795Y26560744D01*
X-11069774Y26749102D01*
X-11030000Y26949061D01*
X-11030000Y27152939D01*
X-11069774Y27352898D01*
X-11147795Y27541256D01*
X-11261063Y27710774D01*
X-11405226Y27854937D01*
X-11574744Y27968205D01*
X-11763102Y28046226D01*
X-11963061Y28086000D01*
X-12166939Y28086000D01*
X-12366898Y28046226D01*
X-12555256Y27968205D01*
X-12724774Y27854937D01*
X-12868937Y27710774D01*
X-12982205Y27541256D01*
X-13060226Y27352898D01*
X-13100000Y27152939D01*
X-14002839Y27152939D01*
X-14002839Y28101239D01*
X-7730100Y28101239D01*
X-7730100Y27897361D01*
X-7690326Y27697402D01*
X-7612305Y27509044D01*
X-7499037Y27339526D01*
X-7354874Y27195363D01*
X-7185356Y27082095D01*
X-6996998Y27004074D01*
X-6797039Y26964300D01*
X-6593161Y26964300D01*
X-6393202Y27004074D01*
X-6204844Y27082095D01*
X-6035326Y27195363D01*
X-5891163Y27339526D01*
X-5777895Y27509044D01*
X-5736310Y27609439D01*
X-2437200Y27609439D01*
X-2437200Y27405561D01*
X-2397426Y27205602D01*
X-2319405Y27017244D01*
X-2206137Y26847726D01*
X-2061974Y26703563D01*
X-1892456Y26590295D01*
X-1704098Y26512274D01*
X-1504139Y26472500D01*
X-1300261Y26472500D01*
X-1100302Y26512274D01*
X-911944Y26590295D01*
X-742426Y26703563D01*
X-598263Y26847726D01*
X-484995Y27017244D01*
X-406974Y27205602D01*
X-367200Y27405561D01*
X-367200Y27609439D01*
X-379830Y27672939D01*
X8077100Y27672939D01*
X8077100Y27469061D01*
X8116874Y27269102D01*
X8194895Y27080744D01*
X8308163Y26911226D01*
X8452326Y26767063D01*
X8621844Y26653795D01*
X8810202Y26575774D01*
X9010161Y26536000D01*
X9214039Y26536000D01*
X9413998Y26575774D01*
X9602356Y26653795D01*
X9771874Y26767063D01*
X9916037Y26911226D01*
X10029305Y27080744D01*
X10107326Y27269102D01*
X10147100Y27469061D01*
X10147100Y27672939D01*
X10107326Y27872898D01*
X10029305Y28061256D01*
X9916037Y28230774D01*
X9771874Y28374937D01*
X9602356Y28488205D01*
X9413998Y28566226D01*
X9214039Y28606000D01*
X9010161Y28606000D01*
X8810202Y28566226D01*
X8621844Y28488205D01*
X8452326Y28374937D01*
X8308163Y28230774D01*
X8194895Y28061256D01*
X8116874Y27872898D01*
X8077100Y27672939D01*
X-379830Y27672939D01*
X-406974Y27809398D01*
X-484995Y27997756D01*
X-598263Y28167274D01*
X-742426Y28311437D01*
X-911944Y28424705D01*
X-1100302Y28502726D01*
X-1300261Y28542500D01*
X-1504139Y28542500D01*
X-1704098Y28502726D01*
X-1892456Y28424705D01*
X-2061974Y28311437D01*
X-2206137Y28167274D01*
X-2319405Y27997756D01*
X-2397426Y27809398D01*
X-2437200Y27609439D01*
X-5736310Y27609439D01*
X-5699874Y27697402D01*
X-5660100Y27897361D01*
X-5660100Y28101239D01*
X-5699874Y28301198D01*
X-5777895Y28489556D01*
X-5891163Y28659074D01*
X-6035326Y28803237D01*
X-6204844Y28916505D01*
X-6393202Y28994526D01*
X-6593161Y29034300D01*
X-6797039Y29034300D01*
X-6996998Y28994526D01*
X-7185356Y28916505D01*
X-7354874Y28803237D01*
X-7499037Y28659074D01*
X-7612305Y28489556D01*
X-7690326Y28301198D01*
X-7730100Y28101239D01*
X-14002839Y28101239D01*
X-14002839Y31041439D01*
X-10267000Y31041439D01*
X-10267000Y30837561D01*
X-10227226Y30637602D01*
X-10149205Y30449244D01*
X-10035937Y30279726D01*
X-9891774Y30135563D01*
X-9722256Y30022295D01*
X-9533898Y29944274D01*
X-9333939Y29904500D01*
X-9130061Y29904500D01*
X-8930102Y29944274D01*
X-8741744Y30022295D01*
X-8572226Y30135563D01*
X-8428063Y30279726D01*
X-8314795Y30449244D01*
X-8236774Y30637602D01*
X-8197000Y30837561D01*
X-8197000Y31041439D01*
X-8236774Y31241398D01*
X-8314795Y31429756D01*
X-8428063Y31599274D01*
X-8572226Y31743437D01*
X-8741744Y31856705D01*
X-8930102Y31934726D01*
X-9130061Y31974500D01*
X-9333939Y31974500D01*
X-9533898Y31934726D01*
X-9722256Y31856705D01*
X-9891774Y31743437D01*
X-10035937Y31599274D01*
X-10149205Y31429756D01*
X-10227226Y31241398D01*
X-10267000Y31041439D01*
X-14002839Y31041439D01*
X-14002839Y32960142D01*
X-13890898Y32913774D01*
X-13690939Y32874000D01*
X-13487061Y32874000D01*
X-13287102Y32913774D01*
X-13098744Y32991795D01*
X-13017500Y33046080D01*
X-12936256Y32991795D01*
X-12747898Y32913774D01*
X-12547939Y32874000D01*
X-12344061Y32874000D01*
X-12144102Y32913774D01*
X-11955744Y32991795D01*
X-11786226Y33105063D01*
X-11642063Y33249226D01*
X-11614035Y33291174D01*
X-9115000Y33291174D01*
X-9115000Y32988806D01*
X-9056011Y32692247D01*
X-8940299Y32412895D01*
X-8772312Y32161485D01*
X-8558505Y31947678D01*
X-8307095Y31779691D01*
X-8027743Y31663979D01*
X-7731184Y31604990D01*
X-7428816Y31604990D01*
X-7132257Y31663979D01*
X-6852905Y31779691D01*
X-6601495Y31947678D01*
X-6387688Y32161485D01*
X-6310000Y32277753D01*
X-6232312Y32161485D01*
X-6018505Y31947678D01*
X-5767095Y31779691D01*
X-5487743Y31663979D01*
X-5191184Y31604990D01*
X-4888816Y31604990D01*
X-4592257Y31663979D01*
X-4312905Y31779691D01*
X-4061495Y31947678D01*
X-3933263Y32075910D01*
X-3464475Y32075910D01*
X-3380792Y31821729D01*
X-3108225Y31690832D01*
X-2815358Y31615625D01*
X-2513447Y31598999D01*
X-2214093Y31641593D01*
X-1928801Y31741768D01*
X-1779208Y31821729D01*
X-1695525Y32075910D01*
X-2580000Y32960385D01*
X-3464475Y32075910D01*
X-3933263Y32075910D01*
X-3847688Y32161485D01*
X-3759474Y32293506D01*
X-3644080Y32255515D01*
X-2759605Y33139990D01*
X-2400395Y33139990D01*
X-1515920Y32255515D01*
X-1261739Y32339198D01*
X-1130842Y32611765D01*
X-1055635Y32904632D01*
X-1039009Y33206543D01*
X-1081603Y33505897D01*
X-1181778Y33791189D01*
X-1261739Y33940782D01*
X-1515920Y34024465D01*
X-2400395Y33139990D01*
X-2759605Y33139990D01*
X-3644080Y34024465D01*
X-3759474Y33986474D01*
X-3847688Y34118495D01*
X-3933263Y34204070D01*
X-3464475Y34204070D01*
X-2580000Y33319595D01*
X-1695525Y34204070D01*
X-1779208Y34458251D01*
X-2051775Y34589148D01*
X-2344642Y34664355D01*
X-2646553Y34680981D01*
X-2945907Y34638387D01*
X-3231199Y34538212D01*
X-3380792Y34458251D01*
X-3464475Y34204070D01*
X-3933263Y34204070D01*
X-4061495Y34332302D01*
X-4312905Y34500289D01*
X-4592257Y34616001D01*
X-4888816Y34674990D01*
X-5191184Y34674990D01*
X-5487743Y34616001D01*
X-5767095Y34500289D01*
X-6018505Y34332302D01*
X-6232312Y34118495D01*
X-6310000Y34002227D01*
X-6387688Y34118495D01*
X-6601495Y34332302D01*
X-6852905Y34500289D01*
X-7132257Y34616001D01*
X-7428816Y34674990D01*
X-7731184Y34674990D01*
X-8027743Y34616001D01*
X-8307095Y34500289D01*
X-8558505Y34332302D01*
X-8772312Y34118495D01*
X-8940299Y33867085D01*
X-9056011Y33587733D01*
X-9115000Y33291174D01*
X-11614035Y33291174D01*
X-11528795Y33418744D01*
X-11450774Y33607102D01*
X-11411000Y33807061D01*
X-11411000Y34010939D01*
X-11450774Y34210898D01*
X-11528795Y34399256D01*
X-11642063Y34568774D01*
X-11786226Y34712937D01*
X-11955744Y34826205D01*
X-12144102Y34904226D01*
X-12344061Y34944000D01*
X-12547939Y34944000D01*
X-12747898Y34904226D01*
X-12936256Y34826205D01*
X-13017500Y34771920D01*
X-13098744Y34826205D01*
X-13287102Y34904226D01*
X-13487061Y34944000D01*
X-13690939Y34944000D01*
X-13890898Y34904226D01*
X-14002839Y34857858D01*
X-14002839Y35940000D01*
X5525880Y35940000D01*
X5562275Y35570476D01*
X5670061Y35215152D01*
X5845097Y34887683D01*
X6080655Y34600655D01*
X6367683Y34365097D01*
X6695152Y34190061D01*
X7050476Y34082275D01*
X7327403Y34055000D01*
X7912597Y34055000D01*
X8189524Y34082275D01*
X8544848Y34190061D01*
X8872317Y34365097D01*
X9159345Y34600655D01*
X9394903Y34887683D01*
X9569939Y35215152D01*
X9677725Y35570476D01*
X9714120Y35940000D01*
X9677725Y36309524D01*
X9569939Y36664848D01*
X9394903Y36992317D01*
X9159345Y37279345D01*
X8872317Y37514903D01*
X8544848Y37689939D01*
X8189524Y37797725D01*
X7912597Y37825000D01*
X7327403Y37825000D01*
X7050476Y37797725D01*
X6695152Y37689939D01*
X6367683Y37514903D01*
X6080655Y37279345D01*
X5845097Y36992317D01*
X5670061Y36664848D01*
X5562275Y36309524D01*
X5525880Y35940000D01*
X-14002839Y35940000D01*
X-14002839Y40640000D01*
X-12023394Y40640000D01*
X-11989895Y40299881D01*
X-11890686Y39972832D01*
X-11729579Y39671422D01*
X-11512766Y39407234D01*
X-11248578Y39190421D01*
X-10947168Y39029314D01*
X-10620119Y38930105D01*
X-10365225Y38905000D01*
X-9394775Y38905000D01*
X-9139881Y38930105D01*
X-8812832Y39029314D01*
X-8511422Y39190421D01*
X-8247234Y39407234D01*
X-8030421Y39671422D01*
X-7869314Y39972832D01*
X-7770105Y40299881D01*
X-7736606Y40640000D01*
X-7770105Y40980119D01*
X-7869314Y41307168D01*
X-8030421Y41608578D01*
X-8247234Y41872766D01*
X-8511422Y42089579D01*
X-8812832Y42250686D01*
X-9139881Y42349895D01*
X-9394775Y42375000D01*
X-10365225Y42375000D01*
X-10620119Y42349895D01*
X-10947168Y42250686D01*
X-11248578Y42089579D01*
X-11512766Y41872766D01*
X-11729579Y41608578D01*
X-11890686Y41307168D01*
X-11989895Y40980119D01*
X-12023394Y40640000D01*
X-14002839Y40640000D01*
X-14002839Y49276000D01*
X-7842185Y49276000D01*
X-7813513Y48984889D01*
X-7728599Y48704966D01*
X-7590706Y48446986D01*
X-7405134Y48220866D01*
X-7179014Y48035294D01*
X-7124209Y48006000D01*
X-7179014Y47976706D01*
X-7405134Y47791134D01*
X-7590706Y47565014D01*
X-7728599Y47307034D01*
X-7813513Y47027111D01*
X-7842185Y46736000D01*
X-7813513Y46444889D01*
X-7728599Y46164966D01*
X-7590706Y45906986D01*
X-7405134Y45680866D01*
X-7179014Y45495294D01*
X-7124209Y45466000D01*
X-7179014Y45436706D01*
X-7405134Y45251134D01*
X-7590706Y45025014D01*
X-7728599Y44767034D01*
X-7813513Y44487111D01*
X-7842185Y44196000D01*
X-7813513Y43904889D01*
X-7728599Y43624966D01*
X-7590706Y43366986D01*
X-7405134Y43140866D01*
X-7179014Y42955294D01*
X-7124209Y42926000D01*
X-7179014Y42896706D01*
X-7405134Y42711134D01*
X-7590706Y42485014D01*
X-7728599Y42227034D01*
X-7813513Y41947111D01*
X-7842185Y41656000D01*
X-7813513Y41364889D01*
X-7728599Y41084966D01*
X-7590706Y40826986D01*
X-7405134Y40600866D01*
X-7375313Y40576393D01*
X-7444180Y40555502D01*
X-7554494Y40496537D01*
X-7651185Y40417185D01*
X-7730537Y40320494D01*
X-7789502Y40210180D01*
X-7825812Y40090482D01*
X-7838072Y39966000D01*
X-7838072Y38266000D01*
X-7825812Y38141518D01*
X-7789502Y38021820D01*
X-7730537Y37911506D01*
X-7651185Y37814815D01*
X-7554494Y37735463D01*
X-7444180Y37676498D01*
X-7324482Y37640188D01*
X-7200000Y37627928D01*
X-5500000Y37627928D01*
X-5375518Y37640188D01*
X-5255820Y37676498D01*
X-5145506Y37735463D01*
X-5048815Y37814815D01*
X-4969463Y37911506D01*
X-4910498Y38021820D01*
X-4889607Y38090687D01*
X-4865134Y38060866D01*
X-4639014Y37875294D01*
X-4381034Y37737401D01*
X-4101111Y37652487D01*
X-3882950Y37631000D01*
X-3737050Y37631000D01*
X-3518889Y37652487D01*
X-3238966Y37737401D01*
X-2980986Y37875294D01*
X-2754866Y38060866D01*
X-2569294Y38286986D01*
X-2431401Y38544966D01*
X-2346487Y38824889D01*
X-2317815Y39116000D01*
X-2346487Y39407111D01*
X-2431401Y39687034D01*
X-2569294Y39945014D01*
X-2754866Y40171134D01*
X-2980986Y40356706D01*
X-3035791Y40386000D01*
X-2980986Y40415294D01*
X-2754866Y40600866D01*
X-2722750Y40640000D01*
X-2423394Y40640000D01*
X-2389895Y40299881D01*
X-2290686Y39972832D01*
X-2129579Y39671422D01*
X-1912766Y39407234D01*
X-1648578Y39190421D01*
X-1347168Y39029314D01*
X-1020119Y38930105D01*
X-765225Y38905000D01*
X205225Y38905000D01*
X460119Y38930105D01*
X787168Y39029314D01*
X1088578Y39190421D01*
X1352766Y39407234D01*
X1569579Y39671422D01*
X1730686Y39972832D01*
X1829895Y40299881D01*
X1863394Y40640000D01*
X5525880Y40640000D01*
X5562275Y40270476D01*
X5670061Y39915152D01*
X5845097Y39587683D01*
X6080655Y39300655D01*
X6367683Y39065097D01*
X6695152Y38890061D01*
X7050476Y38782275D01*
X7327403Y38755000D01*
X7912597Y38755000D01*
X8189524Y38782275D01*
X8544848Y38890061D01*
X8872317Y39065097D01*
X9159345Y39300655D01*
X9394903Y39587683D01*
X9569939Y39915152D01*
X9677725Y40270476D01*
X9714120Y40640000D01*
X9677725Y41009524D01*
X9569939Y41364848D01*
X9394903Y41692317D01*
X9159345Y41979345D01*
X8872317Y42214903D01*
X8544848Y42389939D01*
X8189524Y42497725D01*
X7912597Y42525000D01*
X7327403Y42525000D01*
X7050476Y42497725D01*
X6695152Y42389939D01*
X6367683Y42214903D01*
X6080655Y41979345D01*
X5845097Y41692317D01*
X5670061Y41364848D01*
X5562275Y41009524D01*
X5525880Y40640000D01*
X1863394Y40640000D01*
X1829895Y40980119D01*
X1730686Y41307168D01*
X1569579Y41608578D01*
X1352766Y41872766D01*
X1088578Y42089579D01*
X787168Y42250686D01*
X460119Y42349895D01*
X205225Y42375000D01*
X-765225Y42375000D01*
X-1020119Y42349895D01*
X-1347168Y42250686D01*
X-1648578Y42089579D01*
X-1912766Y41872766D01*
X-2129579Y41608578D01*
X-2290686Y41307168D01*
X-2389895Y40980119D01*
X-2423394Y40640000D01*
X-2722750Y40640000D01*
X-2569294Y40826986D01*
X-2431401Y41084966D01*
X-2346487Y41364889D01*
X-2317815Y41656000D01*
X-2346487Y41947111D01*
X-2431401Y42227034D01*
X-2569294Y42485014D01*
X-2754866Y42711134D01*
X-2980986Y42896706D01*
X-3035791Y42926000D01*
X-2980986Y42955294D01*
X-2754866Y43140866D01*
X-2569294Y43366986D01*
X-2431401Y43624966D01*
X-2346487Y43904889D01*
X-2317815Y44196000D01*
X-2346487Y44487111D01*
X-2431401Y44767034D01*
X-2513352Y44920355D01*
X5582305Y44920355D01*
X5601737Y44828400D01*
X5736483Y44483505D01*
X5935925Y44171524D01*
X6192400Y43904447D01*
X6496050Y43692538D01*
X6835207Y43543940D01*
X7196838Y43464363D01*
X7493000Y43611295D01*
X7493000Y45213000D01*
X7747000Y45213000D01*
X7747000Y43611295D01*
X8043162Y43464363D01*
X8404793Y43543940D01*
X8743950Y43692538D01*
X9047600Y43904447D01*
X9304075Y44171524D01*
X9503517Y44483505D01*
X9638263Y44828400D01*
X9657695Y44920355D01*
X9541572Y45213000D01*
X7747000Y45213000D01*
X7493000Y45213000D01*
X5698428Y45213000D01*
X5582305Y44920355D01*
X-2513352Y44920355D01*
X-2569294Y45025014D01*
X-2754866Y45251134D01*
X-2980986Y45436706D01*
X-3035791Y45466000D01*
X-2980986Y45495294D01*
X-2754866Y45680866D01*
X-2690214Y45759645D01*
X5582305Y45759645D01*
X5698428Y45467000D01*
X7493000Y45467000D01*
X7493000Y47068705D01*
X7747000Y47068705D01*
X7747000Y45467000D01*
X9541572Y45467000D01*
X9657695Y45759645D01*
X9638263Y45851600D01*
X9503517Y46196495D01*
X9304075Y46508476D01*
X9047600Y46775553D01*
X8743950Y46987462D01*
X8404793Y47136060D01*
X8043162Y47215637D01*
X7747000Y47068705D01*
X7493000Y47068705D01*
X7196838Y47215637D01*
X6835207Y47136060D01*
X6496050Y46987462D01*
X6192400Y46775553D01*
X5935925Y46508476D01*
X5736483Y46196495D01*
X5601737Y45851600D01*
X5582305Y45759645D01*
X-2690214Y45759645D01*
X-2569294Y45906986D01*
X-2431401Y46164966D01*
X-2346487Y46444889D01*
X-2317815Y46736000D01*
X-2346487Y47027111D01*
X-2431401Y47307034D01*
X-2569294Y47565014D01*
X-2754866Y47791134D01*
X-2980986Y47976706D01*
X-3035791Y48006000D01*
X-2980986Y48035294D01*
X-2892468Y48107939D01*
X997000Y48107939D01*
X997000Y47904061D01*
X1036774Y47704102D01*
X1114795Y47515744D01*
X1228063Y47346226D01*
X1372226Y47202063D01*
X1541744Y47088795D01*
X1730102Y47010774D01*
X1930061Y46971000D01*
X2133939Y46971000D01*
X2333898Y47010774D01*
X2522256Y47088795D01*
X2691774Y47202063D01*
X2835937Y47346226D01*
X2857500Y47378497D01*
X2879063Y47346226D01*
X3023226Y47202063D01*
X3192744Y47088795D01*
X3381102Y47010774D01*
X3581061Y46971000D01*
X3784939Y46971000D01*
X3984898Y47010774D01*
X4173256Y47088795D01*
X4342774Y47202063D01*
X4486937Y47346226D01*
X4600205Y47515744D01*
X4678226Y47704102D01*
X4718000Y47904061D01*
X4718000Y48107939D01*
X4678226Y48307898D01*
X4600205Y48496256D01*
X4486937Y48665774D01*
X4342774Y48809937D01*
X4173256Y48923205D01*
X3984898Y49001226D01*
X3784939Y49041000D01*
X3581061Y49041000D01*
X3381102Y49001226D01*
X3192744Y48923205D01*
X3023226Y48809937D01*
X2879063Y48665774D01*
X2857500Y48633503D01*
X2835937Y48665774D01*
X2691774Y48809937D01*
X2522256Y48923205D01*
X2333898Y49001226D01*
X2133939Y49041000D01*
X1930061Y49041000D01*
X1730102Y49001226D01*
X1541744Y48923205D01*
X1372226Y48809937D01*
X1228063Y48665774D01*
X1114795Y48496256D01*
X1036774Y48307898D01*
X997000Y48107939D01*
X-2892468Y48107939D01*
X-2754866Y48220866D01*
X-2569294Y48446986D01*
X-2431401Y48704966D01*
X-2346487Y48984889D01*
X-2317815Y49276000D01*
X-2346487Y49567111D01*
X-2431401Y49847034D01*
X-2569294Y50105014D01*
X-2754866Y50331134D01*
X-2980986Y50516706D01*
X-3238966Y50654599D01*
X-3518889Y50739513D01*
X-3737050Y50761000D01*
X-3882950Y50761000D01*
X-4101111Y50739513D01*
X-4381034Y50654599D01*
X-4639014Y50516706D01*
X-4865134Y50331134D01*
X-5050706Y50105014D01*
X-5080000Y50050209D01*
X-5109294Y50105014D01*
X-5294866Y50331134D01*
X-5520986Y50516706D01*
X-5778966Y50654599D01*
X-6058889Y50739513D01*
X-6277050Y50761000D01*
X-6422950Y50761000D01*
X-6641111Y50739513D01*
X-6921034Y50654599D01*
X-7179014Y50516706D01*
X-7405134Y50331134D01*
X-7590706Y50105014D01*
X-7728599Y49847034D01*
X-7813513Y49567111D01*
X-7842185Y49276000D01*
X-14002839Y49276000D01*
X-14002839Y50775439D01*
X-11417300Y50775439D01*
X-11417300Y50571561D01*
X-11377526Y50371602D01*
X-11299505Y50183244D01*
X-11186237Y50013726D01*
X-11042074Y49869563D01*
X-10872556Y49756295D01*
X-10684198Y49678274D01*
X-10484239Y49638500D01*
X-10280361Y49638500D01*
X-10080402Y49678274D01*
X-9892044Y49756295D01*
X-9722526Y49869563D01*
X-9578363Y50013726D01*
X-9465095Y50183244D01*
X-9387074Y50371602D01*
X-9347300Y50571561D01*
X-9347300Y50775439D01*
X-9387074Y50975398D01*
X-9465095Y51163756D01*
X-9578363Y51333274D01*
X-9722526Y51477437D01*
X-9892044Y51590705D01*
X-10080402Y51668726D01*
X-10280361Y51708500D01*
X-10484239Y51708500D01*
X-10684198Y51668726D01*
X-10872556Y51590705D01*
X-11042074Y51477437D01*
X-11186237Y51333274D01*
X-11299505Y51163756D01*
X-11377526Y50975398D01*
X-11417300Y50775439D01*
X-14002839Y50775439D01*
X-14002839Y52513560D01*
X14007161Y52513560D01*
X14007161Y45535531D01*
X14007161Y45535531D01*
G37*
X14007161Y45535531D02*
X13177026Y46592066D01*
X13061092Y46713035D01*
X12877878Y46841169D01*
X12673187Y46931099D01*
X12454884Y46979367D01*
X12231360Y46984119D01*
X12011203Y46945171D01*
X11802875Y46864022D01*
X11614381Y46743789D01*
X11452965Y46589092D01*
X11324831Y46405878D01*
X11234901Y46201187D01*
X11186633Y45982884D01*
X11181881Y45759360D01*
X11220829Y45539203D01*
X11300818Y45333852D01*
X11265324Y45267447D01*
X11202941Y45061801D01*
X11096898Y45105726D01*
X10896939Y45145500D01*
X10693061Y45145500D01*
X10493102Y45105726D01*
X10304744Y45027705D01*
X10135226Y44914437D01*
X9991063Y44770274D01*
X9877795Y44600756D01*
X9799774Y44412398D01*
X9760000Y44212439D01*
X9760000Y44008561D01*
X9799774Y43808602D01*
X9877795Y43620244D01*
X9991063Y43450726D01*
X10135226Y43306563D01*
X10304744Y43193295D01*
X10493102Y43115274D01*
X10693061Y43075500D01*
X10896939Y43075500D01*
X11096898Y43115274D01*
X11285256Y43193295D01*
X11454774Y43306563D01*
X11598937Y43450726D01*
X11712205Y43620244D01*
X11790226Y43808602D01*
X11793475Y43824937D01*
X11882553Y43777324D01*
X12096501Y43712423D01*
X12263248Y43696000D01*
X12565637Y43696000D01*
X12581000Y43676447D01*
X12581000Y37257033D01*
X12411239Y37290800D01*
X12207361Y37290800D01*
X12007402Y37251026D01*
X11819044Y37173005D01*
X11649526Y37059737D01*
X11505363Y36915574D01*
X11392095Y36746056D01*
X11314074Y36557698D01*
X11274300Y36357739D01*
X11274300Y36153861D01*
X11314074Y35953902D01*
X11392095Y35765544D01*
X11505363Y35596026D01*
X11649526Y35451863D01*
X11819044Y35338595D01*
X12007402Y35260574D01*
X12207361Y35220800D01*
X12411239Y35220800D01*
X12581001Y35254567D01*
X12581001Y31881578D01*
X12394914Y31899891D01*
X12172417Y31877960D01*
X11958474Y31813043D01*
X11761306Y31707635D01*
X11588491Y31565787D01*
X11446669Y31392951D01*
X11341291Y31195767D01*
X11276406Y30981814D01*
X11254509Y30759314D01*
X11276440Y30536817D01*
X11341357Y30322874D01*
X11446765Y30125706D01*
X11553069Y29996193D01*
X12581001Y28968417D01*
X12581000Y11297156D01*
X12569099Y11302825D01*
X12421890Y11347476D01*
X12192000Y11226155D01*
X12192000Y10033000D01*
X12212000Y10033000D01*
X12212000Y9779000D01*
X12192000Y9779000D01*
X12192000Y9759000D01*
X11938000Y9759000D01*
X11938000Y9779000D01*
X11918000Y9779000D01*
X11918000Y10033000D01*
X11938000Y10033000D01*
X11938000Y11226155D01*
X11708110Y11347476D01*
X11560901Y11302825D01*
X11298080Y11177641D01*
X11064731Y11003588D01*
X10869822Y10787355D01*
X10800201Y10670477D01*
X10765706Y10735014D01*
X10580134Y10961134D01*
X10354014Y11146706D01*
X10096034Y11284599D01*
X9816111Y11369513D01*
X9597950Y11391000D01*
X9452050Y11391000D01*
X9233889Y11369513D01*
X8953966Y11284599D01*
X8695986Y11146706D01*
X8469866Y10961134D01*
X8284294Y10735014D01*
X8255000Y10680209D01*
X8225706Y10735014D01*
X8040134Y10961134D01*
X7814014Y11146706D01*
X7556034Y11284599D01*
X7554745Y11284990D01*
X7731184Y11284990D01*
X8027743Y11343979D01*
X8307095Y11459691D01*
X8558505Y11627678D01*
X8772312Y11841485D01*
X8940299Y12092895D01*
X9056011Y12372247D01*
X9115000Y12668806D01*
X9115000Y12971174D01*
X9056011Y13267733D01*
X8940299Y13547085D01*
X8772312Y13798495D01*
X8558505Y14012302D01*
X8307095Y14180289D01*
X8027743Y14296001D01*
X7731184Y14354990D01*
X7428816Y14354990D01*
X7274819Y14324358D01*
X7334526Y14468502D01*
X7374300Y14668461D01*
X7374300Y14872339D01*
X7334526Y15072298D01*
X7256505Y15260656D01*
X7143237Y15430174D01*
X6999074Y15574337D01*
X6829556Y15687605D01*
X6641198Y15765626D01*
X6441239Y15805400D01*
X6237361Y15805400D01*
X6037402Y15765626D01*
X5849044Y15687605D01*
X5679526Y15574337D01*
X5535363Y15430174D01*
X5422095Y15260656D01*
X5344074Y15072298D01*
X5304300Y14872339D01*
X5304300Y14668461D01*
X5344074Y14468502D01*
X5401859Y14328997D01*
X5271184Y14354990D01*
X4968816Y14354990D01*
X4672257Y14296001D01*
X4392905Y14180289D01*
X4141495Y14012302D01*
X3927688Y13798495D01*
X3850000Y13682227D01*
X3772312Y13798495D01*
X3558505Y14012302D01*
X3307095Y14180289D01*
X3027743Y14296001D01*
X2731184Y14354990D01*
X2428816Y14354990D01*
X2132257Y14296001D01*
X1852905Y14180289D01*
X1601495Y14012302D01*
X1387688Y13798495D01*
X1219701Y13547085D01*
X1103989Y13267733D01*
X1045000Y12971174D01*
X1045000Y12668806D01*
X1103989Y12372247D01*
X1219701Y12092895D01*
X1387688Y11841485D01*
X1601495Y11627678D01*
X1852905Y11459691D01*
X2132257Y11343979D01*
X2428816Y11284990D01*
X2731184Y11284990D01*
X3027743Y11343979D01*
X3307095Y11459691D01*
X3558505Y11627678D01*
X3772312Y11841485D01*
X3850000Y11957753D01*
X3927688Y11841485D01*
X4141495Y11627678D01*
X4392905Y11459691D01*
X4672257Y11343979D01*
X4968816Y11284990D01*
X5271184Y11284990D01*
X5567743Y11343979D01*
X5847095Y11459691D01*
X6098505Y11627678D01*
X6312312Y11841485D01*
X6350000Y11897889D01*
X6387688Y11841485D01*
X6601495Y11627678D01*
X6852905Y11459691D01*
X7018739Y11391000D01*
X6912050Y11391000D01*
X6693889Y11369513D01*
X6413966Y11284599D01*
X6155986Y11146706D01*
X5929866Y10961134D01*
X5744294Y10735014D01*
X5606401Y10477034D01*
X5521487Y10197111D01*
X5492815Y9906000D01*
X5521487Y9614889D01*
X5606401Y9334966D01*
X5744294Y9076986D01*
X5929866Y8850866D01*
X6155986Y8665294D01*
X6210791Y8636000D01*
X6155986Y8606706D01*
X5929866Y8421134D01*
X5744294Y8195014D01*
X5606401Y7937034D01*
X5521487Y7657111D01*
X5492815Y7366000D01*
X5521487Y7074889D01*
X5606401Y6794966D01*
X5744294Y6536986D01*
X5929866Y6310866D01*
X6155986Y6125294D01*
X6413966Y5987401D01*
X6693889Y5902487D01*
X6813945Y5890663D01*
X6784602Y5884826D01*
X6596244Y5806805D01*
X6426726Y5693537D01*
X6282563Y5549374D01*
X6169295Y5379856D01*
X6091274Y5191498D01*
X6051500Y4991539D01*
X6051500Y4787661D01*
X6091274Y4587702D01*
X6169295Y4399344D01*
X6282563Y4229826D01*
X6426726Y4085663D01*
X6596244Y3972395D01*
X6784602Y3894374D01*
X6984561Y3854600D01*
X7188439Y3854600D01*
X7388398Y3894374D01*
X7576756Y3972395D01*
X7746274Y4085663D01*
X7890437Y4229826D01*
X8003705Y4399344D01*
X8081726Y4587702D01*
X8121500Y4787661D01*
X8121500Y4788498D01*
X8165595Y4682044D01*
X8278863Y4512526D01*
X8423026Y4368363D01*
X8592544Y4255095D01*
X8780902Y4177074D01*
X8980861Y4137300D01*
X9184739Y4137300D01*
X9384698Y4177074D01*
X9573056Y4255095D01*
X9742574Y4368363D01*
X9886737Y4512526D01*
X10000005Y4682044D01*
X10078026Y4870402D01*
X10117800Y5070361D01*
X10117800Y5274239D01*
X10078026Y5474198D01*
X10000005Y5662556D01*
X9886737Y5832074D01*
X9816274Y5902537D01*
X10096034Y5987401D01*
X10354014Y6125294D01*
X10580134Y6310866D01*
X10604607Y6340687D01*
X10625498Y6271820D01*
X10684463Y6161506D01*
X10763815Y6064815D01*
X10860506Y5985463D01*
X10970820Y5926498D01*
X11090518Y5890188D01*
X11215000Y5877928D01*
X12581000Y5877928D01*
X12581000Y5473950D01*
X9167872Y2061001D01*
X9124552Y2025449D01*
X9047688Y1931790D01*
X8982733Y1852647D01*
X8982726Y1852634D01*
X8982717Y1852623D01*
X8932108Y1757940D01*
X8877336Y1655474D01*
X8877331Y1655459D01*
X8877325Y1655447D01*
X8849734Y1564491D01*
X8812429Y1441528D01*
X8812427Y1441509D01*
X8812424Y1441499D01*
X8804668Y1362747D01*
X8790509Y1219030D01*
X8796001Y1163253D01*
X8796000Y-1360248D01*
X8790509Y-1416000D01*
X8812423Y-1638499D01*
X8877324Y-1852447D01*
X8949925Y-1988274D01*
X8982716Y-2049623D01*
X9124551Y-2222449D01*
X9297377Y-2364284D01*
X9397864Y-2417995D01*
X12061868Y-5082000D01*
X6815322Y-5082000D01*
X6777999Y-5078324D01*
X6740676Y-5082000D01*
X6740667Y-5082000D01*
X6629014Y-5092997D01*
X6485753Y-5136454D01*
X6353723Y-5207026D01*
X6301706Y-5249716D01*
X6237999Y-5301999D01*
X6214201Y-5330997D01*
X5528921Y-6016277D01*
X5271184Y-5965010D01*
X4968816Y-5965010D01*
X4672257Y-6023999D01*
X4392905Y-6139711D01*
X4141495Y-6307698D01*
X3927688Y-6521505D01*
X3759701Y-6772915D01*
X3643989Y-7052267D01*
X3585000Y-7348826D01*
X3585000Y-7651194D01*
X3643989Y-7947753D01*
X3759701Y-8227105D01*
X3927688Y-8478515D01*
X4141495Y-8692322D01*
X4392905Y-8860309D01*
X4672257Y-8976021D01*
X4968816Y-9035010D01*
X5271184Y-9035010D01*
X5567743Y-8976021D01*
X5847095Y-8860309D01*
X6098505Y-8692322D01*
X6312312Y-8478515D01*
X6390000Y-8362247D01*
X6467688Y-8478515D01*
X6681495Y-8692322D01*
X6932905Y-8860309D01*
X7212257Y-8976021D01*
X7508816Y-9035010D01*
X7811184Y-9035010D01*
X8107743Y-8976021D01*
X8387095Y-8860309D01*
X8638505Y-8692322D01*
X8852312Y-8478515D01*
X8890000Y-8422111D01*
X8927688Y-8478515D01*
X9141495Y-8692322D01*
X9392905Y-8860309D01*
X9672257Y-8976021D01*
X9968816Y-9035010D01*
X10271184Y-9035010D01*
X10567743Y-8976021D01*
X10847095Y-8860309D01*
X11098505Y-8692322D01*
X11312312Y-8478515D01*
X11480299Y-8227105D01*
X11596011Y-7947753D01*
X11655000Y-7651194D01*
X11655000Y-7348826D01*
X11596011Y-7052267D01*
X11480299Y-6772915D01*
X11366097Y-6602000D01*
X12388431Y-6602000D01*
X12426551Y-6648449D01*
X12454001Y-6670977D01*
X12454000Y-10654867D01*
X10031860Y-13077009D01*
X9988552Y-13112551D01*
X9846717Y-13285377D01*
X9790384Y-13390770D01*
X9741324Y-13482554D01*
X9676423Y-13696502D01*
X9654509Y-13919000D01*
X9660001Y-13974761D01*
X9660000Y-16327248D01*
X9654509Y-16383000D01*
X9668569Y-16525755D01*
X9595000Y-16518509D01*
X9372502Y-16540423D01*
X9158554Y-16605324D01*
X8961378Y-16710716D01*
X8788552Y-16852551D01*
X8646717Y-17025377D01*
X8541325Y-17222553D01*
X8476424Y-17436501D01*
X8460001Y-17603248D01*
X8460000Y-19094136D01*
X7886600Y-19668000D01*
X7338277Y-19668000D01*
X7347200Y-19623139D01*
X7347200Y-19419261D01*
X7307426Y-19219302D01*
X7229405Y-19030944D01*
X7116137Y-18861426D01*
X6971974Y-18717263D01*
X6802456Y-18603995D01*
X6614098Y-18525974D01*
X6414139Y-18486200D01*
X6210261Y-18486200D01*
X6010302Y-18525974D01*
X5821944Y-18603995D01*
X5652426Y-18717263D01*
X5508263Y-18861426D01*
X5394995Y-19030944D01*
X5316974Y-19219302D01*
X5277200Y-19419261D01*
X5277200Y-19623139D01*
X5316974Y-19823098D01*
X5394995Y-20011456D01*
X5461652Y-20111216D01*
X4078237Y-21494631D01*
X3537410Y-20954198D01*
X3639756Y-20911805D01*
X3809274Y-20798537D01*
X3953437Y-20654374D01*
X4066705Y-20484856D01*
X4144726Y-20296498D01*
X4184500Y-20096539D01*
X4184500Y-19892661D01*
X4144726Y-19692702D01*
X4066705Y-19504344D01*
X3953437Y-19334826D01*
X3809274Y-19190663D01*
X3639756Y-19077395D01*
X3451398Y-18999374D01*
X3251439Y-18959600D01*
X3047561Y-18959600D01*
X2847602Y-18999374D01*
X2659244Y-19077395D01*
X2489726Y-19190663D01*
X2345563Y-19334826D01*
X2232295Y-19504344D01*
X2154274Y-19692702D01*
X2114500Y-19892661D01*
X2114500Y-20096539D01*
X2129112Y-20170000D01*
X-1226289Y-20170000D01*
X-1270226Y-20126063D01*
X-1439744Y-20012795D01*
X-1628102Y-19934774D01*
X-1828061Y-19895000D01*
X-2031939Y-19895000D01*
X-2231898Y-19934774D01*
X-2420256Y-20012795D01*
X-2589774Y-20126063D01*
X-2733937Y-20270226D01*
X-2847205Y-20439744D01*
X-2925226Y-20628102D01*
X-2965000Y-20828061D01*
X-2965000Y-21031939D01*
X-2925226Y-21231898D01*
X-2847205Y-21420256D01*
X-2733937Y-21589774D01*
X-2706691Y-21617020D01*
X-2759502Y-21715820D01*
X-2795812Y-21835518D01*
X-2808072Y-21960000D01*
X-2808072Y-23760000D01*
X-2795812Y-23884482D01*
X-2759502Y-24004180D01*
X-2700537Y-24114494D01*
X-2621185Y-24211185D01*
X-2524494Y-24290537D01*
X-2414180Y-24349502D01*
X-2294482Y-24385812D01*
X-2170000Y-24398072D01*
X-370000Y-24398072D01*
X-245518Y-24385812D01*
X-125820Y-24349502D01*
X-15506Y-24290537D01*
X81185Y-24211185D01*
X160537Y-24114494D01*
X219502Y-24004180D01*
X225056Y-23985873D01*
X291495Y-24052312D01*
X542905Y-24220299D01*
X822257Y-24336011D01*
X1118816Y-24395000D01*
X1421184Y-24395000D01*
X1717743Y-24336011D01*
X1997095Y-24220299D01*
X2248505Y-24052312D01*
X2462312Y-23838505D01*
X2630299Y-23587095D01*
X2675000Y-23479178D01*
X2675000Y-23550751D01*
X2691423Y-23717498D01*
X2756324Y-23931446D01*
X2861716Y-24128623D01*
X3003551Y-24301449D01*
X3176377Y-24443284D01*
X3373553Y-24548676D01*
X3587501Y-24613577D01*
X3810000Y-24635491D01*
X4032498Y-24613577D01*
X4246446Y-24548676D01*
X4443623Y-24443284D01*
X4616449Y-24301449D01*
X4758284Y-24128623D01*
X4863676Y-23931447D01*
X4868898Y-23914233D01*
X6845132Y-21938000D01*
X7246622Y-21938000D01*
X7227774Y-21983502D01*
X7188000Y-22183461D01*
X7188000Y-22387339D01*
X7227774Y-22587298D01*
X7305795Y-22775656D01*
X7419063Y-22945174D01*
X7563226Y-23089337D01*
X7732744Y-23202605D01*
X7921102Y-23280626D01*
X8121061Y-23320400D01*
X8294000Y-23320400D01*
X8294000Y-23516339D01*
X8333774Y-23716298D01*
X8411795Y-23904656D01*
X8525063Y-24074174D01*
X8669226Y-24218337D01*
X8838744Y-24331605D01*
X9027102Y-24409626D01*
X9227061Y-24449400D01*
X9430939Y-24449400D01*
X9630898Y-24409626D01*
X9819256Y-24331605D01*
X9988774Y-24218337D01*
X10132937Y-24074174D01*
X10246205Y-23904656D01*
X10324226Y-23716298D01*
X10364000Y-23516339D01*
X10364000Y-23347748D01*
X10491377Y-23452284D01*
X10688553Y-23557676D01*
X10902501Y-23622577D01*
X11069248Y-23639000D01*
X13470248Y-23639000D01*
X13526000Y-23644491D01*
X13581751Y-23639000D01*
X13581752Y-23639000D01*
X13748499Y-23622577D01*
X13962447Y-23557676D01*
X14007160Y-23533776D01*
X14007160Y-52516440D01*
X-14002839Y-52516440D01*
X-14002839Y-48860967D01*
X-3921000Y-48860967D01*
X-3921000Y-49183033D01*
X-3858168Y-49498912D01*
X-3734918Y-49796463D01*
X-3555987Y-50064252D01*
X-3328252Y-50291987D01*
X-3060463Y-50470918D01*
X-2762912Y-50594168D01*
X-2447033Y-50657000D01*
X-2124967Y-50657000D01*
X-1809088Y-50594168D01*
X-1511537Y-50470918D01*
X-1243748Y-50291987D01*
X-1016013Y-50064252D01*
X-837082Y-49796463D01*
X-713832Y-49498912D01*
X-651000Y-49183033D01*
X-651000Y-48860967D01*
X579000Y-48860967D01*
X579000Y-49183033D01*
X641832Y-49498912D01*
X765082Y-49796463D01*
X944013Y-50064252D01*
X1171748Y-50291987D01*
X1439537Y-50470918D01*
X1737088Y-50594168D01*
X2052967Y-50657000D01*
X2375033Y-50657000D01*
X2690912Y-50594168D01*
X2988463Y-50470918D01*
X3256252Y-50291987D01*
X3483987Y-50064252D01*
X3662918Y-49796463D01*
X3786168Y-49498912D01*
X3849000Y-49183033D01*
X3849000Y-48860967D01*
X3786168Y-48545088D01*
X3662918Y-48247537D01*
X3483987Y-47979748D01*
X3256252Y-47752013D01*
X2988463Y-47573082D01*
X2690912Y-47449832D01*
X2375033Y-47387000D01*
X2052967Y-47387000D01*
X1737088Y-47449832D01*
X1439537Y-47573082D01*
X1171748Y-47752013D01*
X944013Y-47979748D01*
X765082Y-48247537D01*
X641832Y-48545088D01*
X579000Y-48860967D01*
X-651000Y-48860967D01*
X-713832Y-48545088D01*
X-837082Y-48247537D01*
X-1016013Y-47979748D01*
X-1243748Y-47752013D01*
X-1511537Y-47573082D01*
X-1809088Y-47449832D01*
X-2124967Y-47387000D01*
X-2447033Y-47387000D01*
X-2762912Y-47449832D01*
X-3060463Y-47573082D01*
X-3328252Y-47752013D01*
X-3555987Y-47979748D01*
X-3734918Y-48247537D01*
X-3858168Y-48545088D01*
X-3921000Y-48860967D01*
X-14002839Y-48860967D01*
X-14002839Y-45101964D01*
X-13925000Y-45101964D01*
X-13925000Y-46338037D01*
X-13904960Y-46541507D01*
X-13825764Y-46802581D01*
X-13697157Y-47043188D01*
X-13524080Y-47254081D01*
X-13313187Y-47427157D01*
X-13072580Y-47555764D01*
X-12811506Y-47634960D01*
X-12540000Y-47661701D01*
X-12268493Y-47634960D01*
X-12007419Y-47555764D01*
X-11893478Y-47494861D01*
X-10865700Y-47494861D01*
X-10865700Y-47698739D01*
X-10825926Y-47898698D01*
X-10747905Y-48087056D01*
X-10634637Y-48256574D01*
X-10490474Y-48400737D01*
X-10320956Y-48514005D01*
X-10132598Y-48592026D01*
X-9932639Y-48631800D01*
X-9728761Y-48631800D01*
X-9528802Y-48592026D01*
X-9340444Y-48514005D01*
X-9170926Y-48400737D01*
X-9026763Y-48256574D01*
X-8913495Y-48087056D01*
X-8835474Y-47898698D01*
X-8795700Y-47698739D01*
X-8795700Y-47494861D01*
X-8835474Y-47294902D01*
X-8913495Y-47106544D01*
X-9026763Y-46937026D01*
X-9170926Y-46792863D01*
X-9340444Y-46679595D01*
X-9528802Y-46601574D01*
X-9728761Y-46561800D01*
X-9932639Y-46561800D01*
X-10132598Y-46601574D01*
X-10320956Y-46679595D01*
X-10490474Y-46792863D01*
X-10634637Y-46937026D01*
X-10747905Y-47106544D01*
X-10825926Y-47294902D01*
X-10865700Y-47494861D01*
X-11893478Y-47494861D01*
X-11766812Y-47427157D01*
X-11555919Y-47254081D01*
X-11382843Y-47043188D01*
X-11254236Y-46802581D01*
X-11175040Y-46541507D01*
X-11155000Y-46338037D01*
X-11155000Y-45847000D01*
X-5675000Y-45847000D01*
X-5675000Y-46347000D01*
X-5622650Y-46624514D01*
X-5517166Y-46886483D01*
X-5362601Y-47122839D01*
X-5164895Y-47324500D01*
X-4931646Y-47483715D01*
X-4671818Y-47594367D01*
X-4589039Y-47611904D01*
X-4367000Y-47489915D01*
X-4367000Y-45847000D01*
X-4113000Y-45847000D01*
X-4113000Y-47489915D01*
X-3890961Y-47611904D01*
X-3808182Y-47594367D01*
X-3548354Y-47483715D01*
X-3315105Y-47324500D01*
X-3117399Y-47122839D01*
X-2962834Y-46886483D01*
X-2857350Y-46624514D01*
X-2805000Y-46347000D01*
X-2805000Y-45847000D01*
X-4113000Y-45847000D01*
X-4367000Y-45847000D01*
X-5675000Y-45847000D01*
X-11155000Y-45847000D01*
X-11155000Y-45101963D01*
X-11155882Y-45093000D01*
X-5675000Y-45093000D01*
X-5675000Y-45593000D01*
X-4367000Y-45593000D01*
X-4367000Y-43950085D01*
X-4113000Y-43950085D01*
X-4113000Y-45593000D01*
X-2805000Y-45593000D01*
X-2805000Y-45093000D01*
X-2857350Y-44815486D01*
X-2962834Y-44553517D01*
X-3117399Y-44317161D01*
X-3315105Y-44115500D01*
X-3548354Y-43956285D01*
X-3808182Y-43845633D01*
X-3890961Y-43828096D01*
X-4113000Y-43950085D01*
X-4367000Y-43950085D01*
X-4589039Y-43828096D01*
X-4671818Y-43845633D01*
X-4931646Y-43956285D01*
X-5164895Y-44115500D01*
X-5362601Y-44317161D01*
X-5517166Y-44553517D01*
X-5622650Y-44815486D01*
X-5675000Y-45093000D01*
X-11155882Y-45093000D01*
X-11175040Y-44898493D01*
X-11254236Y-44637419D01*
X-11382843Y-44396812D01*
X-11555920Y-44185919D01*
X-11766813Y-44012843D01*
X-12007420Y-43884236D01*
X-12268494Y-43805040D01*
X-12540000Y-43778299D01*
X-12811507Y-43805040D01*
X-13072581Y-43884236D01*
X-13313188Y-44012843D01*
X-13524081Y-44185920D01*
X-13697157Y-44396813D01*
X-13825764Y-44637420D01*
X-13904960Y-44898494D01*
X-13925000Y-45101964D01*
X-14002839Y-45101964D01*
X-14002839Y-42360967D01*
X-3921000Y-42360967D01*
X-3921000Y-42683033D01*
X-3858168Y-42998912D01*
X-3734918Y-43296463D01*
X-3555987Y-43564252D01*
X-3328252Y-43791987D01*
X-3060463Y-43970918D01*
X-2762912Y-44094168D01*
X-2447033Y-44157000D01*
X-2124967Y-44157000D01*
X-1939191Y-44120047D01*
X-1941101Y-44121068D01*
X-2159608Y-44300393D01*
X-2338932Y-44518900D01*
X-2472182Y-44768193D01*
X-2554236Y-45038692D01*
X-2575000Y-45249509D01*
X-2575000Y-46190492D01*
X-2554236Y-46401309D01*
X-2472182Y-46671808D01*
X-2338932Y-46921101D01*
X-2159607Y-47139608D01*
X-1941100Y-47318932D01*
X-1691807Y-47452182D01*
X-1421308Y-47534236D01*
X-1140000Y-47561943D01*
X-858691Y-47534236D01*
X-588192Y-47452182D01*
X-338899Y-47318932D01*
X-120392Y-47139608D01*
X0Y-46992909D01*
X120392Y-47139607D01*
X338899Y-47318932D01*
X588192Y-47452182D01*
X858691Y-47534236D01*
X1140000Y-47561943D01*
X1421308Y-47534236D01*
X1691807Y-47452182D01*
X1941100Y-47318932D01*
X2159607Y-47139608D01*
X2338932Y-46921101D01*
X2472182Y-46671808D01*
X2554236Y-46401309D01*
X2575000Y-46190492D01*
X2575000Y-45249509D01*
X2565151Y-45149508D01*
X2805000Y-45149508D01*
X2805000Y-46290491D01*
X2825764Y-46501308D01*
X2907818Y-46771807D01*
X3041068Y-47021100D01*
X3220392Y-47239607D01*
X3438899Y-47418932D01*
X3688192Y-47552182D01*
X3958691Y-47634236D01*
X4240000Y-47661943D01*
X4521308Y-47634236D01*
X4791807Y-47552182D01*
X5041100Y-47418932D01*
X5259607Y-47239608D01*
X5438932Y-47021101D01*
X5572182Y-46771808D01*
X5654236Y-46501309D01*
X5675000Y-46290492D01*
X5675000Y-45149508D01*
X5670318Y-45101963D01*
X11155000Y-45101963D01*
X11155000Y-46338036D01*
X11175040Y-46541506D01*
X11254236Y-46802580D01*
X11382843Y-47043187D01*
X11555919Y-47254080D01*
X11766812Y-47427157D01*
X12007419Y-47555764D01*
X12268493Y-47634960D01*
X12540000Y-47661701D01*
X12811506Y-47634960D01*
X13072580Y-47555764D01*
X13313187Y-47427157D01*
X13524080Y-47254081D01*
X13697157Y-47043188D01*
X13825764Y-46802581D01*
X13904960Y-46541507D01*
X13925000Y-46338037D01*
X13925000Y-45101963D01*
X13904960Y-44898493D01*
X13825764Y-44637419D01*
X13697157Y-44396812D01*
X13524081Y-44185919D01*
X13313188Y-44012843D01*
X13072581Y-43884236D01*
X12811507Y-43805040D01*
X12540000Y-43778299D01*
X12268494Y-43805040D01*
X12007420Y-43884236D01*
X11766813Y-44012843D01*
X11555920Y-44185919D01*
X11382843Y-44396812D01*
X11254236Y-44637419D01*
X11175040Y-44898493D01*
X11155000Y-45101963D01*
X5670318Y-45101963D01*
X5654236Y-44938691D01*
X5646074Y-44911784D01*
X5677802Y-44924926D01*
X5877761Y-44964700D01*
X6081639Y-44964700D01*
X6281598Y-44924926D01*
X6469956Y-44846905D01*
X6639474Y-44733637D01*
X6783637Y-44589474D01*
X6896905Y-44419956D01*
X6974926Y-44231598D01*
X7014700Y-44031639D01*
X7014700Y-43827761D01*
X6974926Y-43627802D01*
X6911534Y-43474761D01*
X7789000Y-43474761D01*
X7789000Y-43678639D01*
X7828774Y-43878598D01*
X7906795Y-44066956D01*
X8020063Y-44236474D01*
X8164226Y-44380637D01*
X8333744Y-44493905D01*
X8522102Y-44571926D01*
X8722061Y-44611700D01*
X8925939Y-44611700D01*
X9125898Y-44571926D01*
X9314256Y-44493905D01*
X9483774Y-44380637D01*
X9627937Y-44236474D01*
X9741205Y-44066956D01*
X9819226Y-43878598D01*
X9859000Y-43678639D01*
X9859000Y-43474761D01*
X9819226Y-43274802D01*
X9741205Y-43086444D01*
X9627937Y-42916926D01*
X9483774Y-42772763D01*
X9314256Y-42659495D01*
X9125898Y-42581474D01*
X8925939Y-42541700D01*
X8722061Y-42541700D01*
X8522102Y-42581474D01*
X8333744Y-42659495D01*
X8164226Y-42772763D01*
X8020063Y-42916926D01*
X7906795Y-43086444D01*
X7828774Y-43274802D01*
X7789000Y-43474761D01*
X6911534Y-43474761D01*
X6896905Y-43439444D01*
X6783637Y-43269926D01*
X6639474Y-43125763D01*
X6469956Y-43012495D01*
X6281598Y-42934474D01*
X6081639Y-42894700D01*
X5877761Y-42894700D01*
X5677802Y-42934474D01*
X5489444Y-43012495D01*
X5319926Y-43125763D01*
X5175763Y-43269926D01*
X5062495Y-43439444D01*
X4984474Y-43627802D01*
X4944700Y-43827761D01*
X4944700Y-43969541D01*
X4791808Y-43887818D01*
X4521309Y-43805764D01*
X4240000Y-43778057D01*
X3958692Y-43805764D01*
X3688193Y-43887818D01*
X3438900Y-44021068D01*
X3220393Y-44200392D01*
X3041068Y-44418899D01*
X2907818Y-44668192D01*
X2825764Y-44938691D01*
X2805000Y-45149508D01*
X2565151Y-45149508D01*
X2554236Y-45038691D01*
X2472182Y-44768192D01*
X2338932Y-44518899D01*
X2159608Y-44300392D01*
X1963104Y-44139125D01*
X2052967Y-44157000D01*
X2375033Y-44157000D01*
X2690912Y-44094168D01*
X2988463Y-43970918D01*
X3256252Y-43791987D01*
X3483987Y-43564252D01*
X3662918Y-43296463D01*
X3786168Y-42998912D01*
X3849000Y-42683033D01*
X3849000Y-42360967D01*
X3786168Y-42045088D01*
X3662918Y-41747537D01*
X3483987Y-41479748D01*
X3256252Y-41252013D01*
X2988463Y-41073082D01*
X2690912Y-40949832D01*
X2375033Y-40887000D01*
X2052967Y-40887000D01*
X1737088Y-40949832D01*
X1439537Y-41073082D01*
X1171748Y-41252013D01*
X944013Y-41479748D01*
X765082Y-41747537D01*
X641832Y-42045088D01*
X579000Y-42360967D01*
X579000Y-42683033D01*
X641832Y-42998912D01*
X765082Y-43296463D01*
X944013Y-43564252D01*
X1171748Y-43791987D01*
X1328320Y-43896605D01*
X1140000Y-43878057D01*
X858692Y-43905764D01*
X588193Y-43987818D01*
X338900Y-44121068D01*
X120393Y-44300392D01*
X0Y-44447091D01*
X-120393Y-44300392D01*
X-338900Y-44121068D01*
X-588193Y-43987818D01*
X-858692Y-43905764D01*
X-1140000Y-43878057D01*
X-1412768Y-43904923D01*
X-1243748Y-43791987D01*
X-1016013Y-43564252D01*
X-837082Y-43296463D01*
X-713832Y-42998912D01*
X-651000Y-42683033D01*
X-651000Y-42360967D01*
X-713832Y-42045088D01*
X-837082Y-41747537D01*
X-1016013Y-41479748D01*
X-1243748Y-41252013D01*
X-1511537Y-41073082D01*
X-1809088Y-40949832D01*
X-2124967Y-40887000D01*
X-2447033Y-40887000D01*
X-2762912Y-40949832D01*
X-3060463Y-41073082D01*
X-3328252Y-41252013D01*
X-3555987Y-41479748D01*
X-3734918Y-41747537D01*
X-3858168Y-42045088D01*
X-3921000Y-42360967D01*
X-14002839Y-42360967D01*
X-14002839Y-37200000D01*
X-2808072Y-37200000D01*
X-2808072Y-39000000D01*
X-2795812Y-39124482D01*
X-2759502Y-39244180D01*
X-2700537Y-39354494D01*
X-2621185Y-39451185D01*
X-2524494Y-39530537D01*
X-2414180Y-39589502D01*
X-2294482Y-39625812D01*
X-2170000Y-39638072D01*
X-370000Y-39638072D01*
X-245518Y-39625812D01*
X-125820Y-39589502D01*
X-15506Y-39530537D01*
X81185Y-39451185D01*
X160537Y-39354494D01*
X219502Y-39244180D01*
X225056Y-39225873D01*
X291495Y-39292312D01*
X542905Y-39460299D01*
X822257Y-39576011D01*
X1118816Y-39635000D01*
X1421184Y-39635000D01*
X1717743Y-39576011D01*
X1997095Y-39460299D01*
X2248505Y-39292312D01*
X2462312Y-39078505D01*
X2630299Y-38827095D01*
X2746011Y-38547743D01*
X2805000Y-38251184D01*
X2805000Y-37948816D01*
X2746011Y-37652257D01*
X2630299Y-37372905D01*
X2462312Y-37121495D01*
X2248505Y-36907688D01*
X1997095Y-36739701D01*
X1717743Y-36623989D01*
X1421184Y-36565000D01*
X1118816Y-36565000D01*
X822257Y-36623989D01*
X542905Y-36739701D01*
X291495Y-36907688D01*
X225056Y-36974127D01*
X219502Y-36955820D01*
X160537Y-36845506D01*
X81185Y-36748815D01*
X-15506Y-36669463D01*
X-125820Y-36610498D01*
X-245518Y-36574188D01*
X-370000Y-36561928D01*
X-2170000Y-36561928D01*
X-2294482Y-36574188D01*
X-2414180Y-36610498D01*
X-2524494Y-36669463D01*
X-2621185Y-36748815D01*
X-2700537Y-36845506D01*
X-2759502Y-36955820D01*
X-2795812Y-37075518D01*
X-2808072Y-37200000D01*
X-14002839Y-37200000D01*
X-14002839Y-34743861D01*
X-13608500Y-34743861D01*
X-13608500Y-34947739D01*
X-13568726Y-35147698D01*
X-13490705Y-35336056D01*
X-13377437Y-35505574D01*
X-13233274Y-35649737D01*
X-13063756Y-35763005D01*
X-12875398Y-35841026D01*
X-12675439Y-35880800D01*
X-12471561Y-35880800D01*
X-12271602Y-35841026D01*
X-12083244Y-35763005D01*
X-11913726Y-35649737D01*
X-11769563Y-35505574D01*
X-11656295Y-35336056D01*
X-11578274Y-35147698D01*
X-11538500Y-34947739D01*
X-11538500Y-34743861D01*
X-11578274Y-34543902D01*
X-11656295Y-34355544D01*
X-11768804Y-34187161D01*
X-9211200Y-34187161D01*
X-9211200Y-34391039D01*
X-9171426Y-34590998D01*
X-9093405Y-34779356D01*
X-8980137Y-34948874D01*
X-8835974Y-35093037D01*
X-8666456Y-35206305D01*
X-8478098Y-35284326D01*
X-8278139Y-35324100D01*
X-8074261Y-35324100D01*
X-7874302Y-35284326D01*
X-7685944Y-35206305D01*
X-7516426Y-35093037D01*
X-7372263Y-34948874D01*
X-7258995Y-34779356D01*
X-7180974Y-34590998D01*
X-7141200Y-34391039D01*
X-7141200Y-34187161D01*
X-7180974Y-33987202D01*
X-7258995Y-33798844D01*
X-7360279Y-33647261D01*
X-3142600Y-33647261D01*
X-3142600Y-33851139D01*
X-3102826Y-34051098D01*
X-3024805Y-34239456D01*
X-2911537Y-34408974D01*
X-2767374Y-34553137D01*
X-2597856Y-34666405D01*
X-2409498Y-34744426D01*
X-2209539Y-34784200D01*
X-2005661Y-34784200D01*
X-1805702Y-34744426D01*
X-1617344Y-34666405D01*
X-1447826Y-34553137D01*
X-1303663Y-34408974D01*
X-1190395Y-34239456D01*
X-1112374Y-34051098D01*
X-1072600Y-33851139D01*
X-1072600Y-33770361D01*
X8564300Y-33770361D01*
X8564300Y-33974239D01*
X8604074Y-34174198D01*
X8682095Y-34362556D01*
X8795363Y-34532074D01*
X8939526Y-34676237D01*
X9109044Y-34789505D01*
X9297402Y-34867526D01*
X9497361Y-34907300D01*
X9701239Y-34907300D01*
X9901198Y-34867526D01*
X10089556Y-34789505D01*
X10259074Y-34676237D01*
X10403237Y-34532074D01*
X10516505Y-34362556D01*
X10594526Y-34174198D01*
X10634300Y-33974239D01*
X10634300Y-33770361D01*
X10594526Y-33570402D01*
X10516505Y-33382044D01*
X10403237Y-33212526D01*
X10259074Y-33068363D01*
X10089556Y-32955095D01*
X9901198Y-32877074D01*
X9701239Y-32837300D01*
X9497361Y-32837300D01*
X9297402Y-32877074D01*
X9109044Y-32955095D01*
X8939526Y-33068363D01*
X8795363Y-33212526D01*
X8682095Y-33382044D01*
X8604074Y-33570402D01*
X8564300Y-33770361D01*
X-1072600Y-33770361D01*
X-1072600Y-33647261D01*
X-1112374Y-33447302D01*
X-1190395Y-33258944D01*
X-1303663Y-33089426D01*
X-1447826Y-32945263D01*
X-1617344Y-32831995D01*
X-1805702Y-32753974D01*
X-2005661Y-32714200D01*
X-2209539Y-32714200D01*
X-2409498Y-32753974D01*
X-2597856Y-32831995D01*
X-2767374Y-32945263D01*
X-2911537Y-33089426D01*
X-3024805Y-33258944D01*
X-3102826Y-33447302D01*
X-3142600Y-33647261D01*
X-7360279Y-33647261D01*
X-7372263Y-33629326D01*
X-7516426Y-33485163D01*
X-7685944Y-33371895D01*
X-7874302Y-33293874D01*
X-8074261Y-33254100D01*
X-8278139Y-33254100D01*
X-8478098Y-33293874D01*
X-8666456Y-33371895D01*
X-8835974Y-33485163D01*
X-8980137Y-33629326D01*
X-9093405Y-33798844D01*
X-9171426Y-33987202D01*
X-9211200Y-34187161D01*
X-11768804Y-34187161D01*
X-11769563Y-34186026D01*
X-11913726Y-34041863D01*
X-12083244Y-33928595D01*
X-12271602Y-33850574D01*
X-12471561Y-33810800D01*
X-12675439Y-33810800D01*
X-12875398Y-33850574D01*
X-13063756Y-33928595D01*
X-13233274Y-34041863D01*
X-13377437Y-34186026D01*
X-13490705Y-34355544D01*
X-13568726Y-34543902D01*
X-13608500Y-34743861D01*
X-14002839Y-34743861D01*
X-14002839Y-29861964D01*
X-13925000Y-29861964D01*
X-13925000Y-31098037D01*
X-13904960Y-31301507D01*
X-13825764Y-31562581D01*
X-13697157Y-31803188D01*
X-13524080Y-32014081D01*
X-13313187Y-32187157D01*
X-13072580Y-32315764D01*
X-12811506Y-32394960D01*
X-12540000Y-32421701D01*
X-12268493Y-32394960D01*
X-12007419Y-32315764D01*
X-11766812Y-32187157D01*
X-11555919Y-32014081D01*
X-11382843Y-31803188D01*
X-11254236Y-31562581D01*
X-11175040Y-31301507D01*
X-11155000Y-31098037D01*
X-11155000Y-29909509D01*
X-5675000Y-29909509D01*
X-5675000Y-31050492D01*
X-5654236Y-31261309D01*
X-5572182Y-31531808D01*
X-5438932Y-31781101D01*
X-5259607Y-31999608D01*
X-5041100Y-32178932D01*
X-4791807Y-32312182D01*
X-4521308Y-32394236D01*
X-4240000Y-32421943D01*
X-3958691Y-32394236D01*
X-3688192Y-32312182D01*
X-3438899Y-32178932D01*
X-3220392Y-31999608D01*
X-3041068Y-31781101D01*
X-2907818Y-31531808D01*
X-2825764Y-31261309D01*
X-2805000Y-31050492D01*
X-2805000Y-30009509D01*
X-2575000Y-30009509D01*
X-2575000Y-30950492D01*
X-2554236Y-31161309D01*
X-2472182Y-31431808D01*
X-2338932Y-31681101D01*
X-2159607Y-31899608D01*
X-1941100Y-32078932D01*
X-1691807Y-32212182D01*
X-1421308Y-32294236D01*
X-1140000Y-32321943D01*
X-858691Y-32294236D01*
X-588192Y-32212182D01*
X-338899Y-32078932D01*
X-120392Y-31899608D01*
X0Y-31752909D01*
X120392Y-31899607D01*
X338899Y-32078932D01*
X588192Y-32212182D01*
X858691Y-32294236D01*
X1140000Y-32321943D01*
X1421308Y-32294236D01*
X1691807Y-32212182D01*
X1941100Y-32078932D01*
X2159607Y-31899608D01*
X2338932Y-31681101D01*
X2472182Y-31431808D01*
X2554236Y-31161309D01*
X2575000Y-30950492D01*
X2575000Y-30009509D01*
X2565151Y-29909508D01*
X2805000Y-29909508D01*
X2805000Y-31050491D01*
X2825764Y-31261308D01*
X2907818Y-31531807D01*
X3041068Y-31781100D01*
X3220392Y-31999607D01*
X3438899Y-32178932D01*
X3688192Y-32312182D01*
X3958691Y-32394236D01*
X4240000Y-32421943D01*
X4521308Y-32394236D01*
X4791807Y-32312182D01*
X5041100Y-32178932D01*
X5259607Y-31999608D01*
X5438932Y-31781101D01*
X5572182Y-31531808D01*
X5654236Y-31261309D01*
X5675000Y-31050492D01*
X5675000Y-29909508D01*
X5670318Y-29861963D01*
X11155000Y-29861963D01*
X11155000Y-31098036D01*
X11175040Y-31301506D01*
X11254236Y-31562580D01*
X11382843Y-31803187D01*
X11555919Y-32014080D01*
X11766812Y-32187157D01*
X12007419Y-32315764D01*
X12268493Y-32394960D01*
X12540000Y-32421701D01*
X12811506Y-32394960D01*
X13072580Y-32315764D01*
X13313187Y-32187157D01*
X13524080Y-32014081D01*
X13697157Y-31803188D01*
X13825764Y-31562581D01*
X13904960Y-31301507D01*
X13925000Y-31098037D01*
X13925000Y-29861963D01*
X13904960Y-29658493D01*
X13825764Y-29397419D01*
X13697157Y-29156812D01*
X13524081Y-28945919D01*
X13313188Y-28772843D01*
X13072581Y-28644236D01*
X12811507Y-28565040D01*
X12540000Y-28538299D01*
X12268494Y-28565040D01*
X12007420Y-28644236D01*
X11766813Y-28772843D01*
X11555920Y-28945919D01*
X11382843Y-29156812D01*
X11254236Y-29397419D01*
X11175040Y-29658493D01*
X11155000Y-29861963D01*
X5670318Y-29861963D01*
X5654236Y-29698691D01*
X5572182Y-29428192D01*
X5438932Y-29178899D01*
X5259608Y-28960392D01*
X5041101Y-28781068D01*
X4791808Y-28647818D01*
X4521309Y-28565764D01*
X4240000Y-28538057D01*
X3958692Y-28565764D01*
X3688193Y-28647818D01*
X3438900Y-28781068D01*
X3220393Y-28960392D01*
X3041068Y-29178899D01*
X2907818Y-29428192D01*
X2825764Y-29698691D01*
X2805000Y-29909508D01*
X2565151Y-29909508D01*
X2554236Y-29798691D01*
X2472182Y-29528192D01*
X2338932Y-29278899D01*
X2159608Y-29060392D01*
X1941101Y-28881068D01*
X1691808Y-28747818D01*
X1421309Y-28665764D01*
X1140000Y-28638057D01*
X858692Y-28665764D01*
X588193Y-28747818D01*
X338900Y-28881068D01*
X120393Y-29060392D01*
X0Y-29207091D01*
X-120393Y-29060392D01*
X-338900Y-28881068D01*
X-588193Y-28747818D01*
X-858692Y-28665764D01*
X-1140000Y-28638057D01*
X-1421309Y-28665764D01*
X-1691808Y-28747818D01*
X-1941101Y-28881068D01*
X-2159608Y-29060393D01*
X-2338932Y-29278900D01*
X-2472182Y-29528193D01*
X-2554236Y-29798692D01*
X-2575000Y-30009509D01*
X-2805000Y-30009509D01*
X-2805000Y-29909508D01*
X-2825764Y-29698691D01*
X-2907818Y-29428192D01*
X-3041068Y-29178899D01*
X-3220393Y-28960392D01*
X-3438900Y-28781068D01*
X-3688193Y-28647818D01*
X-3958692Y-28565764D01*
X-4240000Y-28538057D01*
X-4521309Y-28565764D01*
X-4791808Y-28647818D01*
X-5041101Y-28781068D01*
X-5259608Y-28960393D01*
X-5438932Y-29178900D01*
X-5572182Y-29428193D01*
X-5654236Y-29698692D01*
X-5675000Y-29909509D01*
X-11155000Y-29909509D01*
X-11155000Y-29861963D01*
X-11175040Y-29658493D01*
X-11254236Y-29397419D01*
X-11382843Y-29156812D01*
X-11555920Y-28945919D01*
X-11766813Y-28772843D01*
X-12007420Y-28644236D01*
X-12268494Y-28565040D01*
X-12540000Y-28538299D01*
X-12811507Y-28565040D01*
X-13072581Y-28644236D01*
X-13313188Y-28772843D01*
X-13524081Y-28945920D01*
X-13697157Y-29156813D01*
X-13825764Y-29397420D01*
X-13904960Y-29658494D01*
X-13925000Y-29861964D01*
X-14002839Y-29861964D01*
X-14002839Y-27011661D01*
X-2020400Y-27011661D01*
X-2020400Y-27215539D01*
X-1980626Y-27415498D01*
X-1902605Y-27603856D01*
X-1789337Y-27773374D01*
X-1645174Y-27917537D01*
X-1475656Y-28030805D01*
X-1287298Y-28108826D01*
X-1087339Y-28148600D01*
X-883461Y-28148600D01*
X-683502Y-28108826D01*
X-495144Y-28030805D01*
X-325626Y-27917537D01*
X-181463Y-27773374D01*
X-68195Y-27603856D01*
X9826Y-27415498D01*
X49600Y-27215539D01*
X49600Y-27011661D01*
X9826Y-26811702D01*
X-68195Y-26623344D01*
X-181463Y-26453826D01*
X-325626Y-26309663D01*
X-495144Y-26196395D01*
X-683502Y-26118374D01*
X-883461Y-26078600D01*
X-1087339Y-26078600D01*
X-1287298Y-26118374D01*
X-1475656Y-26196395D01*
X-1645174Y-26309663D01*
X-1789337Y-26453826D01*
X-1902605Y-26623344D01*
X-1980626Y-26811702D01*
X-2020400Y-27011661D01*
X-14002839Y-27011661D01*
X-14002839Y-26054761D01*
X1697500Y-26054761D01*
X1697500Y-26258639D01*
X1737274Y-26458598D01*
X1815295Y-26646956D01*
X1928563Y-26816474D01*
X2072726Y-26960637D01*
X2242244Y-27073905D01*
X2430602Y-27151926D01*
X2630561Y-27191700D01*
X2834439Y-27191700D01*
X3034398Y-27151926D01*
X3222756Y-27073905D01*
X3392274Y-26960637D01*
X3536437Y-26816474D01*
X3649705Y-26646956D01*
X3727726Y-26458598D01*
X3767500Y-26258639D01*
X3767500Y-26054761D01*
X3727726Y-25854802D01*
X3649705Y-25666444D01*
X3536437Y-25496926D01*
X3392274Y-25352763D01*
X3222756Y-25239495D01*
X3034398Y-25161474D01*
X2834439Y-25121700D01*
X2630561Y-25121700D01*
X2430602Y-25161474D01*
X2242244Y-25239495D01*
X2072726Y-25352763D01*
X1928563Y-25496926D01*
X1815295Y-25666444D01*
X1737274Y-25854802D01*
X1697500Y-26054761D01*
X-14002839Y-26054761D01*
X-14002839Y-24764561D01*
X11690500Y-24764561D01*
X11690500Y-24968439D01*
X11730274Y-25168398D01*
X11808295Y-25356756D01*
X11921563Y-25526274D01*
X12065726Y-25670437D01*
X12235244Y-25783705D01*
X12423602Y-25861726D01*
X12623561Y-25901500D01*
X12827439Y-25901500D01*
X13027398Y-25861726D01*
X13215756Y-25783705D01*
X13385274Y-25670437D01*
X13529437Y-25526274D01*
X13642705Y-25356756D01*
X13720726Y-25168398D01*
X13760500Y-24968439D01*
X13760500Y-24764561D01*
X13720726Y-24564602D01*
X13642705Y-24376244D01*
X13529437Y-24206726D01*
X13385274Y-24062563D01*
X13215756Y-23949295D01*
X13027398Y-23871274D01*
X12827439Y-23831500D01*
X12623561Y-23831500D01*
X12423602Y-23871274D01*
X12235244Y-23949295D01*
X12065726Y-24062563D01*
X11921563Y-24206726D01*
X11808295Y-24376244D01*
X11730274Y-24564602D01*
X11690500Y-24764561D01*
X-14002839Y-24764561D01*
X-14002839Y-22073761D01*
X-13760500Y-22073761D01*
X-13760500Y-22277639D01*
X-13720726Y-22477598D01*
X-13642705Y-22665956D01*
X-13529437Y-22835474D01*
X-13385274Y-22979637D01*
X-13215756Y-23092905D01*
X-13027398Y-23170926D01*
X-12827439Y-23210700D01*
X-12623561Y-23210700D01*
X-12423602Y-23170926D01*
X-12235244Y-23092905D01*
X-12065726Y-22979637D01*
X-11921563Y-22835474D01*
X-11808295Y-22665956D01*
X-11730274Y-22477598D01*
X-11690500Y-22277639D01*
X-11690500Y-22073761D01*
X-11730274Y-21873802D01*
X-11808295Y-21685444D01*
X-11921563Y-21515926D01*
X-12065726Y-21371763D01*
X-12235244Y-21258495D01*
X-12423602Y-21180474D01*
X-12623561Y-21140700D01*
X-12827439Y-21140700D01*
X-13027398Y-21180474D01*
X-13215756Y-21258495D01*
X-13385274Y-21371763D01*
X-13529437Y-21515926D01*
X-13642705Y-21685444D01*
X-13720726Y-21873802D01*
X-13760500Y-22073761D01*
X-14002839Y-22073761D01*
X-14002839Y-18820461D01*
X-9919900Y-18820461D01*
X-9919900Y-19024339D01*
X-9880126Y-19224298D01*
X-9802105Y-19412656D01*
X-9688837Y-19582174D01*
X-9544674Y-19726337D01*
X-9375156Y-19839605D01*
X-9186798Y-19917626D01*
X-8986839Y-19957400D01*
X-8782961Y-19957400D01*
X-8583002Y-19917626D01*
X-8394644Y-19839605D01*
X-8225126Y-19726337D01*
X-8080963Y-19582174D01*
X-7967695Y-19412656D01*
X-7889674Y-19224298D01*
X-7849900Y-19024339D01*
X-7849900Y-18820461D01*
X-7889674Y-18620502D01*
X-7967695Y-18432144D01*
X-8080963Y-18262626D01*
X-8225126Y-18118463D01*
X-8394644Y-18005195D01*
X-8583002Y-17927174D01*
X-8782961Y-17887400D01*
X-8986839Y-17887400D01*
X-9186798Y-17927174D01*
X-9375156Y-18005195D01*
X-9544674Y-18118463D01*
X-9688837Y-18262626D01*
X-9802105Y-18432144D01*
X-9880126Y-18620502D01*
X-9919900Y-18820461D01*
X-14002839Y-18820461D01*
X-14002839Y-14621964D01*
X-13925000Y-14621964D01*
X-13925000Y-15858037D01*
X-13904960Y-16061507D01*
X-13825764Y-16322581D01*
X-13697157Y-16563188D01*
X-13524080Y-16774081D01*
X-13313187Y-16947157D01*
X-13072580Y-17075764D01*
X-12811506Y-17154960D01*
X-12540000Y-17181701D01*
X-12268493Y-17154960D01*
X-12007419Y-17075764D01*
X-11766812Y-16947157D01*
X-11555919Y-16774081D01*
X-11382843Y-16563188D01*
X-11254236Y-16322581D01*
X-11175040Y-16061507D01*
X-11155000Y-15858037D01*
X-11155000Y-14669509D01*
X-5675000Y-14669509D01*
X-5675000Y-15810492D01*
X-5654236Y-16021309D01*
X-5572182Y-16291808D01*
X-5438932Y-16541101D01*
X-5259607Y-16759608D01*
X-5041100Y-16938932D01*
X-4791807Y-17072182D01*
X-4521308Y-17154236D01*
X-4240000Y-17181943D01*
X-3958691Y-17154236D01*
X-3688192Y-17072182D01*
X-3438899Y-16938932D01*
X-3220392Y-16759608D01*
X-3041068Y-16541101D01*
X-2907818Y-16291808D01*
X-2825764Y-16021309D01*
X-2805000Y-15810492D01*
X-2805000Y-14769509D01*
X-2575000Y-14769509D01*
X-2575000Y-15710492D01*
X-2554236Y-15921309D01*
X-2472182Y-16191808D01*
X-2338932Y-16441101D01*
X-2159607Y-16659608D01*
X-1941100Y-16838932D01*
X-1691807Y-16972182D01*
X-1421308Y-17054236D01*
X-1140000Y-17081943D01*
X-858691Y-17054236D01*
X-588192Y-16972182D01*
X-338899Y-16838932D01*
X-120392Y-16659608D01*
X0Y-16512909D01*
X120392Y-16659607D01*
X338899Y-16838932D01*
X588192Y-16972182D01*
X858691Y-17054236D01*
X1140000Y-17081943D01*
X1421308Y-17054236D01*
X1691807Y-16972182D01*
X1941100Y-16838932D01*
X2159607Y-16659608D01*
X2338932Y-16441101D01*
X2472182Y-16191808D01*
X2554236Y-15921309D01*
X2575000Y-15710492D01*
X2575000Y-14769509D01*
X2565151Y-14669508D01*
X2805000Y-14669508D01*
X2805000Y-15810491D01*
X2825764Y-16021308D01*
X2907818Y-16291807D01*
X3041068Y-16541100D01*
X3220392Y-16759607D01*
X3438899Y-16938932D01*
X3688192Y-17072182D01*
X3958691Y-17154236D01*
X4240000Y-17181943D01*
X4521308Y-17154236D01*
X4791807Y-17072182D01*
X5041100Y-16938932D01*
X5259607Y-16759608D01*
X5438932Y-16541101D01*
X5572182Y-16291808D01*
X5654236Y-16021309D01*
X5675000Y-15810492D01*
X5675000Y-14669508D01*
X5654236Y-14458691D01*
X5572182Y-14188192D01*
X5438932Y-13938899D01*
X5259608Y-13720392D01*
X5041101Y-13541068D01*
X4791808Y-13407818D01*
X4521309Y-13325764D01*
X4240000Y-13298057D01*
X3958692Y-13325764D01*
X3688193Y-13407818D01*
X3438900Y-13541068D01*
X3220393Y-13720392D01*
X3041068Y-13938899D01*
X2907818Y-14188192D01*
X2825764Y-14458691D01*
X2805000Y-14669508D01*
X2565151Y-14669508D01*
X2554236Y-14558691D01*
X2472182Y-14288192D01*
X2345648Y-14051463D01*
X2472537Y-13924574D01*
X2585805Y-13755056D01*
X2663826Y-13566698D01*
X2703600Y-13366739D01*
X2703600Y-13162861D01*
X2663826Y-12962902D01*
X2585805Y-12774544D01*
X2472537Y-12605026D01*
X2328374Y-12460863D01*
X2158856Y-12347595D01*
X1970498Y-12269574D01*
X1770539Y-12229800D01*
X1566661Y-12229800D01*
X1366702Y-12269574D01*
X1178344Y-12347595D01*
X1008826Y-12460863D01*
X864663Y-12605026D01*
X751395Y-12774544D01*
X673374Y-12962902D01*
X633600Y-13162861D01*
X633600Y-13366739D01*
X657481Y-13486800D01*
X588193Y-13507818D01*
X338900Y-13641068D01*
X120393Y-13820392D01*
X0Y-13967091D01*
X-120393Y-13820392D01*
X-338900Y-13641068D01*
X-588193Y-13507818D01*
X-858692Y-13425764D01*
X-1140000Y-13398057D01*
X-1421309Y-13425764D01*
X-1691808Y-13507818D01*
X-1941101Y-13641068D01*
X-2159608Y-13820393D01*
X-2338932Y-14038900D01*
X-2472182Y-14288193D01*
X-2554236Y-14558692D01*
X-2575000Y-14769509D01*
X-2805000Y-14769509D01*
X-2805000Y-14669508D01*
X-2825764Y-14458691D01*
X-2907818Y-14188192D01*
X-3041068Y-13938899D01*
X-3220393Y-13720392D01*
X-3438900Y-13541068D01*
X-3688193Y-13407818D01*
X-3958692Y-13325764D01*
X-4240000Y-13298057D01*
X-4521309Y-13325764D01*
X-4791808Y-13407818D01*
X-5041101Y-13541068D01*
X-5259608Y-13720393D01*
X-5438932Y-13938900D01*
X-5572182Y-14188193D01*
X-5654236Y-14458692D01*
X-5675000Y-14669509D01*
X-11155000Y-14669509D01*
X-11155000Y-14621963D01*
X-11175040Y-14418493D01*
X-11254236Y-14157419D01*
X-11382843Y-13916812D01*
X-11555920Y-13705919D01*
X-11766813Y-13532843D01*
X-12007420Y-13404236D01*
X-12268494Y-13325040D01*
X-12540000Y-13298299D01*
X-12811507Y-13325040D01*
X-13072581Y-13404236D01*
X-13313188Y-13532843D01*
X-13524081Y-13705920D01*
X-13697157Y-13916813D01*
X-13825764Y-14157420D01*
X-13904960Y-14418494D01*
X-13925000Y-14621964D01*
X-14002839Y-14621964D01*
X-14002839Y-11095461D01*
X-9885000Y-11095461D01*
X-9885000Y-11299339D01*
X-9845226Y-11499298D01*
X-9767205Y-11687656D01*
X-9653937Y-11857174D01*
X-9509774Y-12001337D01*
X-9340256Y-12114605D01*
X-9151898Y-12192626D01*
X-8951939Y-12232400D01*
X-8748061Y-12232400D01*
X-8548102Y-12192626D01*
X-8359744Y-12114605D01*
X-8190226Y-12001337D01*
X-8046063Y-11857174D01*
X-7932795Y-11687656D01*
X-7854774Y-11499298D01*
X-7815000Y-11299339D01*
X-7815000Y-11095461D01*
X-7854774Y-10895502D01*
X-7932795Y-10707144D01*
X-8046063Y-10537626D01*
X-8190226Y-10393463D01*
X-8359744Y-10280195D01*
X-8548102Y-10202174D01*
X-8748061Y-10162400D01*
X-8951939Y-10162400D01*
X-9151898Y-10202174D01*
X-9340256Y-10280195D01*
X-9509774Y-10393463D01*
X-9653937Y-10537626D01*
X-9767205Y-10707144D01*
X-9845226Y-10895502D01*
X-9885000Y-11095461D01*
X-14002839Y-11095461D01*
X-14002839Y-7348826D01*
X-11655000Y-7348826D01*
X-11655000Y-7651194D01*
X-11596011Y-7947753D01*
X-11480299Y-8227105D01*
X-11312312Y-8478515D01*
X-11098505Y-8692322D01*
X-10847095Y-8860309D01*
X-10567743Y-8976021D01*
X-10271184Y-9035010D01*
X-9968816Y-9035010D01*
X-9672257Y-8976021D01*
X-9392905Y-8860309D01*
X-9141495Y-8692322D01*
X-8927688Y-8478515D01*
X-8850000Y-8362247D01*
X-8772312Y-8478515D01*
X-8558505Y-8692322D01*
X-8307095Y-8860309D01*
X-8027743Y-8976021D01*
X-7731184Y-9035010D01*
X-7428816Y-9035010D01*
X-7132257Y-8976021D01*
X-6852905Y-8860309D01*
X-6601495Y-8692322D01*
X-6473263Y-8564090D01*
X-6004475Y-8564090D01*
X-5920792Y-8818271D01*
X-5648225Y-8949168D01*
X-5355358Y-9024375D01*
X-5053447Y-9041001D01*
X-4754093Y-8998407D01*
X-4468801Y-8898232D01*
X-4319208Y-8818271D01*
X-4243780Y-8589161D01*
X-1822500Y-8589161D01*
X-1822500Y-8793039D01*
X-1782726Y-8992998D01*
X-1704705Y-9181356D01*
X-1591437Y-9350874D01*
X-1447274Y-9495037D01*
X-1277756Y-9608305D01*
X-1089398Y-9686326D01*
X-889439Y-9726100D01*
X-685561Y-9726100D01*
X-485602Y-9686326D01*
X-297244Y-9608305D01*
X-127726Y-9495037D01*
X16437Y-9350874D01*
X129705Y-9181356D01*
X207726Y-8992998D01*
X247500Y-8793039D01*
X247500Y-8589161D01*
X207726Y-8389202D01*
X129705Y-8200844D01*
X16437Y-8031326D01*
X-127726Y-7887163D01*
X-297244Y-7773895D01*
X-485602Y-7695874D01*
X-685561Y-7656100D01*
X-889439Y-7656100D01*
X-1089398Y-7695874D01*
X-1277756Y-7773895D01*
X-1447274Y-7887163D01*
X-1591437Y-8031326D01*
X-1704705Y-8200844D01*
X-1782726Y-8389202D01*
X-1822500Y-8589161D01*
X-4243780Y-8589161D01*
X-4235525Y-8564090D01*
X-5120000Y-7679615D01*
X-6004475Y-8564090D01*
X-6473263Y-8564090D01*
X-6387688Y-8478515D01*
X-6299474Y-8346494D01*
X-6184080Y-8384485D01*
X-5299605Y-7500010D01*
X-4940395Y-7500010D01*
X-4055920Y-8384485D01*
X-3801739Y-8300802D01*
X-3670842Y-8028235D01*
X-3595635Y-7735368D01*
X-3579009Y-7433457D01*
X-3621603Y-7134103D01*
X-3721778Y-6848811D01*
X-3801739Y-6699218D01*
X-4055920Y-6615535D01*
X-4940395Y-7500010D01*
X-5299605Y-7500010D01*
X-6184080Y-6615535D01*
X-6299474Y-6653526D01*
X-6387688Y-6521505D01*
X-6473263Y-6435930D01*
X-6004475Y-6435930D01*
X-5120000Y-7320405D01*
X-4235525Y-6435930D01*
X-4319208Y-6181749D01*
X-4591775Y-6050852D01*
X-4884642Y-5975645D01*
X-5186553Y-5959019D01*
X-5485907Y-6001613D01*
X-5771199Y-6101788D01*
X-5920792Y-6181749D01*
X-6004475Y-6435930D01*
X-6473263Y-6435930D01*
X-6601495Y-6307698D01*
X-6852905Y-6139711D01*
X-7132257Y-6023999D01*
X-7428816Y-5965010D01*
X-7731184Y-5965010D01*
X-8027743Y-6023999D01*
X-8307095Y-6139711D01*
X-8558505Y-6307698D01*
X-8772312Y-6521505D01*
X-8850000Y-6637773D01*
X-8927688Y-6521505D01*
X-9141495Y-6307698D01*
X-9392905Y-6139711D01*
X-9672257Y-6023999D01*
X-9968816Y-5965010D01*
X-10271184Y-5965010D01*
X-10567743Y-6023999D01*
X-10847095Y-6139711D01*
X-11098505Y-6307698D01*
X-11312312Y-6521505D01*
X-11480299Y-6772915D01*
X-11596011Y-7052267D01*
X-11655000Y-7348826D01*
X-14002839Y-7348826D01*
X-14002839Y-4072861D01*
X-2315100Y-4072861D01*
X-2315100Y-4276739D01*
X-2275326Y-4476698D01*
X-2197305Y-4665056D01*
X-2084037Y-4834574D01*
X-1939874Y-4978737D01*
X-1770356Y-5092005D01*
X-1581998Y-5170026D01*
X-1382039Y-5209800D01*
X-1178161Y-5209800D01*
X-978202Y-5170026D01*
X-789844Y-5092005D01*
X-620326Y-4978737D01*
X-476163Y-4834574D01*
X-362895Y-4665056D01*
X-284874Y-4476698D01*
X-245100Y-4276739D01*
X-245100Y-4072861D01*
X-284874Y-3872902D01*
X-362895Y-3684544D01*
X-476163Y-3515026D01*
X-620326Y-3370863D01*
X-789844Y-3257595D01*
X-978202Y-3179574D01*
X-1178161Y-3139800D01*
X-1382039Y-3139800D01*
X-1581998Y-3179574D01*
X-1770356Y-3257595D01*
X-1939874Y-3370863D01*
X-2084037Y-3515026D01*
X-2197305Y-3684544D01*
X-2275326Y-3872902D01*
X-2315100Y-4072861D01*
X-14002839Y-4072861D01*
X-14002839Y-1273740D01*
X-13788578Y-1449579D01*
X-13487168Y-1610686D01*
X-13160119Y-1709895D01*
X-12905225Y-1735000D01*
X-11934775Y-1735000D01*
X-11679881Y-1709895D01*
X-11352832Y-1610686D01*
X-11336883Y-1602161D01*
X-10862700Y-1602161D01*
X-10862700Y-1806039D01*
X-10822926Y-2005998D01*
X-10744905Y-2194356D01*
X-10631637Y-2363874D01*
X-10487474Y-2508037D01*
X-10317956Y-2621305D01*
X-10129598Y-2699326D01*
X-9929639Y-2739100D01*
X-9725761Y-2739100D01*
X-9525802Y-2699326D01*
X-9463601Y-2673561D01*
X3722600Y-2673561D01*
X3722600Y-2877439D01*
X3762374Y-3077398D01*
X3840395Y-3265756D01*
X3953663Y-3435274D01*
X4097826Y-3579437D01*
X4267344Y-3692705D01*
X4455702Y-3770726D01*
X4655661Y-3810500D01*
X4859539Y-3810500D01*
X5059498Y-3770726D01*
X5247856Y-3692705D01*
X5417374Y-3579437D01*
X5561537Y-3435274D01*
X5674805Y-3265756D01*
X5752826Y-3077398D01*
X5792600Y-2877439D01*
X5792600Y-2673561D01*
X5752826Y-2473602D01*
X5674805Y-2285244D01*
X5561537Y-2115726D01*
X5417374Y-1971563D01*
X5247856Y-1858295D01*
X5059498Y-1780274D01*
X4859539Y-1740500D01*
X4655661Y-1740500D01*
X4455702Y-1780274D01*
X4267344Y-1858295D01*
X4097826Y-1971563D01*
X3953663Y-2115726D01*
X3840395Y-2285244D01*
X3762374Y-2473602D01*
X3722600Y-2673561D01*
X-9463601Y-2673561D01*
X-9337444Y-2621305D01*
X-9167926Y-2508037D01*
X-9023763Y-2363874D01*
X-8910495Y-2194356D01*
X-8832474Y-2005998D01*
X-8792700Y-1806039D01*
X-8792700Y-1602161D01*
X-8832474Y-1402202D01*
X-8910495Y-1213844D01*
X-9023763Y-1044326D01*
X-9167926Y-900163D01*
X-9337444Y-786895D01*
X-9525802Y-708874D01*
X-9725761Y-669100D01*
X-9929639Y-669100D01*
X-10129598Y-708874D01*
X-10317956Y-786895D01*
X-10487474Y-900163D01*
X-10631637Y-1044326D01*
X-10744905Y-1213844D01*
X-10822926Y-1402202D01*
X-10862700Y-1602161D01*
X-11336883Y-1602161D01*
X-11051422Y-1449579D01*
X-10787234Y-1232766D01*
X-10570421Y-968578D01*
X-10409314Y-667168D01*
X-10310105Y-340119D01*
X-10276606Y0D01*
X-4963394Y0D01*
X-4929895Y-340119D01*
X-4830686Y-667168D01*
X-4669579Y-968578D01*
X-4452766Y-1232766D01*
X-4188578Y-1449579D01*
X-3887168Y-1610686D01*
X-3560119Y-1709895D01*
X-3305225Y-1735000D01*
X-2334775Y-1735000D01*
X-2079881Y-1709895D01*
X-1752832Y-1610686D01*
X-1451422Y-1449579D01*
X-1187234Y-1232766D01*
X-970421Y-968578D01*
X-809314Y-667168D01*
X-710105Y-340119D01*
X-676606Y0D01*
X676606Y0D01*
X710105Y-340119D01*
X809314Y-667168D01*
X970421Y-968578D01*
X1187234Y-1232766D01*
X1451422Y-1449579D01*
X1752832Y-1610686D01*
X2079881Y-1709895D01*
X2334775Y-1735000D01*
X3305225Y-1735000D01*
X3560119Y-1709895D01*
X3887168Y-1610686D01*
X4188578Y-1449579D01*
X4452766Y-1232766D01*
X4669579Y-968578D01*
X4830686Y-667168D01*
X4853287Y-592661D01*
X5924500Y-592661D01*
X5924500Y-796539D01*
X5964274Y-996498D01*
X6042295Y-1184856D01*
X6155563Y-1354374D01*
X6299726Y-1498537D01*
X6469244Y-1611805D01*
X6657602Y-1689826D01*
X6857561Y-1729600D01*
X7061439Y-1729600D01*
X7261398Y-1689826D01*
X7449756Y-1611805D01*
X7619274Y-1498537D01*
X7763437Y-1354374D01*
X7876705Y-1184856D01*
X7954726Y-996498D01*
X7994500Y-796539D01*
X7994500Y-592661D01*
X7954726Y-392702D01*
X7876705Y-204344D01*
X7763437Y-34826D01*
X7619274Y109337D01*
X7449756Y222605D01*
X7261398Y300626D01*
X7061439Y340400D01*
X6857561Y340400D01*
X6657602Y300626D01*
X6469244Y222605D01*
X6299726Y109337D01*
X6155563Y-34826D01*
X6042295Y-204344D01*
X5964274Y-392702D01*
X5924500Y-592661D01*
X4853287Y-592661D01*
X4929895Y-340119D01*
X4963394Y0D01*
X4929895Y340119D01*
X4830686Y667168D01*
X4669579Y968578D01*
X4452766Y1232766D01*
X4188578Y1449579D01*
X3887168Y1610686D01*
X3560119Y1709895D01*
X3305225Y1735000D01*
X2334775Y1735000D01*
X2079881Y1709895D01*
X1752832Y1610686D01*
X1451422Y1449579D01*
X1187234Y1232766D01*
X970421Y968578D01*
X809314Y667168D01*
X710105Y340119D01*
X676606Y0D01*
X-676606Y0D01*
X-710105Y340119D01*
X-809314Y667168D01*
X-970421Y968578D01*
X-1187234Y1232766D01*
X-1451422Y1449579D01*
X-1752832Y1610686D01*
X-2079881Y1709895D01*
X-2334775Y1735000D01*
X-3305225Y1735000D01*
X-3560119Y1709895D01*
X-3887168Y1610686D01*
X-4188578Y1449579D01*
X-4452766Y1232766D01*
X-4669579Y968578D01*
X-4830686Y667168D01*
X-4929895Y340119D01*
X-4963394Y0D01*
X-10276606Y0D01*
X-10310105Y340119D01*
X-10409314Y667168D01*
X-10570421Y968578D01*
X-10787234Y1232766D01*
X-11051422Y1449579D01*
X-11352832Y1610686D01*
X-11679881Y1709895D01*
X-11934775Y1735000D01*
X-12905225Y1735000D01*
X-13160119Y1709895D01*
X-13487168Y1610686D01*
X-13788578Y1449579D01*
X-14002839Y1273740D01*
X-14002839Y4207039D01*
X-10864400Y4207039D01*
X-10864400Y4003161D01*
X-10824626Y3803202D01*
X-10746605Y3614844D01*
X-10633337Y3445326D01*
X-10489174Y3301163D01*
X-10319656Y3187895D01*
X-10131298Y3109874D01*
X-9931339Y3070100D01*
X-9727461Y3070100D01*
X-9527502Y3109874D01*
X-9339144Y3187895D01*
X-9169626Y3301163D01*
X-9025463Y3445326D01*
X-8912195Y3614844D01*
X-8834174Y3803202D01*
X-8812546Y3911939D01*
X-5861000Y3911939D01*
X-5861000Y3708061D01*
X-5821226Y3508102D01*
X-5743205Y3319744D01*
X-5629937Y3150226D01*
X-5485774Y3006063D01*
X-5316256Y2892795D01*
X-5127898Y2814774D01*
X-4927939Y2775000D01*
X-4724061Y2775000D01*
X-4524102Y2814774D01*
X-4335744Y2892795D01*
X-4166226Y3006063D01*
X-4022063Y3150226D01*
X-3908795Y3319744D01*
X-3830774Y3508102D01*
X-3791000Y3708061D01*
X-3791000Y3911939D01*
X-3830774Y4111898D01*
X-3908795Y4300256D01*
X-4022063Y4469774D01*
X-4166226Y4613937D01*
X-4335744Y4727205D01*
X-4524102Y4805226D01*
X-4724061Y4845000D01*
X-4927939Y4845000D01*
X-5127898Y4805226D01*
X-5316256Y4727205D01*
X-5485774Y4613937D01*
X-5629937Y4469774D01*
X-5743205Y4300256D01*
X-5821226Y4111898D01*
X-5861000Y3911939D01*
X-8812546Y3911939D01*
X-8794400Y4003161D01*
X-8794400Y4207039D01*
X-8834174Y4406998D01*
X-8912195Y4595356D01*
X-9025463Y4764874D01*
X-9169626Y4909037D01*
X-9339144Y5022305D01*
X-9527502Y5100326D01*
X-9727461Y5140100D01*
X-9931339Y5140100D01*
X-10131298Y5100326D01*
X-10319656Y5022305D01*
X-10489174Y4909037D01*
X-10633337Y4764874D01*
X-10746605Y4595356D01*
X-10824626Y4406998D01*
X-10864400Y4207039D01*
X-14002839Y4207039D01*
X-14002839Y6369302D01*
X-13952798Y6348574D01*
X-13752839Y6308800D01*
X-13548961Y6308800D01*
X-13349002Y6348574D01*
X-13160644Y6426595D01*
X-12991126Y6539863D01*
X-12846963Y6684026D01*
X-12733695Y6853544D01*
X-12655674Y7041902D01*
X-12615900Y7241861D01*
X-12615900Y7445739D01*
X-12655674Y7645698D01*
X-12733695Y7834056D01*
X-12846963Y8003574D01*
X-12991126Y8147737D01*
X-13160644Y8261005D01*
X-13349002Y8339026D01*
X-13548961Y8378800D01*
X-13752839Y8378800D01*
X-13952798Y8339026D01*
X-14002839Y8318298D01*
X-14002839Y9025639D01*
X-3518600Y9025639D01*
X-3518600Y8821761D01*
X-3478826Y8621802D01*
X-3400805Y8433444D01*
X-3287537Y8263926D01*
X-3143374Y8119763D01*
X-2973856Y8006495D01*
X-2785498Y7928474D01*
X-2585539Y7888700D01*
X-2381661Y7888700D01*
X-2181702Y7928474D01*
X-1993344Y8006495D01*
X-1823826Y8119763D01*
X-1802195Y8141394D01*
X-1783798Y8133774D01*
X-1583839Y8094000D01*
X-1416000Y8094000D01*
X-1416000Y7899061D01*
X-1376226Y7699102D01*
X-1298205Y7510744D01*
X-1201490Y7366000D01*
X-1298205Y7221256D01*
X-1376226Y7032898D01*
X-1416000Y6832939D01*
X-1416000Y6629061D01*
X-1376226Y6429102D01*
X-1298205Y6240744D01*
X-1184937Y6071226D01*
X-1040774Y5927063D01*
X-871256Y5813795D01*
X-682898Y5735774D01*
X-482939Y5696000D01*
X-279061Y5696000D01*
X-79102Y5735774D01*
X109256Y5813795D01*
X254000Y5910510D01*
X398744Y5813795D01*
X587102Y5735774D01*
X787061Y5696000D01*
X959888Y5696000D01*
X948100Y5636739D01*
X948100Y5432861D01*
X987874Y5232902D01*
X1065895Y5044544D01*
X1179163Y4875026D01*
X1323326Y4730863D01*
X1349327Y4713490D01*
X1256502Y4695026D01*
X1142249Y4647701D01*
X1048256Y4710505D01*
X859898Y4788526D01*
X659939Y4828300D01*
X456061Y4828300D01*
X256102Y4788526D01*
X67744Y4710505D01*
X-101774Y4597237D01*
X-245937Y4453074D01*
X-359205Y4283556D01*
X-437226Y4095198D01*
X-477000Y3895239D01*
X-477000Y3691361D01*
X-437226Y3491402D01*
X-359205Y3303044D01*
X-245937Y3133526D01*
X-101774Y2989363D01*
X67744Y2876095D01*
X256102Y2798074D01*
X456061Y2758300D01*
X659939Y2758300D01*
X859898Y2798074D01*
X974151Y2845399D01*
X1068144Y2782595D01*
X1256502Y2704574D01*
X1456461Y2664800D01*
X1660339Y2664800D01*
X1826782Y2697907D01*
X1899026Y2625663D01*
X2068544Y2512395D01*
X2256902Y2434374D01*
X2456861Y2394600D01*
X2660739Y2394600D01*
X2860698Y2434374D01*
X3049056Y2512395D01*
X3218574Y2625663D01*
X3362737Y2769826D01*
X3476005Y2939344D01*
X3554026Y3127702D01*
X3593800Y3327661D01*
X3593800Y3531539D01*
X3554026Y3731498D01*
X3476005Y3919856D01*
X3362737Y4089374D01*
X3218574Y4233537D01*
X3049056Y4346805D01*
X2860698Y4424826D01*
X2660739Y4464600D01*
X2456861Y4464600D01*
X2290418Y4431493D01*
X2218174Y4503737D01*
X2192173Y4521110D01*
X2284998Y4539574D01*
X2473356Y4617595D01*
X2642874Y4730863D01*
X2787037Y4875026D01*
X2900305Y5044544D01*
X2978326Y5232902D01*
X3018100Y5432861D01*
X3018100Y5636739D01*
X2978326Y5836698D01*
X2900305Y6025056D01*
X2787037Y6194574D01*
X2642874Y6338737D01*
X2473356Y6452005D01*
X2284998Y6530026D01*
X2085039Y6569800D01*
X1912212Y6569800D01*
X1924000Y6629061D01*
X1924000Y6832939D01*
X1884226Y7032898D01*
X1806205Y7221256D01*
X1709490Y7366000D01*
X1806205Y7510744D01*
X1884226Y7699102D01*
X1924000Y7899061D01*
X1924000Y8102939D01*
X1884226Y8302898D01*
X1806205Y8491256D01*
X1692937Y8660774D01*
X1548774Y8804937D01*
X1379256Y8918205D01*
X1190898Y8996226D01*
X990939Y9036000D01*
X787061Y9036000D01*
X587102Y8996226D01*
X398744Y8918205D01*
X254000Y8821490D01*
X109256Y8918205D01*
X-79102Y8996226D01*
X-279061Y9036000D01*
X-446900Y9036000D01*
X-446900Y9230939D01*
X-486674Y9430898D01*
X-564695Y9619256D01*
X-677963Y9788774D01*
X-822126Y9932937D01*
X-991644Y10046205D01*
X-1180002Y10124226D01*
X-1379961Y10164000D01*
X-1583839Y10164000D01*
X-1783798Y10124226D01*
X-1972156Y10046205D01*
X-2141674Y9932937D01*
X-2163305Y9911306D01*
X-2181702Y9918926D01*
X-2381661Y9958700D01*
X-2585539Y9958700D01*
X-2785498Y9918926D01*
X-2973856Y9840905D01*
X-3143374Y9727637D01*
X-3287537Y9583474D01*
X-3400805Y9413956D01*
X-3478826Y9225598D01*
X-3518600Y9025639D01*
X-14002839Y9025639D01*
X-14002839Y9743648D01*
X-13915956Y9685595D01*
X-13727598Y9607574D01*
X-13527639Y9567800D01*
X-13323761Y9567800D01*
X-13123802Y9607574D01*
X-12935444Y9685595D01*
X-12765926Y9798863D01*
X-12621763Y9943026D01*
X-12508495Y10112544D01*
X-12430474Y10300902D01*
X-12390700Y10500861D01*
X-12390700Y10704739D01*
X-12430474Y10904698D01*
X-12508495Y11093056D01*
X-12621763Y11262574D01*
X-12765926Y11406737D01*
X-12935444Y11520005D01*
X-13123802Y11598026D01*
X-13323761Y11637800D01*
X-13527639Y11637800D01*
X-13727598Y11598026D01*
X-13915956Y11520005D01*
X-14002839Y11461952D01*
X-14002839Y11785939D01*
X-4083000Y11785939D01*
X-4083000Y11582061D01*
X-4043226Y11382102D01*
X-3965205Y11193744D01*
X-3851937Y11024226D01*
X-3707774Y10880063D01*
X-3538256Y10766795D01*
X-3349898Y10688774D01*
X-3149939Y10649000D01*
X-2946061Y10649000D01*
X-2746102Y10688774D01*
X-2557744Y10766795D01*
X-2388226Y10880063D01*
X-2244063Y11024226D01*
X-2130795Y11193744D01*
X-2052774Y11382102D01*
X-2013000Y11582061D01*
X-2013000Y11785939D01*
X-2052774Y11985898D01*
X-2130795Y12174256D01*
X-2244063Y12343774D01*
X-2388226Y12487937D01*
X-2557744Y12601205D01*
X-2746102Y12679226D01*
X-2946061Y12719000D01*
X-3149939Y12719000D01*
X-3349898Y12679226D01*
X-3538256Y12601205D01*
X-3707774Y12487937D01*
X-3851937Y12343774D01*
X-3965205Y12174256D01*
X-4043226Y11985898D01*
X-4083000Y11785939D01*
X-14002839Y11785939D01*
X-14002839Y14395861D01*
X-13942998Y14371074D01*
X-13743039Y14331300D01*
X-13539161Y14331300D01*
X-13339202Y14371074D01*
X-13150844Y14449095D01*
X-12981326Y14562363D01*
X-12837163Y14706526D01*
X-12723895Y14876044D01*
X-12645874Y15064402D01*
X-12606100Y15264361D01*
X-12606100Y15468239D01*
X-12636286Y15620000D01*
X-9714120Y15620000D01*
X-9677725Y15250476D01*
X-9569939Y14895152D01*
X-9394903Y14567683D01*
X-9159345Y14280655D01*
X-8872317Y14045097D01*
X-8544848Y13870061D01*
X-8189524Y13762275D01*
X-7912597Y13735000D01*
X-7327403Y13735000D01*
X-7050476Y13762275D01*
X-6695152Y13870061D01*
X-6367683Y14045097D01*
X-6080655Y14280655D01*
X-5845097Y14567683D01*
X-5670061Y14895152D01*
X-5562275Y15250476D01*
X-5525880Y15620000D01*
X-5562275Y15989524D01*
X-5670061Y16344848D01*
X-5845097Y16672317D01*
X-6080655Y16959345D01*
X-6367683Y17194903D01*
X-6695152Y17369939D01*
X-7050476Y17477725D01*
X-7327403Y17505000D01*
X-7912597Y17505000D01*
X-8189524Y17477725D01*
X-8544848Y17369939D01*
X-8872317Y17194903D01*
X-9159345Y16959345D01*
X-9394903Y16672317D01*
X-9569939Y16344848D01*
X-9677725Y15989524D01*
X-9714120Y15620000D01*
X-12636286Y15620000D01*
X-12645874Y15668198D01*
X-12723895Y15856556D01*
X-12837163Y16026074D01*
X-12981326Y16170237D01*
X-13150844Y16283505D01*
X-13339202Y16361526D01*
X-13539161Y16401300D01*
X-13743039Y16401300D01*
X-13942998Y16361526D01*
X-14002839Y16336739D01*
X-14002839Y20320000D01*
X-9714120Y20320000D01*
X-9677725Y19950476D01*
X-9569939Y19595152D01*
X-9394903Y19267683D01*
X-9159345Y18980655D01*
X-8872317Y18745097D01*
X-8544848Y18570061D01*
X-8189524Y18462275D01*
X-7912597Y18435000D01*
X-7327403Y18435000D01*
X-7050476Y18462275D01*
X-6695152Y18570061D01*
X-6367683Y18745097D01*
X-6080655Y18980655D01*
X-5845097Y19267683D01*
X-5670061Y19595152D01*
X-5562275Y19950476D01*
X-5525880Y20320000D01*
X-1863394Y20320000D01*
X-1829895Y19979881D01*
X-1730686Y19652832D01*
X-1569579Y19351422D01*
X-1352766Y19087234D01*
X-1088578Y18870421D01*
X-787168Y18709314D01*
X-460119Y18610105D01*
X-205225Y18585000D01*
X765225Y18585000D01*
X1020119Y18610105D01*
X1347168Y18709314D01*
X1648578Y18870421D01*
X1912766Y19087234D01*
X2129579Y19351422D01*
X2290686Y19652832D01*
X2389895Y19979881D01*
X2423394Y20320000D01*
X7736606Y20320000D01*
X7770105Y19979881D01*
X7869314Y19652832D01*
X8030421Y19351422D01*
X8247234Y19087234D01*
X8511422Y18870421D01*
X8812832Y18709314D01*
X9139881Y18610105D01*
X9394775Y18585000D01*
X10365225Y18585000D01*
X10620119Y18610105D01*
X10947168Y18709314D01*
X11248578Y18870421D01*
X11512766Y19087234D01*
X11729579Y19351422D01*
X11890686Y19652832D01*
X11989895Y19979881D01*
X12023394Y20320000D01*
X11989895Y20660119D01*
X11890686Y20987168D01*
X11729579Y21288578D01*
X11512766Y21552766D01*
X11248578Y21769579D01*
X10947168Y21930686D01*
X10620119Y22029895D01*
X10365225Y22055000D01*
X9394775Y22055000D01*
X9139881Y22029895D01*
X8812832Y21930686D01*
X8511422Y21769579D01*
X8247234Y21552766D01*
X8030421Y21288578D01*
X7869314Y20987168D01*
X7770105Y20660119D01*
X7736606Y20320000D01*
X2423394Y20320000D01*
X2389895Y20660119D01*
X2290686Y20987168D01*
X2129579Y21288578D01*
X1912766Y21552766D01*
X1648578Y21769579D01*
X1347168Y21930686D01*
X1020119Y22029895D01*
X765225Y22055000D01*
X-205225Y22055000D01*
X-460119Y22029895D01*
X-787168Y21930686D01*
X-1088578Y21769579D01*
X-1352766Y21552766D01*
X-1569579Y21288578D01*
X-1730686Y20987168D01*
X-1829895Y20660119D01*
X-1863394Y20320000D01*
X-5525880Y20320000D01*
X-5562275Y20689524D01*
X-5670061Y21044848D01*
X-5845097Y21372317D01*
X-6080655Y21659345D01*
X-6367683Y21894903D01*
X-6695152Y22069939D01*
X-7050476Y22177725D01*
X-7327403Y22205000D01*
X-7912597Y22205000D01*
X-8189524Y22177725D01*
X-8544848Y22069939D01*
X-8872317Y21894903D01*
X-9159345Y21659345D01*
X-9394903Y21372317D01*
X-9569939Y21044848D01*
X-9677725Y20689524D01*
X-9714120Y20320000D01*
X-14002839Y20320000D01*
X-14002839Y23271539D01*
X-11009100Y23271539D01*
X-11009100Y23067661D01*
X-10969326Y22867702D01*
X-10891305Y22679344D01*
X-10778037Y22509826D01*
X-10633874Y22365663D01*
X-10464356Y22252395D01*
X-10275998Y22174374D01*
X-10076039Y22134600D01*
X-9872161Y22134600D01*
X-9672202Y22174374D01*
X-9483844Y22252395D01*
X-9314326Y22365663D01*
X-9170163Y22509826D01*
X-9056895Y22679344D01*
X-8978874Y22867702D01*
X-8939100Y23067661D01*
X-8939100Y23271539D01*
X-8978874Y23471498D01*
X-9017184Y23563987D01*
X-8872317Y23445097D01*
X-8544848Y23270061D01*
X-8189524Y23162275D01*
X-7912597Y23135000D01*
X-7327403Y23135000D01*
X-7050476Y23162275D01*
X-6695152Y23270061D01*
X-6367683Y23445097D01*
X-6080655Y23680655D01*
X-5845097Y23967683D01*
X-5670061Y24295152D01*
X-5562275Y24650476D01*
X-5525880Y25020000D01*
X-5562275Y25389524D01*
X-5670061Y25744848D01*
X-5845097Y26072317D01*
X-6080655Y26359345D01*
X-6367683Y26594903D01*
X-6695152Y26769939D01*
X-7050476Y26877725D01*
X-7327403Y26905000D01*
X-7912597Y26905000D01*
X-8189524Y26877725D01*
X-8544848Y26769939D01*
X-8872317Y26594903D01*
X-9159345Y26359345D01*
X-9394903Y26072317D01*
X-9569939Y25744848D01*
X-9677725Y25389524D01*
X-9714120Y25020000D01*
X-9677725Y24650476D01*
X-9569939Y24295152D01*
X-9444536Y24060541D01*
X-9483844Y24086805D01*
X-9672202Y24164826D01*
X-9872161Y24204600D01*
X-10076039Y24204600D01*
X-10275998Y24164826D01*
X-10464356Y24086805D01*
X-10633874Y23973537D01*
X-10778037Y23829374D01*
X-10891305Y23659856D01*
X-10969326Y23471498D01*
X-11009100Y23271539D01*
X-14002839Y23271539D01*
X-14002839Y27152939D01*
X-13100000Y27152939D01*
X-13100000Y26949061D01*
X-13060226Y26749102D01*
X-12982205Y26560744D01*
X-12868937Y26391226D01*
X-12724774Y26247063D01*
X-12555256Y26133795D01*
X-12366898Y26055774D01*
X-12166939Y26016000D01*
X-11963061Y26016000D01*
X-11763102Y26055774D01*
X-11574744Y26133795D01*
X-11405226Y26247063D01*
X-11261063Y26391226D01*
X-11147795Y26560744D01*
X-11069774Y26749102D01*
X-11030000Y26949061D01*
X-11030000Y27152939D01*
X-11069774Y27352898D01*
X-11147795Y27541256D01*
X-11261063Y27710774D01*
X-11405226Y27854937D01*
X-11574744Y27968205D01*
X-11763102Y28046226D01*
X-11963061Y28086000D01*
X-12166939Y28086000D01*
X-12366898Y28046226D01*
X-12555256Y27968205D01*
X-12724774Y27854937D01*
X-12868937Y27710774D01*
X-12982205Y27541256D01*
X-13060226Y27352898D01*
X-13100000Y27152939D01*
X-14002839Y27152939D01*
X-14002839Y28101239D01*
X-7730100Y28101239D01*
X-7730100Y27897361D01*
X-7690326Y27697402D01*
X-7612305Y27509044D01*
X-7499037Y27339526D01*
X-7354874Y27195363D01*
X-7185356Y27082095D01*
X-6996998Y27004074D01*
X-6797039Y26964300D01*
X-6593161Y26964300D01*
X-6393202Y27004074D01*
X-6204844Y27082095D01*
X-6035326Y27195363D01*
X-5891163Y27339526D01*
X-5777895Y27509044D01*
X-5736310Y27609439D01*
X-2437200Y27609439D01*
X-2437200Y27405561D01*
X-2397426Y27205602D01*
X-2319405Y27017244D01*
X-2206137Y26847726D01*
X-2061974Y26703563D01*
X-1892456Y26590295D01*
X-1704098Y26512274D01*
X-1504139Y26472500D01*
X-1300261Y26472500D01*
X-1100302Y26512274D01*
X-911944Y26590295D01*
X-742426Y26703563D01*
X-598263Y26847726D01*
X-484995Y27017244D01*
X-406974Y27205602D01*
X-367200Y27405561D01*
X-367200Y27609439D01*
X-379830Y27672939D01*
X8077100Y27672939D01*
X8077100Y27469061D01*
X8116874Y27269102D01*
X8194895Y27080744D01*
X8308163Y26911226D01*
X8452326Y26767063D01*
X8621844Y26653795D01*
X8810202Y26575774D01*
X9010161Y26536000D01*
X9214039Y26536000D01*
X9413998Y26575774D01*
X9602356Y26653795D01*
X9771874Y26767063D01*
X9916037Y26911226D01*
X10029305Y27080744D01*
X10107326Y27269102D01*
X10147100Y27469061D01*
X10147100Y27672939D01*
X10107326Y27872898D01*
X10029305Y28061256D01*
X9916037Y28230774D01*
X9771874Y28374937D01*
X9602356Y28488205D01*
X9413998Y28566226D01*
X9214039Y28606000D01*
X9010161Y28606000D01*
X8810202Y28566226D01*
X8621844Y28488205D01*
X8452326Y28374937D01*
X8308163Y28230774D01*
X8194895Y28061256D01*
X8116874Y27872898D01*
X8077100Y27672939D01*
X-379830Y27672939D01*
X-406974Y27809398D01*
X-484995Y27997756D01*
X-598263Y28167274D01*
X-742426Y28311437D01*
X-911944Y28424705D01*
X-1100302Y28502726D01*
X-1300261Y28542500D01*
X-1504139Y28542500D01*
X-1704098Y28502726D01*
X-1892456Y28424705D01*
X-2061974Y28311437D01*
X-2206137Y28167274D01*
X-2319405Y27997756D01*
X-2397426Y27809398D01*
X-2437200Y27609439D01*
X-5736310Y27609439D01*
X-5699874Y27697402D01*
X-5660100Y27897361D01*
X-5660100Y28101239D01*
X-5699874Y28301198D01*
X-5777895Y28489556D01*
X-5891163Y28659074D01*
X-6035326Y28803237D01*
X-6204844Y28916505D01*
X-6393202Y28994526D01*
X-6593161Y29034300D01*
X-6797039Y29034300D01*
X-6996998Y28994526D01*
X-7185356Y28916505D01*
X-7354874Y28803237D01*
X-7499037Y28659074D01*
X-7612305Y28489556D01*
X-7690326Y28301198D01*
X-7730100Y28101239D01*
X-14002839Y28101239D01*
X-14002839Y31041439D01*
X-10267000Y31041439D01*
X-10267000Y30837561D01*
X-10227226Y30637602D01*
X-10149205Y30449244D01*
X-10035937Y30279726D01*
X-9891774Y30135563D01*
X-9722256Y30022295D01*
X-9533898Y29944274D01*
X-9333939Y29904500D01*
X-9130061Y29904500D01*
X-8930102Y29944274D01*
X-8741744Y30022295D01*
X-8572226Y30135563D01*
X-8428063Y30279726D01*
X-8314795Y30449244D01*
X-8236774Y30637602D01*
X-8197000Y30837561D01*
X-8197000Y31041439D01*
X-8236774Y31241398D01*
X-8314795Y31429756D01*
X-8428063Y31599274D01*
X-8572226Y31743437D01*
X-8741744Y31856705D01*
X-8930102Y31934726D01*
X-9130061Y31974500D01*
X-9333939Y31974500D01*
X-9533898Y31934726D01*
X-9722256Y31856705D01*
X-9891774Y31743437D01*
X-10035937Y31599274D01*
X-10149205Y31429756D01*
X-10227226Y31241398D01*
X-10267000Y31041439D01*
X-14002839Y31041439D01*
X-14002839Y32960142D01*
X-13890898Y32913774D01*
X-13690939Y32874000D01*
X-13487061Y32874000D01*
X-13287102Y32913774D01*
X-13098744Y32991795D01*
X-13017500Y33046080D01*
X-12936256Y32991795D01*
X-12747898Y32913774D01*
X-12547939Y32874000D01*
X-12344061Y32874000D01*
X-12144102Y32913774D01*
X-11955744Y32991795D01*
X-11786226Y33105063D01*
X-11642063Y33249226D01*
X-11614035Y33291174D01*
X-9115000Y33291174D01*
X-9115000Y32988806D01*
X-9056011Y32692247D01*
X-8940299Y32412895D01*
X-8772312Y32161485D01*
X-8558505Y31947678D01*
X-8307095Y31779691D01*
X-8027743Y31663979D01*
X-7731184Y31604990D01*
X-7428816Y31604990D01*
X-7132257Y31663979D01*
X-6852905Y31779691D01*
X-6601495Y31947678D01*
X-6387688Y32161485D01*
X-6310000Y32277753D01*
X-6232312Y32161485D01*
X-6018505Y31947678D01*
X-5767095Y31779691D01*
X-5487743Y31663979D01*
X-5191184Y31604990D01*
X-4888816Y31604990D01*
X-4592257Y31663979D01*
X-4312905Y31779691D01*
X-4061495Y31947678D01*
X-3933263Y32075910D01*
X-3464475Y32075910D01*
X-3380792Y31821729D01*
X-3108225Y31690832D01*
X-2815358Y31615625D01*
X-2513447Y31598999D01*
X-2214093Y31641593D01*
X-1928801Y31741768D01*
X-1779208Y31821729D01*
X-1695525Y32075910D01*
X-2580000Y32960385D01*
X-3464475Y32075910D01*
X-3933263Y32075910D01*
X-3847688Y32161485D01*
X-3759474Y32293506D01*
X-3644080Y32255515D01*
X-2759605Y33139990D01*
X-2400395Y33139990D01*
X-1515920Y32255515D01*
X-1261739Y32339198D01*
X-1130842Y32611765D01*
X-1055635Y32904632D01*
X-1039009Y33206543D01*
X-1081603Y33505897D01*
X-1181778Y33791189D01*
X-1261739Y33940782D01*
X-1515920Y34024465D01*
X-2400395Y33139990D01*
X-2759605Y33139990D01*
X-3644080Y34024465D01*
X-3759474Y33986474D01*
X-3847688Y34118495D01*
X-3933263Y34204070D01*
X-3464475Y34204070D01*
X-2580000Y33319595D01*
X-1695525Y34204070D01*
X-1779208Y34458251D01*
X-2051775Y34589148D01*
X-2344642Y34664355D01*
X-2646553Y34680981D01*
X-2945907Y34638387D01*
X-3231199Y34538212D01*
X-3380792Y34458251D01*
X-3464475Y34204070D01*
X-3933263Y34204070D01*
X-4061495Y34332302D01*
X-4312905Y34500289D01*
X-4592257Y34616001D01*
X-4888816Y34674990D01*
X-5191184Y34674990D01*
X-5487743Y34616001D01*
X-5767095Y34500289D01*
X-6018505Y34332302D01*
X-6232312Y34118495D01*
X-6310000Y34002227D01*
X-6387688Y34118495D01*
X-6601495Y34332302D01*
X-6852905Y34500289D01*
X-7132257Y34616001D01*
X-7428816Y34674990D01*
X-7731184Y34674990D01*
X-8027743Y34616001D01*
X-8307095Y34500289D01*
X-8558505Y34332302D01*
X-8772312Y34118495D01*
X-8940299Y33867085D01*
X-9056011Y33587733D01*
X-9115000Y33291174D01*
X-11614035Y33291174D01*
X-11528795Y33418744D01*
X-11450774Y33607102D01*
X-11411000Y33807061D01*
X-11411000Y34010939D01*
X-11450774Y34210898D01*
X-11528795Y34399256D01*
X-11642063Y34568774D01*
X-11786226Y34712937D01*
X-11955744Y34826205D01*
X-12144102Y34904226D01*
X-12344061Y34944000D01*
X-12547939Y34944000D01*
X-12747898Y34904226D01*
X-12936256Y34826205D01*
X-13017500Y34771920D01*
X-13098744Y34826205D01*
X-13287102Y34904226D01*
X-13487061Y34944000D01*
X-13690939Y34944000D01*
X-13890898Y34904226D01*
X-14002839Y34857858D01*
X-14002839Y35940000D01*
X5525880Y35940000D01*
X5562275Y35570476D01*
X5670061Y35215152D01*
X5845097Y34887683D01*
X6080655Y34600655D01*
X6367683Y34365097D01*
X6695152Y34190061D01*
X7050476Y34082275D01*
X7327403Y34055000D01*
X7912597Y34055000D01*
X8189524Y34082275D01*
X8544848Y34190061D01*
X8872317Y34365097D01*
X9159345Y34600655D01*
X9394903Y34887683D01*
X9569939Y35215152D01*
X9677725Y35570476D01*
X9714120Y35940000D01*
X9677725Y36309524D01*
X9569939Y36664848D01*
X9394903Y36992317D01*
X9159345Y37279345D01*
X8872317Y37514903D01*
X8544848Y37689939D01*
X8189524Y37797725D01*
X7912597Y37825000D01*
X7327403Y37825000D01*
X7050476Y37797725D01*
X6695152Y37689939D01*
X6367683Y37514903D01*
X6080655Y37279345D01*
X5845097Y36992317D01*
X5670061Y36664848D01*
X5562275Y36309524D01*
X5525880Y35940000D01*
X-14002839Y35940000D01*
X-14002839Y40640000D01*
X-12023394Y40640000D01*
X-11989895Y40299881D01*
X-11890686Y39972832D01*
X-11729579Y39671422D01*
X-11512766Y39407234D01*
X-11248578Y39190421D01*
X-10947168Y39029314D01*
X-10620119Y38930105D01*
X-10365225Y38905000D01*
X-9394775Y38905000D01*
X-9139881Y38930105D01*
X-8812832Y39029314D01*
X-8511422Y39190421D01*
X-8247234Y39407234D01*
X-8030421Y39671422D01*
X-7869314Y39972832D01*
X-7770105Y40299881D01*
X-7736606Y40640000D01*
X-7770105Y40980119D01*
X-7869314Y41307168D01*
X-8030421Y41608578D01*
X-8247234Y41872766D01*
X-8511422Y42089579D01*
X-8812832Y42250686D01*
X-9139881Y42349895D01*
X-9394775Y42375000D01*
X-10365225Y42375000D01*
X-10620119Y42349895D01*
X-10947168Y42250686D01*
X-11248578Y42089579D01*
X-11512766Y41872766D01*
X-11729579Y41608578D01*
X-11890686Y41307168D01*
X-11989895Y40980119D01*
X-12023394Y40640000D01*
X-14002839Y40640000D01*
X-14002839Y49276000D01*
X-7842185Y49276000D01*
X-7813513Y48984889D01*
X-7728599Y48704966D01*
X-7590706Y48446986D01*
X-7405134Y48220866D01*
X-7179014Y48035294D01*
X-7124209Y48006000D01*
X-7179014Y47976706D01*
X-7405134Y47791134D01*
X-7590706Y47565014D01*
X-7728599Y47307034D01*
X-7813513Y47027111D01*
X-7842185Y46736000D01*
X-7813513Y46444889D01*
X-7728599Y46164966D01*
X-7590706Y45906986D01*
X-7405134Y45680866D01*
X-7179014Y45495294D01*
X-7124209Y45466000D01*
X-7179014Y45436706D01*
X-7405134Y45251134D01*
X-7590706Y45025014D01*
X-7728599Y44767034D01*
X-7813513Y44487111D01*
X-7842185Y44196000D01*
X-7813513Y43904889D01*
X-7728599Y43624966D01*
X-7590706Y43366986D01*
X-7405134Y43140866D01*
X-7179014Y42955294D01*
X-7124209Y42926000D01*
X-7179014Y42896706D01*
X-7405134Y42711134D01*
X-7590706Y42485014D01*
X-7728599Y42227034D01*
X-7813513Y41947111D01*
X-7842185Y41656000D01*
X-7813513Y41364889D01*
X-7728599Y41084966D01*
X-7590706Y40826986D01*
X-7405134Y40600866D01*
X-7375313Y40576393D01*
X-7444180Y40555502D01*
X-7554494Y40496537D01*
X-7651185Y40417185D01*
X-7730537Y40320494D01*
X-7789502Y40210180D01*
X-7825812Y40090482D01*
X-7838072Y39966000D01*
X-7838072Y38266000D01*
X-7825812Y38141518D01*
X-7789502Y38021820D01*
X-7730537Y37911506D01*
X-7651185Y37814815D01*
X-7554494Y37735463D01*
X-7444180Y37676498D01*
X-7324482Y37640188D01*
X-7200000Y37627928D01*
X-5500000Y37627928D01*
X-5375518Y37640188D01*
X-5255820Y37676498D01*
X-5145506Y37735463D01*
X-5048815Y37814815D01*
X-4969463Y37911506D01*
X-4910498Y38021820D01*
X-4889607Y38090687D01*
X-4865134Y38060866D01*
X-4639014Y37875294D01*
X-4381034Y37737401D01*
X-4101111Y37652487D01*
X-3882950Y37631000D01*
X-3737050Y37631000D01*
X-3518889Y37652487D01*
X-3238966Y37737401D01*
X-2980986Y37875294D01*
X-2754866Y38060866D01*
X-2569294Y38286986D01*
X-2431401Y38544966D01*
X-2346487Y38824889D01*
X-2317815Y39116000D01*
X-2346487Y39407111D01*
X-2431401Y39687034D01*
X-2569294Y39945014D01*
X-2754866Y40171134D01*
X-2980986Y40356706D01*
X-3035791Y40386000D01*
X-2980986Y40415294D01*
X-2754866Y40600866D01*
X-2722750Y40640000D01*
X-2423394Y40640000D01*
X-2389895Y40299881D01*
X-2290686Y39972832D01*
X-2129579Y39671422D01*
X-1912766Y39407234D01*
X-1648578Y39190421D01*
X-1347168Y39029314D01*
X-1020119Y38930105D01*
X-765225Y38905000D01*
X205225Y38905000D01*
X460119Y38930105D01*
X787168Y39029314D01*
X1088578Y39190421D01*
X1352766Y39407234D01*
X1569579Y39671422D01*
X1730686Y39972832D01*
X1829895Y40299881D01*
X1863394Y40640000D01*
X5525880Y40640000D01*
X5562275Y40270476D01*
X5670061Y39915152D01*
X5845097Y39587683D01*
X6080655Y39300655D01*
X6367683Y39065097D01*
X6695152Y38890061D01*
X7050476Y38782275D01*
X7327403Y38755000D01*
X7912597Y38755000D01*
X8189524Y38782275D01*
X8544848Y38890061D01*
X8872317Y39065097D01*
X9159345Y39300655D01*
X9394903Y39587683D01*
X9569939Y39915152D01*
X9677725Y40270476D01*
X9714120Y40640000D01*
X9677725Y41009524D01*
X9569939Y41364848D01*
X9394903Y41692317D01*
X9159345Y41979345D01*
X8872317Y42214903D01*
X8544848Y42389939D01*
X8189524Y42497725D01*
X7912597Y42525000D01*
X7327403Y42525000D01*
X7050476Y42497725D01*
X6695152Y42389939D01*
X6367683Y42214903D01*
X6080655Y41979345D01*
X5845097Y41692317D01*
X5670061Y41364848D01*
X5562275Y41009524D01*
X5525880Y40640000D01*
X1863394Y40640000D01*
X1829895Y40980119D01*
X1730686Y41307168D01*
X1569579Y41608578D01*
X1352766Y41872766D01*
X1088578Y42089579D01*
X787168Y42250686D01*
X460119Y42349895D01*
X205225Y42375000D01*
X-765225Y42375000D01*
X-1020119Y42349895D01*
X-1347168Y42250686D01*
X-1648578Y42089579D01*
X-1912766Y41872766D01*
X-2129579Y41608578D01*
X-2290686Y41307168D01*
X-2389895Y40980119D01*
X-2423394Y40640000D01*
X-2722750Y40640000D01*
X-2569294Y40826986D01*
X-2431401Y41084966D01*
X-2346487Y41364889D01*
X-2317815Y41656000D01*
X-2346487Y41947111D01*
X-2431401Y42227034D01*
X-2569294Y42485014D01*
X-2754866Y42711134D01*
X-2980986Y42896706D01*
X-3035791Y42926000D01*
X-2980986Y42955294D01*
X-2754866Y43140866D01*
X-2569294Y43366986D01*
X-2431401Y43624966D01*
X-2346487Y43904889D01*
X-2317815Y44196000D01*
X-2346487Y44487111D01*
X-2431401Y44767034D01*
X-2513352Y44920355D01*
X5582305Y44920355D01*
X5601737Y44828400D01*
X5736483Y44483505D01*
X5935925Y44171524D01*
X6192400Y43904447D01*
X6496050Y43692538D01*
X6835207Y43543940D01*
X7196838Y43464363D01*
X7493000Y43611295D01*
X7493000Y45213000D01*
X7747000Y45213000D01*
X7747000Y43611295D01*
X8043162Y43464363D01*
X8404793Y43543940D01*
X8743950Y43692538D01*
X9047600Y43904447D01*
X9304075Y44171524D01*
X9503517Y44483505D01*
X9638263Y44828400D01*
X9657695Y44920355D01*
X9541572Y45213000D01*
X7747000Y45213000D01*
X7493000Y45213000D01*
X5698428Y45213000D01*
X5582305Y44920355D01*
X-2513352Y44920355D01*
X-2569294Y45025014D01*
X-2754866Y45251134D01*
X-2980986Y45436706D01*
X-3035791Y45466000D01*
X-2980986Y45495294D01*
X-2754866Y45680866D01*
X-2690214Y45759645D01*
X5582305Y45759645D01*
X5698428Y45467000D01*
X7493000Y45467000D01*
X7493000Y47068705D01*
X7747000Y47068705D01*
X7747000Y45467000D01*
X9541572Y45467000D01*
X9657695Y45759645D01*
X9638263Y45851600D01*
X9503517Y46196495D01*
X9304075Y46508476D01*
X9047600Y46775553D01*
X8743950Y46987462D01*
X8404793Y47136060D01*
X8043162Y47215637D01*
X7747000Y47068705D01*
X7493000Y47068705D01*
X7196838Y47215637D01*
X6835207Y47136060D01*
X6496050Y46987462D01*
X6192400Y46775553D01*
X5935925Y46508476D01*
X5736483Y46196495D01*
X5601737Y45851600D01*
X5582305Y45759645D01*
X-2690214Y45759645D01*
X-2569294Y45906986D01*
X-2431401Y46164966D01*
X-2346487Y46444889D01*
X-2317815Y46736000D01*
X-2346487Y47027111D01*
X-2431401Y47307034D01*
X-2569294Y47565014D01*
X-2754866Y47791134D01*
X-2980986Y47976706D01*
X-3035791Y48006000D01*
X-2980986Y48035294D01*
X-2892468Y48107939D01*
X997000Y48107939D01*
X997000Y47904061D01*
X1036774Y47704102D01*
X1114795Y47515744D01*
X1228063Y47346226D01*
X1372226Y47202063D01*
X1541744Y47088795D01*
X1730102Y47010774D01*
X1930061Y46971000D01*
X2133939Y46971000D01*
X2333898Y47010774D01*
X2522256Y47088795D01*
X2691774Y47202063D01*
X2835937Y47346226D01*
X2857500Y47378497D01*
X2879063Y47346226D01*
X3023226Y47202063D01*
X3192744Y47088795D01*
X3381102Y47010774D01*
X3581061Y46971000D01*
X3784939Y46971000D01*
X3984898Y47010774D01*
X4173256Y47088795D01*
X4342774Y47202063D01*
X4486937Y47346226D01*
X4600205Y47515744D01*
X4678226Y47704102D01*
X4718000Y47904061D01*
X4718000Y48107939D01*
X4678226Y48307898D01*
X4600205Y48496256D01*
X4486937Y48665774D01*
X4342774Y48809937D01*
X4173256Y48923205D01*
X3984898Y49001226D01*
X3784939Y49041000D01*
X3581061Y49041000D01*
X3381102Y49001226D01*
X3192744Y48923205D01*
X3023226Y48809937D01*
X2879063Y48665774D01*
X2857500Y48633503D01*
X2835937Y48665774D01*
X2691774Y48809937D01*
X2522256Y48923205D01*
X2333898Y49001226D01*
X2133939Y49041000D01*
X1930061Y49041000D01*
X1730102Y49001226D01*
X1541744Y48923205D01*
X1372226Y48809937D01*
X1228063Y48665774D01*
X1114795Y48496256D01*
X1036774Y48307898D01*
X997000Y48107939D01*
X-2892468Y48107939D01*
X-2754866Y48220866D01*
X-2569294Y48446986D01*
X-2431401Y48704966D01*
X-2346487Y48984889D01*
X-2317815Y49276000D01*
X-2346487Y49567111D01*
X-2431401Y49847034D01*
X-2569294Y50105014D01*
X-2754866Y50331134D01*
X-2980986Y50516706D01*
X-3238966Y50654599D01*
X-3518889Y50739513D01*
X-3737050Y50761000D01*
X-3882950Y50761000D01*
X-4101111Y50739513D01*
X-4381034Y50654599D01*
X-4639014Y50516706D01*
X-4865134Y50331134D01*
X-5050706Y50105014D01*
X-5080000Y50050209D01*
X-5109294Y50105014D01*
X-5294866Y50331134D01*
X-5520986Y50516706D01*
X-5778966Y50654599D01*
X-6058889Y50739513D01*
X-6277050Y50761000D01*
X-6422950Y50761000D01*
X-6641111Y50739513D01*
X-6921034Y50654599D01*
X-7179014Y50516706D01*
X-7405134Y50331134D01*
X-7590706Y50105014D01*
X-7728599Y49847034D01*
X-7813513Y49567111D01*
X-7842185Y49276000D01*
X-14002839Y49276000D01*
X-14002839Y50775439D01*
X-11417300Y50775439D01*
X-11417300Y50571561D01*
X-11377526Y50371602D01*
X-11299505Y50183244D01*
X-11186237Y50013726D01*
X-11042074Y49869563D01*
X-10872556Y49756295D01*
X-10684198Y49678274D01*
X-10484239Y49638500D01*
X-10280361Y49638500D01*
X-10080402Y49678274D01*
X-9892044Y49756295D01*
X-9722526Y49869563D01*
X-9578363Y50013726D01*
X-9465095Y50183244D01*
X-9387074Y50371602D01*
X-9347300Y50571561D01*
X-9347300Y50775439D01*
X-9387074Y50975398D01*
X-9465095Y51163756D01*
X-9578363Y51333274D01*
X-9722526Y51477437D01*
X-9892044Y51590705D01*
X-10080402Y51668726D01*
X-10280361Y51708500D01*
X-10484239Y51708500D01*
X-10684198Y51668726D01*
X-10872556Y51590705D01*
X-11042074Y51477437D01*
X-11186237Y51333274D01*
X-11299505Y51163756D01*
X-11377526Y50975398D01*
X-11417300Y50775439D01*
X-14002839Y50775439D01*
X-14002839Y52513560D01*
X14007161Y52513560D01*
X14007161Y45535531D01*
G04 #@! TD*
M02*
