G04 #@! TF.GenerationSoftware,KiCad,Pcbnew,5.0.2-bee76a0~70~ubuntu18.04.1*
G04 #@! TF.CreationDate,2019-04-14T16:07:02+08:00*
G04 #@! TF.ProjectId,LFO,4c464f2e-6b69-4636-9164-5f7063625858,rev?*
G04 #@! TF.SameCoordinates,PX8d9ee20PY6422c40*
G04 #@! TF.FileFunction,Copper,L3,Inr*
G04 #@! TF.FilePolarity,Positive*
%FSLAX46Y46*%
G04 Gerber Fmt 4.6, Leading zero omitted, Abs format (unit mm)*
G04 Created by KiCad (PCBNEW 5.0.2-bee76a0~70~ubuntu18.04.1) date Sun Apr 14 16:07:02 2019*
%MOMM*%
%LPD*%
G01*
G04 APERTURE LIST*
G04 #@! TA.AperFunction,ViaPad*
%ADD10C,2.000000*%
G04 #@! TD*
G04 #@! TA.AperFunction,WasherPad*
%ADD11O,3.000000X2.200000*%
G04 #@! TD*
G04 #@! TA.AperFunction,ViaPad*
%ADD12C,1.800000*%
G04 #@! TD*
G04 #@! TA.AperFunction,ViaPad*
%ADD13O,1.500000X2.600000*%
G04 #@! TD*
G04 #@! TA.AperFunction,ViaPad*
%ADD14O,1.600000X2.400000*%
G04 #@! TD*
G04 #@! TA.AperFunction,ViaPad*
%ADD15O,1.600000X2.600000*%
G04 #@! TD*
G04 #@! TA.AperFunction,ViaPad*
%ADD16R,1.800000X1.800000*%
G04 #@! TD*
G04 #@! TA.AperFunction,ViaPad*
%ADD17O,1.700000X1.700000*%
G04 #@! TD*
G04 #@! TA.AperFunction,ViaPad*
%ADD18R,1.700000X1.700000*%
G04 #@! TD*
G04 #@! TA.AperFunction,ViaPad*
%ADD19O,2.900000X2.500000*%
G04 #@! TD*
G04 #@! TA.AperFunction,ViaPad*
%ADD20C,0.800000*%
G04 #@! TD*
G04 #@! TA.AperFunction,Conductor*
%ADD21C,0.254000*%
G04 #@! TD*
G04 APERTURE END LIST*
D10*
G04 #@! TO.N,RESET*
G04 #@! TO.C,SW1*
X-2286000Y-42522000D03*
G04 #@! TO.N,GND*
X2214000Y-42522000D03*
G04 #@! TO.N,RESET*
X-2286000Y-49022000D03*
G04 #@! TO.N,GND*
X2214000Y-49022000D03*
G04 #@! TD*
D11*
G04 #@! TO.N,*
G04 #@! TO.C,RV4*
X12420000Y0D03*
D12*
G04 #@! TO.N,+12V*
X5120000Y-7500010D03*
G04 #@! TO.N,Net-(C22-Pad1)*
X7660000Y-7500010D03*
G04 #@! TO.N,-12V*
X10120000Y-7500010D03*
D11*
G04 #@! TO.N,*
X2820000Y0D03*
G04 #@! TD*
G04 #@! TO.N,*
G04 #@! TO.C,RV2*
X-2820000Y0D03*
D12*
G04 #@! TO.N,GND*
X-10120000Y-7500010D03*
G04 #@! TO.N,Net-(C8-Pad1)*
X-7580000Y-7500010D03*
G04 #@! TO.N,+5V*
X-5120000Y-7500010D03*
D11*
G04 #@! TO.N,*
X-12420000Y0D03*
G04 #@! TD*
D13*
G04 #@! TO.N,/DigitalOut/Out*
G04 #@! TO.C,J6*
X12540000Y-45720000D03*
D14*
G04 #@! TO.N,GND*
X1140000Y-45720000D03*
D15*
G04 #@! TO.N,Net-(J6-PadTN)*
X4240000Y-45720000D03*
G04 #@! TD*
D13*
G04 #@! TO.N,/OutputStage/Inv*
G04 #@! TO.C,J5*
X12540000Y-30480000D03*
D14*
G04 #@! TO.N,GND*
X1140000Y-30480000D03*
D15*
G04 #@! TO.N,Net-(J5-PadTN)*
X4240000Y-30480000D03*
G04 #@! TD*
D13*
G04 #@! TO.N,/OutputStage/Out*
G04 #@! TO.C,J4*
X12540000Y-15240000D03*
D14*
G04 #@! TO.N,GND*
X1140000Y-15240000D03*
D15*
G04 #@! TO.N,Net-(J4-PadTN)*
X4240000Y-15240000D03*
G04 #@! TD*
D13*
G04 #@! TO.N,/DigitalIn/In*
G04 #@! TO.C,J3*
X-12540000Y-45720000D03*
D14*
G04 #@! TO.N,GND*
X-1140000Y-45720000D03*
D15*
G04 #@! TO.N,+5V*
X-4240000Y-45720000D03*
G04 #@! TD*
D13*
G04 #@! TO.N,/CVIn05.sch/In*
G04 #@! TO.C,J2*
X-12540000Y-30480000D03*
D14*
G04 #@! TO.N,GND*
X-1140000Y-30480000D03*
D15*
X-4240000Y-30480000D03*
G04 #@! TD*
D13*
G04 #@! TO.N,/CVIn55/In*
G04 #@! TO.C,J1*
X-12540000Y-15240000D03*
D14*
G04 #@! TO.N,GND*
X-1140000Y-15240000D03*
D15*
X-4240000Y-15240000D03*
G04 #@! TD*
D12*
G04 #@! TO.N,Net-(D2-Pad2)*
G04 #@! TO.C,D2*
X1270000Y-38100000D03*
D16*
G04 #@! TO.N,GND*
X-1270000Y-38100000D03*
G04 #@! TD*
D17*
G04 #@! TO.N,GND*
G04 #@! TO.C,J7*
X6985000Y9906000D03*
G04 #@! TO.N,RESET*
X6985000Y7366000D03*
G04 #@! TO.N,MOSI*
X9525000Y9906000D03*
G04 #@! TO.N,SCK*
X9525000Y7366000D03*
G04 #@! TO.N,+5V*
X12065000Y9906000D03*
D18*
G04 #@! TO.N,LED1*
X12065000Y7366000D03*
G04 #@! TD*
D17*
G04 #@! TO.N,Net-(D3-Pad2)*
G04 #@! TO.C,J8*
X-3810000Y49276000D03*
X-6350000Y49276000D03*
G04 #@! TO.N,GND*
X-3810000Y46736000D03*
X-6350000Y46736000D03*
X-3810000Y44196000D03*
X-6350000Y44196000D03*
X-3810000Y41656000D03*
X-6350000Y41656000D03*
G04 #@! TO.N,Net-(D5-Pad1)*
X-3810000Y39116000D03*
D18*
X-6350000Y39116000D03*
G04 #@! TD*
D12*
G04 #@! TO.N,Net-(D1-Pad2)*
G04 #@! TO.C,D1*
X1270000Y-22860000D03*
D16*
G04 #@! TO.N,GND*
X-1270000Y-22860000D03*
G04 #@! TD*
D11*
G04 #@! TO.N,*
G04 #@! TO.C,RV1*
X-280000Y40640000D03*
D12*
G04 #@! TO.N,GND*
X-7580000Y33139990D03*
G04 #@! TO.N,Net-(C5-Pad1)*
X-5040000Y33139990D03*
G04 #@! TO.N,+5V*
X-2580000Y33139990D03*
D11*
G04 #@! TO.N,*
X-9880000Y40640000D03*
G04 #@! TD*
G04 #@! TO.N,*
G04 #@! TO.C,RV3*
X9880000Y20320000D03*
D12*
G04 #@! TO.N,GND*
X2580000Y12819990D03*
G04 #@! TO.N,Net-(R25-Pad1)*
X5120000Y12819990D03*
G04 #@! TO.N,Net-(C15-Pad1)*
X7580000Y12819990D03*
D11*
G04 #@! TO.N,*
X280000Y20320000D03*
G04 #@! TD*
D19*
G04 #@! TO.N,Net-(R41-Pad2)*
G04 #@! TO.C,SW3*
X-7620000Y15620000D03*
G04 #@! TO.N,Net-(R38-Pad2)*
X-7620000Y25020000D03*
G04 #@! TO.N,SPDTS*
X-7620000Y20320000D03*
G04 #@! TD*
G04 #@! TO.N,Net-(R40-Pad2)*
G04 #@! TO.C,SW2*
X7620000Y35940000D03*
G04 #@! TO.N,+5V*
X7620000Y45340000D03*
G04 #@! TO.N,Net-(R38-Pad2)*
X7620000Y40640000D03*
G04 #@! TD*
D20*
G04 #@! TO.N,GND*
X-381000Y6731000D03*
X889000Y6731000D03*
X889000Y8001000D03*
X-381000Y8001000D03*
G04 #@! TO.N,+5V*
X-10199200Y43371700D03*
X6902400Y18973300D03*
X-483000Y3515100D03*
X-11150500Y-22441000D03*
X-9281900Y-33465200D03*
X-1410400Y30544000D03*
X-787500Y-11241200D03*
X-9635100Y-17431000D03*
X6924000Y-48242500D03*
X-10998500Y-34834600D03*
X12614900Y16317000D03*
X10220800Y40542500D03*
X-268000Y46221000D03*
X-268000Y47992000D03*
G04 #@! TO.N,+12V*
X11125000Y-22504000D03*
X12395000Y30759400D03*
X12319000Y45847000D03*
X12319000Y45847000D03*
X12319000Y45847000D03*
X12319000Y44831000D03*
G04 #@! TO.N,TRIG*
X-985400Y-27113600D03*
X2558800Y3429600D03*
G04 #@! TO.N,SPDTS*
X-1481900Y9129000D03*
G04 #@! TO.N,Net-(R29-Pad1)*
X9329000Y-23414400D03*
X1668600Y-13264800D03*
G04 #@! TO.N,Net-(R25-Pad1)*
X4757600Y-2775500D03*
G04 #@! TO.N,-12V*
X-1930000Y-20930000D03*
X9595000Y-17659000D03*
X-12065000Y27051000D03*
X3810000Y-23495000D03*
X-12446000Y33909000D03*
X-13589000Y33909000D03*
G04 #@! TO.N,Net-(C15-Pad1)*
X10128400Y-20930200D03*
X8223000Y-22285400D03*
G04 #@! TO.N,PWM*
X-8176200Y-34289100D03*
X1558400Y3699800D03*
G04 #@! TO.N,FREQ*
X-8884900Y-18922400D03*
X1983100Y5534800D03*
G04 #@! TO.N,SCK*
X9082800Y5172300D03*
G04 #@! TO.N,Net-(C5-Pad1)*
X-8850000Y-11197400D03*
G04 #@! TO.N,GND*
X7086500Y4889600D03*
X6312200Y-19521200D03*
X-9827700Y-1704100D03*
X3149500Y-19994600D03*
X-10382300Y50673500D03*
X-9829400Y4105100D03*
X2732500Y-26156700D03*
X-787500Y-8691100D03*
X-13641100Y15366300D03*
X-12725500Y-22175700D03*
X-13650900Y7343800D03*
X-13425700Y10602800D03*
X-6695100Y27999300D03*
X6339300Y14770400D03*
X8824000Y-43576700D03*
X5979700Y-43929700D03*
X-1402200Y27507500D03*
X-2107600Y-33749200D03*
X-9830700Y-47596800D03*
X-9974100Y23169600D03*
X-12573500Y-34845800D03*
X6959500Y-694600D03*
X13145900Y-2983500D03*
X12725500Y-24866500D03*
X558000Y3793300D03*
X9599300Y-33872300D03*
X12309300Y36255800D03*
X9112100Y27571000D03*
X-9232000Y30939500D03*
X10795000Y44110500D03*
X-3048000Y11684000D03*
X-4826000Y3810000D03*
X3683000Y48006000D03*
X2032000Y48006000D03*
G04 #@! TO.N,LED2*
X-1280100Y-4174800D03*
X-2483600Y8923700D03*
G04 #@! TD*
D21*
G04 #@! TO.N,GND*
G36*
X14007161Y1270193D02*
X13788578Y1449579D01*
X13487168Y1610686D01*
X13160119Y1709895D01*
X12905225Y1735000D01*
X11934775Y1735000D01*
X11679881Y1709895D01*
X11352832Y1610686D01*
X11051422Y1449579D01*
X10787234Y1232766D01*
X10570421Y968578D01*
X10409314Y667168D01*
X10310105Y340119D01*
X10276606Y0D01*
X10310105Y-340119D01*
X10409314Y-667168D01*
X10570421Y-968578D01*
X10787234Y-1232766D01*
X11051422Y-1449579D01*
X11352832Y-1610686D01*
X11679881Y-1709895D01*
X11934775Y-1735000D01*
X12905225Y-1735000D01*
X13160119Y-1709895D01*
X13487168Y-1610686D01*
X13788578Y-1449579D01*
X14007160Y-1270193D01*
X14007160Y-52516440D01*
X-14002839Y-52516440D01*
X-14002839Y-48860967D01*
X-3921000Y-48860967D01*
X-3921000Y-49183033D01*
X-3858168Y-49498912D01*
X-3734918Y-49796463D01*
X-3555987Y-50064252D01*
X-3328252Y-50291987D01*
X-3060463Y-50470918D01*
X-2762912Y-50594168D01*
X-2447033Y-50657000D01*
X-2124967Y-50657000D01*
X-1809088Y-50594168D01*
X-1511537Y-50470918D01*
X-1243748Y-50291987D01*
X-1109174Y-50157413D01*
X1258192Y-50157413D01*
X1353956Y-50421814D01*
X1643571Y-50562704D01*
X1955108Y-50644384D01*
X2276595Y-50663718D01*
X2595675Y-50619961D01*
X2900088Y-50514795D01*
X3074044Y-50421814D01*
X3169808Y-50157413D01*
X2214000Y-49201605D01*
X1258192Y-50157413D01*
X-1109174Y-50157413D01*
X-1016013Y-50064252D01*
X-837082Y-49796463D01*
X-713832Y-49498912D01*
X-651000Y-49183033D01*
X-651000Y-49084595D01*
X572282Y-49084595D01*
X616039Y-49403675D01*
X721205Y-49708088D01*
X814186Y-49882044D01*
X1078587Y-49977808D01*
X2034395Y-49022000D01*
X2393605Y-49022000D01*
X3349413Y-49977808D01*
X3613814Y-49882044D01*
X3754704Y-49592429D01*
X3836384Y-49280892D01*
X3855718Y-48959405D01*
X3811961Y-48640325D01*
X3706795Y-48335912D01*
X3613814Y-48161956D01*
X3554744Y-48140561D01*
X5889000Y-48140561D01*
X5889000Y-48344439D01*
X5928774Y-48544398D01*
X6006795Y-48732756D01*
X6120063Y-48902274D01*
X6264226Y-49046437D01*
X6433744Y-49159705D01*
X6622102Y-49237726D01*
X6822061Y-49277500D01*
X7025939Y-49277500D01*
X7225898Y-49237726D01*
X7414256Y-49159705D01*
X7583774Y-49046437D01*
X7727937Y-48902274D01*
X7841205Y-48732756D01*
X7919226Y-48544398D01*
X7959000Y-48344439D01*
X7959000Y-48140561D01*
X7919226Y-47940602D01*
X7841205Y-47752244D01*
X7727937Y-47582726D01*
X7583774Y-47438563D01*
X7414256Y-47325295D01*
X7225898Y-47247274D01*
X7025939Y-47207500D01*
X6822061Y-47207500D01*
X6622102Y-47247274D01*
X6433744Y-47325295D01*
X6264226Y-47438563D01*
X6120063Y-47582726D01*
X6006795Y-47752244D01*
X5928774Y-47940602D01*
X5889000Y-48140561D01*
X3554744Y-48140561D01*
X3349413Y-48066192D01*
X2393605Y-49022000D01*
X2034395Y-49022000D01*
X1078587Y-48066192D01*
X814186Y-48161956D01*
X673296Y-48451571D01*
X591616Y-48763108D01*
X572282Y-49084595D01*
X-651000Y-49084595D01*
X-651000Y-48860967D01*
X-713832Y-48545088D01*
X-837082Y-48247537D01*
X-1016013Y-47979748D01*
X-1109174Y-47886587D01*
X1258192Y-47886587D01*
X2214000Y-48842395D01*
X3169808Y-47886587D01*
X3074044Y-47622186D01*
X2784429Y-47481296D01*
X2472892Y-47399616D01*
X2151405Y-47380282D01*
X1832325Y-47424039D01*
X1527912Y-47529205D01*
X1353956Y-47622186D01*
X1258192Y-47886587D01*
X-1109174Y-47886587D01*
X-1243748Y-47752013D01*
X-1511537Y-47573082D01*
X-1809088Y-47449832D01*
X-2124967Y-47387000D01*
X-2447033Y-47387000D01*
X-2762912Y-47449832D01*
X-3060463Y-47573082D01*
X-3328252Y-47752013D01*
X-3555987Y-47979748D01*
X-3734918Y-48247537D01*
X-3858168Y-48545088D01*
X-3921000Y-48860967D01*
X-14002839Y-48860967D01*
X-14002839Y-45101964D01*
X-13925000Y-45101964D01*
X-13925000Y-46338037D01*
X-13904960Y-46541507D01*
X-13825764Y-46802581D01*
X-13697157Y-47043188D01*
X-13524080Y-47254081D01*
X-13313187Y-47427157D01*
X-13072580Y-47555764D01*
X-12811506Y-47634960D01*
X-12540000Y-47661701D01*
X-12268493Y-47634960D01*
X-12007419Y-47555764D01*
X-11766812Y-47427157D01*
X-11555919Y-47254081D01*
X-11382843Y-47043188D01*
X-11254236Y-46802581D01*
X-11175040Y-46541507D01*
X-11155000Y-46338037D01*
X-11155000Y-45149509D01*
X-5675000Y-45149509D01*
X-5675000Y-46290492D01*
X-5654236Y-46501309D01*
X-5572182Y-46771808D01*
X-5438932Y-47021101D01*
X-5259607Y-47239608D01*
X-5041100Y-47418932D01*
X-4791807Y-47552182D01*
X-4521308Y-47634236D01*
X-4240000Y-47661943D01*
X-3958691Y-47634236D01*
X-3688192Y-47552182D01*
X-3438899Y-47418932D01*
X-3220392Y-47239608D01*
X-3041068Y-47021101D01*
X-2907818Y-46771808D01*
X-2825764Y-46501309D01*
X-2805000Y-46290492D01*
X-2805000Y-45847000D01*
X-2575000Y-45847000D01*
X-2575000Y-46247000D01*
X-2522650Y-46524514D01*
X-2417166Y-46786483D01*
X-2262601Y-47022839D01*
X-2064895Y-47224500D01*
X-1831646Y-47383715D01*
X-1571818Y-47494367D01*
X-1489039Y-47511904D01*
X-1267000Y-47389915D01*
X-1267000Y-45847000D01*
X-1013000Y-45847000D01*
X-1013000Y-47389915D01*
X-790961Y-47511904D01*
X-708182Y-47494367D01*
X-448354Y-47383715D01*
X-215105Y-47224500D01*
X-17399Y-47022839D01*
X0Y-46996233D01*
X17399Y-47022839D01*
X215105Y-47224500D01*
X448354Y-47383715D01*
X708182Y-47494367D01*
X790961Y-47511904D01*
X1013000Y-47389915D01*
X1013000Y-45847000D01*
X1267000Y-45847000D01*
X1267000Y-47389915D01*
X1489039Y-47511904D01*
X1571818Y-47494367D01*
X1831646Y-47383715D01*
X2064895Y-47224500D01*
X2262601Y-47022839D01*
X2417166Y-46786483D01*
X2522650Y-46524514D01*
X2575000Y-46247000D01*
X2575000Y-45847000D01*
X1267000Y-45847000D01*
X1013000Y-45847000D01*
X-1013000Y-45847000D01*
X-1267000Y-45847000D01*
X-2575000Y-45847000D01*
X-2805000Y-45847000D01*
X-2805000Y-45149508D01*
X-2825764Y-44938691D01*
X-2907818Y-44668192D01*
X-3041068Y-44418899D01*
X-3220393Y-44200392D01*
X-3438900Y-44021068D01*
X-3688193Y-43887818D01*
X-3958692Y-43805764D01*
X-4240000Y-43778057D01*
X-4521309Y-43805764D01*
X-4791808Y-43887818D01*
X-5041101Y-44021068D01*
X-5259608Y-44200393D01*
X-5438932Y-44418900D01*
X-5572182Y-44668193D01*
X-5654236Y-44938692D01*
X-5675000Y-45149509D01*
X-11155000Y-45149509D01*
X-11155000Y-45101963D01*
X-11175040Y-44898493D01*
X-11254236Y-44637419D01*
X-11382843Y-44396812D01*
X-11555920Y-44185919D01*
X-11766813Y-44012843D01*
X-12007420Y-43884236D01*
X-12268494Y-43805040D01*
X-12540000Y-43778299D01*
X-12811507Y-43805040D01*
X-13072581Y-43884236D01*
X-13313188Y-44012843D01*
X-13524081Y-44185920D01*
X-13697157Y-44396813D01*
X-13825764Y-44637420D01*
X-13904960Y-44898494D01*
X-13925000Y-45101964D01*
X-14002839Y-45101964D01*
X-14002839Y-42360967D01*
X-3921000Y-42360967D01*
X-3921000Y-42683033D01*
X-3858168Y-42998912D01*
X-3734918Y-43296463D01*
X-3555987Y-43564252D01*
X-3328252Y-43791987D01*
X-3060463Y-43970918D01*
X-2762912Y-44094168D01*
X-2447033Y-44157000D01*
X-2124967Y-44157000D01*
X-1919244Y-44116079D01*
X-2064895Y-44215500D01*
X-2262601Y-44417161D01*
X-2417166Y-44653517D01*
X-2522650Y-44915486D01*
X-2575000Y-45193000D01*
X-2575000Y-45593000D01*
X-1267000Y-45593000D01*
X-1267000Y-44050085D01*
X-1013000Y-44050085D01*
X-1013000Y-45593000D01*
X1013000Y-45593000D01*
X1013000Y-44050085D01*
X790961Y-43928096D01*
X708182Y-43945633D01*
X448354Y-44056285D01*
X215105Y-44215500D01*
X17399Y-44417161D01*
X0Y-44443767D01*
X-17399Y-44417161D01*
X-215105Y-44215500D01*
X-448354Y-44056285D01*
X-708182Y-43945633D01*
X-790961Y-43928096D01*
X-1013000Y-44050085D01*
X-1267000Y-44050085D01*
X-1466216Y-43940635D01*
X-1243748Y-43791987D01*
X-1109174Y-43657413D01*
X1258192Y-43657413D01*
X1353956Y-43921814D01*
X1431665Y-43959617D01*
X1267000Y-44050085D01*
X1267000Y-45593000D01*
X2575000Y-45593000D01*
X2575000Y-45193000D01*
X2566796Y-45149508D01*
X2805000Y-45149508D01*
X2805000Y-46290491D01*
X2825764Y-46501308D01*
X2907818Y-46771807D01*
X3041068Y-47021100D01*
X3220392Y-47239607D01*
X3438899Y-47418932D01*
X3688192Y-47552182D01*
X3958691Y-47634236D01*
X4240000Y-47661943D01*
X4521308Y-47634236D01*
X4791807Y-47552182D01*
X5041100Y-47418932D01*
X5259607Y-47239608D01*
X5438932Y-47021101D01*
X5572182Y-46771808D01*
X5654236Y-46501309D01*
X5675000Y-46290492D01*
X5675000Y-45149508D01*
X5670318Y-45101963D01*
X11155000Y-45101963D01*
X11155000Y-46338036D01*
X11175040Y-46541506D01*
X11254236Y-46802580D01*
X11382843Y-47043187D01*
X11555919Y-47254080D01*
X11766812Y-47427157D01*
X12007419Y-47555764D01*
X12268493Y-47634960D01*
X12540000Y-47661701D01*
X12811506Y-47634960D01*
X13072580Y-47555764D01*
X13313187Y-47427157D01*
X13524080Y-47254081D01*
X13697157Y-47043188D01*
X13825764Y-46802581D01*
X13904960Y-46541507D01*
X13925000Y-46338037D01*
X13925000Y-45101963D01*
X13904960Y-44898493D01*
X13825764Y-44637419D01*
X13697157Y-44396812D01*
X13524081Y-44185919D01*
X13313188Y-44012843D01*
X13072581Y-43884236D01*
X12811507Y-43805040D01*
X12540000Y-43778299D01*
X12268494Y-43805040D01*
X12007420Y-43884236D01*
X11766813Y-44012843D01*
X11555920Y-44185919D01*
X11382843Y-44396812D01*
X11254236Y-44637419D01*
X11175040Y-44898493D01*
X11155000Y-45101963D01*
X5670318Y-45101963D01*
X5654236Y-44938691D01*
X5572182Y-44668192D01*
X5438932Y-44418899D01*
X5259608Y-44200392D01*
X5041101Y-44021068D01*
X4791808Y-43887818D01*
X4521309Y-43805764D01*
X4240000Y-43778057D01*
X3958692Y-43805764D01*
X3688193Y-43887818D01*
X3438900Y-44021068D01*
X3220393Y-44200392D01*
X3041068Y-44418899D01*
X2907818Y-44668192D01*
X2825764Y-44938691D01*
X2805000Y-45149508D01*
X2566796Y-45149508D01*
X2522650Y-44915486D01*
X2417166Y-44653517D01*
X2262601Y-44417161D01*
X2064895Y-44215500D01*
X1961252Y-44144753D01*
X2276595Y-44163718D01*
X2595675Y-44119961D01*
X2900088Y-44014795D01*
X3074044Y-43921814D01*
X3169808Y-43657413D01*
X2214000Y-42701605D01*
X1258192Y-43657413D01*
X-1109174Y-43657413D01*
X-1016013Y-43564252D01*
X-837082Y-43296463D01*
X-713832Y-42998912D01*
X-651000Y-42683033D01*
X-651000Y-42584595D01*
X572282Y-42584595D01*
X616039Y-42903675D01*
X721205Y-43208088D01*
X814186Y-43382044D01*
X1078587Y-43477808D01*
X2034395Y-42522000D01*
X2393605Y-42522000D01*
X3349413Y-43477808D01*
X3613814Y-43382044D01*
X3754704Y-43092429D01*
X3836384Y-42780892D01*
X3855718Y-42459405D01*
X3811961Y-42140325D01*
X3706795Y-41835912D01*
X3613814Y-41661956D01*
X3349413Y-41566192D01*
X2393605Y-42522000D01*
X2034395Y-42522000D01*
X1078587Y-41566192D01*
X814186Y-41661956D01*
X673296Y-41951571D01*
X591616Y-42263108D01*
X572282Y-42584595D01*
X-651000Y-42584595D01*
X-651000Y-42360967D01*
X-713832Y-42045088D01*
X-837082Y-41747537D01*
X-1016013Y-41479748D01*
X-1109174Y-41386587D01*
X1258192Y-41386587D01*
X2214000Y-42342395D01*
X3169808Y-41386587D01*
X3074044Y-41122186D01*
X2784429Y-40981296D01*
X2472892Y-40899616D01*
X2151405Y-40880282D01*
X1832325Y-40924039D01*
X1527912Y-41029205D01*
X1353956Y-41122186D01*
X1258192Y-41386587D01*
X-1109174Y-41386587D01*
X-1243748Y-41252013D01*
X-1511537Y-41073082D01*
X-1809088Y-40949832D01*
X-2124967Y-40887000D01*
X-2447033Y-40887000D01*
X-2762912Y-40949832D01*
X-3060463Y-41073082D01*
X-3328252Y-41252013D01*
X-3555987Y-41479748D01*
X-3734918Y-41747537D01*
X-3858168Y-42045088D01*
X-3921000Y-42360967D01*
X-14002839Y-42360967D01*
X-14002839Y-38385750D01*
X-2805000Y-38385750D01*
X-2805000Y-39062542D01*
X-2780597Y-39185223D01*
X-2732730Y-39300785D01*
X-2663237Y-39404789D01*
X-2574789Y-39493237D01*
X-2470785Y-39562730D01*
X-2355223Y-39610597D01*
X-2232542Y-39635000D01*
X-1555750Y-39635000D01*
X-1397000Y-39476250D01*
X-1397000Y-38227000D01*
X-2646250Y-38227000D01*
X-2805000Y-38385750D01*
X-14002839Y-38385750D01*
X-14002839Y-37137458D01*
X-2805000Y-37137458D01*
X-2805000Y-37814250D01*
X-2646250Y-37973000D01*
X-1397000Y-37973000D01*
X-1397000Y-36723750D01*
X-1143000Y-36723750D01*
X-1143000Y-37973000D01*
X-1123000Y-37973000D01*
X-1123000Y-38227000D01*
X-1143000Y-38227000D01*
X-1143000Y-39476250D01*
X-984250Y-39635000D01*
X-307458Y-39635000D01*
X-184777Y-39610597D01*
X-69215Y-39562730D01*
X34789Y-39493237D01*
X123237Y-39404789D01*
X192730Y-39300785D01*
X224139Y-39224956D01*
X291495Y-39292312D01*
X542905Y-39460299D01*
X822257Y-39576011D01*
X1118816Y-39635000D01*
X1421184Y-39635000D01*
X1717743Y-39576011D01*
X1997095Y-39460299D01*
X2248505Y-39292312D01*
X2462312Y-39078505D01*
X2630299Y-38827095D01*
X2746011Y-38547743D01*
X2805000Y-38251184D01*
X2805000Y-37948816D01*
X2746011Y-37652257D01*
X2630299Y-37372905D01*
X2462312Y-37121495D01*
X2248505Y-36907688D01*
X1997095Y-36739701D01*
X1717743Y-36623989D01*
X1421184Y-36565000D01*
X1118816Y-36565000D01*
X822257Y-36623989D01*
X542905Y-36739701D01*
X291495Y-36907688D01*
X224139Y-36975044D01*
X192730Y-36899215D01*
X123237Y-36795211D01*
X34789Y-36706763D01*
X-69215Y-36637270D01*
X-184777Y-36589403D01*
X-307458Y-36565000D01*
X-984250Y-36565000D01*
X-1143000Y-36723750D01*
X-1397000Y-36723750D01*
X-1555750Y-36565000D01*
X-2232542Y-36565000D01*
X-2355223Y-36589403D01*
X-2470785Y-36637270D01*
X-2574789Y-36706763D01*
X-2663237Y-36795211D01*
X-2732730Y-36899215D01*
X-2780597Y-37014777D01*
X-2805000Y-37137458D01*
X-14002839Y-37137458D01*
X-14002839Y-34732661D01*
X-12033500Y-34732661D01*
X-12033500Y-34936539D01*
X-11993726Y-35136498D01*
X-11915705Y-35324856D01*
X-11802437Y-35494374D01*
X-11658274Y-35638537D01*
X-11488756Y-35751805D01*
X-11300398Y-35829826D01*
X-11100439Y-35869600D01*
X-10896561Y-35869600D01*
X-10696602Y-35829826D01*
X-10508244Y-35751805D01*
X-10338726Y-35638537D01*
X-10194563Y-35494374D01*
X-10081295Y-35324856D01*
X-10003274Y-35136498D01*
X-9963500Y-34936539D01*
X-9963500Y-34732661D01*
X-10003274Y-34532702D01*
X-10081295Y-34344344D01*
X-10194563Y-34174826D01*
X-10338726Y-34030663D01*
X-10508244Y-33917395D01*
X-10696602Y-33839374D01*
X-10896561Y-33799600D01*
X-11100439Y-33799600D01*
X-11300398Y-33839374D01*
X-11488756Y-33917395D01*
X-11658274Y-34030663D01*
X-11802437Y-34174826D01*
X-11915705Y-34344344D01*
X-11993726Y-34532702D01*
X-12033500Y-34732661D01*
X-14002839Y-34732661D01*
X-14002839Y-33363261D01*
X-10316900Y-33363261D01*
X-10316900Y-33567139D01*
X-10277126Y-33767098D01*
X-10199105Y-33955456D01*
X-10085837Y-34124974D01*
X-9941674Y-34269137D01*
X-9772156Y-34382405D01*
X-9583798Y-34460426D01*
X-9383839Y-34500200D01*
X-9189487Y-34500200D01*
X-9171426Y-34590998D01*
X-9093405Y-34779356D01*
X-8980137Y-34948874D01*
X-8835974Y-35093037D01*
X-8666456Y-35206305D01*
X-8478098Y-35284326D01*
X-8278139Y-35324100D01*
X-8074261Y-35324100D01*
X-7874302Y-35284326D01*
X-7685944Y-35206305D01*
X-7516426Y-35093037D01*
X-7372263Y-34948874D01*
X-7258995Y-34779356D01*
X-7180974Y-34590998D01*
X-7141200Y-34391039D01*
X-7141200Y-34187161D01*
X-7180974Y-33987202D01*
X-7258995Y-33798844D01*
X-7372263Y-33629326D01*
X-7516426Y-33485163D01*
X-7685944Y-33371895D01*
X-7874302Y-33293874D01*
X-8074261Y-33254100D01*
X-8268613Y-33254100D01*
X-8286674Y-33163302D01*
X-8364695Y-32974944D01*
X-8477963Y-32805426D01*
X-8622126Y-32661263D01*
X-8791644Y-32547995D01*
X-8980002Y-32469974D01*
X-9179961Y-32430200D01*
X-9383839Y-32430200D01*
X-9583798Y-32469974D01*
X-9772156Y-32547995D01*
X-9941674Y-32661263D01*
X-10085837Y-32805426D01*
X-10199105Y-32974944D01*
X-10277126Y-33163302D01*
X-10316900Y-33363261D01*
X-14002839Y-33363261D01*
X-14002839Y-29861964D01*
X-13925000Y-29861964D01*
X-13925000Y-31098037D01*
X-13904960Y-31301507D01*
X-13825764Y-31562581D01*
X-13697157Y-31803188D01*
X-13524080Y-32014081D01*
X-13313187Y-32187157D01*
X-13072580Y-32315764D01*
X-12811506Y-32394960D01*
X-12540000Y-32421701D01*
X-12268493Y-32394960D01*
X-12007419Y-32315764D01*
X-11766812Y-32187157D01*
X-11555919Y-32014081D01*
X-11382843Y-31803188D01*
X-11254236Y-31562581D01*
X-11175040Y-31301507D01*
X-11155000Y-31098037D01*
X-11155000Y-30607000D01*
X-5675000Y-30607000D01*
X-5675000Y-31107000D01*
X-5622650Y-31384514D01*
X-5517166Y-31646483D01*
X-5362601Y-31882839D01*
X-5164895Y-32084500D01*
X-4931646Y-32243715D01*
X-4671818Y-32354367D01*
X-4589039Y-32371904D01*
X-4367000Y-32249915D01*
X-4367000Y-30607000D01*
X-4113000Y-30607000D01*
X-4113000Y-32249915D01*
X-3890961Y-32371904D01*
X-3808182Y-32354367D01*
X-3548354Y-32243715D01*
X-3315105Y-32084500D01*
X-3117399Y-31882839D01*
X-2962834Y-31646483D01*
X-2857350Y-31384514D01*
X-2805000Y-31107000D01*
X-2805000Y-30607000D01*
X-2575000Y-30607000D01*
X-2575000Y-31007000D01*
X-2522650Y-31284514D01*
X-2417166Y-31546483D01*
X-2262601Y-31782839D01*
X-2064895Y-31984500D01*
X-1831646Y-32143715D01*
X-1571818Y-32254367D01*
X-1489039Y-32271904D01*
X-1267000Y-32149915D01*
X-1267000Y-30607000D01*
X-1013000Y-30607000D01*
X-1013000Y-32149915D01*
X-790961Y-32271904D01*
X-708182Y-32254367D01*
X-448354Y-32143715D01*
X-215105Y-31984500D01*
X-17399Y-31782839D01*
X0Y-31756233D01*
X17399Y-31782839D01*
X215105Y-31984500D01*
X448354Y-32143715D01*
X708182Y-32254367D01*
X790961Y-32271904D01*
X1013000Y-32149915D01*
X1013000Y-30607000D01*
X1267000Y-30607000D01*
X1267000Y-32149915D01*
X1489039Y-32271904D01*
X1571818Y-32254367D01*
X1831646Y-32143715D01*
X2064895Y-31984500D01*
X2262601Y-31782839D01*
X2417166Y-31546483D01*
X2522650Y-31284514D01*
X2575000Y-31007000D01*
X2575000Y-30607000D01*
X1267000Y-30607000D01*
X1013000Y-30607000D01*
X-1013000Y-30607000D01*
X-1267000Y-30607000D01*
X-2575000Y-30607000D01*
X-2805000Y-30607000D01*
X-4113000Y-30607000D01*
X-4367000Y-30607000D01*
X-5675000Y-30607000D01*
X-11155000Y-30607000D01*
X-11155000Y-29861963D01*
X-11155882Y-29853000D01*
X-5675000Y-29853000D01*
X-5675000Y-30353000D01*
X-4367000Y-30353000D01*
X-4367000Y-28710085D01*
X-4113000Y-28710085D01*
X-4113000Y-30353000D01*
X-2805000Y-30353000D01*
X-2805000Y-29953000D01*
X-2575000Y-29953000D01*
X-2575000Y-30353000D01*
X-1267000Y-30353000D01*
X-1267000Y-28810085D01*
X-1013000Y-28810085D01*
X-1013000Y-30353000D01*
X1013000Y-30353000D01*
X1013000Y-28810085D01*
X1267000Y-28810085D01*
X1267000Y-30353000D01*
X2575000Y-30353000D01*
X2575000Y-29953000D01*
X2566796Y-29909508D01*
X2805000Y-29909508D01*
X2805000Y-31050491D01*
X2825764Y-31261308D01*
X2907818Y-31531807D01*
X3041068Y-31781100D01*
X3220392Y-31999607D01*
X3438899Y-32178932D01*
X3688192Y-32312182D01*
X3958691Y-32394236D01*
X4240000Y-32421943D01*
X4521308Y-32394236D01*
X4791807Y-32312182D01*
X5041100Y-32178932D01*
X5259607Y-31999608D01*
X5438932Y-31781101D01*
X5572182Y-31531808D01*
X5654236Y-31261309D01*
X5675000Y-31050492D01*
X5675000Y-29909508D01*
X5670318Y-29861963D01*
X11155000Y-29861963D01*
X11155000Y-31098036D01*
X11175040Y-31301506D01*
X11254236Y-31562580D01*
X11382843Y-31803187D01*
X11555919Y-32014080D01*
X11766812Y-32187157D01*
X12007419Y-32315764D01*
X12268493Y-32394960D01*
X12540000Y-32421701D01*
X12811506Y-32394960D01*
X13072580Y-32315764D01*
X13313187Y-32187157D01*
X13524080Y-32014081D01*
X13697157Y-31803188D01*
X13825764Y-31562581D01*
X13904960Y-31301507D01*
X13925000Y-31098037D01*
X13925000Y-29861963D01*
X13904960Y-29658493D01*
X13825764Y-29397419D01*
X13697157Y-29156812D01*
X13524081Y-28945919D01*
X13313188Y-28772843D01*
X13072581Y-28644236D01*
X12811507Y-28565040D01*
X12540000Y-28538299D01*
X12268494Y-28565040D01*
X12007420Y-28644236D01*
X11766813Y-28772843D01*
X11555920Y-28945919D01*
X11382843Y-29156812D01*
X11254236Y-29397419D01*
X11175040Y-29658493D01*
X11155000Y-29861963D01*
X5670318Y-29861963D01*
X5654236Y-29698691D01*
X5572182Y-29428192D01*
X5438932Y-29178899D01*
X5259608Y-28960392D01*
X5041101Y-28781068D01*
X4791808Y-28647818D01*
X4521309Y-28565764D01*
X4240000Y-28538057D01*
X3958692Y-28565764D01*
X3688193Y-28647818D01*
X3438900Y-28781068D01*
X3220393Y-28960392D01*
X3041068Y-29178899D01*
X2907818Y-29428192D01*
X2825764Y-29698691D01*
X2805000Y-29909508D01*
X2566796Y-29909508D01*
X2522650Y-29675486D01*
X2417166Y-29413517D01*
X2262601Y-29177161D01*
X2064895Y-28975500D01*
X1831646Y-28816285D01*
X1571818Y-28705633D01*
X1489039Y-28688096D01*
X1267000Y-28810085D01*
X1013000Y-28810085D01*
X790961Y-28688096D01*
X708182Y-28705633D01*
X448354Y-28816285D01*
X215105Y-28975500D01*
X17399Y-29177161D01*
X0Y-29203767D01*
X-17399Y-29177161D01*
X-215105Y-28975500D01*
X-448354Y-28816285D01*
X-708182Y-28705633D01*
X-790961Y-28688096D01*
X-1013000Y-28810085D01*
X-1267000Y-28810085D01*
X-1489039Y-28688096D01*
X-1571818Y-28705633D01*
X-1831646Y-28816285D01*
X-2064895Y-28975500D01*
X-2262601Y-29177161D01*
X-2417166Y-29413517D01*
X-2522650Y-29675486D01*
X-2575000Y-29953000D01*
X-2805000Y-29953000D01*
X-2805000Y-29853000D01*
X-2857350Y-29575486D01*
X-2962834Y-29313517D01*
X-3117399Y-29077161D01*
X-3315105Y-28875500D01*
X-3548354Y-28716285D01*
X-3808182Y-28605633D01*
X-3890961Y-28588096D01*
X-4113000Y-28710085D01*
X-4367000Y-28710085D01*
X-4589039Y-28588096D01*
X-4671818Y-28605633D01*
X-4931646Y-28716285D01*
X-5164895Y-28875500D01*
X-5362601Y-29077161D01*
X-5517166Y-29313517D01*
X-5622650Y-29575486D01*
X-5675000Y-29853000D01*
X-11155882Y-29853000D01*
X-11175040Y-29658493D01*
X-11254236Y-29397419D01*
X-11382843Y-29156812D01*
X-11555920Y-28945919D01*
X-11766813Y-28772843D01*
X-12007420Y-28644236D01*
X-12268494Y-28565040D01*
X-12540000Y-28538299D01*
X-12811507Y-28565040D01*
X-13072581Y-28644236D01*
X-13313188Y-28772843D01*
X-13524081Y-28945920D01*
X-13697157Y-29156813D01*
X-13825764Y-29397420D01*
X-13904960Y-29658494D01*
X-13925000Y-29861964D01*
X-14002839Y-29861964D01*
X-14002839Y-27011661D01*
X-2020400Y-27011661D01*
X-2020400Y-27215539D01*
X-1980626Y-27415498D01*
X-1902605Y-27603856D01*
X-1789337Y-27773374D01*
X-1645174Y-27917537D01*
X-1475656Y-28030805D01*
X-1287298Y-28108826D01*
X-1087339Y-28148600D01*
X-883461Y-28148600D01*
X-683502Y-28108826D01*
X-495144Y-28030805D01*
X-325626Y-27917537D01*
X-181463Y-27773374D01*
X-68195Y-27603856D01*
X9826Y-27415498D01*
X49600Y-27215539D01*
X49600Y-27011661D01*
X9826Y-26811702D01*
X-68195Y-26623344D01*
X-181463Y-26453826D01*
X-325626Y-26309663D01*
X-495144Y-26196395D01*
X-683502Y-26118374D01*
X-883461Y-26078600D01*
X-1087339Y-26078600D01*
X-1287298Y-26118374D01*
X-1475656Y-26196395D01*
X-1645174Y-26309663D01*
X-1789337Y-26453826D01*
X-1902605Y-26623344D01*
X-1980626Y-26811702D01*
X-2020400Y-27011661D01*
X-14002839Y-27011661D01*
X-14002839Y-22339061D01*
X-12185500Y-22339061D01*
X-12185500Y-22542939D01*
X-12145726Y-22742898D01*
X-12067705Y-22931256D01*
X-11954437Y-23100774D01*
X-11810274Y-23244937D01*
X-11640756Y-23358205D01*
X-11452398Y-23436226D01*
X-11252439Y-23476000D01*
X-11048561Y-23476000D01*
X-10848602Y-23436226D01*
X-10660244Y-23358205D01*
X-10490726Y-23244937D01*
X-10391539Y-23145750D01*
X-2805000Y-23145750D01*
X-2805000Y-23822542D01*
X-2780597Y-23945223D01*
X-2732730Y-24060785D01*
X-2663237Y-24164789D01*
X-2574789Y-24253237D01*
X-2470785Y-24322730D01*
X-2355223Y-24370597D01*
X-2232542Y-24395000D01*
X-1555750Y-24395000D01*
X-1397000Y-24236250D01*
X-1397000Y-22987000D01*
X-2646250Y-22987000D01*
X-2805000Y-23145750D01*
X-10391539Y-23145750D01*
X-10346563Y-23100774D01*
X-10233295Y-22931256D01*
X-10155274Y-22742898D01*
X-10115500Y-22542939D01*
X-10115500Y-22339061D01*
X-10155274Y-22139102D01*
X-10233295Y-21950744D01*
X-10346563Y-21781226D01*
X-10490726Y-21637063D01*
X-10660244Y-21523795D01*
X-10848602Y-21445774D01*
X-11048561Y-21406000D01*
X-11252439Y-21406000D01*
X-11452398Y-21445774D01*
X-11640756Y-21523795D01*
X-11810274Y-21637063D01*
X-11954437Y-21781226D01*
X-12067705Y-21950744D01*
X-12145726Y-22139102D01*
X-12185500Y-22339061D01*
X-14002839Y-22339061D01*
X-14002839Y-20828061D01*
X-2965000Y-20828061D01*
X-2965000Y-21031939D01*
X-2925226Y-21231898D01*
X-2847205Y-21420256D01*
X-2733937Y-21589774D01*
X-2705399Y-21618312D01*
X-2732730Y-21659215D01*
X-2780597Y-21774777D01*
X-2805000Y-21897458D01*
X-2805000Y-22574250D01*
X-2646250Y-22733000D01*
X-1397000Y-22733000D01*
X-1397000Y-22713000D01*
X-1143000Y-22713000D01*
X-1143000Y-22733000D01*
X-1123000Y-22733000D01*
X-1123000Y-22987000D01*
X-1143000Y-22987000D01*
X-1143000Y-24236250D01*
X-984250Y-24395000D01*
X-307458Y-24395000D01*
X-184777Y-24370597D01*
X-69215Y-24322730D01*
X34789Y-24253237D01*
X123237Y-24164789D01*
X192730Y-24060785D01*
X224139Y-23984956D01*
X291495Y-24052312D01*
X542905Y-24220299D01*
X822257Y-24336011D01*
X1118816Y-24395000D01*
X1421184Y-24395000D01*
X1717743Y-24336011D01*
X1997095Y-24220299D01*
X2248505Y-24052312D01*
X2462312Y-23838505D01*
X2630299Y-23587095D01*
X2710670Y-23393061D01*
X2775000Y-23393061D01*
X2775000Y-23596939D01*
X2814774Y-23796898D01*
X2892795Y-23985256D01*
X3006063Y-24154774D01*
X3150226Y-24298937D01*
X3319744Y-24412205D01*
X3508102Y-24490226D01*
X3708061Y-24530000D01*
X3911939Y-24530000D01*
X4111898Y-24490226D01*
X4300256Y-24412205D01*
X4469774Y-24298937D01*
X4613937Y-24154774D01*
X4727205Y-23985256D01*
X4805226Y-23796898D01*
X4845000Y-23596939D01*
X4845000Y-23393061D01*
X4805226Y-23193102D01*
X4727205Y-23004744D01*
X4613937Y-22835226D01*
X4469774Y-22691063D01*
X4300256Y-22577795D01*
X4111898Y-22499774D01*
X3911939Y-22460000D01*
X3708061Y-22460000D01*
X3508102Y-22499774D01*
X3319744Y-22577795D01*
X3150226Y-22691063D01*
X3006063Y-22835226D01*
X2892795Y-23004744D01*
X2814774Y-23193102D01*
X2775000Y-23393061D01*
X2710670Y-23393061D01*
X2746011Y-23307743D01*
X2805000Y-23011184D01*
X2805000Y-22708816D01*
X2746011Y-22412257D01*
X2651241Y-22183461D01*
X7188000Y-22183461D01*
X7188000Y-22387339D01*
X7227774Y-22587298D01*
X7305795Y-22775656D01*
X7419063Y-22945174D01*
X7563226Y-23089337D01*
X7732744Y-23202605D01*
X7921102Y-23280626D01*
X8121061Y-23320400D01*
X8294000Y-23320400D01*
X8294000Y-23516339D01*
X8333774Y-23716298D01*
X8411795Y-23904656D01*
X8525063Y-24074174D01*
X8669226Y-24218337D01*
X8838744Y-24331605D01*
X9027102Y-24409626D01*
X9227061Y-24449400D01*
X9430939Y-24449400D01*
X9630898Y-24409626D01*
X9819256Y-24331605D01*
X9988774Y-24218337D01*
X10132937Y-24074174D01*
X10246205Y-23904656D01*
X10324226Y-23716298D01*
X10364000Y-23516339D01*
X10364000Y-23312461D01*
X10337742Y-23180453D01*
X10465226Y-23307937D01*
X10634744Y-23421205D01*
X10823102Y-23499226D01*
X11023061Y-23539000D01*
X11226939Y-23539000D01*
X11426898Y-23499226D01*
X11615256Y-23421205D01*
X11784774Y-23307937D01*
X11928937Y-23163774D01*
X12042205Y-22994256D01*
X12120226Y-22805898D01*
X12160000Y-22605939D01*
X12160000Y-22402061D01*
X12120226Y-22202102D01*
X12042205Y-22013744D01*
X11928937Y-21844226D01*
X11784774Y-21700063D01*
X11615256Y-21586795D01*
X11426898Y-21508774D01*
X11226939Y-21469000D01*
X11023061Y-21469000D01*
X11011653Y-21471269D01*
X11045605Y-21420456D01*
X11123626Y-21232098D01*
X11163400Y-21032139D01*
X11163400Y-20828261D01*
X11123626Y-20628302D01*
X11045605Y-20439944D01*
X10932337Y-20270426D01*
X10788174Y-20126263D01*
X10618656Y-20012995D01*
X10430298Y-19934974D01*
X10230339Y-19895200D01*
X10026461Y-19895200D01*
X9826502Y-19934974D01*
X9638144Y-20012995D01*
X9468626Y-20126263D01*
X9324463Y-20270426D01*
X9211195Y-20439944D01*
X9133174Y-20628302D01*
X9093400Y-20828261D01*
X9093400Y-21032139D01*
X9133174Y-21232098D01*
X9211195Y-21420456D01*
X9324463Y-21589974D01*
X9468626Y-21734137D01*
X9638144Y-21847405D01*
X9826502Y-21925426D01*
X10026461Y-21965200D01*
X10230339Y-21965200D01*
X10241747Y-21962931D01*
X10207795Y-22013744D01*
X10129774Y-22202102D01*
X10090000Y-22402061D01*
X10090000Y-22605939D01*
X10116258Y-22737947D01*
X9988774Y-22610463D01*
X9819256Y-22497195D01*
X9630898Y-22419174D01*
X9430939Y-22379400D01*
X9258000Y-22379400D01*
X9258000Y-22183461D01*
X9218226Y-21983502D01*
X9140205Y-21795144D01*
X9026937Y-21625626D01*
X8882774Y-21481463D01*
X8713256Y-21368195D01*
X8524898Y-21290174D01*
X8324939Y-21250400D01*
X8121061Y-21250400D01*
X7921102Y-21290174D01*
X7732744Y-21368195D01*
X7563226Y-21481463D01*
X7419063Y-21625626D01*
X7305795Y-21795144D01*
X7227774Y-21983502D01*
X7188000Y-22183461D01*
X2651241Y-22183461D01*
X2630299Y-22132905D01*
X2462312Y-21881495D01*
X2248505Y-21667688D01*
X1997095Y-21499701D01*
X1717743Y-21383989D01*
X1421184Y-21325000D01*
X1118816Y-21325000D01*
X822257Y-21383989D01*
X542905Y-21499701D01*
X291495Y-21667688D01*
X224139Y-21735044D01*
X192730Y-21659215D01*
X123237Y-21555211D01*
X34789Y-21466763D01*
X-69215Y-21397270D01*
X-184777Y-21349403D01*
X-307458Y-21325000D01*
X-973338Y-21325000D01*
X-934774Y-21231898D01*
X-895000Y-21031939D01*
X-895000Y-20828061D01*
X-934774Y-20628102D01*
X-1012795Y-20439744D01*
X-1126063Y-20270226D01*
X-1270226Y-20126063D01*
X-1439744Y-20012795D01*
X-1628102Y-19934774D01*
X-1828061Y-19895000D01*
X-2031939Y-19895000D01*
X-2231898Y-19934774D01*
X-2420256Y-20012795D01*
X-2589774Y-20126063D01*
X-2733937Y-20270226D01*
X-2847205Y-20439744D01*
X-2925226Y-20628102D01*
X-2965000Y-20828061D01*
X-14002839Y-20828061D01*
X-14002839Y-17329061D01*
X-10670100Y-17329061D01*
X-10670100Y-17532939D01*
X-10630326Y-17732898D01*
X-10552305Y-17921256D01*
X-10439037Y-18090774D01*
X-10294874Y-18234937D01*
X-10125356Y-18348205D01*
X-9936998Y-18426226D01*
X-9810108Y-18451466D01*
X-9880126Y-18620502D01*
X-9919900Y-18820461D01*
X-9919900Y-19024339D01*
X-9880126Y-19224298D01*
X-9802105Y-19412656D01*
X-9688837Y-19582174D01*
X-9544674Y-19726337D01*
X-9375156Y-19839605D01*
X-9186798Y-19917626D01*
X-8986839Y-19957400D01*
X-8782961Y-19957400D01*
X-8583002Y-19917626D01*
X-8394644Y-19839605D01*
X-8225126Y-19726337D01*
X-8080963Y-19582174D01*
X-7967695Y-19412656D01*
X-7889674Y-19224298D01*
X-7849900Y-19024339D01*
X-7849900Y-18820461D01*
X-7889674Y-18620502D01*
X-7967695Y-18432144D01*
X-8080963Y-18262626D01*
X-8225126Y-18118463D01*
X-8394644Y-18005195D01*
X-8583002Y-17927174D01*
X-8709892Y-17901934D01*
X-8639874Y-17732898D01*
X-8604899Y-17557061D01*
X8560000Y-17557061D01*
X8560000Y-17760939D01*
X8599774Y-17960898D01*
X8677795Y-18149256D01*
X8791063Y-18318774D01*
X8935226Y-18462937D01*
X9104744Y-18576205D01*
X9293102Y-18654226D01*
X9493061Y-18694000D01*
X9696939Y-18694000D01*
X9896898Y-18654226D01*
X10085256Y-18576205D01*
X10254774Y-18462937D01*
X10398937Y-18318774D01*
X10512205Y-18149256D01*
X10590226Y-17960898D01*
X10630000Y-17760939D01*
X10630000Y-17557061D01*
X10590226Y-17357102D01*
X10512205Y-17168744D01*
X10398937Y-16999226D01*
X10254774Y-16855063D01*
X10085256Y-16741795D01*
X9896898Y-16663774D01*
X9696939Y-16624000D01*
X9493061Y-16624000D01*
X9293102Y-16663774D01*
X9104744Y-16741795D01*
X8935226Y-16855063D01*
X8791063Y-16999226D01*
X8677795Y-17168744D01*
X8599774Y-17357102D01*
X8560000Y-17557061D01*
X-8604899Y-17557061D01*
X-8600100Y-17532939D01*
X-8600100Y-17329061D01*
X-8639874Y-17129102D01*
X-8717895Y-16940744D01*
X-8831163Y-16771226D01*
X-8975326Y-16627063D01*
X-9144844Y-16513795D01*
X-9333202Y-16435774D01*
X-9533161Y-16396000D01*
X-9737039Y-16396000D01*
X-9936998Y-16435774D01*
X-10125356Y-16513795D01*
X-10294874Y-16627063D01*
X-10439037Y-16771226D01*
X-10552305Y-16940744D01*
X-10630326Y-17129102D01*
X-10670100Y-17329061D01*
X-14002839Y-17329061D01*
X-14002839Y-14621964D01*
X-13925000Y-14621964D01*
X-13925000Y-15858037D01*
X-13904960Y-16061507D01*
X-13825764Y-16322581D01*
X-13697157Y-16563188D01*
X-13524080Y-16774081D01*
X-13313187Y-16947157D01*
X-13072580Y-17075764D01*
X-12811506Y-17154960D01*
X-12540000Y-17181701D01*
X-12268493Y-17154960D01*
X-12007419Y-17075764D01*
X-11766812Y-16947157D01*
X-11555919Y-16774081D01*
X-11382843Y-16563188D01*
X-11254236Y-16322581D01*
X-11175040Y-16061507D01*
X-11155000Y-15858037D01*
X-11155000Y-15367000D01*
X-5675000Y-15367000D01*
X-5675000Y-15867000D01*
X-5622650Y-16144514D01*
X-5517166Y-16406483D01*
X-5362601Y-16642839D01*
X-5164895Y-16844500D01*
X-4931646Y-17003715D01*
X-4671818Y-17114367D01*
X-4589039Y-17131904D01*
X-4367000Y-17009915D01*
X-4367000Y-15367000D01*
X-4113000Y-15367000D01*
X-4113000Y-17009915D01*
X-3890961Y-17131904D01*
X-3808182Y-17114367D01*
X-3548354Y-17003715D01*
X-3315105Y-16844500D01*
X-3117399Y-16642839D01*
X-2962834Y-16406483D01*
X-2857350Y-16144514D01*
X-2805000Y-15867000D01*
X-2805000Y-15367000D01*
X-2575000Y-15367000D01*
X-2575000Y-15767000D01*
X-2522650Y-16044514D01*
X-2417166Y-16306483D01*
X-2262601Y-16542839D01*
X-2064895Y-16744500D01*
X-1831646Y-16903715D01*
X-1571818Y-17014367D01*
X-1489039Y-17031904D01*
X-1267000Y-16909915D01*
X-1267000Y-15367000D01*
X-1013000Y-15367000D01*
X-1013000Y-16909915D01*
X-790961Y-17031904D01*
X-708182Y-17014367D01*
X-448354Y-16903715D01*
X-215105Y-16744500D01*
X-17399Y-16542839D01*
X0Y-16516233D01*
X17399Y-16542839D01*
X215105Y-16744500D01*
X448354Y-16903715D01*
X708182Y-17014367D01*
X790961Y-17031904D01*
X1013000Y-16909915D01*
X1013000Y-15367000D01*
X1267000Y-15367000D01*
X1267000Y-16909915D01*
X1489039Y-17031904D01*
X1571818Y-17014367D01*
X1831646Y-16903715D01*
X2064895Y-16744500D01*
X2262601Y-16542839D01*
X2417166Y-16306483D01*
X2522650Y-16044514D01*
X2575000Y-15767000D01*
X2575000Y-15367000D01*
X1267000Y-15367000D01*
X1013000Y-15367000D01*
X-1013000Y-15367000D01*
X-1267000Y-15367000D01*
X-2575000Y-15367000D01*
X-2805000Y-15367000D01*
X-4113000Y-15367000D01*
X-4367000Y-15367000D01*
X-5675000Y-15367000D01*
X-11155000Y-15367000D01*
X-11155000Y-14621963D01*
X-11155882Y-14613000D01*
X-5675000Y-14613000D01*
X-5675000Y-15113000D01*
X-4367000Y-15113000D01*
X-4367000Y-13470085D01*
X-4113000Y-13470085D01*
X-4113000Y-15113000D01*
X-2805000Y-15113000D01*
X-2805000Y-14713000D01*
X-2575000Y-14713000D01*
X-2575000Y-15113000D01*
X-1267000Y-15113000D01*
X-1267000Y-13570085D01*
X-1013000Y-13570085D01*
X-1013000Y-15113000D01*
X1013000Y-15113000D01*
X1013000Y-15093000D01*
X1267000Y-15093000D01*
X1267000Y-15113000D01*
X2575000Y-15113000D01*
X2575000Y-14713000D01*
X2566796Y-14669508D01*
X2805000Y-14669508D01*
X2805000Y-15810491D01*
X2825764Y-16021308D01*
X2907818Y-16291807D01*
X3041068Y-16541100D01*
X3220392Y-16759607D01*
X3438899Y-16938932D01*
X3688192Y-17072182D01*
X3958691Y-17154236D01*
X4240000Y-17181943D01*
X4521308Y-17154236D01*
X4791807Y-17072182D01*
X5041100Y-16938932D01*
X5259607Y-16759608D01*
X5438932Y-16541101D01*
X5572182Y-16291808D01*
X5654236Y-16021309D01*
X5675000Y-15810492D01*
X5675000Y-14669508D01*
X5670318Y-14621963D01*
X11155000Y-14621963D01*
X11155000Y-15858036D01*
X11175040Y-16061506D01*
X11254236Y-16322580D01*
X11382843Y-16563187D01*
X11555919Y-16774080D01*
X11766812Y-16947157D01*
X12007419Y-17075764D01*
X12268493Y-17154960D01*
X12540000Y-17181701D01*
X12811506Y-17154960D01*
X13072580Y-17075764D01*
X13313187Y-16947157D01*
X13524080Y-16774081D01*
X13697157Y-16563188D01*
X13825764Y-16322581D01*
X13904960Y-16061507D01*
X13925000Y-15858037D01*
X13925000Y-14621963D01*
X13904960Y-14418493D01*
X13825764Y-14157419D01*
X13697157Y-13916812D01*
X13524081Y-13705919D01*
X13313188Y-13532843D01*
X13072581Y-13404236D01*
X12811507Y-13325040D01*
X12540000Y-13298299D01*
X12268494Y-13325040D01*
X12007420Y-13404236D01*
X11766813Y-13532843D01*
X11555920Y-13705919D01*
X11382843Y-13916812D01*
X11254236Y-14157419D01*
X11175040Y-14418493D01*
X11155000Y-14621963D01*
X5670318Y-14621963D01*
X5654236Y-14458691D01*
X5572182Y-14188192D01*
X5438932Y-13938899D01*
X5259608Y-13720392D01*
X5041101Y-13541068D01*
X4791808Y-13407818D01*
X4521309Y-13325764D01*
X4240000Y-13298057D01*
X3958692Y-13325764D01*
X3688193Y-13407818D01*
X3438900Y-13541068D01*
X3220393Y-13720392D01*
X3041068Y-13938899D01*
X2907818Y-14188192D01*
X2825764Y-14458691D01*
X2805000Y-14669508D01*
X2566796Y-14669508D01*
X2522650Y-14435486D01*
X2417166Y-14173517D01*
X2340630Y-14056481D01*
X2472537Y-13924574D01*
X2585805Y-13755056D01*
X2663826Y-13566698D01*
X2703600Y-13366739D01*
X2703600Y-13162861D01*
X2663826Y-12962902D01*
X2585805Y-12774544D01*
X2472537Y-12605026D01*
X2328374Y-12460863D01*
X2158856Y-12347595D01*
X1970498Y-12269574D01*
X1770539Y-12229800D01*
X1566661Y-12229800D01*
X1366702Y-12269574D01*
X1178344Y-12347595D01*
X1008826Y-12460863D01*
X864663Y-12605026D01*
X751395Y-12774544D01*
X673374Y-12962902D01*
X633600Y-13162861D01*
X633600Y-13366739D01*
X657559Y-13487192D01*
X448354Y-13576285D01*
X215105Y-13735500D01*
X17399Y-13937161D01*
X0Y-13963767D01*
X-17399Y-13937161D01*
X-215105Y-13735500D01*
X-448354Y-13576285D01*
X-708182Y-13465633D01*
X-790961Y-13448096D01*
X-1013000Y-13570085D01*
X-1267000Y-13570085D01*
X-1489039Y-13448096D01*
X-1571818Y-13465633D01*
X-1831646Y-13576285D01*
X-2064895Y-13735500D01*
X-2262601Y-13937161D01*
X-2417166Y-14173517D01*
X-2522650Y-14435486D01*
X-2575000Y-14713000D01*
X-2805000Y-14713000D01*
X-2805000Y-14613000D01*
X-2857350Y-14335486D01*
X-2962834Y-14073517D01*
X-3117399Y-13837161D01*
X-3315105Y-13635500D01*
X-3548354Y-13476285D01*
X-3808182Y-13365633D01*
X-3890961Y-13348096D01*
X-4113000Y-13470085D01*
X-4367000Y-13470085D01*
X-4589039Y-13348096D01*
X-4671818Y-13365633D01*
X-4931646Y-13476285D01*
X-5164895Y-13635500D01*
X-5362601Y-13837161D01*
X-5517166Y-14073517D01*
X-5622650Y-14335486D01*
X-5675000Y-14613000D01*
X-11155882Y-14613000D01*
X-11175040Y-14418493D01*
X-11254236Y-14157419D01*
X-11382843Y-13916812D01*
X-11555920Y-13705919D01*
X-11766813Y-13532843D01*
X-12007420Y-13404236D01*
X-12268494Y-13325040D01*
X-12540000Y-13298299D01*
X-12811507Y-13325040D01*
X-13072581Y-13404236D01*
X-13313188Y-13532843D01*
X-13524081Y-13705920D01*
X-13697157Y-13916813D01*
X-13825764Y-14157420D01*
X-13904960Y-14418494D01*
X-13925000Y-14621964D01*
X-14002839Y-14621964D01*
X-14002839Y-11095461D01*
X-9885000Y-11095461D01*
X-9885000Y-11299339D01*
X-9845226Y-11499298D01*
X-9767205Y-11687656D01*
X-9653937Y-11857174D01*
X-9509774Y-12001337D01*
X-9340256Y-12114605D01*
X-9151898Y-12192626D01*
X-8951939Y-12232400D01*
X-8748061Y-12232400D01*
X-8548102Y-12192626D01*
X-8359744Y-12114605D01*
X-8190226Y-12001337D01*
X-8046063Y-11857174D01*
X-7932795Y-11687656D01*
X-7854774Y-11499298D01*
X-7815000Y-11299339D01*
X-7815000Y-11139261D01*
X-1822500Y-11139261D01*
X-1822500Y-11343139D01*
X-1782726Y-11543098D01*
X-1704705Y-11731456D01*
X-1591437Y-11900974D01*
X-1447274Y-12045137D01*
X-1277756Y-12158405D01*
X-1089398Y-12236426D01*
X-889439Y-12276200D01*
X-685561Y-12276200D01*
X-485602Y-12236426D01*
X-297244Y-12158405D01*
X-127726Y-12045137D01*
X16437Y-11900974D01*
X129705Y-11731456D01*
X207726Y-11543098D01*
X247500Y-11343139D01*
X247500Y-11139261D01*
X207726Y-10939302D01*
X129705Y-10750944D01*
X16437Y-10581426D01*
X-127726Y-10437263D01*
X-297244Y-10323995D01*
X-485602Y-10245974D01*
X-685561Y-10206200D01*
X-889439Y-10206200D01*
X-1089398Y-10245974D01*
X-1277756Y-10323995D01*
X-1447274Y-10437263D01*
X-1591437Y-10581426D01*
X-1704705Y-10750944D01*
X-1782726Y-10939302D01*
X-1822500Y-11139261D01*
X-7815000Y-11139261D01*
X-7815000Y-11095461D01*
X-7854774Y-10895502D01*
X-7932795Y-10707144D01*
X-8046063Y-10537626D01*
X-8190226Y-10393463D01*
X-8359744Y-10280195D01*
X-8548102Y-10202174D01*
X-8748061Y-10162400D01*
X-8951939Y-10162400D01*
X-9151898Y-10202174D01*
X-9340256Y-10280195D01*
X-9509774Y-10393463D01*
X-9653937Y-10537626D01*
X-9767205Y-10707144D01*
X-9845226Y-10895502D01*
X-9885000Y-11095461D01*
X-14002839Y-11095461D01*
X-14002839Y-8564090D01*
X-11004475Y-8564090D01*
X-10920792Y-8818271D01*
X-10648225Y-8949168D01*
X-10355358Y-9024375D01*
X-10053447Y-9041001D01*
X-9754093Y-8998407D01*
X-9468801Y-8898232D01*
X-9319208Y-8818271D01*
X-9235525Y-8564090D01*
X-10120000Y-7679615D01*
X-11004475Y-8564090D01*
X-14002839Y-8564090D01*
X-14002839Y-7566563D01*
X-11660991Y-7566563D01*
X-11618397Y-7865917D01*
X-11518222Y-8151209D01*
X-11438261Y-8300802D01*
X-11184080Y-8384485D01*
X-10299605Y-7500010D01*
X-9940395Y-7500010D01*
X-9055920Y-8384485D01*
X-8874951Y-8324905D01*
X-8772312Y-8478515D01*
X-8558505Y-8692322D01*
X-8307095Y-8860309D01*
X-8027743Y-8976021D01*
X-7731184Y-9035010D01*
X-7428816Y-9035010D01*
X-7132257Y-8976021D01*
X-6852905Y-8860309D01*
X-6601495Y-8692322D01*
X-6387688Y-8478515D01*
X-6350000Y-8422111D01*
X-6312312Y-8478515D01*
X-6098505Y-8692322D01*
X-5847095Y-8860309D01*
X-5567743Y-8976021D01*
X-5271184Y-9035010D01*
X-4968816Y-9035010D01*
X-4672257Y-8976021D01*
X-4392905Y-8860309D01*
X-4141495Y-8692322D01*
X-3927688Y-8478515D01*
X-3759701Y-8227105D01*
X-3643989Y-7947753D01*
X-3585000Y-7651194D01*
X-3585000Y-7348826D01*
X3585000Y-7348826D01*
X3585000Y-7651194D01*
X3643989Y-7947753D01*
X3759701Y-8227105D01*
X3927688Y-8478515D01*
X4141495Y-8692322D01*
X4392905Y-8860309D01*
X4672257Y-8976021D01*
X4968816Y-9035010D01*
X5271184Y-9035010D01*
X5567743Y-8976021D01*
X5847095Y-8860309D01*
X6098505Y-8692322D01*
X6312312Y-8478515D01*
X6390000Y-8362247D01*
X6467688Y-8478515D01*
X6681495Y-8692322D01*
X6932905Y-8860309D01*
X7212257Y-8976021D01*
X7508816Y-9035010D01*
X7811184Y-9035010D01*
X8107743Y-8976021D01*
X8387095Y-8860309D01*
X8638505Y-8692322D01*
X8852312Y-8478515D01*
X8890000Y-8422111D01*
X8927688Y-8478515D01*
X9141495Y-8692322D01*
X9392905Y-8860309D01*
X9672257Y-8976021D01*
X9968816Y-9035010D01*
X10271184Y-9035010D01*
X10567743Y-8976021D01*
X10847095Y-8860309D01*
X11098505Y-8692322D01*
X11312312Y-8478515D01*
X11480299Y-8227105D01*
X11596011Y-7947753D01*
X11655000Y-7651194D01*
X11655000Y-7348826D01*
X11596011Y-7052267D01*
X11480299Y-6772915D01*
X11312312Y-6521505D01*
X11098505Y-6307698D01*
X10847095Y-6139711D01*
X10567743Y-6023999D01*
X10271184Y-5965010D01*
X9968816Y-5965010D01*
X9672257Y-6023999D01*
X9392905Y-6139711D01*
X9141495Y-6307698D01*
X8927688Y-6521505D01*
X8890000Y-6577909D01*
X8852312Y-6521505D01*
X8638505Y-6307698D01*
X8387095Y-6139711D01*
X8107743Y-6023999D01*
X7811184Y-5965010D01*
X7508816Y-5965010D01*
X7212257Y-6023999D01*
X6932905Y-6139711D01*
X6681495Y-6307698D01*
X6467688Y-6521505D01*
X6390000Y-6637773D01*
X6312312Y-6521505D01*
X6098505Y-6307698D01*
X5847095Y-6139711D01*
X5567743Y-6023999D01*
X5271184Y-5965010D01*
X4968816Y-5965010D01*
X4672257Y-6023999D01*
X4392905Y-6139711D01*
X4141495Y-6307698D01*
X3927688Y-6521505D01*
X3759701Y-6772915D01*
X3643989Y-7052267D01*
X3585000Y-7348826D01*
X-3585000Y-7348826D01*
X-3643989Y-7052267D01*
X-3759701Y-6772915D01*
X-3927688Y-6521505D01*
X-4141495Y-6307698D01*
X-4392905Y-6139711D01*
X-4672257Y-6023999D01*
X-4968816Y-5965010D01*
X-5271184Y-5965010D01*
X-5567743Y-6023999D01*
X-5847095Y-6139711D01*
X-6098505Y-6307698D01*
X-6312312Y-6521505D01*
X-6350000Y-6577909D01*
X-6387688Y-6521505D01*
X-6601495Y-6307698D01*
X-6852905Y-6139711D01*
X-7132257Y-6023999D01*
X-7428816Y-5965010D01*
X-7731184Y-5965010D01*
X-8027743Y-6023999D01*
X-8307095Y-6139711D01*
X-8558505Y-6307698D01*
X-8772312Y-6521505D01*
X-8874951Y-6675115D01*
X-9055920Y-6615535D01*
X-9940395Y-7500010D01*
X-10299605Y-7500010D01*
X-11184080Y-6615535D01*
X-11438261Y-6699218D01*
X-11569158Y-6971785D01*
X-11644365Y-7264652D01*
X-11660991Y-7566563D01*
X-14002839Y-7566563D01*
X-14002839Y-6435930D01*
X-11004475Y-6435930D01*
X-10120000Y-7320405D01*
X-9235525Y-6435930D01*
X-9319208Y-6181749D01*
X-9591775Y-6050852D01*
X-9884642Y-5975645D01*
X-10186553Y-5959019D01*
X-10485907Y-6001613D01*
X-10771199Y-6101788D01*
X-10920792Y-6181749D01*
X-11004475Y-6435930D01*
X-14002839Y-6435930D01*
X-14002839Y-4072861D01*
X-2315100Y-4072861D01*
X-2315100Y-4276739D01*
X-2275326Y-4476698D01*
X-2197305Y-4665056D01*
X-2084037Y-4834574D01*
X-1939874Y-4978737D01*
X-1770356Y-5092005D01*
X-1581998Y-5170026D01*
X-1382039Y-5209800D01*
X-1178161Y-5209800D01*
X-978202Y-5170026D01*
X-789844Y-5092005D01*
X-620326Y-4978737D01*
X-476163Y-4834574D01*
X-362895Y-4665056D01*
X-284874Y-4476698D01*
X-245100Y-4276739D01*
X-245100Y-4072861D01*
X-284874Y-3872902D01*
X-362895Y-3684544D01*
X-476163Y-3515026D01*
X-620326Y-3370863D01*
X-789844Y-3257595D01*
X-978202Y-3179574D01*
X-1178161Y-3139800D01*
X-1382039Y-3139800D01*
X-1581998Y-3179574D01*
X-1770356Y-3257595D01*
X-1939874Y-3370863D01*
X-2084037Y-3515026D01*
X-2197305Y-3684544D01*
X-2275326Y-3872902D01*
X-2315100Y-4072861D01*
X-14002839Y-4072861D01*
X-14002839Y-2673561D01*
X3722600Y-2673561D01*
X3722600Y-2877439D01*
X3762374Y-3077398D01*
X3840395Y-3265756D01*
X3953663Y-3435274D01*
X4097826Y-3579437D01*
X4267344Y-3692705D01*
X4455702Y-3770726D01*
X4655661Y-3810500D01*
X4859539Y-3810500D01*
X5059498Y-3770726D01*
X5247856Y-3692705D01*
X5417374Y-3579437D01*
X5561537Y-3435274D01*
X5674805Y-3265756D01*
X5752826Y-3077398D01*
X5792600Y-2877439D01*
X5792600Y-2673561D01*
X5752826Y-2473602D01*
X5674805Y-2285244D01*
X5561537Y-2115726D01*
X5417374Y-1971563D01*
X5247856Y-1858295D01*
X5059498Y-1780274D01*
X4859539Y-1740500D01*
X4655661Y-1740500D01*
X4455702Y-1780274D01*
X4267344Y-1858295D01*
X4097826Y-1971563D01*
X3953663Y-2115726D01*
X3840395Y-2285244D01*
X3762374Y-2473602D01*
X3722600Y-2673561D01*
X-14002839Y-2673561D01*
X-14002839Y-1273740D01*
X-13788578Y-1449579D01*
X-13487168Y-1610686D01*
X-13160119Y-1709895D01*
X-12905225Y-1735000D01*
X-11934775Y-1735000D01*
X-11679881Y-1709895D01*
X-11352832Y-1610686D01*
X-11051422Y-1449579D01*
X-10787234Y-1232766D01*
X-10570421Y-968578D01*
X-10409314Y-667168D01*
X-10310105Y-340119D01*
X-10276606Y0D01*
X-4963394Y0D01*
X-4929895Y-340119D01*
X-4830686Y-667168D01*
X-4669579Y-968578D01*
X-4452766Y-1232766D01*
X-4188578Y-1449579D01*
X-3887168Y-1610686D01*
X-3560119Y-1709895D01*
X-3305225Y-1735000D01*
X-2334775Y-1735000D01*
X-2079881Y-1709895D01*
X-1752832Y-1610686D01*
X-1451422Y-1449579D01*
X-1187234Y-1232766D01*
X-970421Y-968578D01*
X-809314Y-667168D01*
X-710105Y-340119D01*
X-676606Y0D01*
X676606Y0D01*
X710105Y-340119D01*
X809314Y-667168D01*
X970421Y-968578D01*
X1187234Y-1232766D01*
X1451422Y-1449579D01*
X1752832Y-1610686D01*
X2079881Y-1709895D01*
X2334775Y-1735000D01*
X3305225Y-1735000D01*
X3560119Y-1709895D01*
X3887168Y-1610686D01*
X4188578Y-1449579D01*
X4452766Y-1232766D01*
X4669579Y-968578D01*
X4830686Y-667168D01*
X4929895Y-340119D01*
X4963394Y0D01*
X4929895Y340119D01*
X4830686Y667168D01*
X4669579Y968578D01*
X4452766Y1232766D01*
X4188578Y1449579D01*
X3887168Y1610686D01*
X3560119Y1709895D01*
X3305225Y1735000D01*
X2334775Y1735000D01*
X2079881Y1709895D01*
X1752832Y1610686D01*
X1451422Y1449579D01*
X1187234Y1232766D01*
X970421Y968578D01*
X809314Y667168D01*
X710105Y340119D01*
X676606Y0D01*
X-676606Y0D01*
X-710105Y340119D01*
X-809314Y667168D01*
X-970421Y968578D01*
X-1187234Y1232766D01*
X-1451422Y1449579D01*
X-1752832Y1610686D01*
X-2079881Y1709895D01*
X-2334775Y1735000D01*
X-3305225Y1735000D01*
X-3560119Y1709895D01*
X-3887168Y1610686D01*
X-4188578Y1449579D01*
X-4452766Y1232766D01*
X-4669579Y968578D01*
X-4830686Y667168D01*
X-4929895Y340119D01*
X-4963394Y0D01*
X-10276606Y0D01*
X-10310105Y340119D01*
X-10409314Y667168D01*
X-10570421Y968578D01*
X-10787234Y1232766D01*
X-11051422Y1449579D01*
X-11352832Y1610686D01*
X-11679881Y1709895D01*
X-11934775Y1735000D01*
X-12905225Y1735000D01*
X-13160119Y1709895D01*
X-13487168Y1610686D01*
X-13788578Y1449579D01*
X-14002839Y1273740D01*
X-14002839Y3617039D01*
X-1518000Y3617039D01*
X-1518000Y3413161D01*
X-1478226Y3213202D01*
X-1400205Y3024844D01*
X-1286937Y2855326D01*
X-1142774Y2711163D01*
X-973256Y2597895D01*
X-784898Y2519874D01*
X-584939Y2480100D01*
X-381061Y2480100D01*
X-181102Y2519874D01*
X7256Y2597895D01*
X176774Y2711163D01*
X320937Y2855326D01*
X434205Y3024844D01*
X512226Y3213202D01*
X552000Y3413161D01*
X552000Y3454078D01*
X563174Y3397902D01*
X641195Y3209544D01*
X754463Y3040026D01*
X898626Y2895863D01*
X1068144Y2782595D01*
X1256502Y2704574D01*
X1456461Y2664800D01*
X1660339Y2664800D01*
X1826782Y2697907D01*
X1899026Y2625663D01*
X2068544Y2512395D01*
X2256902Y2434374D01*
X2456861Y2394600D01*
X2660739Y2394600D01*
X2860698Y2434374D01*
X3049056Y2512395D01*
X3218574Y2625663D01*
X3362737Y2769826D01*
X3476005Y2939344D01*
X3554026Y3127702D01*
X3593800Y3327661D01*
X3593800Y3531539D01*
X3554026Y3731498D01*
X3476005Y3919856D01*
X3362737Y4089374D01*
X3218574Y4233537D01*
X3049056Y4346805D01*
X2860698Y4424826D01*
X2660739Y4464600D01*
X2456861Y4464600D01*
X2290418Y4431493D01*
X2218174Y4503737D01*
X2192173Y4521110D01*
X2284998Y4539574D01*
X2473356Y4617595D01*
X2642874Y4730863D01*
X2787037Y4875026D01*
X2900305Y5044544D01*
X2978326Y5232902D01*
X3018100Y5432861D01*
X3018100Y5636739D01*
X2978326Y5836698D01*
X2900305Y6025056D01*
X2787037Y6194574D01*
X2642874Y6338737D01*
X2473356Y6452005D01*
X2284998Y6530026D01*
X2085039Y6569800D01*
X1881161Y6569800D01*
X1681202Y6530026D01*
X1492844Y6452005D01*
X1323326Y6338737D01*
X1179163Y6194574D01*
X1065895Y6025056D01*
X987874Y5836698D01*
X948100Y5636739D01*
X948100Y5432861D01*
X987874Y5232902D01*
X1065895Y5044544D01*
X1179163Y4875026D01*
X1323326Y4730863D01*
X1349327Y4713490D01*
X1256502Y4695026D01*
X1068144Y4617005D01*
X898626Y4503737D01*
X754463Y4359574D01*
X641195Y4190056D01*
X563174Y4001698D01*
X523400Y3801739D01*
X523400Y3760822D01*
X512226Y3816998D01*
X434205Y4005356D01*
X320937Y4174874D01*
X176774Y4319037D01*
X7256Y4432305D01*
X-181102Y4510326D01*
X-381061Y4550100D01*
X-584939Y4550100D01*
X-784898Y4510326D01*
X-973256Y4432305D01*
X-1142774Y4319037D01*
X-1286937Y4174874D01*
X-1400205Y4005356D01*
X-1478226Y3816998D01*
X-1518000Y3617039D01*
X-14002839Y3617039D01*
X-14002839Y9025639D01*
X-3518600Y9025639D01*
X-3518600Y8821761D01*
X-3478826Y8621802D01*
X-3400805Y8433444D01*
X-3287537Y8263926D01*
X-3143374Y8119763D01*
X-2973856Y8006495D01*
X-2785498Y7928474D01*
X-2585539Y7888700D01*
X-2381661Y7888700D01*
X-2181702Y7928474D01*
X-1993344Y8006495D01*
X-1823826Y8119763D01*
X-1802195Y8141394D01*
X-1783798Y8133774D01*
X-1583839Y8094000D01*
X-1379961Y8094000D01*
X-1180002Y8133774D01*
X-991644Y8211795D01*
X-822126Y8325063D01*
X-677963Y8469226D01*
X-564695Y8638744D01*
X-486674Y8827102D01*
X-446900Y9027061D01*
X-446900Y9230939D01*
X-486674Y9430898D01*
X-564695Y9619256D01*
X-677963Y9788774D01*
X-822126Y9932937D01*
X-991644Y10046205D01*
X-1180002Y10124226D01*
X-1379961Y10164000D01*
X-1583839Y10164000D01*
X-1783798Y10124226D01*
X-1972156Y10046205D01*
X-2141674Y9932937D01*
X-2163305Y9911306D01*
X-2181702Y9918926D01*
X-2381661Y9958700D01*
X-2585539Y9958700D01*
X-2785498Y9918926D01*
X-2973856Y9840905D01*
X-3143374Y9727637D01*
X-3287537Y9583474D01*
X-3400805Y9413956D01*
X-3478826Y9225598D01*
X-3518600Y9025639D01*
X-14002839Y9025639D01*
X-14002839Y10262891D01*
X5543519Y10262891D01*
X5664186Y10033000D01*
X6858000Y10033000D01*
X6858000Y11226155D01*
X6628110Y11347476D01*
X6480901Y11302825D01*
X6218080Y11177641D01*
X5984731Y11003588D01*
X5789822Y10787355D01*
X5640843Y10537252D01*
X5543519Y10262891D01*
X-14002839Y10262891D01*
X-14002839Y11755910D01*
X1695525Y11755910D01*
X1779208Y11501729D01*
X2051775Y11370832D01*
X2344642Y11295625D01*
X2646553Y11278999D01*
X2945907Y11321593D01*
X3231199Y11421768D01*
X3380792Y11501729D01*
X3464475Y11755910D01*
X2580000Y12640385D01*
X1695525Y11755910D01*
X-14002839Y11755910D01*
X-14002839Y12753437D01*
X1039009Y12753437D01*
X1081603Y12454083D01*
X1181778Y12168791D01*
X1261739Y12019198D01*
X1515920Y11935515D01*
X2400395Y12819990D01*
X2759605Y12819990D01*
X3644080Y11935515D01*
X3825049Y11995095D01*
X3927688Y11841485D01*
X4141495Y11627678D01*
X4392905Y11459691D01*
X4672257Y11343979D01*
X4968816Y11284990D01*
X5271184Y11284990D01*
X5567743Y11343979D01*
X5847095Y11459691D01*
X6098505Y11627678D01*
X6312312Y11841485D01*
X6350000Y11897889D01*
X6387688Y11841485D01*
X6601495Y11627678D01*
X6852905Y11459691D01*
X7132257Y11343979D01*
X7279693Y11314652D01*
X7112000Y11226155D01*
X7112000Y10033000D01*
X7132000Y10033000D01*
X7132000Y9779000D01*
X7112000Y9779000D01*
X7112000Y9759000D01*
X6858000Y9759000D01*
X6858000Y9779000D01*
X5664186Y9779000D01*
X5543519Y9549109D01*
X5640843Y9274748D01*
X5789822Y9024645D01*
X5984731Y8808412D01*
X6213756Y8637584D01*
X6155986Y8606706D01*
X5929866Y8421134D01*
X5744294Y8195014D01*
X5606401Y7937034D01*
X5521487Y7657111D01*
X5492815Y7366000D01*
X5521487Y7074889D01*
X5606401Y6794966D01*
X5744294Y6536986D01*
X5929866Y6310866D01*
X6155986Y6125294D01*
X6413966Y5987401D01*
X6693889Y5902487D01*
X6912050Y5881000D01*
X7057950Y5881000D01*
X7276111Y5902487D01*
X7556034Y5987401D01*
X7814014Y6125294D01*
X8040134Y6310866D01*
X8225706Y6536986D01*
X8255000Y6591791D01*
X8284294Y6536986D01*
X8469866Y6310866D01*
X8690270Y6129985D01*
X8592544Y6089505D01*
X8423026Y5976237D01*
X8278863Y5832074D01*
X8165595Y5662556D01*
X8087574Y5474198D01*
X8047800Y5274239D01*
X8047800Y5070361D01*
X8087574Y4870402D01*
X8165595Y4682044D01*
X8278863Y4512526D01*
X8423026Y4368363D01*
X8592544Y4255095D01*
X8780902Y4177074D01*
X8980861Y4137300D01*
X9184739Y4137300D01*
X9384698Y4177074D01*
X9573056Y4255095D01*
X9742574Y4368363D01*
X9886737Y4512526D01*
X10000005Y4682044D01*
X10078026Y4870402D01*
X10117800Y5070361D01*
X10117800Y5274239D01*
X10078026Y5474198D01*
X10000005Y5662556D01*
X9886737Y5832074D01*
X9816274Y5902537D01*
X10096034Y5987401D01*
X10354014Y6125294D01*
X10580134Y6310866D01*
X10604607Y6340687D01*
X10625498Y6271820D01*
X10684463Y6161506D01*
X10763815Y6064815D01*
X10860506Y5985463D01*
X10970820Y5926498D01*
X11090518Y5890188D01*
X11215000Y5877928D01*
X12915000Y5877928D01*
X13039482Y5890188D01*
X13159180Y5926498D01*
X13269494Y5985463D01*
X13366185Y6064815D01*
X13445537Y6161506D01*
X13504502Y6271820D01*
X13540812Y6391518D01*
X13553072Y6516000D01*
X13553072Y8216000D01*
X13540812Y8340482D01*
X13504502Y8460180D01*
X13445537Y8570494D01*
X13366185Y8667185D01*
X13269494Y8746537D01*
X13159180Y8805502D01*
X13090313Y8826393D01*
X13120134Y8850866D01*
X13305706Y9076986D01*
X13443599Y9334966D01*
X13528513Y9614889D01*
X13557185Y9906000D01*
X13528513Y10197111D01*
X13443599Y10477034D01*
X13305706Y10735014D01*
X13120134Y10961134D01*
X12894014Y11146706D01*
X12636034Y11284599D01*
X12356111Y11369513D01*
X12137950Y11391000D01*
X11992050Y11391000D01*
X11773889Y11369513D01*
X11493966Y11284599D01*
X11235986Y11146706D01*
X11009866Y10961134D01*
X10824294Y10735014D01*
X10795000Y10680209D01*
X10765706Y10735014D01*
X10580134Y10961134D01*
X10354014Y11146706D01*
X10096034Y11284599D01*
X9816111Y11369513D01*
X9597950Y11391000D01*
X9452050Y11391000D01*
X9233889Y11369513D01*
X8953966Y11284599D01*
X8695986Y11146706D01*
X8469866Y10961134D01*
X8284294Y10735014D01*
X8249799Y10670477D01*
X8180178Y10787355D01*
X7985269Y11003588D01*
X7751920Y11177641D01*
X7526543Y11284990D01*
X7731184Y11284990D01*
X8027743Y11343979D01*
X8307095Y11459691D01*
X8558505Y11627678D01*
X8772312Y11841485D01*
X8940299Y12092895D01*
X9056011Y12372247D01*
X9115000Y12668806D01*
X9115000Y12971174D01*
X9056011Y13267733D01*
X8940299Y13547085D01*
X8772312Y13798495D01*
X8558505Y14012302D01*
X8307095Y14180289D01*
X8027743Y14296001D01*
X7731184Y14354990D01*
X7428816Y14354990D01*
X7132257Y14296001D01*
X6852905Y14180289D01*
X6601495Y14012302D01*
X6387688Y13798495D01*
X6350000Y13742091D01*
X6312312Y13798495D01*
X6098505Y14012302D01*
X5847095Y14180289D01*
X5567743Y14296001D01*
X5271184Y14354990D01*
X4968816Y14354990D01*
X4672257Y14296001D01*
X4392905Y14180289D01*
X4141495Y14012302D01*
X3927688Y13798495D01*
X3825049Y13644885D01*
X3644080Y13704465D01*
X2759605Y12819990D01*
X2400395Y12819990D01*
X1515920Y13704465D01*
X1261739Y13620782D01*
X1130842Y13348215D01*
X1055635Y13055348D01*
X1039009Y12753437D01*
X-14002839Y12753437D01*
X-14002839Y15620000D01*
X-9714120Y15620000D01*
X-9677725Y15250476D01*
X-9569939Y14895152D01*
X-9394903Y14567683D01*
X-9159345Y14280655D01*
X-8872317Y14045097D01*
X-8544848Y13870061D01*
X-8189524Y13762275D01*
X-7912597Y13735000D01*
X-7327403Y13735000D01*
X-7050476Y13762275D01*
X-6695152Y13870061D01*
X-6668944Y13884070D01*
X1695525Y13884070D01*
X2580000Y12999595D01*
X3464475Y13884070D01*
X3380792Y14138251D01*
X3108225Y14269148D01*
X2815358Y14344355D01*
X2513447Y14360981D01*
X2214093Y14318387D01*
X1928801Y14218212D01*
X1779208Y14138251D01*
X1695525Y13884070D01*
X-6668944Y13884070D01*
X-6367683Y14045097D01*
X-6080655Y14280655D01*
X-5845097Y14567683D01*
X-5670061Y14895152D01*
X-5562275Y15250476D01*
X-5525880Y15620000D01*
X-5562275Y15989524D01*
X-5670061Y16344848D01*
X-5709663Y16418939D01*
X11579900Y16418939D01*
X11579900Y16215061D01*
X11619674Y16015102D01*
X11697695Y15826744D01*
X11810963Y15657226D01*
X11955126Y15513063D01*
X12124644Y15399795D01*
X12313002Y15321774D01*
X12512961Y15282000D01*
X12716839Y15282000D01*
X12916798Y15321774D01*
X13105156Y15399795D01*
X13274674Y15513063D01*
X13418837Y15657226D01*
X13532105Y15826744D01*
X13610126Y16015102D01*
X13649900Y16215061D01*
X13649900Y16418939D01*
X13610126Y16618898D01*
X13532105Y16807256D01*
X13418837Y16976774D01*
X13274674Y17120937D01*
X13105156Y17234205D01*
X12916798Y17312226D01*
X12716839Y17352000D01*
X12512961Y17352000D01*
X12313002Y17312226D01*
X12124644Y17234205D01*
X11955126Y17120937D01*
X11810963Y16976774D01*
X11697695Y16807256D01*
X11619674Y16618898D01*
X11579900Y16418939D01*
X-5709663Y16418939D01*
X-5845097Y16672317D01*
X-6080655Y16959345D01*
X-6367683Y17194903D01*
X-6695152Y17369939D01*
X-7050476Y17477725D01*
X-7327403Y17505000D01*
X-7912597Y17505000D01*
X-8189524Y17477725D01*
X-8544848Y17369939D01*
X-8872317Y17194903D01*
X-9159345Y16959345D01*
X-9394903Y16672317D01*
X-9569939Y16344848D01*
X-9677725Y15989524D01*
X-9714120Y15620000D01*
X-14002839Y15620000D01*
X-14002839Y20320000D01*
X-9714120Y20320000D01*
X-9677725Y19950476D01*
X-9569939Y19595152D01*
X-9394903Y19267683D01*
X-9159345Y18980655D01*
X-8872317Y18745097D01*
X-8544848Y18570061D01*
X-8189524Y18462275D01*
X-7912597Y18435000D01*
X-7327403Y18435000D01*
X-7050476Y18462275D01*
X-6695152Y18570061D01*
X-6367683Y18745097D01*
X-6080655Y18980655D01*
X-5845097Y19267683D01*
X-5670061Y19595152D01*
X-5562275Y19950476D01*
X-5525880Y20320000D01*
X-1863394Y20320000D01*
X-1829895Y19979881D01*
X-1730686Y19652832D01*
X-1569579Y19351422D01*
X-1352766Y19087234D01*
X-1088578Y18870421D01*
X-787168Y18709314D01*
X-460119Y18610105D01*
X-205225Y18585000D01*
X765225Y18585000D01*
X1020119Y18610105D01*
X1347168Y18709314D01*
X1648578Y18870421D01*
X1898150Y19075239D01*
X5867400Y19075239D01*
X5867400Y18871361D01*
X5907174Y18671402D01*
X5985195Y18483044D01*
X6098463Y18313526D01*
X6242626Y18169363D01*
X6412144Y18056095D01*
X6600502Y17978074D01*
X6800461Y17938300D01*
X7004339Y17938300D01*
X7204298Y17978074D01*
X7392656Y18056095D01*
X7562174Y18169363D01*
X7706337Y18313526D01*
X7819605Y18483044D01*
X7897626Y18671402D01*
X7937400Y18871361D01*
X7937400Y19075239D01*
X7897626Y19275198D01*
X7819605Y19463556D01*
X7706337Y19633074D01*
X7562174Y19777237D01*
X7392656Y19890505D01*
X7204298Y19968526D01*
X7004339Y20008300D01*
X6800461Y20008300D01*
X6600502Y19968526D01*
X6412144Y19890505D01*
X6242626Y19777237D01*
X6098463Y19633074D01*
X5985195Y19463556D01*
X5907174Y19275198D01*
X5867400Y19075239D01*
X1898150Y19075239D01*
X1912766Y19087234D01*
X2129579Y19351422D01*
X2290686Y19652832D01*
X2389895Y19979881D01*
X2423394Y20320000D01*
X7736606Y20320000D01*
X7770105Y19979881D01*
X7869314Y19652832D01*
X8030421Y19351422D01*
X8247234Y19087234D01*
X8511422Y18870421D01*
X8812832Y18709314D01*
X9139881Y18610105D01*
X9394775Y18585000D01*
X10365225Y18585000D01*
X10620119Y18610105D01*
X10947168Y18709314D01*
X11248578Y18870421D01*
X11512766Y19087234D01*
X11729579Y19351422D01*
X11890686Y19652832D01*
X11989895Y19979881D01*
X12023394Y20320000D01*
X11989895Y20660119D01*
X11890686Y20987168D01*
X11729579Y21288578D01*
X11512766Y21552766D01*
X11248578Y21769579D01*
X10947168Y21930686D01*
X10620119Y22029895D01*
X10365225Y22055000D01*
X9394775Y22055000D01*
X9139881Y22029895D01*
X8812832Y21930686D01*
X8511422Y21769579D01*
X8247234Y21552766D01*
X8030421Y21288578D01*
X7869314Y20987168D01*
X7770105Y20660119D01*
X7736606Y20320000D01*
X2423394Y20320000D01*
X2389895Y20660119D01*
X2290686Y20987168D01*
X2129579Y21288578D01*
X1912766Y21552766D01*
X1648578Y21769579D01*
X1347168Y21930686D01*
X1020119Y22029895D01*
X765225Y22055000D01*
X-205225Y22055000D01*
X-460119Y22029895D01*
X-787168Y21930686D01*
X-1088578Y21769579D01*
X-1352766Y21552766D01*
X-1569579Y21288578D01*
X-1730686Y20987168D01*
X-1829895Y20660119D01*
X-1863394Y20320000D01*
X-5525880Y20320000D01*
X-5562275Y20689524D01*
X-5670061Y21044848D01*
X-5845097Y21372317D01*
X-6080655Y21659345D01*
X-6367683Y21894903D01*
X-6695152Y22069939D01*
X-7050476Y22177725D01*
X-7327403Y22205000D01*
X-7912597Y22205000D01*
X-8189524Y22177725D01*
X-8544848Y22069939D01*
X-8872317Y21894903D01*
X-9159345Y21659345D01*
X-9394903Y21372317D01*
X-9569939Y21044848D01*
X-9677725Y20689524D01*
X-9714120Y20320000D01*
X-14002839Y20320000D01*
X-14002839Y25020000D01*
X-9714120Y25020000D01*
X-9677725Y24650476D01*
X-9569939Y24295152D01*
X-9394903Y23967683D01*
X-9159345Y23680655D01*
X-8872317Y23445097D01*
X-8544848Y23270061D01*
X-8189524Y23162275D01*
X-7912597Y23135000D01*
X-7327403Y23135000D01*
X-7050476Y23162275D01*
X-6695152Y23270061D01*
X-6367683Y23445097D01*
X-6080655Y23680655D01*
X-5845097Y23967683D01*
X-5670061Y24295152D01*
X-5562275Y24650476D01*
X-5525880Y25020000D01*
X-5562275Y25389524D01*
X-5670061Y25744848D01*
X-5845097Y26072317D01*
X-6080655Y26359345D01*
X-6367683Y26594903D01*
X-6695152Y26769939D01*
X-7050476Y26877725D01*
X-7327403Y26905000D01*
X-7912597Y26905000D01*
X-8189524Y26877725D01*
X-8544848Y26769939D01*
X-8872317Y26594903D01*
X-9159345Y26359345D01*
X-9394903Y26072317D01*
X-9569939Y25744848D01*
X-9677725Y25389524D01*
X-9714120Y25020000D01*
X-14002839Y25020000D01*
X-14002839Y27152939D01*
X-13100000Y27152939D01*
X-13100000Y26949061D01*
X-13060226Y26749102D01*
X-12982205Y26560744D01*
X-12868937Y26391226D01*
X-12724774Y26247063D01*
X-12555256Y26133795D01*
X-12366898Y26055774D01*
X-12166939Y26016000D01*
X-11963061Y26016000D01*
X-11763102Y26055774D01*
X-11574744Y26133795D01*
X-11405226Y26247063D01*
X-11261063Y26391226D01*
X-11147795Y26560744D01*
X-11069774Y26749102D01*
X-11030000Y26949061D01*
X-11030000Y27152939D01*
X-11069774Y27352898D01*
X-11147795Y27541256D01*
X-11261063Y27710774D01*
X-11405226Y27854937D01*
X-11574744Y27968205D01*
X-11763102Y28046226D01*
X-11963061Y28086000D01*
X-12166939Y28086000D01*
X-12366898Y28046226D01*
X-12555256Y27968205D01*
X-12724774Y27854937D01*
X-12868937Y27710774D01*
X-12982205Y27541256D01*
X-13060226Y27352898D01*
X-13100000Y27152939D01*
X-14002839Y27152939D01*
X-14002839Y30645939D01*
X-2445400Y30645939D01*
X-2445400Y30442061D01*
X-2405626Y30242102D01*
X-2327605Y30053744D01*
X-2214337Y29884226D01*
X-2070174Y29740063D01*
X-1900656Y29626795D01*
X-1712298Y29548774D01*
X-1512339Y29509000D01*
X-1308461Y29509000D01*
X-1108502Y29548774D01*
X-920144Y29626795D01*
X-750626Y29740063D01*
X-606463Y29884226D01*
X-493195Y30053744D01*
X-415174Y30242102D01*
X-375400Y30442061D01*
X-375400Y30645939D01*
X-415174Y30845898D01*
X-421569Y30861339D01*
X11360000Y30861339D01*
X11360000Y30657461D01*
X11399774Y30457502D01*
X11477795Y30269144D01*
X11591063Y30099626D01*
X11735226Y29955463D01*
X11904744Y29842195D01*
X12093102Y29764174D01*
X12293061Y29724400D01*
X12496939Y29724400D01*
X12696898Y29764174D01*
X12885256Y29842195D01*
X13054774Y29955463D01*
X13198937Y30099626D01*
X13312205Y30269144D01*
X13390226Y30457502D01*
X13430000Y30657461D01*
X13430000Y30861339D01*
X13390226Y31061298D01*
X13312205Y31249656D01*
X13198937Y31419174D01*
X13054774Y31563337D01*
X12885256Y31676605D01*
X12696898Y31754626D01*
X12496939Y31794400D01*
X12293061Y31794400D01*
X12093102Y31754626D01*
X11904744Y31676605D01*
X11735226Y31563337D01*
X11591063Y31419174D01*
X11477795Y31249656D01*
X11399774Y31061298D01*
X11360000Y30861339D01*
X-421569Y30861339D01*
X-493195Y31034256D01*
X-606463Y31203774D01*
X-750626Y31347937D01*
X-920144Y31461205D01*
X-1108502Y31539226D01*
X-1308461Y31579000D01*
X-1512339Y31579000D01*
X-1712298Y31539226D01*
X-1900656Y31461205D01*
X-2070174Y31347937D01*
X-2214337Y31203774D01*
X-2327605Y31034256D01*
X-2405626Y30845898D01*
X-2445400Y30645939D01*
X-14002839Y30645939D01*
X-14002839Y32075910D01*
X-8464475Y32075910D01*
X-8380792Y31821729D01*
X-8108225Y31690832D01*
X-7815358Y31615625D01*
X-7513447Y31598999D01*
X-7214093Y31641593D01*
X-6928801Y31741768D01*
X-6779208Y31821729D01*
X-6695525Y32075910D01*
X-7580000Y32960385D01*
X-8464475Y32075910D01*
X-14002839Y32075910D01*
X-14002839Y32960142D01*
X-13890898Y32913774D01*
X-13690939Y32874000D01*
X-13487061Y32874000D01*
X-13287102Y32913774D01*
X-13098744Y32991795D01*
X-13017500Y33046080D01*
X-12936256Y32991795D01*
X-12747898Y32913774D01*
X-12547939Y32874000D01*
X-12344061Y32874000D01*
X-12144102Y32913774D01*
X-11955744Y32991795D01*
X-11833558Y33073437D01*
X-9120991Y33073437D01*
X-9078397Y32774083D01*
X-8978222Y32488791D01*
X-8898261Y32339198D01*
X-8644080Y32255515D01*
X-7759605Y33139990D01*
X-7400395Y33139990D01*
X-6515920Y32255515D01*
X-6334951Y32315095D01*
X-6232312Y32161485D01*
X-6018505Y31947678D01*
X-5767095Y31779691D01*
X-5487743Y31663979D01*
X-5191184Y31604990D01*
X-4888816Y31604990D01*
X-4592257Y31663979D01*
X-4312905Y31779691D01*
X-4061495Y31947678D01*
X-3847688Y32161485D01*
X-3810000Y32217889D01*
X-3772312Y32161485D01*
X-3558505Y31947678D01*
X-3307095Y31779691D01*
X-3027743Y31663979D01*
X-2731184Y31604990D01*
X-2428816Y31604990D01*
X-2132257Y31663979D01*
X-1852905Y31779691D01*
X-1601495Y31947678D01*
X-1387688Y32161485D01*
X-1219701Y32412895D01*
X-1103989Y32692247D01*
X-1045000Y32988806D01*
X-1045000Y33291174D01*
X-1103989Y33587733D01*
X-1219701Y33867085D01*
X-1387688Y34118495D01*
X-1601495Y34332302D01*
X-1852905Y34500289D01*
X-2132257Y34616001D01*
X-2428816Y34674990D01*
X-2731184Y34674990D01*
X-3027743Y34616001D01*
X-3307095Y34500289D01*
X-3558505Y34332302D01*
X-3772312Y34118495D01*
X-3810000Y34062091D01*
X-3847688Y34118495D01*
X-4061495Y34332302D01*
X-4312905Y34500289D01*
X-4592257Y34616001D01*
X-4888816Y34674990D01*
X-5191184Y34674990D01*
X-5487743Y34616001D01*
X-5767095Y34500289D01*
X-6018505Y34332302D01*
X-6232312Y34118495D01*
X-6334951Y33964885D01*
X-6515920Y34024465D01*
X-7400395Y33139990D01*
X-7759605Y33139990D01*
X-8644080Y34024465D01*
X-8898261Y33940782D01*
X-9029158Y33668215D01*
X-9104365Y33375348D01*
X-9120991Y33073437D01*
X-11833558Y33073437D01*
X-11786226Y33105063D01*
X-11642063Y33249226D01*
X-11528795Y33418744D01*
X-11450774Y33607102D01*
X-11411000Y33807061D01*
X-11411000Y34010939D01*
X-11449415Y34204070D01*
X-8464475Y34204070D01*
X-7580000Y33319595D01*
X-6695525Y34204070D01*
X-6779208Y34458251D01*
X-7051775Y34589148D01*
X-7344642Y34664355D01*
X-7646553Y34680981D01*
X-7945907Y34638387D01*
X-8231199Y34538212D01*
X-8380792Y34458251D01*
X-8464475Y34204070D01*
X-11449415Y34204070D01*
X-11450774Y34210898D01*
X-11528795Y34399256D01*
X-11642063Y34568774D01*
X-11786226Y34712937D01*
X-11955744Y34826205D01*
X-12144102Y34904226D01*
X-12344061Y34944000D01*
X-12547939Y34944000D01*
X-12747898Y34904226D01*
X-12936256Y34826205D01*
X-13017500Y34771920D01*
X-13098744Y34826205D01*
X-13287102Y34904226D01*
X-13487061Y34944000D01*
X-13690939Y34944000D01*
X-13890898Y34904226D01*
X-14002839Y34857858D01*
X-14002839Y35940000D01*
X5525880Y35940000D01*
X5562275Y35570476D01*
X5670061Y35215152D01*
X5845097Y34887683D01*
X6080655Y34600655D01*
X6367683Y34365097D01*
X6695152Y34190061D01*
X7050476Y34082275D01*
X7327403Y34055000D01*
X7912597Y34055000D01*
X8189524Y34082275D01*
X8544848Y34190061D01*
X8872317Y34365097D01*
X9159345Y34600655D01*
X9394903Y34887683D01*
X9569939Y35215152D01*
X9677725Y35570476D01*
X9714120Y35940000D01*
X9677725Y36309524D01*
X9569939Y36664848D01*
X9394903Y36992317D01*
X9159345Y37279345D01*
X8872317Y37514903D01*
X8544848Y37689939D01*
X8189524Y37797725D01*
X7912597Y37825000D01*
X7327403Y37825000D01*
X7050476Y37797725D01*
X6695152Y37689939D01*
X6367683Y37514903D01*
X6080655Y37279345D01*
X5845097Y36992317D01*
X5670061Y36664848D01*
X5562275Y36309524D01*
X5525880Y35940000D01*
X-14002839Y35940000D01*
X-14002839Y40640000D01*
X-12023394Y40640000D01*
X-11989895Y40299881D01*
X-11890686Y39972832D01*
X-11729579Y39671422D01*
X-11512766Y39407234D01*
X-11248578Y39190421D01*
X-10947168Y39029314D01*
X-10620119Y38930105D01*
X-10365225Y38905000D01*
X-9394775Y38905000D01*
X-9139881Y38930105D01*
X-8812832Y39029314D01*
X-8511422Y39190421D01*
X-8247234Y39407234D01*
X-8030421Y39671422D01*
X-7872966Y39966000D01*
X-7838072Y39966000D01*
X-7838072Y38266000D01*
X-7825812Y38141518D01*
X-7789502Y38021820D01*
X-7730537Y37911506D01*
X-7651185Y37814815D01*
X-7554494Y37735463D01*
X-7444180Y37676498D01*
X-7324482Y37640188D01*
X-7200000Y37627928D01*
X-5500000Y37627928D01*
X-5375518Y37640188D01*
X-5255820Y37676498D01*
X-5145506Y37735463D01*
X-5048815Y37814815D01*
X-4969463Y37911506D01*
X-4910498Y38021820D01*
X-4889607Y38090687D01*
X-4865134Y38060866D01*
X-4639014Y37875294D01*
X-4381034Y37737401D01*
X-4101111Y37652487D01*
X-3882950Y37631000D01*
X-3737050Y37631000D01*
X-3518889Y37652487D01*
X-3238966Y37737401D01*
X-2980986Y37875294D01*
X-2754866Y38060866D01*
X-2569294Y38286986D01*
X-2431401Y38544966D01*
X-2346487Y38824889D01*
X-2317815Y39116000D01*
X-2346487Y39407111D01*
X-2431401Y39687034D01*
X-2569294Y39945014D01*
X-2754866Y40171134D01*
X-2980986Y40356706D01*
X-3045523Y40391201D01*
X-2928645Y40460822D01*
X-2729865Y40640000D01*
X-2423394Y40640000D01*
X-2389895Y40299881D01*
X-2290686Y39972832D01*
X-2129579Y39671422D01*
X-1912766Y39407234D01*
X-1648578Y39190421D01*
X-1347168Y39029314D01*
X-1020119Y38930105D01*
X-765225Y38905000D01*
X205225Y38905000D01*
X460119Y38930105D01*
X787168Y39029314D01*
X1088578Y39190421D01*
X1352766Y39407234D01*
X1569579Y39671422D01*
X1730686Y39972832D01*
X1829895Y40299881D01*
X1863394Y40640000D01*
X5525880Y40640000D01*
X5562275Y40270476D01*
X5670061Y39915152D01*
X5845097Y39587683D01*
X6080655Y39300655D01*
X6367683Y39065097D01*
X6695152Y38890061D01*
X7050476Y38782275D01*
X7327403Y38755000D01*
X7912597Y38755000D01*
X8189524Y38782275D01*
X8544848Y38890061D01*
X8872317Y39065097D01*
X9159345Y39300655D01*
X9394903Y39587683D01*
X9505324Y39794265D01*
X9561026Y39738563D01*
X9730544Y39625295D01*
X9918902Y39547274D01*
X10118861Y39507500D01*
X10322739Y39507500D01*
X10522698Y39547274D01*
X10711056Y39625295D01*
X10880574Y39738563D01*
X11024737Y39882726D01*
X11138005Y40052244D01*
X11216026Y40240602D01*
X11255800Y40440561D01*
X11255800Y40644439D01*
X11216026Y40844398D01*
X11138005Y41032756D01*
X11024737Y41202274D01*
X10880574Y41346437D01*
X10711056Y41459705D01*
X10522698Y41537726D01*
X10322739Y41577500D01*
X10118861Y41577500D01*
X9918902Y41537726D01*
X9730544Y41459705D01*
X9573081Y41354492D01*
X9569939Y41364848D01*
X9394903Y41692317D01*
X9159345Y41979345D01*
X8872317Y42214903D01*
X8544848Y42389939D01*
X8189524Y42497725D01*
X7912597Y42525000D01*
X7327403Y42525000D01*
X7050476Y42497725D01*
X6695152Y42389939D01*
X6367683Y42214903D01*
X6080655Y41979345D01*
X5845097Y41692317D01*
X5670061Y41364848D01*
X5562275Y41009524D01*
X5525880Y40640000D01*
X1863394Y40640000D01*
X1829895Y40980119D01*
X1730686Y41307168D01*
X1569579Y41608578D01*
X1352766Y41872766D01*
X1088578Y42089579D01*
X787168Y42250686D01*
X460119Y42349895D01*
X205225Y42375000D01*
X-765225Y42375000D01*
X-1020119Y42349895D01*
X-1347168Y42250686D01*
X-1648578Y42089579D01*
X-1912766Y41872766D01*
X-2129579Y41608578D01*
X-2290686Y41307168D01*
X-2389895Y40980119D01*
X-2423394Y40640000D01*
X-2729865Y40640000D01*
X-2712412Y40655731D01*
X-2538359Y40889080D01*
X-2413175Y41151901D01*
X-2368524Y41299110D01*
X-2489845Y41529000D01*
X-3683000Y41529000D01*
X-3683000Y41509000D01*
X-3937000Y41509000D01*
X-3937000Y41529000D01*
X-6223000Y41529000D01*
X-6223000Y41509000D01*
X-6477000Y41509000D01*
X-6477000Y41529000D01*
X-7670155Y41529000D01*
X-7791476Y41299110D01*
X-7746825Y41151901D01*
X-7621641Y40889080D01*
X-7447588Y40655731D01*
X-7363534Y40579966D01*
X-7444180Y40555502D01*
X-7554494Y40496537D01*
X-7651185Y40417185D01*
X-7730537Y40320494D01*
X-7789502Y40210180D01*
X-7825812Y40090482D01*
X-7838072Y39966000D01*
X-7872966Y39966000D01*
X-7869314Y39972832D01*
X-7770105Y40299881D01*
X-7736606Y40640000D01*
X-7770105Y40980119D01*
X-7869314Y41307168D01*
X-8030421Y41608578D01*
X-8247234Y41872766D01*
X-8511422Y42089579D01*
X-8812832Y42250686D01*
X-9139881Y42349895D01*
X-9394775Y42375000D01*
X-9904712Y42375000D01*
X-9897302Y42376474D01*
X-9708944Y42454495D01*
X-9539426Y42567763D01*
X-9395263Y42711926D01*
X-9281995Y42881444D01*
X-9203974Y43069802D01*
X-9164200Y43269761D01*
X-9164200Y43473639D01*
X-9203974Y43673598D01*
X-9272531Y43839110D01*
X-7791476Y43839110D01*
X-7746825Y43691901D01*
X-7621641Y43429080D01*
X-7447588Y43195731D01*
X-7231355Y43000822D01*
X-7105745Y42926000D01*
X-7231355Y42851178D01*
X-7447588Y42656269D01*
X-7621641Y42422920D01*
X-7746825Y42160099D01*
X-7791476Y42012890D01*
X-7670155Y41783000D01*
X-6477000Y41783000D01*
X-6477000Y44069000D01*
X-6223000Y44069000D01*
X-6223000Y41783000D01*
X-3937000Y41783000D01*
X-3937000Y44069000D01*
X-3683000Y44069000D01*
X-3683000Y41783000D01*
X-2489845Y41783000D01*
X-2368524Y42012890D01*
X-2413175Y42160099D01*
X-2538359Y42422920D01*
X-2712412Y42656269D01*
X-2928645Y42851178D01*
X-3054255Y42926000D01*
X-2928645Y43000822D01*
X-2712412Y43195731D01*
X-2538359Y43429080D01*
X-2413175Y43691901D01*
X-2368524Y43839110D01*
X-2489845Y44069000D01*
X-3683000Y44069000D01*
X-3937000Y44069000D01*
X-6223000Y44069000D01*
X-6477000Y44069000D01*
X-7670155Y44069000D01*
X-7791476Y43839110D01*
X-9272531Y43839110D01*
X-9281995Y43861956D01*
X-9395263Y44031474D01*
X-9539426Y44175637D01*
X-9708944Y44288905D01*
X-9897302Y44366926D01*
X-10097261Y44406700D01*
X-10301139Y44406700D01*
X-10501098Y44366926D01*
X-10689456Y44288905D01*
X-10858974Y44175637D01*
X-11003137Y44031474D01*
X-11116405Y43861956D01*
X-11194426Y43673598D01*
X-11234200Y43473639D01*
X-11234200Y43269761D01*
X-11194426Y43069802D01*
X-11116405Y42881444D01*
X-11003137Y42711926D01*
X-10858974Y42567763D01*
X-10689456Y42454495D01*
X-10501098Y42376474D01*
X-10451144Y42366538D01*
X-10620119Y42349895D01*
X-10947168Y42250686D01*
X-11248578Y42089579D01*
X-11512766Y41872766D01*
X-11729579Y41608578D01*
X-11890686Y41307168D01*
X-11989895Y40980119D01*
X-12023394Y40640000D01*
X-14002839Y40640000D01*
X-14002839Y46379110D01*
X-7791476Y46379110D01*
X-7746825Y46231901D01*
X-7621641Y45969080D01*
X-7447588Y45735731D01*
X-7231355Y45540822D01*
X-7105745Y45466000D01*
X-7231355Y45391178D01*
X-7447588Y45196269D01*
X-7621641Y44962920D01*
X-7746825Y44700099D01*
X-7791476Y44552890D01*
X-7670155Y44323000D01*
X-6477000Y44323000D01*
X-6477000Y46609000D01*
X-6223000Y46609000D01*
X-6223000Y44323000D01*
X-3937000Y44323000D01*
X-3937000Y46609000D01*
X-3683000Y46609000D01*
X-3683000Y44323000D01*
X-2489845Y44323000D01*
X-2368524Y44552890D01*
X-2413175Y44700099D01*
X-2538359Y44962920D01*
X-2712412Y45196269D01*
X-2928645Y45391178D01*
X-3054255Y45466000D01*
X-2928645Y45540822D01*
X-2712412Y45735731D01*
X-2538359Y45969080D01*
X-2413175Y46231901D01*
X-2368524Y46379110D01*
X-2489845Y46609000D01*
X-3683000Y46609000D01*
X-3937000Y46609000D01*
X-6223000Y46609000D01*
X-6477000Y46609000D01*
X-7670155Y46609000D01*
X-7791476Y46379110D01*
X-14002839Y46379110D01*
X-14002839Y49276000D01*
X-7842185Y49276000D01*
X-7813513Y48984889D01*
X-7728599Y48704966D01*
X-7590706Y48446986D01*
X-7405134Y48220866D01*
X-7179014Y48035294D01*
X-7114477Y48000799D01*
X-7231355Y47931178D01*
X-7447588Y47736269D01*
X-7621641Y47502920D01*
X-7746825Y47240099D01*
X-7791476Y47092890D01*
X-7670155Y46863000D01*
X-6477000Y46863000D01*
X-6477000Y46883000D01*
X-6223000Y46883000D01*
X-6223000Y46863000D01*
X-3937000Y46863000D01*
X-3937000Y46883000D01*
X-3683000Y46883000D01*
X-3683000Y46863000D01*
X-2489845Y46863000D01*
X-2368524Y47092890D01*
X-2413175Y47240099D01*
X-2538359Y47502920D01*
X-2712412Y47736269D01*
X-2928645Y47931178D01*
X-3045523Y48000799D01*
X-2980986Y48035294D01*
X-2909527Y48093939D01*
X-1303000Y48093939D01*
X-1303000Y47890061D01*
X-1263226Y47690102D01*
X-1185205Y47501744D01*
X-1071937Y47332226D01*
X-927774Y47188063D01*
X-805706Y47106500D01*
X-927774Y47024937D01*
X-1071937Y46880774D01*
X-1185205Y46711256D01*
X-1263226Y46522898D01*
X-1303000Y46322939D01*
X-1303000Y46119061D01*
X-1263226Y45919102D01*
X-1185205Y45730744D01*
X-1071937Y45561226D01*
X-927774Y45417063D01*
X-758256Y45303795D01*
X-569898Y45225774D01*
X-369939Y45186000D01*
X-166061Y45186000D01*
X33898Y45225774D01*
X222256Y45303795D01*
X276440Y45340000D01*
X5525880Y45340000D01*
X5562275Y44970476D01*
X5670061Y44615152D01*
X5845097Y44287683D01*
X6080655Y44000655D01*
X6367683Y43765097D01*
X6695152Y43590061D01*
X7050476Y43482275D01*
X7327403Y43455000D01*
X7912597Y43455000D01*
X8189524Y43482275D01*
X8544848Y43590061D01*
X8872317Y43765097D01*
X9159345Y44000655D01*
X9394903Y44287683D01*
X9569939Y44615152D01*
X9677725Y44970476D01*
X9714120Y45340000D01*
X9677725Y45709524D01*
X9605100Y45948939D01*
X11284000Y45948939D01*
X11284000Y45745061D01*
X11323774Y45545102D01*
X11401795Y45356744D01*
X11413651Y45339000D01*
X11401795Y45321256D01*
X11323774Y45132898D01*
X11284000Y44932939D01*
X11284000Y44729061D01*
X11323774Y44529102D01*
X11401795Y44340744D01*
X11515063Y44171226D01*
X11659226Y44027063D01*
X11828744Y43913795D01*
X12017102Y43835774D01*
X12217061Y43796000D01*
X12420939Y43796000D01*
X12620898Y43835774D01*
X12809256Y43913795D01*
X12978774Y44027063D01*
X13122937Y44171226D01*
X13236205Y44340744D01*
X13314226Y44529102D01*
X13354000Y44729061D01*
X13354000Y44932939D01*
X13314226Y45132898D01*
X13236205Y45321256D01*
X13224349Y45339000D01*
X13236205Y45356744D01*
X13314226Y45545102D01*
X13354000Y45745061D01*
X13354000Y45948939D01*
X13314226Y46148898D01*
X13236205Y46337256D01*
X13122937Y46506774D01*
X12978774Y46650937D01*
X12809256Y46764205D01*
X12620898Y46842226D01*
X12420939Y46882000D01*
X12217061Y46882000D01*
X12017102Y46842226D01*
X11828744Y46764205D01*
X11659226Y46650937D01*
X11515063Y46506774D01*
X11401795Y46337256D01*
X11323774Y46148898D01*
X11284000Y45948939D01*
X9605100Y45948939D01*
X9569939Y46064848D01*
X9394903Y46392317D01*
X9159345Y46679345D01*
X8872317Y46914903D01*
X8544848Y47089939D01*
X8189524Y47197725D01*
X7912597Y47225000D01*
X7327403Y47225000D01*
X7050476Y47197725D01*
X6695152Y47089939D01*
X6367683Y46914903D01*
X6080655Y46679345D01*
X5845097Y46392317D01*
X5670061Y46064848D01*
X5562275Y45709524D01*
X5525880Y45340000D01*
X276440Y45340000D01*
X391774Y45417063D01*
X535937Y45561226D01*
X649205Y45730744D01*
X727226Y45919102D01*
X767000Y46119061D01*
X767000Y46322939D01*
X727226Y46522898D01*
X649205Y46711256D01*
X535937Y46880774D01*
X391774Y47024937D01*
X269706Y47106500D01*
X391774Y47188063D01*
X535937Y47332226D01*
X649205Y47501744D01*
X727226Y47690102D01*
X767000Y47890061D01*
X767000Y48093939D01*
X727226Y48293898D01*
X649205Y48482256D01*
X535937Y48651774D01*
X391774Y48795937D01*
X222256Y48909205D01*
X33898Y48987226D01*
X-166061Y49027000D01*
X-369939Y49027000D01*
X-569898Y48987226D01*
X-758256Y48909205D01*
X-927774Y48795937D01*
X-1071937Y48651774D01*
X-1185205Y48482256D01*
X-1263226Y48293898D01*
X-1303000Y48093939D01*
X-2909527Y48093939D01*
X-2754866Y48220866D01*
X-2569294Y48446986D01*
X-2431401Y48704966D01*
X-2346487Y48984889D01*
X-2317815Y49276000D01*
X-2346487Y49567111D01*
X-2431401Y49847034D01*
X-2569294Y50105014D01*
X-2754866Y50331134D01*
X-2980986Y50516706D01*
X-3238966Y50654599D01*
X-3518889Y50739513D01*
X-3737050Y50761000D01*
X-3882950Y50761000D01*
X-4101111Y50739513D01*
X-4381034Y50654599D01*
X-4639014Y50516706D01*
X-4865134Y50331134D01*
X-5050706Y50105014D01*
X-5080000Y50050209D01*
X-5109294Y50105014D01*
X-5294866Y50331134D01*
X-5520986Y50516706D01*
X-5778966Y50654599D01*
X-6058889Y50739513D01*
X-6277050Y50761000D01*
X-6422950Y50761000D01*
X-6641111Y50739513D01*
X-6921034Y50654599D01*
X-7179014Y50516706D01*
X-7405134Y50331134D01*
X-7590706Y50105014D01*
X-7728599Y49847034D01*
X-7813513Y49567111D01*
X-7842185Y49276000D01*
X-14002839Y49276000D01*
X-14002839Y52513560D01*
X14007161Y52513560D01*
X14007161Y1270193D01*
X14007161Y1270193D01*
G37*
X14007161Y1270193D02*
X13788578Y1449579D01*
X13487168Y1610686D01*
X13160119Y1709895D01*
X12905225Y1735000D01*
X11934775Y1735000D01*
X11679881Y1709895D01*
X11352832Y1610686D01*
X11051422Y1449579D01*
X10787234Y1232766D01*
X10570421Y968578D01*
X10409314Y667168D01*
X10310105Y340119D01*
X10276606Y0D01*
X10310105Y-340119D01*
X10409314Y-667168D01*
X10570421Y-968578D01*
X10787234Y-1232766D01*
X11051422Y-1449579D01*
X11352832Y-1610686D01*
X11679881Y-1709895D01*
X11934775Y-1735000D01*
X12905225Y-1735000D01*
X13160119Y-1709895D01*
X13487168Y-1610686D01*
X13788578Y-1449579D01*
X14007160Y-1270193D01*
X14007160Y-52516440D01*
X-14002839Y-52516440D01*
X-14002839Y-48860967D01*
X-3921000Y-48860967D01*
X-3921000Y-49183033D01*
X-3858168Y-49498912D01*
X-3734918Y-49796463D01*
X-3555987Y-50064252D01*
X-3328252Y-50291987D01*
X-3060463Y-50470918D01*
X-2762912Y-50594168D01*
X-2447033Y-50657000D01*
X-2124967Y-50657000D01*
X-1809088Y-50594168D01*
X-1511537Y-50470918D01*
X-1243748Y-50291987D01*
X-1109174Y-50157413D01*
X1258192Y-50157413D01*
X1353956Y-50421814D01*
X1643571Y-50562704D01*
X1955108Y-50644384D01*
X2276595Y-50663718D01*
X2595675Y-50619961D01*
X2900088Y-50514795D01*
X3074044Y-50421814D01*
X3169808Y-50157413D01*
X2214000Y-49201605D01*
X1258192Y-50157413D01*
X-1109174Y-50157413D01*
X-1016013Y-50064252D01*
X-837082Y-49796463D01*
X-713832Y-49498912D01*
X-651000Y-49183033D01*
X-651000Y-49084595D01*
X572282Y-49084595D01*
X616039Y-49403675D01*
X721205Y-49708088D01*
X814186Y-49882044D01*
X1078587Y-49977808D01*
X2034395Y-49022000D01*
X2393605Y-49022000D01*
X3349413Y-49977808D01*
X3613814Y-49882044D01*
X3754704Y-49592429D01*
X3836384Y-49280892D01*
X3855718Y-48959405D01*
X3811961Y-48640325D01*
X3706795Y-48335912D01*
X3613814Y-48161956D01*
X3554744Y-48140561D01*
X5889000Y-48140561D01*
X5889000Y-48344439D01*
X5928774Y-48544398D01*
X6006795Y-48732756D01*
X6120063Y-48902274D01*
X6264226Y-49046437D01*
X6433744Y-49159705D01*
X6622102Y-49237726D01*
X6822061Y-49277500D01*
X7025939Y-49277500D01*
X7225898Y-49237726D01*
X7414256Y-49159705D01*
X7583774Y-49046437D01*
X7727937Y-48902274D01*
X7841205Y-48732756D01*
X7919226Y-48544398D01*
X7959000Y-48344439D01*
X7959000Y-48140561D01*
X7919226Y-47940602D01*
X7841205Y-47752244D01*
X7727937Y-47582726D01*
X7583774Y-47438563D01*
X7414256Y-47325295D01*
X7225898Y-47247274D01*
X7025939Y-47207500D01*
X6822061Y-47207500D01*
X6622102Y-47247274D01*
X6433744Y-47325295D01*
X6264226Y-47438563D01*
X6120063Y-47582726D01*
X6006795Y-47752244D01*
X5928774Y-47940602D01*
X5889000Y-48140561D01*
X3554744Y-48140561D01*
X3349413Y-48066192D01*
X2393605Y-49022000D01*
X2034395Y-49022000D01*
X1078587Y-48066192D01*
X814186Y-48161956D01*
X673296Y-48451571D01*
X591616Y-48763108D01*
X572282Y-49084595D01*
X-651000Y-49084595D01*
X-651000Y-48860967D01*
X-713832Y-48545088D01*
X-837082Y-48247537D01*
X-1016013Y-47979748D01*
X-1109174Y-47886587D01*
X1258192Y-47886587D01*
X2214000Y-48842395D01*
X3169808Y-47886587D01*
X3074044Y-47622186D01*
X2784429Y-47481296D01*
X2472892Y-47399616D01*
X2151405Y-47380282D01*
X1832325Y-47424039D01*
X1527912Y-47529205D01*
X1353956Y-47622186D01*
X1258192Y-47886587D01*
X-1109174Y-47886587D01*
X-1243748Y-47752013D01*
X-1511537Y-47573082D01*
X-1809088Y-47449832D01*
X-2124967Y-47387000D01*
X-2447033Y-47387000D01*
X-2762912Y-47449832D01*
X-3060463Y-47573082D01*
X-3328252Y-47752013D01*
X-3555987Y-47979748D01*
X-3734918Y-48247537D01*
X-3858168Y-48545088D01*
X-3921000Y-48860967D01*
X-14002839Y-48860967D01*
X-14002839Y-45101964D01*
X-13925000Y-45101964D01*
X-13925000Y-46338037D01*
X-13904960Y-46541507D01*
X-13825764Y-46802581D01*
X-13697157Y-47043188D01*
X-13524080Y-47254081D01*
X-13313187Y-47427157D01*
X-13072580Y-47555764D01*
X-12811506Y-47634960D01*
X-12540000Y-47661701D01*
X-12268493Y-47634960D01*
X-12007419Y-47555764D01*
X-11766812Y-47427157D01*
X-11555919Y-47254081D01*
X-11382843Y-47043188D01*
X-11254236Y-46802581D01*
X-11175040Y-46541507D01*
X-11155000Y-46338037D01*
X-11155000Y-45149509D01*
X-5675000Y-45149509D01*
X-5675000Y-46290492D01*
X-5654236Y-46501309D01*
X-5572182Y-46771808D01*
X-5438932Y-47021101D01*
X-5259607Y-47239608D01*
X-5041100Y-47418932D01*
X-4791807Y-47552182D01*
X-4521308Y-47634236D01*
X-4240000Y-47661943D01*
X-3958691Y-47634236D01*
X-3688192Y-47552182D01*
X-3438899Y-47418932D01*
X-3220392Y-47239608D01*
X-3041068Y-47021101D01*
X-2907818Y-46771808D01*
X-2825764Y-46501309D01*
X-2805000Y-46290492D01*
X-2805000Y-45847000D01*
X-2575000Y-45847000D01*
X-2575000Y-46247000D01*
X-2522650Y-46524514D01*
X-2417166Y-46786483D01*
X-2262601Y-47022839D01*
X-2064895Y-47224500D01*
X-1831646Y-47383715D01*
X-1571818Y-47494367D01*
X-1489039Y-47511904D01*
X-1267000Y-47389915D01*
X-1267000Y-45847000D01*
X-1013000Y-45847000D01*
X-1013000Y-47389915D01*
X-790961Y-47511904D01*
X-708182Y-47494367D01*
X-448354Y-47383715D01*
X-215105Y-47224500D01*
X-17399Y-47022839D01*
X0Y-46996233D01*
X17399Y-47022839D01*
X215105Y-47224500D01*
X448354Y-47383715D01*
X708182Y-47494367D01*
X790961Y-47511904D01*
X1013000Y-47389915D01*
X1013000Y-45847000D01*
X1267000Y-45847000D01*
X1267000Y-47389915D01*
X1489039Y-47511904D01*
X1571818Y-47494367D01*
X1831646Y-47383715D01*
X2064895Y-47224500D01*
X2262601Y-47022839D01*
X2417166Y-46786483D01*
X2522650Y-46524514D01*
X2575000Y-46247000D01*
X2575000Y-45847000D01*
X1267000Y-45847000D01*
X1013000Y-45847000D01*
X-1013000Y-45847000D01*
X-1267000Y-45847000D01*
X-2575000Y-45847000D01*
X-2805000Y-45847000D01*
X-2805000Y-45149508D01*
X-2825764Y-44938691D01*
X-2907818Y-44668192D01*
X-3041068Y-44418899D01*
X-3220393Y-44200392D01*
X-3438900Y-44021068D01*
X-3688193Y-43887818D01*
X-3958692Y-43805764D01*
X-4240000Y-43778057D01*
X-4521309Y-43805764D01*
X-4791808Y-43887818D01*
X-5041101Y-44021068D01*
X-5259608Y-44200393D01*
X-5438932Y-44418900D01*
X-5572182Y-44668193D01*
X-5654236Y-44938692D01*
X-5675000Y-45149509D01*
X-11155000Y-45149509D01*
X-11155000Y-45101963D01*
X-11175040Y-44898493D01*
X-11254236Y-44637419D01*
X-11382843Y-44396812D01*
X-11555920Y-44185919D01*
X-11766813Y-44012843D01*
X-12007420Y-43884236D01*
X-12268494Y-43805040D01*
X-12540000Y-43778299D01*
X-12811507Y-43805040D01*
X-13072581Y-43884236D01*
X-13313188Y-44012843D01*
X-13524081Y-44185920D01*
X-13697157Y-44396813D01*
X-13825764Y-44637420D01*
X-13904960Y-44898494D01*
X-13925000Y-45101964D01*
X-14002839Y-45101964D01*
X-14002839Y-42360967D01*
X-3921000Y-42360967D01*
X-3921000Y-42683033D01*
X-3858168Y-42998912D01*
X-3734918Y-43296463D01*
X-3555987Y-43564252D01*
X-3328252Y-43791987D01*
X-3060463Y-43970918D01*
X-2762912Y-44094168D01*
X-2447033Y-44157000D01*
X-2124967Y-44157000D01*
X-1919244Y-44116079D01*
X-2064895Y-44215500D01*
X-2262601Y-44417161D01*
X-2417166Y-44653517D01*
X-2522650Y-44915486D01*
X-2575000Y-45193000D01*
X-2575000Y-45593000D01*
X-1267000Y-45593000D01*
X-1267000Y-44050085D01*
X-1013000Y-44050085D01*
X-1013000Y-45593000D01*
X1013000Y-45593000D01*
X1013000Y-44050085D01*
X790961Y-43928096D01*
X708182Y-43945633D01*
X448354Y-44056285D01*
X215105Y-44215500D01*
X17399Y-44417161D01*
X0Y-44443767D01*
X-17399Y-44417161D01*
X-215105Y-44215500D01*
X-448354Y-44056285D01*
X-708182Y-43945633D01*
X-790961Y-43928096D01*
X-1013000Y-44050085D01*
X-1267000Y-44050085D01*
X-1466216Y-43940635D01*
X-1243748Y-43791987D01*
X-1109174Y-43657413D01*
X1258192Y-43657413D01*
X1353956Y-43921814D01*
X1431665Y-43959617D01*
X1267000Y-44050085D01*
X1267000Y-45593000D01*
X2575000Y-45593000D01*
X2575000Y-45193000D01*
X2566796Y-45149508D01*
X2805000Y-45149508D01*
X2805000Y-46290491D01*
X2825764Y-46501308D01*
X2907818Y-46771807D01*
X3041068Y-47021100D01*
X3220392Y-47239607D01*
X3438899Y-47418932D01*
X3688192Y-47552182D01*
X3958691Y-47634236D01*
X4240000Y-47661943D01*
X4521308Y-47634236D01*
X4791807Y-47552182D01*
X5041100Y-47418932D01*
X5259607Y-47239608D01*
X5438932Y-47021101D01*
X5572182Y-46771808D01*
X5654236Y-46501309D01*
X5675000Y-46290492D01*
X5675000Y-45149508D01*
X5670318Y-45101963D01*
X11155000Y-45101963D01*
X11155000Y-46338036D01*
X11175040Y-46541506D01*
X11254236Y-46802580D01*
X11382843Y-47043187D01*
X11555919Y-47254080D01*
X11766812Y-47427157D01*
X12007419Y-47555764D01*
X12268493Y-47634960D01*
X12540000Y-47661701D01*
X12811506Y-47634960D01*
X13072580Y-47555764D01*
X13313187Y-47427157D01*
X13524080Y-47254081D01*
X13697157Y-47043188D01*
X13825764Y-46802581D01*
X13904960Y-46541507D01*
X13925000Y-46338037D01*
X13925000Y-45101963D01*
X13904960Y-44898493D01*
X13825764Y-44637419D01*
X13697157Y-44396812D01*
X13524081Y-44185919D01*
X13313188Y-44012843D01*
X13072581Y-43884236D01*
X12811507Y-43805040D01*
X12540000Y-43778299D01*
X12268494Y-43805040D01*
X12007420Y-43884236D01*
X11766813Y-44012843D01*
X11555920Y-44185919D01*
X11382843Y-44396812D01*
X11254236Y-44637419D01*
X11175040Y-44898493D01*
X11155000Y-45101963D01*
X5670318Y-45101963D01*
X5654236Y-44938691D01*
X5572182Y-44668192D01*
X5438932Y-44418899D01*
X5259608Y-44200392D01*
X5041101Y-44021068D01*
X4791808Y-43887818D01*
X4521309Y-43805764D01*
X4240000Y-43778057D01*
X3958692Y-43805764D01*
X3688193Y-43887818D01*
X3438900Y-44021068D01*
X3220393Y-44200392D01*
X3041068Y-44418899D01*
X2907818Y-44668192D01*
X2825764Y-44938691D01*
X2805000Y-45149508D01*
X2566796Y-45149508D01*
X2522650Y-44915486D01*
X2417166Y-44653517D01*
X2262601Y-44417161D01*
X2064895Y-44215500D01*
X1961252Y-44144753D01*
X2276595Y-44163718D01*
X2595675Y-44119961D01*
X2900088Y-44014795D01*
X3074044Y-43921814D01*
X3169808Y-43657413D01*
X2214000Y-42701605D01*
X1258192Y-43657413D01*
X-1109174Y-43657413D01*
X-1016013Y-43564252D01*
X-837082Y-43296463D01*
X-713832Y-42998912D01*
X-651000Y-42683033D01*
X-651000Y-42584595D01*
X572282Y-42584595D01*
X616039Y-42903675D01*
X721205Y-43208088D01*
X814186Y-43382044D01*
X1078587Y-43477808D01*
X2034395Y-42522000D01*
X2393605Y-42522000D01*
X3349413Y-43477808D01*
X3613814Y-43382044D01*
X3754704Y-43092429D01*
X3836384Y-42780892D01*
X3855718Y-42459405D01*
X3811961Y-42140325D01*
X3706795Y-41835912D01*
X3613814Y-41661956D01*
X3349413Y-41566192D01*
X2393605Y-42522000D01*
X2034395Y-42522000D01*
X1078587Y-41566192D01*
X814186Y-41661956D01*
X673296Y-41951571D01*
X591616Y-42263108D01*
X572282Y-42584595D01*
X-651000Y-42584595D01*
X-651000Y-42360967D01*
X-713832Y-42045088D01*
X-837082Y-41747537D01*
X-1016013Y-41479748D01*
X-1109174Y-41386587D01*
X1258192Y-41386587D01*
X2214000Y-42342395D01*
X3169808Y-41386587D01*
X3074044Y-41122186D01*
X2784429Y-40981296D01*
X2472892Y-40899616D01*
X2151405Y-40880282D01*
X1832325Y-40924039D01*
X1527912Y-41029205D01*
X1353956Y-41122186D01*
X1258192Y-41386587D01*
X-1109174Y-41386587D01*
X-1243748Y-41252013D01*
X-1511537Y-41073082D01*
X-1809088Y-40949832D01*
X-2124967Y-40887000D01*
X-2447033Y-40887000D01*
X-2762912Y-40949832D01*
X-3060463Y-41073082D01*
X-3328252Y-41252013D01*
X-3555987Y-41479748D01*
X-3734918Y-41747537D01*
X-3858168Y-42045088D01*
X-3921000Y-42360967D01*
X-14002839Y-42360967D01*
X-14002839Y-38385750D01*
X-2805000Y-38385750D01*
X-2805000Y-39062542D01*
X-2780597Y-39185223D01*
X-2732730Y-39300785D01*
X-2663237Y-39404789D01*
X-2574789Y-39493237D01*
X-2470785Y-39562730D01*
X-2355223Y-39610597D01*
X-2232542Y-39635000D01*
X-1555750Y-39635000D01*
X-1397000Y-39476250D01*
X-1397000Y-38227000D01*
X-2646250Y-38227000D01*
X-2805000Y-38385750D01*
X-14002839Y-38385750D01*
X-14002839Y-37137458D01*
X-2805000Y-37137458D01*
X-2805000Y-37814250D01*
X-2646250Y-37973000D01*
X-1397000Y-37973000D01*
X-1397000Y-36723750D01*
X-1143000Y-36723750D01*
X-1143000Y-37973000D01*
X-1123000Y-37973000D01*
X-1123000Y-38227000D01*
X-1143000Y-38227000D01*
X-1143000Y-39476250D01*
X-984250Y-39635000D01*
X-307458Y-39635000D01*
X-184777Y-39610597D01*
X-69215Y-39562730D01*
X34789Y-39493237D01*
X123237Y-39404789D01*
X192730Y-39300785D01*
X224139Y-39224956D01*
X291495Y-39292312D01*
X542905Y-39460299D01*
X822257Y-39576011D01*
X1118816Y-39635000D01*
X1421184Y-39635000D01*
X1717743Y-39576011D01*
X1997095Y-39460299D01*
X2248505Y-39292312D01*
X2462312Y-39078505D01*
X2630299Y-38827095D01*
X2746011Y-38547743D01*
X2805000Y-38251184D01*
X2805000Y-37948816D01*
X2746011Y-37652257D01*
X2630299Y-37372905D01*
X2462312Y-37121495D01*
X2248505Y-36907688D01*
X1997095Y-36739701D01*
X1717743Y-36623989D01*
X1421184Y-36565000D01*
X1118816Y-36565000D01*
X822257Y-36623989D01*
X542905Y-36739701D01*
X291495Y-36907688D01*
X224139Y-36975044D01*
X192730Y-36899215D01*
X123237Y-36795211D01*
X34789Y-36706763D01*
X-69215Y-36637270D01*
X-184777Y-36589403D01*
X-307458Y-36565000D01*
X-984250Y-36565000D01*
X-1143000Y-36723750D01*
X-1397000Y-36723750D01*
X-1555750Y-36565000D01*
X-2232542Y-36565000D01*
X-2355223Y-36589403D01*
X-2470785Y-36637270D01*
X-2574789Y-36706763D01*
X-2663237Y-36795211D01*
X-2732730Y-36899215D01*
X-2780597Y-37014777D01*
X-2805000Y-37137458D01*
X-14002839Y-37137458D01*
X-14002839Y-34732661D01*
X-12033500Y-34732661D01*
X-12033500Y-34936539D01*
X-11993726Y-35136498D01*
X-11915705Y-35324856D01*
X-11802437Y-35494374D01*
X-11658274Y-35638537D01*
X-11488756Y-35751805D01*
X-11300398Y-35829826D01*
X-11100439Y-35869600D01*
X-10896561Y-35869600D01*
X-10696602Y-35829826D01*
X-10508244Y-35751805D01*
X-10338726Y-35638537D01*
X-10194563Y-35494374D01*
X-10081295Y-35324856D01*
X-10003274Y-35136498D01*
X-9963500Y-34936539D01*
X-9963500Y-34732661D01*
X-10003274Y-34532702D01*
X-10081295Y-34344344D01*
X-10194563Y-34174826D01*
X-10338726Y-34030663D01*
X-10508244Y-33917395D01*
X-10696602Y-33839374D01*
X-10896561Y-33799600D01*
X-11100439Y-33799600D01*
X-11300398Y-33839374D01*
X-11488756Y-33917395D01*
X-11658274Y-34030663D01*
X-11802437Y-34174826D01*
X-11915705Y-34344344D01*
X-11993726Y-34532702D01*
X-12033500Y-34732661D01*
X-14002839Y-34732661D01*
X-14002839Y-33363261D01*
X-10316900Y-33363261D01*
X-10316900Y-33567139D01*
X-10277126Y-33767098D01*
X-10199105Y-33955456D01*
X-10085837Y-34124974D01*
X-9941674Y-34269137D01*
X-9772156Y-34382405D01*
X-9583798Y-34460426D01*
X-9383839Y-34500200D01*
X-9189487Y-34500200D01*
X-9171426Y-34590998D01*
X-9093405Y-34779356D01*
X-8980137Y-34948874D01*
X-8835974Y-35093037D01*
X-8666456Y-35206305D01*
X-8478098Y-35284326D01*
X-8278139Y-35324100D01*
X-8074261Y-35324100D01*
X-7874302Y-35284326D01*
X-7685944Y-35206305D01*
X-7516426Y-35093037D01*
X-7372263Y-34948874D01*
X-7258995Y-34779356D01*
X-7180974Y-34590998D01*
X-7141200Y-34391039D01*
X-7141200Y-34187161D01*
X-7180974Y-33987202D01*
X-7258995Y-33798844D01*
X-7372263Y-33629326D01*
X-7516426Y-33485163D01*
X-7685944Y-33371895D01*
X-7874302Y-33293874D01*
X-8074261Y-33254100D01*
X-8268613Y-33254100D01*
X-8286674Y-33163302D01*
X-8364695Y-32974944D01*
X-8477963Y-32805426D01*
X-8622126Y-32661263D01*
X-8791644Y-32547995D01*
X-8980002Y-32469974D01*
X-9179961Y-32430200D01*
X-9383839Y-32430200D01*
X-9583798Y-32469974D01*
X-9772156Y-32547995D01*
X-9941674Y-32661263D01*
X-10085837Y-32805426D01*
X-10199105Y-32974944D01*
X-10277126Y-33163302D01*
X-10316900Y-33363261D01*
X-14002839Y-33363261D01*
X-14002839Y-29861964D01*
X-13925000Y-29861964D01*
X-13925000Y-31098037D01*
X-13904960Y-31301507D01*
X-13825764Y-31562581D01*
X-13697157Y-31803188D01*
X-13524080Y-32014081D01*
X-13313187Y-32187157D01*
X-13072580Y-32315764D01*
X-12811506Y-32394960D01*
X-12540000Y-32421701D01*
X-12268493Y-32394960D01*
X-12007419Y-32315764D01*
X-11766812Y-32187157D01*
X-11555919Y-32014081D01*
X-11382843Y-31803188D01*
X-11254236Y-31562581D01*
X-11175040Y-31301507D01*
X-11155000Y-31098037D01*
X-11155000Y-30607000D01*
X-5675000Y-30607000D01*
X-5675000Y-31107000D01*
X-5622650Y-31384514D01*
X-5517166Y-31646483D01*
X-5362601Y-31882839D01*
X-5164895Y-32084500D01*
X-4931646Y-32243715D01*
X-4671818Y-32354367D01*
X-4589039Y-32371904D01*
X-4367000Y-32249915D01*
X-4367000Y-30607000D01*
X-4113000Y-30607000D01*
X-4113000Y-32249915D01*
X-3890961Y-32371904D01*
X-3808182Y-32354367D01*
X-3548354Y-32243715D01*
X-3315105Y-32084500D01*
X-3117399Y-31882839D01*
X-2962834Y-31646483D01*
X-2857350Y-31384514D01*
X-2805000Y-31107000D01*
X-2805000Y-30607000D01*
X-2575000Y-30607000D01*
X-2575000Y-31007000D01*
X-2522650Y-31284514D01*
X-2417166Y-31546483D01*
X-2262601Y-31782839D01*
X-2064895Y-31984500D01*
X-1831646Y-32143715D01*
X-1571818Y-32254367D01*
X-1489039Y-32271904D01*
X-1267000Y-32149915D01*
X-1267000Y-30607000D01*
X-1013000Y-30607000D01*
X-1013000Y-32149915D01*
X-790961Y-32271904D01*
X-708182Y-32254367D01*
X-448354Y-32143715D01*
X-215105Y-31984500D01*
X-17399Y-31782839D01*
X0Y-31756233D01*
X17399Y-31782839D01*
X215105Y-31984500D01*
X448354Y-32143715D01*
X708182Y-32254367D01*
X790961Y-32271904D01*
X1013000Y-32149915D01*
X1013000Y-30607000D01*
X1267000Y-30607000D01*
X1267000Y-32149915D01*
X1489039Y-32271904D01*
X1571818Y-32254367D01*
X1831646Y-32143715D01*
X2064895Y-31984500D01*
X2262601Y-31782839D01*
X2417166Y-31546483D01*
X2522650Y-31284514D01*
X2575000Y-31007000D01*
X2575000Y-30607000D01*
X1267000Y-30607000D01*
X1013000Y-30607000D01*
X-1013000Y-30607000D01*
X-1267000Y-30607000D01*
X-2575000Y-30607000D01*
X-2805000Y-30607000D01*
X-4113000Y-30607000D01*
X-4367000Y-30607000D01*
X-5675000Y-30607000D01*
X-11155000Y-30607000D01*
X-11155000Y-29861963D01*
X-11155882Y-29853000D01*
X-5675000Y-29853000D01*
X-5675000Y-30353000D01*
X-4367000Y-30353000D01*
X-4367000Y-28710085D01*
X-4113000Y-28710085D01*
X-4113000Y-30353000D01*
X-2805000Y-30353000D01*
X-2805000Y-29953000D01*
X-2575000Y-29953000D01*
X-2575000Y-30353000D01*
X-1267000Y-30353000D01*
X-1267000Y-28810085D01*
X-1013000Y-28810085D01*
X-1013000Y-30353000D01*
X1013000Y-30353000D01*
X1013000Y-28810085D01*
X1267000Y-28810085D01*
X1267000Y-30353000D01*
X2575000Y-30353000D01*
X2575000Y-29953000D01*
X2566796Y-29909508D01*
X2805000Y-29909508D01*
X2805000Y-31050491D01*
X2825764Y-31261308D01*
X2907818Y-31531807D01*
X3041068Y-31781100D01*
X3220392Y-31999607D01*
X3438899Y-32178932D01*
X3688192Y-32312182D01*
X3958691Y-32394236D01*
X4240000Y-32421943D01*
X4521308Y-32394236D01*
X4791807Y-32312182D01*
X5041100Y-32178932D01*
X5259607Y-31999608D01*
X5438932Y-31781101D01*
X5572182Y-31531808D01*
X5654236Y-31261309D01*
X5675000Y-31050492D01*
X5675000Y-29909508D01*
X5670318Y-29861963D01*
X11155000Y-29861963D01*
X11155000Y-31098036D01*
X11175040Y-31301506D01*
X11254236Y-31562580D01*
X11382843Y-31803187D01*
X11555919Y-32014080D01*
X11766812Y-32187157D01*
X12007419Y-32315764D01*
X12268493Y-32394960D01*
X12540000Y-32421701D01*
X12811506Y-32394960D01*
X13072580Y-32315764D01*
X13313187Y-32187157D01*
X13524080Y-32014081D01*
X13697157Y-31803188D01*
X13825764Y-31562581D01*
X13904960Y-31301507D01*
X13925000Y-31098037D01*
X13925000Y-29861963D01*
X13904960Y-29658493D01*
X13825764Y-29397419D01*
X13697157Y-29156812D01*
X13524081Y-28945919D01*
X13313188Y-28772843D01*
X13072581Y-28644236D01*
X12811507Y-28565040D01*
X12540000Y-28538299D01*
X12268494Y-28565040D01*
X12007420Y-28644236D01*
X11766813Y-28772843D01*
X11555920Y-28945919D01*
X11382843Y-29156812D01*
X11254236Y-29397419D01*
X11175040Y-29658493D01*
X11155000Y-29861963D01*
X5670318Y-29861963D01*
X5654236Y-29698691D01*
X5572182Y-29428192D01*
X5438932Y-29178899D01*
X5259608Y-28960392D01*
X5041101Y-28781068D01*
X4791808Y-28647818D01*
X4521309Y-28565764D01*
X4240000Y-28538057D01*
X3958692Y-28565764D01*
X3688193Y-28647818D01*
X3438900Y-28781068D01*
X3220393Y-28960392D01*
X3041068Y-29178899D01*
X2907818Y-29428192D01*
X2825764Y-29698691D01*
X2805000Y-29909508D01*
X2566796Y-29909508D01*
X2522650Y-29675486D01*
X2417166Y-29413517D01*
X2262601Y-29177161D01*
X2064895Y-28975500D01*
X1831646Y-28816285D01*
X1571818Y-28705633D01*
X1489039Y-28688096D01*
X1267000Y-28810085D01*
X1013000Y-28810085D01*
X790961Y-28688096D01*
X708182Y-28705633D01*
X448354Y-28816285D01*
X215105Y-28975500D01*
X17399Y-29177161D01*
X0Y-29203767D01*
X-17399Y-29177161D01*
X-215105Y-28975500D01*
X-448354Y-28816285D01*
X-708182Y-28705633D01*
X-790961Y-28688096D01*
X-1013000Y-28810085D01*
X-1267000Y-28810085D01*
X-1489039Y-28688096D01*
X-1571818Y-28705633D01*
X-1831646Y-28816285D01*
X-2064895Y-28975500D01*
X-2262601Y-29177161D01*
X-2417166Y-29413517D01*
X-2522650Y-29675486D01*
X-2575000Y-29953000D01*
X-2805000Y-29953000D01*
X-2805000Y-29853000D01*
X-2857350Y-29575486D01*
X-2962834Y-29313517D01*
X-3117399Y-29077161D01*
X-3315105Y-28875500D01*
X-3548354Y-28716285D01*
X-3808182Y-28605633D01*
X-3890961Y-28588096D01*
X-4113000Y-28710085D01*
X-4367000Y-28710085D01*
X-4589039Y-28588096D01*
X-4671818Y-28605633D01*
X-4931646Y-28716285D01*
X-5164895Y-28875500D01*
X-5362601Y-29077161D01*
X-5517166Y-29313517D01*
X-5622650Y-29575486D01*
X-5675000Y-29853000D01*
X-11155882Y-29853000D01*
X-11175040Y-29658493D01*
X-11254236Y-29397419D01*
X-11382843Y-29156812D01*
X-11555920Y-28945919D01*
X-11766813Y-28772843D01*
X-12007420Y-28644236D01*
X-12268494Y-28565040D01*
X-12540000Y-28538299D01*
X-12811507Y-28565040D01*
X-13072581Y-28644236D01*
X-13313188Y-28772843D01*
X-13524081Y-28945920D01*
X-13697157Y-29156813D01*
X-13825764Y-29397420D01*
X-13904960Y-29658494D01*
X-13925000Y-29861964D01*
X-14002839Y-29861964D01*
X-14002839Y-27011661D01*
X-2020400Y-27011661D01*
X-2020400Y-27215539D01*
X-1980626Y-27415498D01*
X-1902605Y-27603856D01*
X-1789337Y-27773374D01*
X-1645174Y-27917537D01*
X-1475656Y-28030805D01*
X-1287298Y-28108826D01*
X-1087339Y-28148600D01*
X-883461Y-28148600D01*
X-683502Y-28108826D01*
X-495144Y-28030805D01*
X-325626Y-27917537D01*
X-181463Y-27773374D01*
X-68195Y-27603856D01*
X9826Y-27415498D01*
X49600Y-27215539D01*
X49600Y-27011661D01*
X9826Y-26811702D01*
X-68195Y-26623344D01*
X-181463Y-26453826D01*
X-325626Y-26309663D01*
X-495144Y-26196395D01*
X-683502Y-26118374D01*
X-883461Y-26078600D01*
X-1087339Y-26078600D01*
X-1287298Y-26118374D01*
X-1475656Y-26196395D01*
X-1645174Y-26309663D01*
X-1789337Y-26453826D01*
X-1902605Y-26623344D01*
X-1980626Y-26811702D01*
X-2020400Y-27011661D01*
X-14002839Y-27011661D01*
X-14002839Y-22339061D01*
X-12185500Y-22339061D01*
X-12185500Y-22542939D01*
X-12145726Y-22742898D01*
X-12067705Y-22931256D01*
X-11954437Y-23100774D01*
X-11810274Y-23244937D01*
X-11640756Y-23358205D01*
X-11452398Y-23436226D01*
X-11252439Y-23476000D01*
X-11048561Y-23476000D01*
X-10848602Y-23436226D01*
X-10660244Y-23358205D01*
X-10490726Y-23244937D01*
X-10391539Y-23145750D01*
X-2805000Y-23145750D01*
X-2805000Y-23822542D01*
X-2780597Y-23945223D01*
X-2732730Y-24060785D01*
X-2663237Y-24164789D01*
X-2574789Y-24253237D01*
X-2470785Y-24322730D01*
X-2355223Y-24370597D01*
X-2232542Y-24395000D01*
X-1555750Y-24395000D01*
X-1397000Y-24236250D01*
X-1397000Y-22987000D01*
X-2646250Y-22987000D01*
X-2805000Y-23145750D01*
X-10391539Y-23145750D01*
X-10346563Y-23100774D01*
X-10233295Y-22931256D01*
X-10155274Y-22742898D01*
X-10115500Y-22542939D01*
X-10115500Y-22339061D01*
X-10155274Y-22139102D01*
X-10233295Y-21950744D01*
X-10346563Y-21781226D01*
X-10490726Y-21637063D01*
X-10660244Y-21523795D01*
X-10848602Y-21445774D01*
X-11048561Y-21406000D01*
X-11252439Y-21406000D01*
X-11452398Y-21445774D01*
X-11640756Y-21523795D01*
X-11810274Y-21637063D01*
X-11954437Y-21781226D01*
X-12067705Y-21950744D01*
X-12145726Y-22139102D01*
X-12185500Y-22339061D01*
X-14002839Y-22339061D01*
X-14002839Y-20828061D01*
X-2965000Y-20828061D01*
X-2965000Y-21031939D01*
X-2925226Y-21231898D01*
X-2847205Y-21420256D01*
X-2733937Y-21589774D01*
X-2705399Y-21618312D01*
X-2732730Y-21659215D01*
X-2780597Y-21774777D01*
X-2805000Y-21897458D01*
X-2805000Y-22574250D01*
X-2646250Y-22733000D01*
X-1397000Y-22733000D01*
X-1397000Y-22713000D01*
X-1143000Y-22713000D01*
X-1143000Y-22733000D01*
X-1123000Y-22733000D01*
X-1123000Y-22987000D01*
X-1143000Y-22987000D01*
X-1143000Y-24236250D01*
X-984250Y-24395000D01*
X-307458Y-24395000D01*
X-184777Y-24370597D01*
X-69215Y-24322730D01*
X34789Y-24253237D01*
X123237Y-24164789D01*
X192730Y-24060785D01*
X224139Y-23984956D01*
X291495Y-24052312D01*
X542905Y-24220299D01*
X822257Y-24336011D01*
X1118816Y-24395000D01*
X1421184Y-24395000D01*
X1717743Y-24336011D01*
X1997095Y-24220299D01*
X2248505Y-24052312D01*
X2462312Y-23838505D01*
X2630299Y-23587095D01*
X2710670Y-23393061D01*
X2775000Y-23393061D01*
X2775000Y-23596939D01*
X2814774Y-23796898D01*
X2892795Y-23985256D01*
X3006063Y-24154774D01*
X3150226Y-24298937D01*
X3319744Y-24412205D01*
X3508102Y-24490226D01*
X3708061Y-24530000D01*
X3911939Y-24530000D01*
X4111898Y-24490226D01*
X4300256Y-24412205D01*
X4469774Y-24298937D01*
X4613937Y-24154774D01*
X4727205Y-23985256D01*
X4805226Y-23796898D01*
X4845000Y-23596939D01*
X4845000Y-23393061D01*
X4805226Y-23193102D01*
X4727205Y-23004744D01*
X4613937Y-22835226D01*
X4469774Y-22691063D01*
X4300256Y-22577795D01*
X4111898Y-22499774D01*
X3911939Y-22460000D01*
X3708061Y-22460000D01*
X3508102Y-22499774D01*
X3319744Y-22577795D01*
X3150226Y-22691063D01*
X3006063Y-22835226D01*
X2892795Y-23004744D01*
X2814774Y-23193102D01*
X2775000Y-23393061D01*
X2710670Y-23393061D01*
X2746011Y-23307743D01*
X2805000Y-23011184D01*
X2805000Y-22708816D01*
X2746011Y-22412257D01*
X2651241Y-22183461D01*
X7188000Y-22183461D01*
X7188000Y-22387339D01*
X7227774Y-22587298D01*
X7305795Y-22775656D01*
X7419063Y-22945174D01*
X7563226Y-23089337D01*
X7732744Y-23202605D01*
X7921102Y-23280626D01*
X8121061Y-23320400D01*
X8294000Y-23320400D01*
X8294000Y-23516339D01*
X8333774Y-23716298D01*
X8411795Y-23904656D01*
X8525063Y-24074174D01*
X8669226Y-24218337D01*
X8838744Y-24331605D01*
X9027102Y-24409626D01*
X9227061Y-24449400D01*
X9430939Y-24449400D01*
X9630898Y-24409626D01*
X9819256Y-24331605D01*
X9988774Y-24218337D01*
X10132937Y-24074174D01*
X10246205Y-23904656D01*
X10324226Y-23716298D01*
X10364000Y-23516339D01*
X10364000Y-23312461D01*
X10337742Y-23180453D01*
X10465226Y-23307937D01*
X10634744Y-23421205D01*
X10823102Y-23499226D01*
X11023061Y-23539000D01*
X11226939Y-23539000D01*
X11426898Y-23499226D01*
X11615256Y-23421205D01*
X11784774Y-23307937D01*
X11928937Y-23163774D01*
X12042205Y-22994256D01*
X12120226Y-22805898D01*
X12160000Y-22605939D01*
X12160000Y-22402061D01*
X12120226Y-22202102D01*
X12042205Y-22013744D01*
X11928937Y-21844226D01*
X11784774Y-21700063D01*
X11615256Y-21586795D01*
X11426898Y-21508774D01*
X11226939Y-21469000D01*
X11023061Y-21469000D01*
X11011653Y-21471269D01*
X11045605Y-21420456D01*
X11123626Y-21232098D01*
X11163400Y-21032139D01*
X11163400Y-20828261D01*
X11123626Y-20628302D01*
X11045605Y-20439944D01*
X10932337Y-20270426D01*
X10788174Y-20126263D01*
X10618656Y-20012995D01*
X10430298Y-19934974D01*
X10230339Y-19895200D01*
X10026461Y-19895200D01*
X9826502Y-19934974D01*
X9638144Y-20012995D01*
X9468626Y-20126263D01*
X9324463Y-20270426D01*
X9211195Y-20439944D01*
X9133174Y-20628302D01*
X9093400Y-20828261D01*
X9093400Y-21032139D01*
X9133174Y-21232098D01*
X9211195Y-21420456D01*
X9324463Y-21589974D01*
X9468626Y-21734137D01*
X9638144Y-21847405D01*
X9826502Y-21925426D01*
X10026461Y-21965200D01*
X10230339Y-21965200D01*
X10241747Y-21962931D01*
X10207795Y-22013744D01*
X10129774Y-22202102D01*
X10090000Y-22402061D01*
X10090000Y-22605939D01*
X10116258Y-22737947D01*
X9988774Y-22610463D01*
X9819256Y-22497195D01*
X9630898Y-22419174D01*
X9430939Y-22379400D01*
X9258000Y-22379400D01*
X9258000Y-22183461D01*
X9218226Y-21983502D01*
X9140205Y-21795144D01*
X9026937Y-21625626D01*
X8882774Y-21481463D01*
X8713256Y-21368195D01*
X8524898Y-21290174D01*
X8324939Y-21250400D01*
X8121061Y-21250400D01*
X7921102Y-21290174D01*
X7732744Y-21368195D01*
X7563226Y-21481463D01*
X7419063Y-21625626D01*
X7305795Y-21795144D01*
X7227774Y-21983502D01*
X7188000Y-22183461D01*
X2651241Y-22183461D01*
X2630299Y-22132905D01*
X2462312Y-21881495D01*
X2248505Y-21667688D01*
X1997095Y-21499701D01*
X1717743Y-21383989D01*
X1421184Y-21325000D01*
X1118816Y-21325000D01*
X822257Y-21383989D01*
X542905Y-21499701D01*
X291495Y-21667688D01*
X224139Y-21735044D01*
X192730Y-21659215D01*
X123237Y-21555211D01*
X34789Y-21466763D01*
X-69215Y-21397270D01*
X-184777Y-21349403D01*
X-307458Y-21325000D01*
X-973338Y-21325000D01*
X-934774Y-21231898D01*
X-895000Y-21031939D01*
X-895000Y-20828061D01*
X-934774Y-20628102D01*
X-1012795Y-20439744D01*
X-1126063Y-20270226D01*
X-1270226Y-20126063D01*
X-1439744Y-20012795D01*
X-1628102Y-19934774D01*
X-1828061Y-19895000D01*
X-2031939Y-19895000D01*
X-2231898Y-19934774D01*
X-2420256Y-20012795D01*
X-2589774Y-20126063D01*
X-2733937Y-20270226D01*
X-2847205Y-20439744D01*
X-2925226Y-20628102D01*
X-2965000Y-20828061D01*
X-14002839Y-20828061D01*
X-14002839Y-17329061D01*
X-10670100Y-17329061D01*
X-10670100Y-17532939D01*
X-10630326Y-17732898D01*
X-10552305Y-17921256D01*
X-10439037Y-18090774D01*
X-10294874Y-18234937D01*
X-10125356Y-18348205D01*
X-9936998Y-18426226D01*
X-9810108Y-18451466D01*
X-9880126Y-18620502D01*
X-9919900Y-18820461D01*
X-9919900Y-19024339D01*
X-9880126Y-19224298D01*
X-9802105Y-19412656D01*
X-9688837Y-19582174D01*
X-9544674Y-19726337D01*
X-9375156Y-19839605D01*
X-9186798Y-19917626D01*
X-8986839Y-19957400D01*
X-8782961Y-19957400D01*
X-8583002Y-19917626D01*
X-8394644Y-19839605D01*
X-8225126Y-19726337D01*
X-8080963Y-19582174D01*
X-7967695Y-19412656D01*
X-7889674Y-19224298D01*
X-7849900Y-19024339D01*
X-7849900Y-18820461D01*
X-7889674Y-18620502D01*
X-7967695Y-18432144D01*
X-8080963Y-18262626D01*
X-8225126Y-18118463D01*
X-8394644Y-18005195D01*
X-8583002Y-17927174D01*
X-8709892Y-17901934D01*
X-8639874Y-17732898D01*
X-8604899Y-17557061D01*
X8560000Y-17557061D01*
X8560000Y-17760939D01*
X8599774Y-17960898D01*
X8677795Y-18149256D01*
X8791063Y-18318774D01*
X8935226Y-18462937D01*
X9104744Y-18576205D01*
X9293102Y-18654226D01*
X9493061Y-18694000D01*
X9696939Y-18694000D01*
X9896898Y-18654226D01*
X10085256Y-18576205D01*
X10254774Y-18462937D01*
X10398937Y-18318774D01*
X10512205Y-18149256D01*
X10590226Y-17960898D01*
X10630000Y-17760939D01*
X10630000Y-17557061D01*
X10590226Y-17357102D01*
X10512205Y-17168744D01*
X10398937Y-16999226D01*
X10254774Y-16855063D01*
X10085256Y-16741795D01*
X9896898Y-16663774D01*
X9696939Y-16624000D01*
X9493061Y-16624000D01*
X9293102Y-16663774D01*
X9104744Y-16741795D01*
X8935226Y-16855063D01*
X8791063Y-16999226D01*
X8677795Y-17168744D01*
X8599774Y-17357102D01*
X8560000Y-17557061D01*
X-8604899Y-17557061D01*
X-8600100Y-17532939D01*
X-8600100Y-17329061D01*
X-8639874Y-17129102D01*
X-8717895Y-16940744D01*
X-8831163Y-16771226D01*
X-8975326Y-16627063D01*
X-9144844Y-16513795D01*
X-9333202Y-16435774D01*
X-9533161Y-16396000D01*
X-9737039Y-16396000D01*
X-9936998Y-16435774D01*
X-10125356Y-16513795D01*
X-10294874Y-16627063D01*
X-10439037Y-16771226D01*
X-10552305Y-16940744D01*
X-10630326Y-17129102D01*
X-10670100Y-17329061D01*
X-14002839Y-17329061D01*
X-14002839Y-14621964D01*
X-13925000Y-14621964D01*
X-13925000Y-15858037D01*
X-13904960Y-16061507D01*
X-13825764Y-16322581D01*
X-13697157Y-16563188D01*
X-13524080Y-16774081D01*
X-13313187Y-16947157D01*
X-13072580Y-17075764D01*
X-12811506Y-17154960D01*
X-12540000Y-17181701D01*
X-12268493Y-17154960D01*
X-12007419Y-17075764D01*
X-11766812Y-16947157D01*
X-11555919Y-16774081D01*
X-11382843Y-16563188D01*
X-11254236Y-16322581D01*
X-11175040Y-16061507D01*
X-11155000Y-15858037D01*
X-11155000Y-15367000D01*
X-5675000Y-15367000D01*
X-5675000Y-15867000D01*
X-5622650Y-16144514D01*
X-5517166Y-16406483D01*
X-5362601Y-16642839D01*
X-5164895Y-16844500D01*
X-4931646Y-17003715D01*
X-4671818Y-17114367D01*
X-4589039Y-17131904D01*
X-4367000Y-17009915D01*
X-4367000Y-15367000D01*
X-4113000Y-15367000D01*
X-4113000Y-17009915D01*
X-3890961Y-17131904D01*
X-3808182Y-17114367D01*
X-3548354Y-17003715D01*
X-3315105Y-16844500D01*
X-3117399Y-16642839D01*
X-2962834Y-16406483D01*
X-2857350Y-16144514D01*
X-2805000Y-15867000D01*
X-2805000Y-15367000D01*
X-2575000Y-15367000D01*
X-2575000Y-15767000D01*
X-2522650Y-16044514D01*
X-2417166Y-16306483D01*
X-2262601Y-16542839D01*
X-2064895Y-16744500D01*
X-1831646Y-16903715D01*
X-1571818Y-17014367D01*
X-1489039Y-17031904D01*
X-1267000Y-16909915D01*
X-1267000Y-15367000D01*
X-1013000Y-15367000D01*
X-1013000Y-16909915D01*
X-790961Y-17031904D01*
X-708182Y-17014367D01*
X-448354Y-16903715D01*
X-215105Y-16744500D01*
X-17399Y-16542839D01*
X0Y-16516233D01*
X17399Y-16542839D01*
X215105Y-16744500D01*
X448354Y-16903715D01*
X708182Y-17014367D01*
X790961Y-17031904D01*
X1013000Y-16909915D01*
X1013000Y-15367000D01*
X1267000Y-15367000D01*
X1267000Y-16909915D01*
X1489039Y-17031904D01*
X1571818Y-17014367D01*
X1831646Y-16903715D01*
X2064895Y-16744500D01*
X2262601Y-16542839D01*
X2417166Y-16306483D01*
X2522650Y-16044514D01*
X2575000Y-15767000D01*
X2575000Y-15367000D01*
X1267000Y-15367000D01*
X1013000Y-15367000D01*
X-1013000Y-15367000D01*
X-1267000Y-15367000D01*
X-2575000Y-15367000D01*
X-2805000Y-15367000D01*
X-4113000Y-15367000D01*
X-4367000Y-15367000D01*
X-5675000Y-15367000D01*
X-11155000Y-15367000D01*
X-11155000Y-14621963D01*
X-11155882Y-14613000D01*
X-5675000Y-14613000D01*
X-5675000Y-15113000D01*
X-4367000Y-15113000D01*
X-4367000Y-13470085D01*
X-4113000Y-13470085D01*
X-4113000Y-15113000D01*
X-2805000Y-15113000D01*
X-2805000Y-14713000D01*
X-2575000Y-14713000D01*
X-2575000Y-15113000D01*
X-1267000Y-15113000D01*
X-1267000Y-13570085D01*
X-1013000Y-13570085D01*
X-1013000Y-15113000D01*
X1013000Y-15113000D01*
X1013000Y-15093000D01*
X1267000Y-15093000D01*
X1267000Y-15113000D01*
X2575000Y-15113000D01*
X2575000Y-14713000D01*
X2566796Y-14669508D01*
X2805000Y-14669508D01*
X2805000Y-15810491D01*
X2825764Y-16021308D01*
X2907818Y-16291807D01*
X3041068Y-16541100D01*
X3220392Y-16759607D01*
X3438899Y-16938932D01*
X3688192Y-17072182D01*
X3958691Y-17154236D01*
X4240000Y-17181943D01*
X4521308Y-17154236D01*
X4791807Y-17072182D01*
X5041100Y-16938932D01*
X5259607Y-16759608D01*
X5438932Y-16541101D01*
X5572182Y-16291808D01*
X5654236Y-16021309D01*
X5675000Y-15810492D01*
X5675000Y-14669508D01*
X5670318Y-14621963D01*
X11155000Y-14621963D01*
X11155000Y-15858036D01*
X11175040Y-16061506D01*
X11254236Y-16322580D01*
X11382843Y-16563187D01*
X11555919Y-16774080D01*
X11766812Y-16947157D01*
X12007419Y-17075764D01*
X12268493Y-17154960D01*
X12540000Y-17181701D01*
X12811506Y-17154960D01*
X13072580Y-17075764D01*
X13313187Y-16947157D01*
X13524080Y-16774081D01*
X13697157Y-16563188D01*
X13825764Y-16322581D01*
X13904960Y-16061507D01*
X13925000Y-15858037D01*
X13925000Y-14621963D01*
X13904960Y-14418493D01*
X13825764Y-14157419D01*
X13697157Y-13916812D01*
X13524081Y-13705919D01*
X13313188Y-13532843D01*
X13072581Y-13404236D01*
X12811507Y-13325040D01*
X12540000Y-13298299D01*
X12268494Y-13325040D01*
X12007420Y-13404236D01*
X11766813Y-13532843D01*
X11555920Y-13705919D01*
X11382843Y-13916812D01*
X11254236Y-14157419D01*
X11175040Y-14418493D01*
X11155000Y-14621963D01*
X5670318Y-14621963D01*
X5654236Y-14458691D01*
X5572182Y-14188192D01*
X5438932Y-13938899D01*
X5259608Y-13720392D01*
X5041101Y-13541068D01*
X4791808Y-13407818D01*
X4521309Y-13325764D01*
X4240000Y-13298057D01*
X3958692Y-13325764D01*
X3688193Y-13407818D01*
X3438900Y-13541068D01*
X3220393Y-13720392D01*
X3041068Y-13938899D01*
X2907818Y-14188192D01*
X2825764Y-14458691D01*
X2805000Y-14669508D01*
X2566796Y-14669508D01*
X2522650Y-14435486D01*
X2417166Y-14173517D01*
X2340630Y-14056481D01*
X2472537Y-13924574D01*
X2585805Y-13755056D01*
X2663826Y-13566698D01*
X2703600Y-13366739D01*
X2703600Y-13162861D01*
X2663826Y-12962902D01*
X2585805Y-12774544D01*
X2472537Y-12605026D01*
X2328374Y-12460863D01*
X2158856Y-12347595D01*
X1970498Y-12269574D01*
X1770539Y-12229800D01*
X1566661Y-12229800D01*
X1366702Y-12269574D01*
X1178344Y-12347595D01*
X1008826Y-12460863D01*
X864663Y-12605026D01*
X751395Y-12774544D01*
X673374Y-12962902D01*
X633600Y-13162861D01*
X633600Y-13366739D01*
X657559Y-13487192D01*
X448354Y-13576285D01*
X215105Y-13735500D01*
X17399Y-13937161D01*
X0Y-13963767D01*
X-17399Y-13937161D01*
X-215105Y-13735500D01*
X-448354Y-13576285D01*
X-708182Y-13465633D01*
X-790961Y-13448096D01*
X-1013000Y-13570085D01*
X-1267000Y-13570085D01*
X-1489039Y-13448096D01*
X-1571818Y-13465633D01*
X-1831646Y-13576285D01*
X-2064895Y-13735500D01*
X-2262601Y-13937161D01*
X-2417166Y-14173517D01*
X-2522650Y-14435486D01*
X-2575000Y-14713000D01*
X-2805000Y-14713000D01*
X-2805000Y-14613000D01*
X-2857350Y-14335486D01*
X-2962834Y-14073517D01*
X-3117399Y-13837161D01*
X-3315105Y-13635500D01*
X-3548354Y-13476285D01*
X-3808182Y-13365633D01*
X-3890961Y-13348096D01*
X-4113000Y-13470085D01*
X-4367000Y-13470085D01*
X-4589039Y-13348096D01*
X-4671818Y-13365633D01*
X-4931646Y-13476285D01*
X-5164895Y-13635500D01*
X-5362601Y-13837161D01*
X-5517166Y-14073517D01*
X-5622650Y-14335486D01*
X-5675000Y-14613000D01*
X-11155882Y-14613000D01*
X-11175040Y-14418493D01*
X-11254236Y-14157419D01*
X-11382843Y-13916812D01*
X-11555920Y-13705919D01*
X-11766813Y-13532843D01*
X-12007420Y-13404236D01*
X-12268494Y-13325040D01*
X-12540000Y-13298299D01*
X-12811507Y-13325040D01*
X-13072581Y-13404236D01*
X-13313188Y-13532843D01*
X-13524081Y-13705920D01*
X-13697157Y-13916813D01*
X-13825764Y-14157420D01*
X-13904960Y-14418494D01*
X-13925000Y-14621964D01*
X-14002839Y-14621964D01*
X-14002839Y-11095461D01*
X-9885000Y-11095461D01*
X-9885000Y-11299339D01*
X-9845226Y-11499298D01*
X-9767205Y-11687656D01*
X-9653937Y-11857174D01*
X-9509774Y-12001337D01*
X-9340256Y-12114605D01*
X-9151898Y-12192626D01*
X-8951939Y-12232400D01*
X-8748061Y-12232400D01*
X-8548102Y-12192626D01*
X-8359744Y-12114605D01*
X-8190226Y-12001337D01*
X-8046063Y-11857174D01*
X-7932795Y-11687656D01*
X-7854774Y-11499298D01*
X-7815000Y-11299339D01*
X-7815000Y-11139261D01*
X-1822500Y-11139261D01*
X-1822500Y-11343139D01*
X-1782726Y-11543098D01*
X-1704705Y-11731456D01*
X-1591437Y-11900974D01*
X-1447274Y-12045137D01*
X-1277756Y-12158405D01*
X-1089398Y-12236426D01*
X-889439Y-12276200D01*
X-685561Y-12276200D01*
X-485602Y-12236426D01*
X-297244Y-12158405D01*
X-127726Y-12045137D01*
X16437Y-11900974D01*
X129705Y-11731456D01*
X207726Y-11543098D01*
X247500Y-11343139D01*
X247500Y-11139261D01*
X207726Y-10939302D01*
X129705Y-10750944D01*
X16437Y-10581426D01*
X-127726Y-10437263D01*
X-297244Y-10323995D01*
X-485602Y-10245974D01*
X-685561Y-10206200D01*
X-889439Y-10206200D01*
X-1089398Y-10245974D01*
X-1277756Y-10323995D01*
X-1447274Y-10437263D01*
X-1591437Y-10581426D01*
X-1704705Y-10750944D01*
X-1782726Y-10939302D01*
X-1822500Y-11139261D01*
X-7815000Y-11139261D01*
X-7815000Y-11095461D01*
X-7854774Y-10895502D01*
X-7932795Y-10707144D01*
X-8046063Y-10537626D01*
X-8190226Y-10393463D01*
X-8359744Y-10280195D01*
X-8548102Y-10202174D01*
X-8748061Y-10162400D01*
X-8951939Y-10162400D01*
X-9151898Y-10202174D01*
X-9340256Y-10280195D01*
X-9509774Y-10393463D01*
X-9653937Y-10537626D01*
X-9767205Y-10707144D01*
X-9845226Y-10895502D01*
X-9885000Y-11095461D01*
X-14002839Y-11095461D01*
X-14002839Y-8564090D01*
X-11004475Y-8564090D01*
X-10920792Y-8818271D01*
X-10648225Y-8949168D01*
X-10355358Y-9024375D01*
X-10053447Y-9041001D01*
X-9754093Y-8998407D01*
X-9468801Y-8898232D01*
X-9319208Y-8818271D01*
X-9235525Y-8564090D01*
X-10120000Y-7679615D01*
X-11004475Y-8564090D01*
X-14002839Y-8564090D01*
X-14002839Y-7566563D01*
X-11660991Y-7566563D01*
X-11618397Y-7865917D01*
X-11518222Y-8151209D01*
X-11438261Y-8300802D01*
X-11184080Y-8384485D01*
X-10299605Y-7500010D01*
X-9940395Y-7500010D01*
X-9055920Y-8384485D01*
X-8874951Y-8324905D01*
X-8772312Y-8478515D01*
X-8558505Y-8692322D01*
X-8307095Y-8860309D01*
X-8027743Y-8976021D01*
X-7731184Y-9035010D01*
X-7428816Y-9035010D01*
X-7132257Y-8976021D01*
X-6852905Y-8860309D01*
X-6601495Y-8692322D01*
X-6387688Y-8478515D01*
X-6350000Y-8422111D01*
X-6312312Y-8478515D01*
X-6098505Y-8692322D01*
X-5847095Y-8860309D01*
X-5567743Y-8976021D01*
X-5271184Y-9035010D01*
X-4968816Y-9035010D01*
X-4672257Y-8976021D01*
X-4392905Y-8860309D01*
X-4141495Y-8692322D01*
X-3927688Y-8478515D01*
X-3759701Y-8227105D01*
X-3643989Y-7947753D01*
X-3585000Y-7651194D01*
X-3585000Y-7348826D01*
X3585000Y-7348826D01*
X3585000Y-7651194D01*
X3643989Y-7947753D01*
X3759701Y-8227105D01*
X3927688Y-8478515D01*
X4141495Y-8692322D01*
X4392905Y-8860309D01*
X4672257Y-8976021D01*
X4968816Y-9035010D01*
X5271184Y-9035010D01*
X5567743Y-8976021D01*
X5847095Y-8860309D01*
X6098505Y-8692322D01*
X6312312Y-8478515D01*
X6390000Y-8362247D01*
X6467688Y-8478515D01*
X6681495Y-8692322D01*
X6932905Y-8860309D01*
X7212257Y-8976021D01*
X7508816Y-9035010D01*
X7811184Y-9035010D01*
X8107743Y-8976021D01*
X8387095Y-8860309D01*
X8638505Y-8692322D01*
X8852312Y-8478515D01*
X8890000Y-8422111D01*
X8927688Y-8478515D01*
X9141495Y-8692322D01*
X9392905Y-8860309D01*
X9672257Y-8976021D01*
X9968816Y-9035010D01*
X10271184Y-9035010D01*
X10567743Y-8976021D01*
X10847095Y-8860309D01*
X11098505Y-8692322D01*
X11312312Y-8478515D01*
X11480299Y-8227105D01*
X11596011Y-7947753D01*
X11655000Y-7651194D01*
X11655000Y-7348826D01*
X11596011Y-7052267D01*
X11480299Y-6772915D01*
X11312312Y-6521505D01*
X11098505Y-6307698D01*
X10847095Y-6139711D01*
X10567743Y-6023999D01*
X10271184Y-5965010D01*
X9968816Y-5965010D01*
X9672257Y-6023999D01*
X9392905Y-6139711D01*
X9141495Y-6307698D01*
X8927688Y-6521505D01*
X8890000Y-6577909D01*
X8852312Y-6521505D01*
X8638505Y-6307698D01*
X8387095Y-6139711D01*
X8107743Y-6023999D01*
X7811184Y-5965010D01*
X7508816Y-5965010D01*
X7212257Y-6023999D01*
X6932905Y-6139711D01*
X6681495Y-6307698D01*
X6467688Y-6521505D01*
X6390000Y-6637773D01*
X6312312Y-6521505D01*
X6098505Y-6307698D01*
X5847095Y-6139711D01*
X5567743Y-6023999D01*
X5271184Y-5965010D01*
X4968816Y-5965010D01*
X4672257Y-6023999D01*
X4392905Y-6139711D01*
X4141495Y-6307698D01*
X3927688Y-6521505D01*
X3759701Y-6772915D01*
X3643989Y-7052267D01*
X3585000Y-7348826D01*
X-3585000Y-7348826D01*
X-3643989Y-7052267D01*
X-3759701Y-6772915D01*
X-3927688Y-6521505D01*
X-4141495Y-6307698D01*
X-4392905Y-6139711D01*
X-4672257Y-6023999D01*
X-4968816Y-5965010D01*
X-5271184Y-5965010D01*
X-5567743Y-6023999D01*
X-5847095Y-6139711D01*
X-6098505Y-6307698D01*
X-6312312Y-6521505D01*
X-6350000Y-6577909D01*
X-6387688Y-6521505D01*
X-6601495Y-6307698D01*
X-6852905Y-6139711D01*
X-7132257Y-6023999D01*
X-7428816Y-5965010D01*
X-7731184Y-5965010D01*
X-8027743Y-6023999D01*
X-8307095Y-6139711D01*
X-8558505Y-6307698D01*
X-8772312Y-6521505D01*
X-8874951Y-6675115D01*
X-9055920Y-6615535D01*
X-9940395Y-7500010D01*
X-10299605Y-7500010D01*
X-11184080Y-6615535D01*
X-11438261Y-6699218D01*
X-11569158Y-6971785D01*
X-11644365Y-7264652D01*
X-11660991Y-7566563D01*
X-14002839Y-7566563D01*
X-14002839Y-6435930D01*
X-11004475Y-6435930D01*
X-10120000Y-7320405D01*
X-9235525Y-6435930D01*
X-9319208Y-6181749D01*
X-9591775Y-6050852D01*
X-9884642Y-5975645D01*
X-10186553Y-5959019D01*
X-10485907Y-6001613D01*
X-10771199Y-6101788D01*
X-10920792Y-6181749D01*
X-11004475Y-6435930D01*
X-14002839Y-6435930D01*
X-14002839Y-4072861D01*
X-2315100Y-4072861D01*
X-2315100Y-4276739D01*
X-2275326Y-4476698D01*
X-2197305Y-4665056D01*
X-2084037Y-4834574D01*
X-1939874Y-4978737D01*
X-1770356Y-5092005D01*
X-1581998Y-5170026D01*
X-1382039Y-5209800D01*
X-1178161Y-5209800D01*
X-978202Y-5170026D01*
X-789844Y-5092005D01*
X-620326Y-4978737D01*
X-476163Y-4834574D01*
X-362895Y-4665056D01*
X-284874Y-4476698D01*
X-245100Y-4276739D01*
X-245100Y-4072861D01*
X-284874Y-3872902D01*
X-362895Y-3684544D01*
X-476163Y-3515026D01*
X-620326Y-3370863D01*
X-789844Y-3257595D01*
X-978202Y-3179574D01*
X-1178161Y-3139800D01*
X-1382039Y-3139800D01*
X-1581998Y-3179574D01*
X-1770356Y-3257595D01*
X-1939874Y-3370863D01*
X-2084037Y-3515026D01*
X-2197305Y-3684544D01*
X-2275326Y-3872902D01*
X-2315100Y-4072861D01*
X-14002839Y-4072861D01*
X-14002839Y-2673561D01*
X3722600Y-2673561D01*
X3722600Y-2877439D01*
X3762374Y-3077398D01*
X3840395Y-3265756D01*
X3953663Y-3435274D01*
X4097826Y-3579437D01*
X4267344Y-3692705D01*
X4455702Y-3770726D01*
X4655661Y-3810500D01*
X4859539Y-3810500D01*
X5059498Y-3770726D01*
X5247856Y-3692705D01*
X5417374Y-3579437D01*
X5561537Y-3435274D01*
X5674805Y-3265756D01*
X5752826Y-3077398D01*
X5792600Y-2877439D01*
X5792600Y-2673561D01*
X5752826Y-2473602D01*
X5674805Y-2285244D01*
X5561537Y-2115726D01*
X5417374Y-1971563D01*
X5247856Y-1858295D01*
X5059498Y-1780274D01*
X4859539Y-1740500D01*
X4655661Y-1740500D01*
X4455702Y-1780274D01*
X4267344Y-1858295D01*
X4097826Y-1971563D01*
X3953663Y-2115726D01*
X3840395Y-2285244D01*
X3762374Y-2473602D01*
X3722600Y-2673561D01*
X-14002839Y-2673561D01*
X-14002839Y-1273740D01*
X-13788578Y-1449579D01*
X-13487168Y-1610686D01*
X-13160119Y-1709895D01*
X-12905225Y-1735000D01*
X-11934775Y-1735000D01*
X-11679881Y-1709895D01*
X-11352832Y-1610686D01*
X-11051422Y-1449579D01*
X-10787234Y-1232766D01*
X-10570421Y-968578D01*
X-10409314Y-667168D01*
X-10310105Y-340119D01*
X-10276606Y0D01*
X-4963394Y0D01*
X-4929895Y-340119D01*
X-4830686Y-667168D01*
X-4669579Y-968578D01*
X-4452766Y-1232766D01*
X-4188578Y-1449579D01*
X-3887168Y-1610686D01*
X-3560119Y-1709895D01*
X-3305225Y-1735000D01*
X-2334775Y-1735000D01*
X-2079881Y-1709895D01*
X-1752832Y-1610686D01*
X-1451422Y-1449579D01*
X-1187234Y-1232766D01*
X-970421Y-968578D01*
X-809314Y-667168D01*
X-710105Y-340119D01*
X-676606Y0D01*
X676606Y0D01*
X710105Y-340119D01*
X809314Y-667168D01*
X970421Y-968578D01*
X1187234Y-1232766D01*
X1451422Y-1449579D01*
X1752832Y-1610686D01*
X2079881Y-1709895D01*
X2334775Y-1735000D01*
X3305225Y-1735000D01*
X3560119Y-1709895D01*
X3887168Y-1610686D01*
X4188578Y-1449579D01*
X4452766Y-1232766D01*
X4669579Y-968578D01*
X4830686Y-667168D01*
X4929895Y-340119D01*
X4963394Y0D01*
X4929895Y340119D01*
X4830686Y667168D01*
X4669579Y968578D01*
X4452766Y1232766D01*
X4188578Y1449579D01*
X3887168Y1610686D01*
X3560119Y1709895D01*
X3305225Y1735000D01*
X2334775Y1735000D01*
X2079881Y1709895D01*
X1752832Y1610686D01*
X1451422Y1449579D01*
X1187234Y1232766D01*
X970421Y968578D01*
X809314Y667168D01*
X710105Y340119D01*
X676606Y0D01*
X-676606Y0D01*
X-710105Y340119D01*
X-809314Y667168D01*
X-970421Y968578D01*
X-1187234Y1232766D01*
X-1451422Y1449579D01*
X-1752832Y1610686D01*
X-2079881Y1709895D01*
X-2334775Y1735000D01*
X-3305225Y1735000D01*
X-3560119Y1709895D01*
X-3887168Y1610686D01*
X-4188578Y1449579D01*
X-4452766Y1232766D01*
X-4669579Y968578D01*
X-4830686Y667168D01*
X-4929895Y340119D01*
X-4963394Y0D01*
X-10276606Y0D01*
X-10310105Y340119D01*
X-10409314Y667168D01*
X-10570421Y968578D01*
X-10787234Y1232766D01*
X-11051422Y1449579D01*
X-11352832Y1610686D01*
X-11679881Y1709895D01*
X-11934775Y1735000D01*
X-12905225Y1735000D01*
X-13160119Y1709895D01*
X-13487168Y1610686D01*
X-13788578Y1449579D01*
X-14002839Y1273740D01*
X-14002839Y3617039D01*
X-1518000Y3617039D01*
X-1518000Y3413161D01*
X-1478226Y3213202D01*
X-1400205Y3024844D01*
X-1286937Y2855326D01*
X-1142774Y2711163D01*
X-973256Y2597895D01*
X-784898Y2519874D01*
X-584939Y2480100D01*
X-381061Y2480100D01*
X-181102Y2519874D01*
X7256Y2597895D01*
X176774Y2711163D01*
X320937Y2855326D01*
X434205Y3024844D01*
X512226Y3213202D01*
X552000Y3413161D01*
X552000Y3454078D01*
X563174Y3397902D01*
X641195Y3209544D01*
X754463Y3040026D01*
X898626Y2895863D01*
X1068144Y2782595D01*
X1256502Y2704574D01*
X1456461Y2664800D01*
X1660339Y2664800D01*
X1826782Y2697907D01*
X1899026Y2625663D01*
X2068544Y2512395D01*
X2256902Y2434374D01*
X2456861Y2394600D01*
X2660739Y2394600D01*
X2860698Y2434374D01*
X3049056Y2512395D01*
X3218574Y2625663D01*
X3362737Y2769826D01*
X3476005Y2939344D01*
X3554026Y3127702D01*
X3593800Y3327661D01*
X3593800Y3531539D01*
X3554026Y3731498D01*
X3476005Y3919856D01*
X3362737Y4089374D01*
X3218574Y4233537D01*
X3049056Y4346805D01*
X2860698Y4424826D01*
X2660739Y4464600D01*
X2456861Y4464600D01*
X2290418Y4431493D01*
X2218174Y4503737D01*
X2192173Y4521110D01*
X2284998Y4539574D01*
X2473356Y4617595D01*
X2642874Y4730863D01*
X2787037Y4875026D01*
X2900305Y5044544D01*
X2978326Y5232902D01*
X3018100Y5432861D01*
X3018100Y5636739D01*
X2978326Y5836698D01*
X2900305Y6025056D01*
X2787037Y6194574D01*
X2642874Y6338737D01*
X2473356Y6452005D01*
X2284998Y6530026D01*
X2085039Y6569800D01*
X1881161Y6569800D01*
X1681202Y6530026D01*
X1492844Y6452005D01*
X1323326Y6338737D01*
X1179163Y6194574D01*
X1065895Y6025056D01*
X987874Y5836698D01*
X948100Y5636739D01*
X948100Y5432861D01*
X987874Y5232902D01*
X1065895Y5044544D01*
X1179163Y4875026D01*
X1323326Y4730863D01*
X1349327Y4713490D01*
X1256502Y4695026D01*
X1068144Y4617005D01*
X898626Y4503737D01*
X754463Y4359574D01*
X641195Y4190056D01*
X563174Y4001698D01*
X523400Y3801739D01*
X523400Y3760822D01*
X512226Y3816998D01*
X434205Y4005356D01*
X320937Y4174874D01*
X176774Y4319037D01*
X7256Y4432305D01*
X-181102Y4510326D01*
X-381061Y4550100D01*
X-584939Y4550100D01*
X-784898Y4510326D01*
X-973256Y4432305D01*
X-1142774Y4319037D01*
X-1286937Y4174874D01*
X-1400205Y4005356D01*
X-1478226Y3816998D01*
X-1518000Y3617039D01*
X-14002839Y3617039D01*
X-14002839Y9025639D01*
X-3518600Y9025639D01*
X-3518600Y8821761D01*
X-3478826Y8621802D01*
X-3400805Y8433444D01*
X-3287537Y8263926D01*
X-3143374Y8119763D01*
X-2973856Y8006495D01*
X-2785498Y7928474D01*
X-2585539Y7888700D01*
X-2381661Y7888700D01*
X-2181702Y7928474D01*
X-1993344Y8006495D01*
X-1823826Y8119763D01*
X-1802195Y8141394D01*
X-1783798Y8133774D01*
X-1583839Y8094000D01*
X-1379961Y8094000D01*
X-1180002Y8133774D01*
X-991644Y8211795D01*
X-822126Y8325063D01*
X-677963Y8469226D01*
X-564695Y8638744D01*
X-486674Y8827102D01*
X-446900Y9027061D01*
X-446900Y9230939D01*
X-486674Y9430898D01*
X-564695Y9619256D01*
X-677963Y9788774D01*
X-822126Y9932937D01*
X-991644Y10046205D01*
X-1180002Y10124226D01*
X-1379961Y10164000D01*
X-1583839Y10164000D01*
X-1783798Y10124226D01*
X-1972156Y10046205D01*
X-2141674Y9932937D01*
X-2163305Y9911306D01*
X-2181702Y9918926D01*
X-2381661Y9958700D01*
X-2585539Y9958700D01*
X-2785498Y9918926D01*
X-2973856Y9840905D01*
X-3143374Y9727637D01*
X-3287537Y9583474D01*
X-3400805Y9413956D01*
X-3478826Y9225598D01*
X-3518600Y9025639D01*
X-14002839Y9025639D01*
X-14002839Y10262891D01*
X5543519Y10262891D01*
X5664186Y10033000D01*
X6858000Y10033000D01*
X6858000Y11226155D01*
X6628110Y11347476D01*
X6480901Y11302825D01*
X6218080Y11177641D01*
X5984731Y11003588D01*
X5789822Y10787355D01*
X5640843Y10537252D01*
X5543519Y10262891D01*
X-14002839Y10262891D01*
X-14002839Y11755910D01*
X1695525Y11755910D01*
X1779208Y11501729D01*
X2051775Y11370832D01*
X2344642Y11295625D01*
X2646553Y11278999D01*
X2945907Y11321593D01*
X3231199Y11421768D01*
X3380792Y11501729D01*
X3464475Y11755910D01*
X2580000Y12640385D01*
X1695525Y11755910D01*
X-14002839Y11755910D01*
X-14002839Y12753437D01*
X1039009Y12753437D01*
X1081603Y12454083D01*
X1181778Y12168791D01*
X1261739Y12019198D01*
X1515920Y11935515D01*
X2400395Y12819990D01*
X2759605Y12819990D01*
X3644080Y11935515D01*
X3825049Y11995095D01*
X3927688Y11841485D01*
X4141495Y11627678D01*
X4392905Y11459691D01*
X4672257Y11343979D01*
X4968816Y11284990D01*
X5271184Y11284990D01*
X5567743Y11343979D01*
X5847095Y11459691D01*
X6098505Y11627678D01*
X6312312Y11841485D01*
X6350000Y11897889D01*
X6387688Y11841485D01*
X6601495Y11627678D01*
X6852905Y11459691D01*
X7132257Y11343979D01*
X7279693Y11314652D01*
X7112000Y11226155D01*
X7112000Y10033000D01*
X7132000Y10033000D01*
X7132000Y9779000D01*
X7112000Y9779000D01*
X7112000Y9759000D01*
X6858000Y9759000D01*
X6858000Y9779000D01*
X5664186Y9779000D01*
X5543519Y9549109D01*
X5640843Y9274748D01*
X5789822Y9024645D01*
X5984731Y8808412D01*
X6213756Y8637584D01*
X6155986Y8606706D01*
X5929866Y8421134D01*
X5744294Y8195014D01*
X5606401Y7937034D01*
X5521487Y7657111D01*
X5492815Y7366000D01*
X5521487Y7074889D01*
X5606401Y6794966D01*
X5744294Y6536986D01*
X5929866Y6310866D01*
X6155986Y6125294D01*
X6413966Y5987401D01*
X6693889Y5902487D01*
X6912050Y5881000D01*
X7057950Y5881000D01*
X7276111Y5902487D01*
X7556034Y5987401D01*
X7814014Y6125294D01*
X8040134Y6310866D01*
X8225706Y6536986D01*
X8255000Y6591791D01*
X8284294Y6536986D01*
X8469866Y6310866D01*
X8690270Y6129985D01*
X8592544Y6089505D01*
X8423026Y5976237D01*
X8278863Y5832074D01*
X8165595Y5662556D01*
X8087574Y5474198D01*
X8047800Y5274239D01*
X8047800Y5070361D01*
X8087574Y4870402D01*
X8165595Y4682044D01*
X8278863Y4512526D01*
X8423026Y4368363D01*
X8592544Y4255095D01*
X8780902Y4177074D01*
X8980861Y4137300D01*
X9184739Y4137300D01*
X9384698Y4177074D01*
X9573056Y4255095D01*
X9742574Y4368363D01*
X9886737Y4512526D01*
X10000005Y4682044D01*
X10078026Y4870402D01*
X10117800Y5070361D01*
X10117800Y5274239D01*
X10078026Y5474198D01*
X10000005Y5662556D01*
X9886737Y5832074D01*
X9816274Y5902537D01*
X10096034Y5987401D01*
X10354014Y6125294D01*
X10580134Y6310866D01*
X10604607Y6340687D01*
X10625498Y6271820D01*
X10684463Y6161506D01*
X10763815Y6064815D01*
X10860506Y5985463D01*
X10970820Y5926498D01*
X11090518Y5890188D01*
X11215000Y5877928D01*
X12915000Y5877928D01*
X13039482Y5890188D01*
X13159180Y5926498D01*
X13269494Y5985463D01*
X13366185Y6064815D01*
X13445537Y6161506D01*
X13504502Y6271820D01*
X13540812Y6391518D01*
X13553072Y6516000D01*
X13553072Y8216000D01*
X13540812Y8340482D01*
X13504502Y8460180D01*
X13445537Y8570494D01*
X13366185Y8667185D01*
X13269494Y8746537D01*
X13159180Y8805502D01*
X13090313Y8826393D01*
X13120134Y8850866D01*
X13305706Y9076986D01*
X13443599Y9334966D01*
X13528513Y9614889D01*
X13557185Y9906000D01*
X13528513Y10197111D01*
X13443599Y10477034D01*
X13305706Y10735014D01*
X13120134Y10961134D01*
X12894014Y11146706D01*
X12636034Y11284599D01*
X12356111Y11369513D01*
X12137950Y11391000D01*
X11992050Y11391000D01*
X11773889Y11369513D01*
X11493966Y11284599D01*
X11235986Y11146706D01*
X11009866Y10961134D01*
X10824294Y10735014D01*
X10795000Y10680209D01*
X10765706Y10735014D01*
X10580134Y10961134D01*
X10354014Y11146706D01*
X10096034Y11284599D01*
X9816111Y11369513D01*
X9597950Y11391000D01*
X9452050Y11391000D01*
X9233889Y11369513D01*
X8953966Y11284599D01*
X8695986Y11146706D01*
X8469866Y10961134D01*
X8284294Y10735014D01*
X8249799Y10670477D01*
X8180178Y10787355D01*
X7985269Y11003588D01*
X7751920Y11177641D01*
X7526543Y11284990D01*
X7731184Y11284990D01*
X8027743Y11343979D01*
X8307095Y11459691D01*
X8558505Y11627678D01*
X8772312Y11841485D01*
X8940299Y12092895D01*
X9056011Y12372247D01*
X9115000Y12668806D01*
X9115000Y12971174D01*
X9056011Y13267733D01*
X8940299Y13547085D01*
X8772312Y13798495D01*
X8558505Y14012302D01*
X8307095Y14180289D01*
X8027743Y14296001D01*
X7731184Y14354990D01*
X7428816Y14354990D01*
X7132257Y14296001D01*
X6852905Y14180289D01*
X6601495Y14012302D01*
X6387688Y13798495D01*
X6350000Y13742091D01*
X6312312Y13798495D01*
X6098505Y14012302D01*
X5847095Y14180289D01*
X5567743Y14296001D01*
X5271184Y14354990D01*
X4968816Y14354990D01*
X4672257Y14296001D01*
X4392905Y14180289D01*
X4141495Y14012302D01*
X3927688Y13798495D01*
X3825049Y13644885D01*
X3644080Y13704465D01*
X2759605Y12819990D01*
X2400395Y12819990D01*
X1515920Y13704465D01*
X1261739Y13620782D01*
X1130842Y13348215D01*
X1055635Y13055348D01*
X1039009Y12753437D01*
X-14002839Y12753437D01*
X-14002839Y15620000D01*
X-9714120Y15620000D01*
X-9677725Y15250476D01*
X-9569939Y14895152D01*
X-9394903Y14567683D01*
X-9159345Y14280655D01*
X-8872317Y14045097D01*
X-8544848Y13870061D01*
X-8189524Y13762275D01*
X-7912597Y13735000D01*
X-7327403Y13735000D01*
X-7050476Y13762275D01*
X-6695152Y13870061D01*
X-6668944Y13884070D01*
X1695525Y13884070D01*
X2580000Y12999595D01*
X3464475Y13884070D01*
X3380792Y14138251D01*
X3108225Y14269148D01*
X2815358Y14344355D01*
X2513447Y14360981D01*
X2214093Y14318387D01*
X1928801Y14218212D01*
X1779208Y14138251D01*
X1695525Y13884070D01*
X-6668944Y13884070D01*
X-6367683Y14045097D01*
X-6080655Y14280655D01*
X-5845097Y14567683D01*
X-5670061Y14895152D01*
X-5562275Y15250476D01*
X-5525880Y15620000D01*
X-5562275Y15989524D01*
X-5670061Y16344848D01*
X-5709663Y16418939D01*
X11579900Y16418939D01*
X11579900Y16215061D01*
X11619674Y16015102D01*
X11697695Y15826744D01*
X11810963Y15657226D01*
X11955126Y15513063D01*
X12124644Y15399795D01*
X12313002Y15321774D01*
X12512961Y15282000D01*
X12716839Y15282000D01*
X12916798Y15321774D01*
X13105156Y15399795D01*
X13274674Y15513063D01*
X13418837Y15657226D01*
X13532105Y15826744D01*
X13610126Y16015102D01*
X13649900Y16215061D01*
X13649900Y16418939D01*
X13610126Y16618898D01*
X13532105Y16807256D01*
X13418837Y16976774D01*
X13274674Y17120937D01*
X13105156Y17234205D01*
X12916798Y17312226D01*
X12716839Y17352000D01*
X12512961Y17352000D01*
X12313002Y17312226D01*
X12124644Y17234205D01*
X11955126Y17120937D01*
X11810963Y16976774D01*
X11697695Y16807256D01*
X11619674Y16618898D01*
X11579900Y16418939D01*
X-5709663Y16418939D01*
X-5845097Y16672317D01*
X-6080655Y16959345D01*
X-6367683Y17194903D01*
X-6695152Y17369939D01*
X-7050476Y17477725D01*
X-7327403Y17505000D01*
X-7912597Y17505000D01*
X-8189524Y17477725D01*
X-8544848Y17369939D01*
X-8872317Y17194903D01*
X-9159345Y16959345D01*
X-9394903Y16672317D01*
X-9569939Y16344848D01*
X-9677725Y15989524D01*
X-9714120Y15620000D01*
X-14002839Y15620000D01*
X-14002839Y20320000D01*
X-9714120Y20320000D01*
X-9677725Y19950476D01*
X-9569939Y19595152D01*
X-9394903Y19267683D01*
X-9159345Y18980655D01*
X-8872317Y18745097D01*
X-8544848Y18570061D01*
X-8189524Y18462275D01*
X-7912597Y18435000D01*
X-7327403Y18435000D01*
X-7050476Y18462275D01*
X-6695152Y18570061D01*
X-6367683Y18745097D01*
X-6080655Y18980655D01*
X-5845097Y19267683D01*
X-5670061Y19595152D01*
X-5562275Y19950476D01*
X-5525880Y20320000D01*
X-1863394Y20320000D01*
X-1829895Y19979881D01*
X-1730686Y19652832D01*
X-1569579Y19351422D01*
X-1352766Y19087234D01*
X-1088578Y18870421D01*
X-787168Y18709314D01*
X-460119Y18610105D01*
X-205225Y18585000D01*
X765225Y18585000D01*
X1020119Y18610105D01*
X1347168Y18709314D01*
X1648578Y18870421D01*
X1898150Y19075239D01*
X5867400Y19075239D01*
X5867400Y18871361D01*
X5907174Y18671402D01*
X5985195Y18483044D01*
X6098463Y18313526D01*
X6242626Y18169363D01*
X6412144Y18056095D01*
X6600502Y17978074D01*
X6800461Y17938300D01*
X7004339Y17938300D01*
X7204298Y17978074D01*
X7392656Y18056095D01*
X7562174Y18169363D01*
X7706337Y18313526D01*
X7819605Y18483044D01*
X7897626Y18671402D01*
X7937400Y18871361D01*
X7937400Y19075239D01*
X7897626Y19275198D01*
X7819605Y19463556D01*
X7706337Y19633074D01*
X7562174Y19777237D01*
X7392656Y19890505D01*
X7204298Y19968526D01*
X7004339Y20008300D01*
X6800461Y20008300D01*
X6600502Y19968526D01*
X6412144Y19890505D01*
X6242626Y19777237D01*
X6098463Y19633074D01*
X5985195Y19463556D01*
X5907174Y19275198D01*
X5867400Y19075239D01*
X1898150Y19075239D01*
X1912766Y19087234D01*
X2129579Y19351422D01*
X2290686Y19652832D01*
X2389895Y19979881D01*
X2423394Y20320000D01*
X7736606Y20320000D01*
X7770105Y19979881D01*
X7869314Y19652832D01*
X8030421Y19351422D01*
X8247234Y19087234D01*
X8511422Y18870421D01*
X8812832Y18709314D01*
X9139881Y18610105D01*
X9394775Y18585000D01*
X10365225Y18585000D01*
X10620119Y18610105D01*
X10947168Y18709314D01*
X11248578Y18870421D01*
X11512766Y19087234D01*
X11729579Y19351422D01*
X11890686Y19652832D01*
X11989895Y19979881D01*
X12023394Y20320000D01*
X11989895Y20660119D01*
X11890686Y20987168D01*
X11729579Y21288578D01*
X11512766Y21552766D01*
X11248578Y21769579D01*
X10947168Y21930686D01*
X10620119Y22029895D01*
X10365225Y22055000D01*
X9394775Y22055000D01*
X9139881Y22029895D01*
X8812832Y21930686D01*
X8511422Y21769579D01*
X8247234Y21552766D01*
X8030421Y21288578D01*
X7869314Y20987168D01*
X7770105Y20660119D01*
X7736606Y20320000D01*
X2423394Y20320000D01*
X2389895Y20660119D01*
X2290686Y20987168D01*
X2129579Y21288578D01*
X1912766Y21552766D01*
X1648578Y21769579D01*
X1347168Y21930686D01*
X1020119Y22029895D01*
X765225Y22055000D01*
X-205225Y22055000D01*
X-460119Y22029895D01*
X-787168Y21930686D01*
X-1088578Y21769579D01*
X-1352766Y21552766D01*
X-1569579Y21288578D01*
X-1730686Y20987168D01*
X-1829895Y20660119D01*
X-1863394Y20320000D01*
X-5525880Y20320000D01*
X-5562275Y20689524D01*
X-5670061Y21044848D01*
X-5845097Y21372317D01*
X-6080655Y21659345D01*
X-6367683Y21894903D01*
X-6695152Y22069939D01*
X-7050476Y22177725D01*
X-7327403Y22205000D01*
X-7912597Y22205000D01*
X-8189524Y22177725D01*
X-8544848Y22069939D01*
X-8872317Y21894903D01*
X-9159345Y21659345D01*
X-9394903Y21372317D01*
X-9569939Y21044848D01*
X-9677725Y20689524D01*
X-9714120Y20320000D01*
X-14002839Y20320000D01*
X-14002839Y25020000D01*
X-9714120Y25020000D01*
X-9677725Y24650476D01*
X-9569939Y24295152D01*
X-9394903Y23967683D01*
X-9159345Y23680655D01*
X-8872317Y23445097D01*
X-8544848Y23270061D01*
X-8189524Y23162275D01*
X-7912597Y23135000D01*
X-7327403Y23135000D01*
X-7050476Y23162275D01*
X-6695152Y23270061D01*
X-6367683Y23445097D01*
X-6080655Y23680655D01*
X-5845097Y23967683D01*
X-5670061Y24295152D01*
X-5562275Y24650476D01*
X-5525880Y25020000D01*
X-5562275Y25389524D01*
X-5670061Y25744848D01*
X-5845097Y26072317D01*
X-6080655Y26359345D01*
X-6367683Y26594903D01*
X-6695152Y26769939D01*
X-7050476Y26877725D01*
X-7327403Y26905000D01*
X-7912597Y26905000D01*
X-8189524Y26877725D01*
X-8544848Y26769939D01*
X-8872317Y26594903D01*
X-9159345Y26359345D01*
X-9394903Y26072317D01*
X-9569939Y25744848D01*
X-9677725Y25389524D01*
X-9714120Y25020000D01*
X-14002839Y25020000D01*
X-14002839Y27152939D01*
X-13100000Y27152939D01*
X-13100000Y26949061D01*
X-13060226Y26749102D01*
X-12982205Y26560744D01*
X-12868937Y26391226D01*
X-12724774Y26247063D01*
X-12555256Y26133795D01*
X-12366898Y26055774D01*
X-12166939Y26016000D01*
X-11963061Y26016000D01*
X-11763102Y26055774D01*
X-11574744Y26133795D01*
X-11405226Y26247063D01*
X-11261063Y26391226D01*
X-11147795Y26560744D01*
X-11069774Y26749102D01*
X-11030000Y26949061D01*
X-11030000Y27152939D01*
X-11069774Y27352898D01*
X-11147795Y27541256D01*
X-11261063Y27710774D01*
X-11405226Y27854937D01*
X-11574744Y27968205D01*
X-11763102Y28046226D01*
X-11963061Y28086000D01*
X-12166939Y28086000D01*
X-12366898Y28046226D01*
X-12555256Y27968205D01*
X-12724774Y27854937D01*
X-12868937Y27710774D01*
X-12982205Y27541256D01*
X-13060226Y27352898D01*
X-13100000Y27152939D01*
X-14002839Y27152939D01*
X-14002839Y30645939D01*
X-2445400Y30645939D01*
X-2445400Y30442061D01*
X-2405626Y30242102D01*
X-2327605Y30053744D01*
X-2214337Y29884226D01*
X-2070174Y29740063D01*
X-1900656Y29626795D01*
X-1712298Y29548774D01*
X-1512339Y29509000D01*
X-1308461Y29509000D01*
X-1108502Y29548774D01*
X-920144Y29626795D01*
X-750626Y29740063D01*
X-606463Y29884226D01*
X-493195Y30053744D01*
X-415174Y30242102D01*
X-375400Y30442061D01*
X-375400Y30645939D01*
X-415174Y30845898D01*
X-421569Y30861339D01*
X11360000Y30861339D01*
X11360000Y30657461D01*
X11399774Y30457502D01*
X11477795Y30269144D01*
X11591063Y30099626D01*
X11735226Y29955463D01*
X11904744Y29842195D01*
X12093102Y29764174D01*
X12293061Y29724400D01*
X12496939Y29724400D01*
X12696898Y29764174D01*
X12885256Y29842195D01*
X13054774Y29955463D01*
X13198937Y30099626D01*
X13312205Y30269144D01*
X13390226Y30457502D01*
X13430000Y30657461D01*
X13430000Y30861339D01*
X13390226Y31061298D01*
X13312205Y31249656D01*
X13198937Y31419174D01*
X13054774Y31563337D01*
X12885256Y31676605D01*
X12696898Y31754626D01*
X12496939Y31794400D01*
X12293061Y31794400D01*
X12093102Y31754626D01*
X11904744Y31676605D01*
X11735226Y31563337D01*
X11591063Y31419174D01*
X11477795Y31249656D01*
X11399774Y31061298D01*
X11360000Y30861339D01*
X-421569Y30861339D01*
X-493195Y31034256D01*
X-606463Y31203774D01*
X-750626Y31347937D01*
X-920144Y31461205D01*
X-1108502Y31539226D01*
X-1308461Y31579000D01*
X-1512339Y31579000D01*
X-1712298Y31539226D01*
X-1900656Y31461205D01*
X-2070174Y31347937D01*
X-2214337Y31203774D01*
X-2327605Y31034256D01*
X-2405626Y30845898D01*
X-2445400Y30645939D01*
X-14002839Y30645939D01*
X-14002839Y32075910D01*
X-8464475Y32075910D01*
X-8380792Y31821729D01*
X-8108225Y31690832D01*
X-7815358Y31615625D01*
X-7513447Y31598999D01*
X-7214093Y31641593D01*
X-6928801Y31741768D01*
X-6779208Y31821729D01*
X-6695525Y32075910D01*
X-7580000Y32960385D01*
X-8464475Y32075910D01*
X-14002839Y32075910D01*
X-14002839Y32960142D01*
X-13890898Y32913774D01*
X-13690939Y32874000D01*
X-13487061Y32874000D01*
X-13287102Y32913774D01*
X-13098744Y32991795D01*
X-13017500Y33046080D01*
X-12936256Y32991795D01*
X-12747898Y32913774D01*
X-12547939Y32874000D01*
X-12344061Y32874000D01*
X-12144102Y32913774D01*
X-11955744Y32991795D01*
X-11833558Y33073437D01*
X-9120991Y33073437D01*
X-9078397Y32774083D01*
X-8978222Y32488791D01*
X-8898261Y32339198D01*
X-8644080Y32255515D01*
X-7759605Y33139990D01*
X-7400395Y33139990D01*
X-6515920Y32255515D01*
X-6334951Y32315095D01*
X-6232312Y32161485D01*
X-6018505Y31947678D01*
X-5767095Y31779691D01*
X-5487743Y31663979D01*
X-5191184Y31604990D01*
X-4888816Y31604990D01*
X-4592257Y31663979D01*
X-4312905Y31779691D01*
X-4061495Y31947678D01*
X-3847688Y32161485D01*
X-3810000Y32217889D01*
X-3772312Y32161485D01*
X-3558505Y31947678D01*
X-3307095Y31779691D01*
X-3027743Y31663979D01*
X-2731184Y31604990D01*
X-2428816Y31604990D01*
X-2132257Y31663979D01*
X-1852905Y31779691D01*
X-1601495Y31947678D01*
X-1387688Y32161485D01*
X-1219701Y32412895D01*
X-1103989Y32692247D01*
X-1045000Y32988806D01*
X-1045000Y33291174D01*
X-1103989Y33587733D01*
X-1219701Y33867085D01*
X-1387688Y34118495D01*
X-1601495Y34332302D01*
X-1852905Y34500289D01*
X-2132257Y34616001D01*
X-2428816Y34674990D01*
X-2731184Y34674990D01*
X-3027743Y34616001D01*
X-3307095Y34500289D01*
X-3558505Y34332302D01*
X-3772312Y34118495D01*
X-3810000Y34062091D01*
X-3847688Y34118495D01*
X-4061495Y34332302D01*
X-4312905Y34500289D01*
X-4592257Y34616001D01*
X-4888816Y34674990D01*
X-5191184Y34674990D01*
X-5487743Y34616001D01*
X-5767095Y34500289D01*
X-6018505Y34332302D01*
X-6232312Y34118495D01*
X-6334951Y33964885D01*
X-6515920Y34024465D01*
X-7400395Y33139990D01*
X-7759605Y33139990D01*
X-8644080Y34024465D01*
X-8898261Y33940782D01*
X-9029158Y33668215D01*
X-9104365Y33375348D01*
X-9120991Y33073437D01*
X-11833558Y33073437D01*
X-11786226Y33105063D01*
X-11642063Y33249226D01*
X-11528795Y33418744D01*
X-11450774Y33607102D01*
X-11411000Y33807061D01*
X-11411000Y34010939D01*
X-11449415Y34204070D01*
X-8464475Y34204070D01*
X-7580000Y33319595D01*
X-6695525Y34204070D01*
X-6779208Y34458251D01*
X-7051775Y34589148D01*
X-7344642Y34664355D01*
X-7646553Y34680981D01*
X-7945907Y34638387D01*
X-8231199Y34538212D01*
X-8380792Y34458251D01*
X-8464475Y34204070D01*
X-11449415Y34204070D01*
X-11450774Y34210898D01*
X-11528795Y34399256D01*
X-11642063Y34568774D01*
X-11786226Y34712937D01*
X-11955744Y34826205D01*
X-12144102Y34904226D01*
X-12344061Y34944000D01*
X-12547939Y34944000D01*
X-12747898Y34904226D01*
X-12936256Y34826205D01*
X-13017500Y34771920D01*
X-13098744Y34826205D01*
X-13287102Y34904226D01*
X-13487061Y34944000D01*
X-13690939Y34944000D01*
X-13890898Y34904226D01*
X-14002839Y34857858D01*
X-14002839Y35940000D01*
X5525880Y35940000D01*
X5562275Y35570476D01*
X5670061Y35215152D01*
X5845097Y34887683D01*
X6080655Y34600655D01*
X6367683Y34365097D01*
X6695152Y34190061D01*
X7050476Y34082275D01*
X7327403Y34055000D01*
X7912597Y34055000D01*
X8189524Y34082275D01*
X8544848Y34190061D01*
X8872317Y34365097D01*
X9159345Y34600655D01*
X9394903Y34887683D01*
X9569939Y35215152D01*
X9677725Y35570476D01*
X9714120Y35940000D01*
X9677725Y36309524D01*
X9569939Y36664848D01*
X9394903Y36992317D01*
X9159345Y37279345D01*
X8872317Y37514903D01*
X8544848Y37689939D01*
X8189524Y37797725D01*
X7912597Y37825000D01*
X7327403Y37825000D01*
X7050476Y37797725D01*
X6695152Y37689939D01*
X6367683Y37514903D01*
X6080655Y37279345D01*
X5845097Y36992317D01*
X5670061Y36664848D01*
X5562275Y36309524D01*
X5525880Y35940000D01*
X-14002839Y35940000D01*
X-14002839Y40640000D01*
X-12023394Y40640000D01*
X-11989895Y40299881D01*
X-11890686Y39972832D01*
X-11729579Y39671422D01*
X-11512766Y39407234D01*
X-11248578Y39190421D01*
X-10947168Y39029314D01*
X-10620119Y38930105D01*
X-10365225Y38905000D01*
X-9394775Y38905000D01*
X-9139881Y38930105D01*
X-8812832Y39029314D01*
X-8511422Y39190421D01*
X-8247234Y39407234D01*
X-8030421Y39671422D01*
X-7872966Y39966000D01*
X-7838072Y39966000D01*
X-7838072Y38266000D01*
X-7825812Y38141518D01*
X-7789502Y38021820D01*
X-7730537Y37911506D01*
X-7651185Y37814815D01*
X-7554494Y37735463D01*
X-7444180Y37676498D01*
X-7324482Y37640188D01*
X-7200000Y37627928D01*
X-5500000Y37627928D01*
X-5375518Y37640188D01*
X-5255820Y37676498D01*
X-5145506Y37735463D01*
X-5048815Y37814815D01*
X-4969463Y37911506D01*
X-4910498Y38021820D01*
X-4889607Y38090687D01*
X-4865134Y38060866D01*
X-4639014Y37875294D01*
X-4381034Y37737401D01*
X-4101111Y37652487D01*
X-3882950Y37631000D01*
X-3737050Y37631000D01*
X-3518889Y37652487D01*
X-3238966Y37737401D01*
X-2980986Y37875294D01*
X-2754866Y38060866D01*
X-2569294Y38286986D01*
X-2431401Y38544966D01*
X-2346487Y38824889D01*
X-2317815Y39116000D01*
X-2346487Y39407111D01*
X-2431401Y39687034D01*
X-2569294Y39945014D01*
X-2754866Y40171134D01*
X-2980986Y40356706D01*
X-3045523Y40391201D01*
X-2928645Y40460822D01*
X-2729865Y40640000D01*
X-2423394Y40640000D01*
X-2389895Y40299881D01*
X-2290686Y39972832D01*
X-2129579Y39671422D01*
X-1912766Y39407234D01*
X-1648578Y39190421D01*
X-1347168Y39029314D01*
X-1020119Y38930105D01*
X-765225Y38905000D01*
X205225Y38905000D01*
X460119Y38930105D01*
X787168Y39029314D01*
X1088578Y39190421D01*
X1352766Y39407234D01*
X1569579Y39671422D01*
X1730686Y39972832D01*
X1829895Y40299881D01*
X1863394Y40640000D01*
X5525880Y40640000D01*
X5562275Y40270476D01*
X5670061Y39915152D01*
X5845097Y39587683D01*
X6080655Y39300655D01*
X6367683Y39065097D01*
X6695152Y38890061D01*
X7050476Y38782275D01*
X7327403Y38755000D01*
X7912597Y38755000D01*
X8189524Y38782275D01*
X8544848Y38890061D01*
X8872317Y39065097D01*
X9159345Y39300655D01*
X9394903Y39587683D01*
X9505324Y39794265D01*
X9561026Y39738563D01*
X9730544Y39625295D01*
X9918902Y39547274D01*
X10118861Y39507500D01*
X10322739Y39507500D01*
X10522698Y39547274D01*
X10711056Y39625295D01*
X10880574Y39738563D01*
X11024737Y39882726D01*
X11138005Y40052244D01*
X11216026Y40240602D01*
X11255800Y40440561D01*
X11255800Y40644439D01*
X11216026Y40844398D01*
X11138005Y41032756D01*
X11024737Y41202274D01*
X10880574Y41346437D01*
X10711056Y41459705D01*
X10522698Y41537726D01*
X10322739Y41577500D01*
X10118861Y41577500D01*
X9918902Y41537726D01*
X9730544Y41459705D01*
X9573081Y41354492D01*
X9569939Y41364848D01*
X9394903Y41692317D01*
X9159345Y41979345D01*
X8872317Y42214903D01*
X8544848Y42389939D01*
X8189524Y42497725D01*
X7912597Y42525000D01*
X7327403Y42525000D01*
X7050476Y42497725D01*
X6695152Y42389939D01*
X6367683Y42214903D01*
X6080655Y41979345D01*
X5845097Y41692317D01*
X5670061Y41364848D01*
X5562275Y41009524D01*
X5525880Y40640000D01*
X1863394Y40640000D01*
X1829895Y40980119D01*
X1730686Y41307168D01*
X1569579Y41608578D01*
X1352766Y41872766D01*
X1088578Y42089579D01*
X787168Y42250686D01*
X460119Y42349895D01*
X205225Y42375000D01*
X-765225Y42375000D01*
X-1020119Y42349895D01*
X-1347168Y42250686D01*
X-1648578Y42089579D01*
X-1912766Y41872766D01*
X-2129579Y41608578D01*
X-2290686Y41307168D01*
X-2389895Y40980119D01*
X-2423394Y40640000D01*
X-2729865Y40640000D01*
X-2712412Y40655731D01*
X-2538359Y40889080D01*
X-2413175Y41151901D01*
X-2368524Y41299110D01*
X-2489845Y41529000D01*
X-3683000Y41529000D01*
X-3683000Y41509000D01*
X-3937000Y41509000D01*
X-3937000Y41529000D01*
X-6223000Y41529000D01*
X-6223000Y41509000D01*
X-6477000Y41509000D01*
X-6477000Y41529000D01*
X-7670155Y41529000D01*
X-7791476Y41299110D01*
X-7746825Y41151901D01*
X-7621641Y40889080D01*
X-7447588Y40655731D01*
X-7363534Y40579966D01*
X-7444180Y40555502D01*
X-7554494Y40496537D01*
X-7651185Y40417185D01*
X-7730537Y40320494D01*
X-7789502Y40210180D01*
X-7825812Y40090482D01*
X-7838072Y39966000D01*
X-7872966Y39966000D01*
X-7869314Y39972832D01*
X-7770105Y40299881D01*
X-7736606Y40640000D01*
X-7770105Y40980119D01*
X-7869314Y41307168D01*
X-8030421Y41608578D01*
X-8247234Y41872766D01*
X-8511422Y42089579D01*
X-8812832Y42250686D01*
X-9139881Y42349895D01*
X-9394775Y42375000D01*
X-9904712Y42375000D01*
X-9897302Y42376474D01*
X-9708944Y42454495D01*
X-9539426Y42567763D01*
X-9395263Y42711926D01*
X-9281995Y42881444D01*
X-9203974Y43069802D01*
X-9164200Y43269761D01*
X-9164200Y43473639D01*
X-9203974Y43673598D01*
X-9272531Y43839110D01*
X-7791476Y43839110D01*
X-7746825Y43691901D01*
X-7621641Y43429080D01*
X-7447588Y43195731D01*
X-7231355Y43000822D01*
X-7105745Y42926000D01*
X-7231355Y42851178D01*
X-7447588Y42656269D01*
X-7621641Y42422920D01*
X-7746825Y42160099D01*
X-7791476Y42012890D01*
X-7670155Y41783000D01*
X-6477000Y41783000D01*
X-6477000Y44069000D01*
X-6223000Y44069000D01*
X-6223000Y41783000D01*
X-3937000Y41783000D01*
X-3937000Y44069000D01*
X-3683000Y44069000D01*
X-3683000Y41783000D01*
X-2489845Y41783000D01*
X-2368524Y42012890D01*
X-2413175Y42160099D01*
X-2538359Y42422920D01*
X-2712412Y42656269D01*
X-2928645Y42851178D01*
X-3054255Y42926000D01*
X-2928645Y43000822D01*
X-2712412Y43195731D01*
X-2538359Y43429080D01*
X-2413175Y43691901D01*
X-2368524Y43839110D01*
X-2489845Y44069000D01*
X-3683000Y44069000D01*
X-3937000Y44069000D01*
X-6223000Y44069000D01*
X-6477000Y44069000D01*
X-7670155Y44069000D01*
X-7791476Y43839110D01*
X-9272531Y43839110D01*
X-9281995Y43861956D01*
X-9395263Y44031474D01*
X-9539426Y44175637D01*
X-9708944Y44288905D01*
X-9897302Y44366926D01*
X-10097261Y44406700D01*
X-10301139Y44406700D01*
X-10501098Y44366926D01*
X-10689456Y44288905D01*
X-10858974Y44175637D01*
X-11003137Y44031474D01*
X-11116405Y43861956D01*
X-11194426Y43673598D01*
X-11234200Y43473639D01*
X-11234200Y43269761D01*
X-11194426Y43069802D01*
X-11116405Y42881444D01*
X-11003137Y42711926D01*
X-10858974Y42567763D01*
X-10689456Y42454495D01*
X-10501098Y42376474D01*
X-10451144Y42366538D01*
X-10620119Y42349895D01*
X-10947168Y42250686D01*
X-11248578Y42089579D01*
X-11512766Y41872766D01*
X-11729579Y41608578D01*
X-11890686Y41307168D01*
X-11989895Y40980119D01*
X-12023394Y40640000D01*
X-14002839Y40640000D01*
X-14002839Y46379110D01*
X-7791476Y46379110D01*
X-7746825Y46231901D01*
X-7621641Y45969080D01*
X-7447588Y45735731D01*
X-7231355Y45540822D01*
X-7105745Y45466000D01*
X-7231355Y45391178D01*
X-7447588Y45196269D01*
X-7621641Y44962920D01*
X-7746825Y44700099D01*
X-7791476Y44552890D01*
X-7670155Y44323000D01*
X-6477000Y44323000D01*
X-6477000Y46609000D01*
X-6223000Y46609000D01*
X-6223000Y44323000D01*
X-3937000Y44323000D01*
X-3937000Y46609000D01*
X-3683000Y46609000D01*
X-3683000Y44323000D01*
X-2489845Y44323000D01*
X-2368524Y44552890D01*
X-2413175Y44700099D01*
X-2538359Y44962920D01*
X-2712412Y45196269D01*
X-2928645Y45391178D01*
X-3054255Y45466000D01*
X-2928645Y45540822D01*
X-2712412Y45735731D01*
X-2538359Y45969080D01*
X-2413175Y46231901D01*
X-2368524Y46379110D01*
X-2489845Y46609000D01*
X-3683000Y46609000D01*
X-3937000Y46609000D01*
X-6223000Y46609000D01*
X-6477000Y46609000D01*
X-7670155Y46609000D01*
X-7791476Y46379110D01*
X-14002839Y46379110D01*
X-14002839Y49276000D01*
X-7842185Y49276000D01*
X-7813513Y48984889D01*
X-7728599Y48704966D01*
X-7590706Y48446986D01*
X-7405134Y48220866D01*
X-7179014Y48035294D01*
X-7114477Y48000799D01*
X-7231355Y47931178D01*
X-7447588Y47736269D01*
X-7621641Y47502920D01*
X-7746825Y47240099D01*
X-7791476Y47092890D01*
X-7670155Y46863000D01*
X-6477000Y46863000D01*
X-6477000Y46883000D01*
X-6223000Y46883000D01*
X-6223000Y46863000D01*
X-3937000Y46863000D01*
X-3937000Y46883000D01*
X-3683000Y46883000D01*
X-3683000Y46863000D01*
X-2489845Y46863000D01*
X-2368524Y47092890D01*
X-2413175Y47240099D01*
X-2538359Y47502920D01*
X-2712412Y47736269D01*
X-2928645Y47931178D01*
X-3045523Y48000799D01*
X-2980986Y48035294D01*
X-2909527Y48093939D01*
X-1303000Y48093939D01*
X-1303000Y47890061D01*
X-1263226Y47690102D01*
X-1185205Y47501744D01*
X-1071937Y47332226D01*
X-927774Y47188063D01*
X-805706Y47106500D01*
X-927774Y47024937D01*
X-1071937Y46880774D01*
X-1185205Y46711256D01*
X-1263226Y46522898D01*
X-1303000Y46322939D01*
X-1303000Y46119061D01*
X-1263226Y45919102D01*
X-1185205Y45730744D01*
X-1071937Y45561226D01*
X-927774Y45417063D01*
X-758256Y45303795D01*
X-569898Y45225774D01*
X-369939Y45186000D01*
X-166061Y45186000D01*
X33898Y45225774D01*
X222256Y45303795D01*
X276440Y45340000D01*
X5525880Y45340000D01*
X5562275Y44970476D01*
X5670061Y44615152D01*
X5845097Y44287683D01*
X6080655Y44000655D01*
X6367683Y43765097D01*
X6695152Y43590061D01*
X7050476Y43482275D01*
X7327403Y43455000D01*
X7912597Y43455000D01*
X8189524Y43482275D01*
X8544848Y43590061D01*
X8872317Y43765097D01*
X9159345Y44000655D01*
X9394903Y44287683D01*
X9569939Y44615152D01*
X9677725Y44970476D01*
X9714120Y45340000D01*
X9677725Y45709524D01*
X9605100Y45948939D01*
X11284000Y45948939D01*
X11284000Y45745061D01*
X11323774Y45545102D01*
X11401795Y45356744D01*
X11413651Y45339000D01*
X11401795Y45321256D01*
X11323774Y45132898D01*
X11284000Y44932939D01*
X11284000Y44729061D01*
X11323774Y44529102D01*
X11401795Y44340744D01*
X11515063Y44171226D01*
X11659226Y44027063D01*
X11828744Y43913795D01*
X12017102Y43835774D01*
X12217061Y43796000D01*
X12420939Y43796000D01*
X12620898Y43835774D01*
X12809256Y43913795D01*
X12978774Y44027063D01*
X13122937Y44171226D01*
X13236205Y44340744D01*
X13314226Y44529102D01*
X13354000Y44729061D01*
X13354000Y44932939D01*
X13314226Y45132898D01*
X13236205Y45321256D01*
X13224349Y45339000D01*
X13236205Y45356744D01*
X13314226Y45545102D01*
X13354000Y45745061D01*
X13354000Y45948939D01*
X13314226Y46148898D01*
X13236205Y46337256D01*
X13122937Y46506774D01*
X12978774Y46650937D01*
X12809256Y46764205D01*
X12620898Y46842226D01*
X12420939Y46882000D01*
X12217061Y46882000D01*
X12017102Y46842226D01*
X11828744Y46764205D01*
X11659226Y46650937D01*
X11515063Y46506774D01*
X11401795Y46337256D01*
X11323774Y46148898D01*
X11284000Y45948939D01*
X9605100Y45948939D01*
X9569939Y46064848D01*
X9394903Y46392317D01*
X9159345Y46679345D01*
X8872317Y46914903D01*
X8544848Y47089939D01*
X8189524Y47197725D01*
X7912597Y47225000D01*
X7327403Y47225000D01*
X7050476Y47197725D01*
X6695152Y47089939D01*
X6367683Y46914903D01*
X6080655Y46679345D01*
X5845097Y46392317D01*
X5670061Y46064848D01*
X5562275Y45709524D01*
X5525880Y45340000D01*
X276440Y45340000D01*
X391774Y45417063D01*
X535937Y45561226D01*
X649205Y45730744D01*
X727226Y45919102D01*
X767000Y46119061D01*
X767000Y46322939D01*
X727226Y46522898D01*
X649205Y46711256D01*
X535937Y46880774D01*
X391774Y47024937D01*
X269706Y47106500D01*
X391774Y47188063D01*
X535937Y47332226D01*
X649205Y47501744D01*
X727226Y47690102D01*
X767000Y47890061D01*
X767000Y48093939D01*
X727226Y48293898D01*
X649205Y48482256D01*
X535937Y48651774D01*
X391774Y48795937D01*
X222256Y48909205D01*
X33898Y48987226D01*
X-166061Y49027000D01*
X-369939Y49027000D01*
X-569898Y48987226D01*
X-758256Y48909205D01*
X-927774Y48795937D01*
X-1071937Y48651774D01*
X-1185205Y48482256D01*
X-1263226Y48293898D01*
X-1303000Y48093939D01*
X-2909527Y48093939D01*
X-2754866Y48220866D01*
X-2569294Y48446986D01*
X-2431401Y48704966D01*
X-2346487Y48984889D01*
X-2317815Y49276000D01*
X-2346487Y49567111D01*
X-2431401Y49847034D01*
X-2569294Y50105014D01*
X-2754866Y50331134D01*
X-2980986Y50516706D01*
X-3238966Y50654599D01*
X-3518889Y50739513D01*
X-3737050Y50761000D01*
X-3882950Y50761000D01*
X-4101111Y50739513D01*
X-4381034Y50654599D01*
X-4639014Y50516706D01*
X-4865134Y50331134D01*
X-5050706Y50105014D01*
X-5080000Y50050209D01*
X-5109294Y50105014D01*
X-5294866Y50331134D01*
X-5520986Y50516706D01*
X-5778966Y50654599D01*
X-6058889Y50739513D01*
X-6277050Y50761000D01*
X-6422950Y50761000D01*
X-6641111Y50739513D01*
X-6921034Y50654599D01*
X-7179014Y50516706D01*
X-7405134Y50331134D01*
X-7590706Y50105014D01*
X-7728599Y49847034D01*
X-7813513Y49567111D01*
X-7842185Y49276000D01*
X-14002839Y49276000D01*
X-14002839Y52513560D01*
X14007161Y52513560D01*
X14007161Y1270193D01*
G04 #@! TD*
M02*
